<svg width="49" height="48" viewBox="0 0 49 48" fill="none" xmlns="http://www.w3.org/2000/svg">
<rect x="0.666748" width="48" height="48" rx="24" fill="url(#paint0_radial_7425_5944)"/>
<path d="M33.7231 16.8655C33.2147 16.295 32.5946 15.8351 31.9012 15.5141C31.2077 15.1932 30.4557 15.0182 29.6918 14.9999C28.9286 14.9832 28.1699 15.1207 27.4611 15.4042C26.7522 15.6877 26.108 16.1114 25.5668 16.6499L24.6668 17.5405L23.9637 16.8468C21.7793 14.653 18.2168 14.4655 16.0325 16.4436C15.464 16.9536 15.0055 17.5742 14.685 18.2674C14.3646 18.9606 14.1889 19.7119 14.1687 20.4754C14.1485 21.2388 14.2843 21.9983 14.5677 22.7075C14.851 23.4167 15.2761 24.0606 15.8168 24.5999L23.6075 32.3905C23.7461 32.5305 23.9111 32.6417 24.0929 32.7176C24.2747 32.7934 24.4698 32.8325 24.6668 32.8325C24.8639 32.8325 25.0589 32.7934 25.2408 32.7176C25.4226 32.6417 25.5876 32.5305 25.7262 32.3905L33.32 24.7968C35.5137 22.6124 35.6918 19.0499 33.7231 16.8655Z" fill="white"/>
<defs>
<radialGradient id="paint0_radial_7425_5944" cx="0" cy="0" r="1" gradientUnits="userSpaceOnUse" gradientTransform="translate(24.8267 48) rotate(-90) scale(48 29.8646)">
<stop offset="0.200489" stop-color="#6D7A97"/>
<stop offset="0.822031" stop-color="#0E121B"/>
</radialGradient>
</defs>
</svg>
