<svg width="49" height="48" viewBox="0 0 49 48" fill="none" xmlns="http://www.w3.org/2000/svg">
<rect x="0.333496" width="48" height="48" rx="24" fill="url(#paint0_radial_7425_5951)"/>
<path d="M31.8335 15.75H16.8335C16.4357 15.75 16.0541 15.908 15.7728 16.1893C15.4915 16.4706 15.3335 16.8522 15.3335 17.25V22.7531C15.3335 31.1344 22.4397 33.9188 23.8647 34.3875C24.1692 34.4877 24.4978 34.4877 24.8022 34.3875C26.2272 33.9188 33.3335 31.1344 33.3335 22.7531V17.25C33.3335 16.8522 33.1755 16.4706 32.8942 16.1893C32.6129 15.908 32.2313 15.75 31.8335 15.75ZM28.9741 22.2938L23.4804 27.5438C23.3383 27.6774 23.1504 27.7512 22.9554 27.75C22.7633 27.7507 22.5784 27.6768 22.4397 27.5438L19.6929 24.9188C19.6167 24.8523 19.5547 24.7711 19.5107 24.6801C19.4667 24.589 19.4416 24.49 19.4368 24.389C19.432 24.2881 19.4477 24.1871 19.4829 24.0924C19.5181 23.9976 19.5721 23.9109 19.6417 23.8375C19.7113 23.7642 19.795 23.7056 19.8878 23.6654C19.9805 23.6252 20.0805 23.6042 20.1816 23.6036C20.2827 23.603 20.3829 23.6229 20.4761 23.662C20.5693 23.7011 20.6537 23.7587 20.7241 23.8312L22.9554 25.9594L27.9429 21.2062C28.0887 21.079 28.2781 21.0131 28.4714 21.0222C28.6647 21.0314 28.847 21.1149 28.9802 21.2553C29.1133 21.3958 29.187 21.5822 29.1859 21.7758C29.1848 21.9693 29.1089 22.1549 28.9741 22.2938Z" fill="white"/>
<defs>
<radialGradient id="paint0_radial_7425_5951" cx="0" cy="0" r="1" gradientUnits="userSpaceOnUse" gradientTransform="translate(24.4935 48) rotate(-90) scale(48 29.8646)">
<stop offset="0.200489" stop-color="#6D7A97"/>
<stop offset="0.822031" stop-color="#0E121B"/>
</radialGradient>
</defs>
</svg>
