<svg width="48" height="48" viewBox="0 0 48 48" fill="none" xmlns="http://www.w3.org/2000/svg">
<rect width="48" height="48" rx="24" fill="url(#paint0_radial_7425_5937)"/>
<path d="M33.7406 31.8749C32.3412 29.4642 30.1011 27.6548 27.45 26.7937C28.7207 26.038 29.7082 24.886 30.2608 23.5147C30.8134 22.1434 30.9004 20.6286 30.5086 19.203C30.1167 17.7774 29.2677 16.5199 28.0918 15.6236C26.916 14.7274 25.4784 14.2419 24 14.2419C22.5215 14.2419 21.0839 14.7274 19.9081 15.6236C18.7323 16.5199 17.8832 17.7774 17.4914 19.203C17.0995 20.6286 17.1866 22.1434 17.7391 23.5147C18.2917 24.886 19.2792 26.038 20.55 26.7937C17.8988 27.6548 15.6588 29.4642 14.2593 31.8749C14.1906 31.9879 14.1543 32.1177 14.1543 32.2499C14.1543 32.3822 14.1906 32.5119 14.2593 32.6249C14.3234 32.7398 14.4174 32.8353 14.5312 32.9014C14.6451 32.9674 14.7746 33.0014 14.9062 32.9999H33.0937C33.2253 33.0014 33.3549 32.9674 33.4687 32.9014C33.5826 32.8353 33.6765 32.7398 33.7406 32.6249C33.8093 32.5119 33.8456 32.3822 33.8456 32.2499C33.8456 32.1177 33.8093 31.9879 33.7406 31.8749Z" fill="white"/>
<defs>
<radialGradient id="paint0_radial_7425_5937" cx="0" cy="0" r="1" gradientUnits="userSpaceOnUse" gradientTransform="translate(24.16 48) rotate(-90) scale(48 29.8646)">
<stop offset="0.200489" stop-color="#6D7A97"/>
<stop offset="0.822031" stop-color="#0E121B"/>
</radialGradient>
</defs>
</svg>
