<svg width="454" height="440" viewBox="0 0 454 440" fill="none" xmlns="http://www.w3.org/2000/svg">
<g clip-path="url(#clip0_7841_8772)">
<rect width="454" height="440" rx="20" fill="#E1F7ED"/>
<g filter="url(#filter0_f_7841_8772)">
<path d="M0 478H454V445C454 319.631 352.369 218 227 218C101.631 218 0 319.631 0 445V478Z" fill="#6BF4C7"/>
</g>
<mask id="mask0_7841_8772" style="mask-type:alpha" maskUnits="userSpaceOnUse" x="-294" y="-29" width="1042" height="497">
<rect x="748" y="468" width="1042" height="497" transform="rotate(-180 748 468)" fill="url(#paint0_radial_7841_8772)"/>
</mask>
<g mask="url(#mask0_7841_8772)">
<path d="M507 423L427 468L427 393L507 348L507 423Z" stroke="#47D8A9" stroke-width="2"/>
<path d="M427 423L347 468L347 393L427 348L427 423Z" stroke="#47D8A9" stroke-width="2"/>
<path d="M347 423L267 468L267 393L347 348L347 423Z" stroke="#47D8A9" stroke-width="2"/>
<path d="M267 423L187 468L187 393L267 348L267 423Z" stroke="#47D8A9" stroke-width="2"/>
<path d="M187 423L107 468L107 393L187 348L187 423Z" stroke="#47D8A9" stroke-width="2"/>
<path d="M107 423L27 468L27 393L107 348L107 423Z" stroke="#47D8A9" stroke-width="2"/>
<path d="M27 423L-53 468L-53 393L27 348L27 423Z" stroke="#47D8A9" stroke-width="2"/>
<path d="M507 348L427 393L427 318L507 273L507 348Z" stroke="#47D8A9" stroke-width="2"/>
<path d="M427 348L347 393L347 318L427 273L427 348Z" stroke="#47D8A9" stroke-width="2"/>
<path d="M347 348L267 393L267 318L347 273L347 348Z" stroke="#47D8A9" stroke-width="2"/>
<path d="M267 348L187 393L187 318L267 273L267 348Z" stroke="#47D8A9" stroke-width="2"/>
<path d="M187 348L107 393L107 318L187 273L187 348Z" stroke="#47D8A9" stroke-width="2"/>
<path d="M107 348L27 393L27 318L107 273L107 348Z" stroke="#47D8A9" stroke-width="2"/>
<path d="M27 348L-53 393L-53 318L27 273L27 348Z" stroke="#47D8A9" stroke-width="2"/>
<path d="M507 273L427 318L427 243L507 198L507 273Z" stroke="#47D8A9" stroke-width="2"/>
<path d="M427 273L347 318L347 243L427 198L427 273Z" stroke="#47D8A9" stroke-width="2"/>
<path d="M347 273L267 318L267 243L347 198L347 273Z" stroke="#47D8A9" stroke-width="2"/>
<path d="M267 273L187 318L187 243L267 198L267 273Z" stroke="#47D8A9" stroke-width="2"/>
<path d="M187 273L107 318L107 243L187 198L187 273Z" stroke="#47D8A9" stroke-width="2"/>
<path d="M107 273L27 318L27 243L107 198L107 273Z" stroke="#47D8A9" stroke-width="2"/>
<path d="M27 273L-53 318L-53 243L27 198L27 273Z" stroke="#47D8A9" stroke-width="2"/>
<path d="M507 198L427 243L427 168L507 123L507 198Z" stroke="#47D8A9" stroke-width="2"/>
<path d="M427 198L347 243L347 168L427 123L427 198Z" stroke="#47D8A9" stroke-width="2"/>
<path d="M347 198L267 243L267 168L347 123L347 198Z" stroke="#47D8A9" stroke-width="2"/>
<path d="M267 198L187 243L187 168L267 123L267 198Z" stroke="#47D8A9" stroke-width="2"/>
<path d="M187 198L107 243L107 168L187 123L187 198Z" stroke="#47D8A9" stroke-width="2"/>
<path d="M107 198L27 243L27 168L107 123L107 198Z" stroke="#47D8A9" stroke-width="2"/>
<path d="M27 198L-53 243L-53 168L27 123L27 198Z" stroke="#47D8A9" stroke-width="2"/>
<path d="M507 123L427 168L427 93L507 48L507 123Z" stroke="#47D8A9" stroke-width="2"/>
<path d="M427 123L347 168L347 93L427 48L427 123Z" stroke="#47D8A9" stroke-width="2"/>
<path d="M347 123L267 168L267 93L347 48L347 123Z" stroke="#47D8A9" stroke-width="2"/>
<path d="M267 123L187 168L187 93L267 48L267 123Z" stroke="#47D8A9" stroke-width="2"/>
<path d="M187 123L107 168L107 93L187 48L187 123Z" stroke="#47D8A9" stroke-width="2"/>
<path d="M107 123L27 168L27 93L107 48L107 123Z" stroke="#47D8A9" stroke-width="2"/>
<path d="M27 123L-53 168L-53 93L27 48L27 123Z" stroke="#47D8A9" stroke-width="2"/>
<path d="M507 48L427 93L427 18L507 -27L507 48Z" stroke="#47D8A9" stroke-width="2"/>
<path d="M427 48L347 93L347 18L427 -27L427 48Z" stroke="#47D8A9" stroke-width="2"/>
<path d="M347 48L267 93L267 18L347 -27L347 48Z" stroke="#47D8A9" stroke-width="2"/>
<path d="M267 48L187 93L187 18L267 -27L267 48Z" stroke="#47D8A9" stroke-width="2"/>
<path d="M187 48L107 93L107 18L187 -27L187 48Z" stroke="#47D8A9" stroke-width="2"/>
<path d="M107 48L27.0001 93L27.0001 18L107 -27L107 48Z" stroke="#47D8A9" stroke-width="2"/>
<path d="M27.0001 48L-52.9999 93L-52.9999 18L27.0001 -27L27.0001 48Z" stroke="#47D8A9" stroke-width="2"/>
</g>
<rect x="107.5" y="68.5" width="239" height="59" rx="19.5" fill="white" fill-opacity="0.4"/>
<rect x="107.5" y="68.5" width="239" height="59" rx="19.5" stroke="white"/>
<g filter="url(#filter1_d_7841_8772)">
<rect x="115" y="76" width="224" height="44" rx="12" fill="white"/>
<rect x="116" y="77" width="222" height="42" rx="11" stroke="#4F63CC" stroke-width="2"/>
<rect x="127.5" y="91.5" width="13" height="13" rx="3.5" fill="white" stroke="#D1D5DB"/>
<rect x="153" y="88" width="20" height="20" rx="6" fill="#F06225"/>
<g clip-path="url(#clip1_7841_8772)">
<path d="M163 93C165.761 93 168 95.2385 168 98V101.5C168 101.898 167.842 102.279 167.561 102.561C167.279 102.842 166.898 103 166.5 103H163.25V100.806C163.25 100.306 163.28 99.7875 163.543 99.3615C163.731 99.0562 163.982 98.7949 164.28 98.5953C164.578 98.3957 164.915 98.2625 165.269 98.2048L165.365 98.1892C165.404 98.1758 165.438 98.1503 165.463 98.1163C165.487 98.0824 165.5 98.0417 165.5 98C165.5 97.9583 165.487 97.9176 165.463 97.8837C165.438 97.8497 165.404 97.8242 165.365 97.8108L165.269 97.7952C164.752 97.7108 164.275 97.4661 163.904 97.0957C163.534 96.7253 163.289 96.248 163.205 95.731L163.189 95.6353C163.176 95.5958 163.15 95.5615 163.116 95.5372C163.082 95.513 163.042 95.4999 163 95.4999C162.958 95.4999 162.918 95.513 162.884 95.5372C162.85 95.5615 162.824 95.5958 162.811 95.6353L162.795 95.731C162.737 96.0848 162.604 96.4221 162.405 96.7199C162.205 97.0177 161.944 97.2691 161.638 97.457C161.212 97.7195 160.694 97.75 160.193 97.75H158.006C158.137 95.1047 160.322 93 163 93Z" fill="white"/>
<path d="M158 98.25H160.194C160.694 98.25 161.213 98.2805 161.638 98.543C161.971 98.7482 162.252 99.0285 162.457 99.3615C162.719 99.7875 162.75 100.306 162.75 100.806V103H159.5C159.102 103 158.721 102.842 158.439 102.561C158.158 102.279 158 101.898 158 101.5V98.25ZM168 93.5C168 93.6326 167.947 93.7598 167.854 93.8536C167.76 93.9473 167.633 94 167.5 94C167.367 94 167.24 93.9473 167.146 93.8536C167.053 93.7598 167 93.6326 167 93.5C167 93.3674 167.053 93.2402 167.146 93.1464C167.24 93.0527 167.367 93 167.5 93C167.633 93 167.76 93.0527 167.854 93.1464C167.947 93.2402 168 93.3674 168 93.5Z" fill="white"/>
</g>
<path d="M189.375 103H186.233V92.8182H189.514C190.502 92.8182 191.347 93.022 192.05 93.4297C192.752 93.834 193.291 94.4157 193.665 95.1747C194.04 95.9304 194.227 96.8352 194.227 97.8892C194.227 98.9498 194.038 99.8629 193.661 100.629C193.283 101.391 192.732 101.978 192.01 102.388C191.287 102.796 190.409 103 189.375 103ZM187.466 101.906H189.295C190.137 101.906 190.835 101.744 191.388 101.419C191.942 101.094 192.355 100.632 192.626 100.032C192.898 99.4321 193.034 98.7178 193.034 97.8892C193.034 97.0672 192.9 96.3596 192.631 95.7663C192.363 95.1697 191.962 94.7124 191.428 94.3942C190.895 94.0727 190.23 93.9119 189.435 93.9119H187.466V101.906ZM199.338 103.159C198.602 103.159 197.968 102.997 197.434 102.672C196.904 102.344 196.494 101.886 196.206 101.3C195.921 100.71 195.778 100.024 195.778 99.2415C195.778 98.4593 195.921 97.7699 196.206 97.1733C196.494 96.5734 196.895 96.1061 197.409 95.7713C197.926 95.4332 198.529 95.2642 199.219 95.2642C199.616 95.2642 200.009 95.3305 200.397 95.4631C200.785 95.5956 201.138 95.8111 201.456 96.1094C201.774 96.4044 202.028 96.7955 202.217 97.2827C202.406 97.7699 202.5 98.3698 202.5 99.0824V99.5795H196.614V98.5653H201.307C201.307 98.1345 201.221 97.75 201.048 97.4119C200.879 97.0739 200.637 96.8071 200.322 96.6115C200.011 96.416 199.643 96.3182 199.219 96.3182C198.751 96.3182 198.347 96.4342 198.006 96.6662C197.668 96.8949 197.407 97.1932 197.225 97.5611C197.043 97.929 196.952 98.3234 196.952 98.7443V99.4205C196.952 99.9972 197.051 100.486 197.25 100.887C197.452 101.285 197.732 101.588 198.09 101.797C198.448 102.002 198.864 102.105 199.338 102.105C199.646 102.105 199.925 102.062 200.173 101.976C200.425 101.886 200.642 101.754 200.825 101.578C201.007 101.399 201.148 101.177 201.247 100.912L202.381 101.23C202.261 101.615 202.061 101.953 201.779 102.244C201.497 102.533 201.149 102.758 200.735 102.92C200.321 103.08 199.855 103.159 199.338 103.159ZM205.458 92.8182V103H204.285V92.8182H205.458ZM210.928 95.3636V96.358H206.971V95.3636H210.928ZM208.124 93.5341H209.297V100.812C209.297 101.144 209.345 101.393 209.442 101.558C209.541 101.721 209.667 101.83 209.819 101.886C209.975 101.939 210.139 101.966 210.312 101.966C210.441 101.966 210.547 101.959 210.63 101.946C210.713 101.929 210.779 101.916 210.829 101.906L211.067 102.96C210.988 102.99 210.877 103.02 210.734 103.05C210.592 103.083 210.411 103.099 210.192 103.099C209.861 103.099 209.536 103.028 209.218 102.886C208.903 102.743 208.641 102.526 208.432 102.234C208.227 101.943 208.124 101.575 208.124 101.131V93.5341ZM214.94 103.179C214.456 103.179 214.017 103.088 213.623 102.906C213.228 102.72 212.915 102.453 212.683 102.105C212.451 101.754 212.335 101.33 212.335 100.832C212.335 100.395 212.421 100.04 212.594 99.7685C212.766 99.4934 212.996 99.2779 213.285 99.1222C213.573 98.9664 213.891 98.8504 214.239 98.7741C214.59 98.6946 214.943 98.6316 215.298 98.5852C215.762 98.5256 216.138 98.4808 216.427 98.451C216.718 98.4179 216.93 98.3632 217.063 98.2869C217.199 98.2107 217.267 98.0781 217.267 97.8892V97.8494C217.267 97.3589 217.133 96.9777 216.864 96.706C216.599 96.4342 216.196 96.2983 215.656 96.2983C215.096 96.2983 214.657 96.4209 214.339 96.6662C214.02 96.9115 213.797 97.1733 213.667 97.4517L212.554 97.054C212.753 96.59 213.018 96.2287 213.349 95.9702C213.684 95.7083 214.049 95.526 214.443 95.4233C214.841 95.3172 215.232 95.2642 215.616 95.2642C215.862 95.2642 216.143 95.294 216.461 95.3537C216.783 95.41 217.093 95.5277 217.391 95.7067C217.693 95.8857 217.943 96.1558 218.142 96.517C218.341 96.8783 218.44 97.3622 218.44 97.9688V103H217.267V101.966H217.207C217.128 102.132 216.995 102.309 216.809 102.498C216.624 102.687 216.377 102.848 216.069 102.98C215.76 103.113 215.384 103.179 214.94 103.179ZM215.119 102.125C215.583 102.125 215.974 102.034 216.292 101.852C216.614 101.669 216.856 101.434 217.018 101.146C217.184 100.857 217.267 100.554 217.267 100.236V99.1619C217.217 99.2216 217.108 99.2763 216.939 99.326C216.773 99.3724 216.581 99.4138 216.362 99.4503C216.147 99.4834 215.936 99.5133 215.731 99.5398C215.528 99.563 215.364 99.5829 215.238 99.5994C214.934 99.6392 214.648 99.7038 214.383 99.7933C214.122 99.8795 213.909 100.01 213.747 100.186C213.588 100.358 213.508 100.594 213.508 100.892C213.508 101.3 213.659 101.608 213.961 101.817C214.266 102.022 214.652 102.125 215.119 102.125ZM225.911 92.8182V103H224.678V92.8182H225.911ZM229.398 98.4062V103H228.224V95.3636H229.358V96.5568H229.457C229.636 96.169 229.908 95.8575 230.273 95.6222C230.637 95.3835 231.108 95.2642 231.684 95.2642C232.202 95.2642 232.654 95.3703 233.042 95.5824C233.43 95.7912 233.731 96.1094 233.947 96.5369C234.162 96.9612 234.27 97.4981 234.27 98.1477V103H233.096V98.2273C233.096 97.6274 232.941 97.16 232.629 96.8253C232.318 96.4872 231.89 96.3182 231.346 96.3182C230.972 96.3182 230.637 96.3994 230.342 96.5618C230.05 96.7242 229.82 96.9612 229.651 97.2727C229.482 97.5843 229.398 97.9621 229.398 98.4062ZM237.587 98.4062V103H236.414V95.3636H237.547V96.5568H237.647C237.826 96.169 238.097 95.8575 238.462 95.6222C238.827 95.3835 239.297 95.2642 239.874 95.2642C240.391 95.2642 240.843 95.3703 241.231 95.5824C241.619 95.7912 241.921 96.1094 242.136 96.5369C242.351 96.9612 242.459 97.4981 242.459 98.1477V103H241.286V98.2273C241.286 97.6274 241.13 97.16 240.819 96.8253C240.507 96.4872 240.079 96.3182 239.536 96.3182C239.161 96.3182 238.827 96.3994 238.532 96.5618C238.24 96.7242 238.01 96.9612 237.841 97.2727C237.672 97.5843 237.587 97.9621 237.587 98.4062ZM247.705 103.159C247.016 103.159 246.411 102.995 245.891 102.667C245.374 102.339 244.969 101.88 244.678 101.29C244.389 100.7 244.245 100.01 244.245 99.2216C244.245 98.4261 244.389 97.7318 244.678 97.1385C244.969 96.5452 245.374 96.0845 245.891 95.7564C246.411 95.4283 247.016 95.2642 247.705 95.2642C248.395 95.2642 248.998 95.4283 249.515 95.7564C250.035 96.0845 250.44 96.5452 250.728 97.1385C251.02 97.7318 251.166 98.4261 251.166 99.2216C251.166 100.01 251.02 100.7 250.728 101.29C250.44 101.88 250.035 102.339 249.515 102.667C248.998 102.995 248.395 103.159 247.705 103.159ZM247.705 102.105C248.229 102.105 248.66 101.971 248.998 101.702C249.336 101.434 249.586 101.081 249.749 100.643C249.911 100.206 249.992 99.732 249.992 99.2216C249.992 98.7112 249.911 98.2356 249.749 97.7947C249.586 97.3539 249.336 96.9976 248.998 96.7259C248.66 96.4541 248.229 96.3182 247.705 96.3182C247.182 96.3182 246.751 96.4541 246.413 96.7259C246.075 96.9976 245.825 97.3539 245.662 97.7947C245.5 98.2356 245.419 98.7112 245.419 99.2216C245.419 99.732 245.5 100.206 245.662 100.643C245.825 101.081 246.075 101.434 246.413 101.702C246.751 101.971 247.182 102.105 247.705 102.105ZM258.928 95.3636L256.104 103H254.911L252.087 95.3636H253.359L255.467 101.449H255.547L257.655 95.3636H258.928ZM262.491 103.179C262.007 103.179 261.568 103.088 261.173 102.906C260.779 102.72 260.466 102.453 260.234 102.105C260.002 101.754 259.886 101.33 259.886 100.832C259.886 100.395 259.972 100.04 260.144 99.7685C260.317 99.4934 260.547 99.2779 260.835 99.1222C261.124 98.9664 261.442 98.8504 261.79 98.7741C262.141 98.6946 262.494 98.6316 262.849 98.5852C263.313 98.5256 263.689 98.4808 263.977 98.451C264.269 98.4179 264.481 98.3632 264.614 98.2869C264.75 98.2107 264.818 98.0781 264.818 97.8892V97.8494C264.818 97.3589 264.683 96.9777 264.415 96.706C264.15 96.4342 263.747 96.2983 263.207 96.2983C262.647 96.2983 262.208 96.4209 261.889 96.6662C261.571 96.9115 261.347 97.1733 261.218 97.4517L260.105 97.054C260.303 96.59 260.569 96.2287 260.9 95.9702C261.235 95.7083 261.599 95.526 261.994 95.4233C262.392 95.3172 262.783 95.2642 263.167 95.2642C263.412 95.2642 263.694 95.294 264.012 95.3537C264.334 95.41 264.644 95.5277 264.942 95.7067C265.244 95.8857 265.494 96.1558 265.693 96.517C265.892 96.8783 265.991 97.3622 265.991 97.9688V103H264.818V101.966H264.758C264.678 102.132 264.546 102.309 264.36 102.498C264.175 102.687 263.928 102.848 263.619 102.98C263.311 103.113 262.935 103.179 262.491 103.179ZM262.67 102.125C263.134 102.125 263.525 102.034 263.843 101.852C264.165 101.669 264.407 101.434 264.569 101.146C264.735 100.857 264.818 100.554 264.818 100.236V99.1619C264.768 99.2216 264.659 99.2763 264.49 99.326C264.324 99.3724 264.132 99.4138 263.913 99.4503C263.697 99.4834 263.487 99.5133 263.281 99.5398C263.079 99.563 262.915 99.5829 262.789 99.5994C262.484 99.6392 262.199 99.7038 261.934 99.7933C261.672 99.8795 261.46 100.01 261.298 100.186C261.139 100.358 261.059 100.594 261.059 100.892C261.059 101.3 261.21 101.608 261.512 101.817C261.816 102.022 262.203 102.125 262.67 102.125ZM271.453 95.3636V96.358H267.496V95.3636H271.453ZM268.65 93.5341H269.823V100.812C269.823 101.144 269.871 101.393 269.967 101.558C270.066 101.721 270.192 101.83 270.345 101.886C270.501 101.939 270.665 101.966 270.837 101.966C270.966 101.966 271.072 101.959 271.155 101.946C271.238 101.929 271.304 101.916 271.354 101.906L271.593 102.96C271.513 102.99 271.402 103.02 271.26 103.05C271.117 103.083 270.936 103.099 270.718 103.099C270.386 103.099 270.061 103.028 269.743 102.886C269.428 102.743 269.167 102.526 268.958 102.234C268.752 101.943 268.65 101.575 268.65 101.131V93.5341ZM273.218 103V95.3636H274.392V103H273.218ZM273.815 94.0909C273.586 94.0909 273.389 94.013 273.223 93.8572C273.061 93.7015 272.98 93.5142 272.98 93.2955C272.98 93.0767 273.061 92.8894 273.223 92.7337C273.389 92.5779 273.586 92.5 273.815 92.5C274.044 92.5 274.239 92.5779 274.402 92.7337C274.567 92.8894 274.65 93.0767 274.65 93.2955C274.65 93.5142 274.567 93.7015 274.402 93.8572C274.239 94.013 274.044 94.0909 273.815 94.0909ZM279.643 103.159C278.954 103.159 278.349 102.995 277.828 102.667C277.311 102.339 276.907 101.88 276.615 101.29C276.327 100.7 276.183 100.01 276.183 99.2216C276.183 98.4261 276.327 97.7318 276.615 97.1385C276.907 96.5452 277.311 96.0845 277.828 95.7564C278.349 95.4283 278.954 95.2642 279.643 95.2642C280.332 95.2642 280.936 95.4283 281.453 95.7564C281.973 96.0845 282.377 96.5452 282.666 97.1385C282.957 97.7318 283.103 98.4261 283.103 99.2216C283.103 100.01 282.957 100.7 282.666 101.29C282.377 101.88 281.973 102.339 281.453 102.667C280.936 102.995 280.332 103.159 279.643 103.159ZM279.643 102.105C280.167 102.105 280.597 101.971 280.936 101.702C281.274 101.434 281.524 101.081 281.686 100.643C281.849 100.206 281.93 99.732 281.93 99.2216C281.93 98.7112 281.849 98.2356 281.686 97.7947C281.524 97.3539 281.274 96.9976 280.936 96.7259C280.597 96.4541 280.167 96.3182 279.643 96.3182C279.119 96.3182 278.688 96.4541 278.35 96.7259C278.012 96.9976 277.762 97.3539 277.6 97.7947C277.437 98.2356 277.356 98.7112 277.356 99.2216C277.356 99.732 277.437 100.206 277.6 100.643C277.762 101.081 278.012 101.434 278.35 101.702C278.688 101.971 279.119 102.105 279.643 102.105ZM286.067 98.4062V103H284.894V95.3636H286.028V96.5568H286.127C286.306 96.169 286.578 95.8575 286.942 95.6222C287.307 95.3835 287.778 95.2642 288.354 95.2642C288.871 95.2642 289.324 95.3703 289.712 95.5824C290.099 95.7912 290.401 96.1094 290.616 96.5369C290.832 96.9612 290.94 97.4981 290.94 98.1477V103H289.766V98.2273C289.766 97.6274 289.611 97.16 289.299 96.8253C288.987 96.4872 288.56 96.3182 288.016 96.3182C287.642 96.3182 287.307 96.3994 287.012 96.5618C286.72 96.7242 286.49 96.9612 286.321 97.2727C286.152 97.5843 286.067 97.9621 286.067 98.4062ZM298.493 97.0739L297.439 97.3722C297.372 97.1965 297.275 97.0258 297.145 96.8601C297.019 96.6911 296.847 96.5518 296.628 96.4425C296.41 96.3331 296.13 96.2784 295.788 96.2784C295.321 96.2784 294.931 96.3861 294.62 96.6016C294.312 96.8137 294.157 97.0838 294.157 97.4119C294.157 97.7036 294.264 97.9339 294.476 98.103C294.688 98.272 295.019 98.4129 295.47 98.5256L296.604 98.804C297.286 98.9697 297.795 99.2232 298.13 99.5646C298.465 99.9027 298.632 100.339 298.632 100.872C298.632 101.31 298.506 101.701 298.254 102.045C298.006 102.39 297.657 102.662 297.21 102.861C296.763 103.06 296.242 103.159 295.649 103.159C294.87 103.159 294.225 102.99 293.715 102.652C293.205 102.314 292.881 101.82 292.746 101.17L293.859 100.892C293.965 101.303 294.166 101.611 294.461 101.817C294.759 102.022 295.148 102.125 295.629 102.125C296.176 102.125 296.61 102.009 296.932 101.777C297.256 101.542 297.419 101.26 297.419 100.932C297.419 100.667 297.326 100.445 297.14 100.266C296.955 100.083 296.67 99.9474 296.285 99.858L295.013 99.5597C294.313 99.3939 293.8 99.1371 293.471 98.7891C293.147 98.4377 292.984 97.9986 292.984 97.4716C292.984 97.0407 293.105 96.6596 293.347 96.3281C293.592 95.9967 293.925 95.7365 294.346 95.5476C294.771 95.3587 295.251 95.2642 295.788 95.2642C296.544 95.2642 297.137 95.4299 297.568 95.7614C298.002 96.0928 298.31 96.5303 298.493 97.0739Z" fill="#2B303B"/>
<path d="M300 88V109" stroke="black"/>
</g>
<rect x="107.5" y="144.5" width="239" height="231" rx="19.5" fill="white" fill-opacity="0.4"/>
<rect x="107.5" y="144.5" width="239" height="231" rx="19.5" stroke="white"/>
<g filter="url(#filter2_d_7841_8772)">
<rect x="115" y="152" width="224" height="44" rx="12" fill="white"/>
<rect x="116" y="153" width="222" height="42" rx="11" stroke="#4FAECC" stroke-width="2"/>
<path d="M136.426 172H135.193C135.12 171.645 134.993 171.334 134.81 171.065C134.631 170.797 134.413 170.571 134.154 170.389C133.899 170.204 133.616 170.064 133.304 169.972C132.992 169.879 132.668 169.832 132.33 169.832C131.713 169.832 131.155 169.988 130.654 170.3C130.157 170.611 129.761 171.07 129.466 171.677C129.174 172.283 129.028 173.027 129.028 173.909C129.028 174.791 129.174 175.535 129.466 176.141C129.761 176.748 130.157 177.207 130.654 177.518C131.155 177.83 131.713 177.986 132.33 177.986C132.668 177.986 132.992 177.939 133.304 177.847C133.616 177.754 133.899 177.616 134.154 177.434C134.413 177.248 134.631 177.021 134.81 176.753C134.993 176.481 135.12 176.17 135.193 175.818H136.426C136.333 176.339 136.164 176.804 135.919 177.215C135.674 177.626 135.369 177.976 135.004 178.264C134.64 178.549 134.23 178.766 133.776 178.915C133.326 179.065 132.843 179.139 132.33 179.139C131.461 179.139 130.689 178.927 130.013 178.503C129.337 178.079 128.805 177.475 128.417 176.693C128.029 175.911 127.835 174.983 127.835 173.909C127.835 172.835 128.029 171.907 128.417 171.125C128.805 170.343 129.337 169.74 130.013 169.315C130.689 168.891 131.461 168.679 132.33 168.679C132.843 168.679 133.326 168.754 133.776 168.903C134.23 169.052 134.64 169.271 135.004 169.559C135.369 169.844 135.674 170.192 135.919 170.603C136.164 171.011 136.333 171.476 136.426 172ZM140.507 179.179C140.023 179.179 139.584 179.088 139.189 178.906C138.795 178.72 138.481 178.453 138.249 178.105C138.017 177.754 137.901 177.33 137.901 176.832C137.901 176.395 137.988 176.04 138.16 175.768C138.332 175.493 138.563 175.278 138.851 175.122C139.139 174.966 139.458 174.85 139.806 174.774C140.157 174.695 140.51 174.632 140.865 174.585C141.329 174.526 141.705 174.481 141.993 174.451C142.285 174.418 142.497 174.363 142.629 174.287C142.765 174.211 142.833 174.078 142.833 173.889V173.849C142.833 173.359 142.699 172.978 142.431 172.706C142.165 172.434 141.763 172.298 141.222 172.298C140.662 172.298 140.223 172.421 139.905 172.666C139.587 172.911 139.363 173.173 139.234 173.452L138.12 173.054C138.319 172.59 138.584 172.229 138.916 171.97C139.25 171.708 139.615 171.526 140.009 171.423C140.407 171.317 140.798 171.264 141.183 171.264C141.428 171.264 141.71 171.294 142.028 171.354C142.349 171.41 142.659 171.528 142.958 171.707C143.259 171.886 143.509 172.156 143.708 172.517C143.907 172.878 144.007 173.362 144.007 173.969V179H142.833V177.966H142.774C142.694 178.132 142.561 178.309 142.376 178.498C142.19 178.687 141.943 178.848 141.635 178.98C141.327 179.113 140.951 179.179 140.507 179.179ZM140.686 178.125C141.15 178.125 141.541 178.034 141.859 177.852C142.18 177.669 142.422 177.434 142.585 177.146C142.75 176.857 142.833 176.554 142.833 176.236V175.162C142.784 175.222 142.674 175.276 142.505 175.326C142.339 175.372 142.147 175.414 141.928 175.45C141.713 175.483 141.503 175.513 141.297 175.54C141.095 175.563 140.931 175.583 140.805 175.599C140.5 175.639 140.215 175.704 139.95 175.793C139.688 175.879 139.476 176.01 139.313 176.186C139.154 176.358 139.075 176.594 139.075 176.892C139.075 177.3 139.226 177.608 139.527 177.817C139.832 178.022 140.218 178.125 140.686 178.125ZM149.469 171.364V172.358H145.512V171.364H149.469ZM146.665 169.534H147.838V176.812C147.838 177.144 147.886 177.393 147.983 177.558C148.082 177.721 148.208 177.83 148.36 177.886C148.516 177.939 148.68 177.966 148.853 177.966C148.982 177.966 149.088 177.959 149.171 177.946C149.254 177.929 149.32 177.916 149.37 177.906L149.608 178.96C149.529 178.99 149.418 179.02 149.275 179.05C149.133 179.083 148.952 179.099 148.733 179.099C148.402 179.099 148.077 179.028 147.759 178.886C147.444 178.743 147.182 178.526 146.973 178.234C146.768 177.943 146.665 177.575 146.665 177.131V169.534ZM154.354 179.159C153.618 179.159 152.983 178.997 152.45 178.672C151.919 178.344 151.51 177.886 151.222 177.3C150.937 176.71 150.794 176.024 150.794 175.241C150.794 174.459 150.937 173.77 151.222 173.173C151.51 172.573 151.911 172.106 152.425 171.771C152.942 171.433 153.545 171.264 154.234 171.264C154.632 171.264 155.025 171.33 155.413 171.463C155.8 171.596 156.153 171.811 156.472 172.109C156.79 172.404 157.043 172.795 157.232 173.283C157.421 173.77 157.516 174.37 157.516 175.082V175.58H151.629V174.565H156.322C156.322 174.134 156.236 173.75 156.064 173.412C155.895 173.074 155.653 172.807 155.338 172.612C155.027 172.416 154.659 172.318 154.234 172.318C153.767 172.318 153.363 172.434 153.021 172.666C152.683 172.895 152.423 173.193 152.241 173.561C152.058 173.929 151.967 174.323 151.967 174.744V175.42C151.967 175.997 152.067 176.486 152.266 176.887C152.468 177.285 152.748 177.588 153.106 177.797C153.464 178.002 153.88 178.105 154.354 178.105C154.662 178.105 154.94 178.062 155.189 177.976C155.441 177.886 155.658 177.754 155.84 177.578C156.022 177.399 156.163 177.177 156.263 176.912L157.396 177.23C157.277 177.615 157.076 177.953 156.795 178.244C156.513 178.533 156.165 178.758 155.751 178.92C155.336 179.08 154.871 179.159 154.354 179.159ZM162.383 182.023C161.816 182.023 161.329 181.95 160.921 181.804C160.513 181.661 160.174 181.473 159.902 181.237C159.634 181.005 159.42 180.757 159.261 180.491L160.195 179.835C160.301 179.974 160.436 180.134 160.598 180.312C160.76 180.495 160.982 180.652 161.264 180.785C161.549 180.921 161.922 180.989 162.383 180.989C162.999 180.989 163.508 180.839 163.909 180.541C164.31 180.243 164.511 179.776 164.511 179.139V177.588H164.411C164.325 177.727 164.202 177.9 164.043 178.105C163.888 178.307 163.662 178.488 163.367 178.647C163.076 178.803 162.681 178.881 162.184 178.881C161.567 178.881 161.014 178.735 160.523 178.443C160.036 178.152 159.65 177.727 159.365 177.17C159.083 176.614 158.942 175.937 158.942 175.142C158.942 174.36 159.08 173.679 159.355 173.099C159.63 172.515 160.013 172.065 160.504 171.746C160.994 171.425 161.561 171.264 162.204 171.264C162.701 171.264 163.095 171.347 163.387 171.513C163.682 171.675 163.907 171.861 164.063 172.07C164.222 172.275 164.345 172.444 164.431 172.577H164.55V171.364H165.684V179.219C165.684 179.875 165.535 180.409 165.237 180.82C164.942 181.234 164.544 181.537 164.043 181.729C163.546 181.925 162.993 182.023 162.383 182.023ZM162.343 177.827C162.814 177.827 163.211 177.719 163.536 177.504C163.861 177.288 164.108 176.978 164.277 176.574C164.446 176.17 164.531 175.686 164.531 175.122C164.531 174.572 164.448 174.086 164.282 173.665C164.116 173.245 163.871 172.915 163.546 172.676C163.221 172.437 162.82 172.318 162.343 172.318C161.846 172.318 161.432 172.444 161.1 172.696C160.772 172.948 160.525 173.286 160.359 173.71C160.197 174.134 160.116 174.605 160.116 175.122C160.116 175.652 160.199 176.121 160.364 176.529C160.533 176.933 160.782 177.252 161.11 177.484C161.442 177.712 161.853 177.827 162.343 177.827ZM170.934 179.159C170.245 179.159 169.64 178.995 169.119 178.667C168.602 178.339 168.198 177.88 167.906 177.29C167.618 176.7 167.474 176.01 167.474 175.222C167.474 174.426 167.618 173.732 167.906 173.138C168.198 172.545 168.602 172.085 169.119 171.756C169.64 171.428 170.245 171.264 170.934 171.264C171.623 171.264 172.227 171.428 172.744 171.756C173.264 172.085 173.668 172.545 173.957 173.138C174.248 173.732 174.394 174.426 174.394 175.222C174.394 176.01 174.248 176.7 173.957 177.29C173.668 177.88 173.264 178.339 172.744 178.667C172.227 178.995 171.623 179.159 170.934 179.159ZM170.934 178.105C171.458 178.105 171.888 177.971 172.227 177.702C172.565 177.434 172.815 177.081 172.977 176.643C173.14 176.206 173.221 175.732 173.221 175.222C173.221 174.711 173.14 174.236 172.977 173.795C172.815 173.354 172.565 172.998 172.227 172.726C171.888 172.454 171.458 172.318 170.934 172.318C170.41 172.318 169.979 172.454 169.641 172.726C169.303 172.998 169.053 173.354 168.891 173.795C168.728 174.236 168.647 174.711 168.647 175.222C168.647 175.732 168.728 176.206 168.891 176.643C169.053 177.081 169.303 177.434 169.641 177.702C169.979 177.971 170.41 178.105 170.934 178.105ZM176.185 179V171.364H177.319V172.517H177.398C177.537 172.139 177.789 171.833 178.154 171.597C178.519 171.362 178.93 171.244 179.387 171.244C179.473 171.244 179.581 171.246 179.71 171.249C179.839 171.253 179.937 171.258 180.003 171.264V172.457C179.964 172.447 179.872 172.433 179.73 172.413C179.591 172.389 179.443 172.378 179.287 172.378C178.916 172.378 178.585 172.456 178.293 172.612C178.005 172.764 177.776 172.976 177.607 173.248C177.441 173.516 177.358 173.823 177.358 174.168V179H176.185ZM182.382 181.864C182.183 181.864 182.006 181.847 181.85 181.814C181.695 181.784 181.587 181.754 181.527 181.724L181.825 180.69C182.11 180.763 182.362 180.79 182.581 180.77C182.8 180.75 182.994 180.652 183.163 180.477C183.335 180.304 183.493 180.024 183.635 179.636L183.854 179.04L181.03 171.364H182.303L184.411 177.449H184.49L186.598 171.364H187.871L184.629 180.114C184.484 180.508 184.303 180.835 184.088 181.093C183.872 181.355 183.622 181.549 183.337 181.675C183.055 181.801 182.737 181.864 182.382 181.864Z" fill="#717784"/>
<path d="M324.75 172.5L321 176.25L317.25 172.5" stroke="#0E121B" stroke-width="1.25" stroke-linecap="round" stroke-linejoin="round"/>
<path d="M127 164V185" stroke="black"/>
</g>
<g filter="url(#filter3_d_7841_8772)">
<rect x="115" y="204" width="224" height="164" rx="12" fill="white"/>
<rect width="216" height="39" transform="translate(119 208)" fill="white"/>
<rect x="127" y="216" width="78" height="23" rx="6" fill="#2563EB" fill-opacity="0.1"/>
<rect x="127.43" y="216.43" width="77.1405" height="22.1405" rx="5.57027" stroke="#2563EB" stroke-opacity="0.2" stroke-width="0.859451"/>
<path d="M133.58 224.21V223.273H140.125V224.21H137.381V232H136.324V224.21H133.58ZM143.415 232.136C142.784 232.136 142.24 231.997 141.783 231.719C141.328 231.438 140.977 231.045 140.73 230.543C140.486 230.037 140.364 229.449 140.364 228.778C140.364 228.108 140.486 227.517 140.73 227.006C140.977 226.491 141.321 226.091 141.761 225.804C142.205 225.514 142.722 225.369 143.312 225.369C143.653 225.369 143.99 225.426 144.322 225.54C144.655 225.653 144.957 225.838 145.23 226.094C145.503 226.347 145.72 226.682 145.882 227.099C146.044 227.517 146.125 228.031 146.125 228.642V229.068H141.08V228.199H145.102C145.102 227.83 145.028 227.5 144.881 227.21C144.736 226.92 144.528 226.692 144.259 226.524C143.991 226.357 143.676 226.273 143.312 226.273C142.912 226.273 142.565 226.372 142.273 226.571C141.983 226.767 141.76 227.023 141.604 227.338C141.447 227.653 141.369 227.991 141.369 228.352V228.932C141.369 229.426 141.455 229.845 141.625 230.189C141.798 230.53 142.038 230.79 142.345 230.969C142.652 231.145 143.009 231.233 143.415 231.233C143.679 231.233 143.918 231.196 144.131 231.122C144.347 231.045 144.533 230.932 144.689 230.781C144.845 230.628 144.966 230.437 145.051 230.21L146.023 230.483C145.92 230.812 145.749 231.102 145.507 231.352C145.266 231.599 144.967 231.793 144.612 231.932C144.257 232.068 143.858 232.136 143.415 232.136ZM150.314 232.136C149.7 232.136 149.172 231.991 148.729 231.702C148.286 231.412 147.945 231.013 147.706 230.504C147.467 229.996 147.348 229.415 147.348 228.761C147.348 228.097 147.47 227.51 147.714 227.001C147.962 226.49 148.305 226.091 148.746 225.804C149.189 225.514 149.706 225.369 150.297 225.369C150.757 225.369 151.172 225.455 151.541 225.625C151.911 225.795 152.213 226.034 152.449 226.341C152.685 226.648 152.831 227.006 152.888 227.415H151.882C151.805 227.116 151.635 226.852 151.371 226.622C151.109 226.389 150.757 226.273 150.314 226.273C149.922 226.273 149.578 226.375 149.283 226.58C148.99 226.781 148.761 227.067 148.597 227.436C148.435 227.803 148.354 228.233 148.354 228.727C148.354 229.233 148.433 229.673 148.592 230.048C148.754 230.423 148.982 230.714 149.274 230.922C149.57 231.129 149.916 231.233 150.314 231.233C150.575 231.233 150.812 231.188 151.026 231.097C151.239 231.006 151.419 230.875 151.567 230.705C151.714 230.534 151.82 230.33 151.882 230.091H152.888C152.831 230.477 152.69 230.825 152.466 231.135C152.244 231.442 151.95 231.686 151.584 231.868C151.22 232.047 150.797 232.136 150.314 232.136ZM155.364 228.062V232H154.358V223.273H155.364V226.477H155.449C155.602 226.139 155.832 225.871 156.139 225.672C156.449 225.47 156.861 225.369 157.375 225.369C157.821 225.369 158.212 225.459 158.547 225.638C158.882 225.814 159.142 226.085 159.327 226.452C159.514 226.815 159.608 227.278 159.608 227.841V232H158.602V227.909C158.602 227.389 158.467 226.987 158.197 226.703C157.93 226.416 157.56 226.273 157.085 226.273C156.756 226.273 156.46 226.342 156.199 226.482C155.94 226.621 155.736 226.824 155.585 227.091C155.438 227.358 155.364 227.682 155.364 228.062ZM162.453 228.062V232H161.448V225.455H162.419V226.477H162.505C162.658 226.145 162.891 225.878 163.203 225.676C163.516 225.472 163.919 225.369 164.414 225.369C164.857 225.369 165.245 225.46 165.577 225.642C165.909 225.821 166.168 226.094 166.353 226.46C166.537 226.824 166.63 227.284 166.63 227.841V232H165.624V227.909C165.624 227.395 165.49 226.994 165.223 226.707C164.956 226.418 164.59 226.273 164.124 226.273C163.803 226.273 163.516 226.342 163.263 226.482C163.013 226.621 162.816 226.824 162.671 227.091C162.526 227.358 162.453 227.682 162.453 228.062ZM171.126 232.136C170.536 232.136 170.017 231.996 169.571 231.714C169.128 231.433 168.781 231.04 168.531 230.534C168.284 230.028 168.161 229.437 168.161 228.761C168.161 228.08 168.284 227.484 168.531 226.976C168.781 226.467 169.128 226.072 169.571 225.791C170.017 225.51 170.536 225.369 171.126 225.369C171.717 225.369 172.234 225.51 172.678 225.791C173.124 226.072 173.47 226.467 173.717 226.976C173.967 227.484 174.092 228.08 174.092 228.761C174.092 229.437 173.967 230.028 173.717 230.534C173.47 231.04 173.124 231.433 172.678 231.714C172.234 231.996 171.717 232.136 171.126 232.136ZM171.126 231.233C171.575 231.233 171.945 231.118 172.234 230.888C172.524 230.658 172.739 230.355 172.878 229.98C173.017 229.605 173.087 229.199 173.087 228.761C173.087 228.324 173.017 227.916 172.878 227.538C172.739 227.161 172.524 226.855 172.234 226.622C171.945 226.389 171.575 226.273 171.126 226.273C170.678 226.273 170.308 226.389 170.018 226.622C169.729 226.855 169.514 227.161 169.375 227.538C169.236 227.916 169.166 228.324 169.166 228.761C169.166 229.199 169.236 229.605 169.375 229.98C169.514 230.355 169.729 230.658 170.018 230.888C170.308 231.118 170.678 231.233 171.126 231.233ZM176.633 223.273V232H175.627V223.273H176.633ZM181.134 232.136C180.543 232.136 180.025 231.996 179.579 231.714C179.136 231.433 178.789 231.04 178.539 230.534C178.292 230.028 178.168 229.437 178.168 228.761C178.168 228.08 178.292 227.484 178.539 226.976C178.789 226.467 179.136 226.072 179.579 225.791C180.025 225.51 180.543 225.369 181.134 225.369C181.725 225.369 182.242 225.51 182.685 225.791C183.131 226.072 183.478 226.467 183.725 226.976C183.975 227.484 184.1 228.08 184.1 228.761C184.1 229.437 183.975 230.028 183.725 230.534C183.478 231.04 183.131 231.433 182.685 231.714C182.242 231.996 181.725 232.136 181.134 232.136ZM181.134 231.233C181.583 231.233 181.952 231.118 182.242 230.888C182.532 230.658 182.746 230.355 182.886 229.98C183.025 229.605 183.094 229.199 183.094 228.761C183.094 228.324 183.025 227.916 182.886 227.538C182.746 227.161 182.532 226.855 182.242 226.622C181.952 226.389 181.583 226.273 181.134 226.273C180.685 226.273 180.316 226.389 180.026 226.622C179.737 226.855 179.522 227.161 179.383 227.538C179.244 227.916 179.174 228.324 179.174 228.761C179.174 229.199 179.244 229.605 179.383 229.98C179.522 230.355 179.737 230.658 180.026 230.888C180.316 231.118 180.685 231.233 181.134 231.233ZM188.277 234.591C187.792 234.591 187.374 234.528 187.025 234.403C186.675 234.281 186.384 234.119 186.151 233.918C185.921 233.719 185.738 233.506 185.601 233.278L186.402 232.716C186.493 232.835 186.608 232.972 186.748 233.125C186.887 233.281 187.077 233.416 187.319 233.53C187.563 233.646 187.882 233.705 188.277 233.705C188.806 233.705 189.242 233.577 189.586 233.321C189.929 233.065 190.101 232.665 190.101 232.119V230.79H190.016C189.942 230.909 189.837 231.057 189.701 231.233C189.567 231.406 189.374 231.561 189.121 231.697C188.871 231.831 188.533 231.898 188.107 231.898C187.578 231.898 187.104 231.773 186.684 231.523C186.266 231.273 185.935 230.909 185.691 230.432C185.449 229.955 185.328 229.375 185.328 228.693C185.328 228.023 185.446 227.439 185.682 226.942C185.918 226.442 186.246 226.055 186.667 225.783C187.087 225.507 187.573 225.369 188.124 225.369C188.55 225.369 188.888 225.44 189.138 225.582C189.391 225.722 189.584 225.881 189.718 226.06C189.854 226.236 189.959 226.381 190.033 226.494H190.135V225.455H191.107V232.188C191.107 232.75 190.979 233.207 190.723 233.56C190.471 233.915 190.13 234.175 189.701 234.339C189.275 234.507 188.8 234.591 188.277 234.591ZM188.243 230.994C188.647 230.994 188.988 230.902 189.266 230.717C189.544 230.533 189.756 230.267 189.901 229.92C190.046 229.574 190.118 229.159 190.118 228.676C190.118 228.205 190.047 227.788 189.905 227.428C189.763 227.067 189.553 226.784 189.275 226.58C188.996 226.375 188.652 226.273 188.243 226.273C187.817 226.273 187.462 226.381 187.178 226.597C186.897 226.812 186.685 227.102 186.543 227.466C186.404 227.83 186.334 228.233 186.334 228.676C186.334 229.131 186.405 229.533 186.547 229.882C186.692 230.229 186.905 230.501 187.186 230.7C187.471 230.896 187.823 230.994 188.243 230.994ZM193.596 234.455C193.425 234.455 193.273 234.44 193.14 234.412C193.006 234.386 192.914 234.361 192.863 234.335L193.118 233.449C193.363 233.511 193.578 233.534 193.766 233.517C193.953 233.5 194.12 233.416 194.265 233.266C194.412 233.118 194.547 232.878 194.669 232.545L194.857 232.034L192.436 225.455H193.527L195.334 230.67H195.402L197.209 225.455H198.3L195.522 232.955C195.397 233.293 195.242 233.572 195.057 233.794C194.873 234.018 194.658 234.185 194.414 234.293C194.172 234.401 193.9 234.455 193.596 234.455Z" fill="#2563EB"/>
<rect width="216" height="39" transform="translate(119 247)" fill="white"/>
<rect x="127" y="255" width="57" height="23" rx="6" fill="#7C3AED" fill-opacity="0.1"/>
<rect x="127.43" y="255.43" width="56.1405" height="22.1405" rx="5.57027" stroke="#7C3AED" stroke-opacity="0.2" stroke-width="0.859451"/>
<path d="M134.057 271V262.273H139.29V263.21H135.114V266.159H138.898V267.097H135.114V271H134.057ZM140.963 271V264.455H141.969V271H140.963ZM141.475 263.364C141.279 263.364 141.11 263.297 140.968 263.163C140.828 263.03 140.759 262.869 140.759 262.682C140.759 262.494 140.828 262.334 140.968 262.2C141.11 262.067 141.279 262 141.475 262C141.671 262 141.838 262.067 141.978 262.2C142.12 262.334 142.191 262.494 142.191 262.682C142.191 262.869 142.12 263.03 141.978 263.163C141.838 263.297 141.671 263.364 141.475 263.364ZM144.817 267.062V271H143.811V264.455H144.783V265.477H144.868C145.021 265.145 145.254 264.878 145.567 264.676C145.879 264.472 146.283 264.369 146.777 264.369C147.22 264.369 147.608 264.46 147.94 264.642C148.273 264.821 148.531 265.094 148.716 265.46C148.901 265.824 148.993 266.284 148.993 266.841V271H147.987V266.909C147.987 266.395 147.854 265.994 147.587 265.707C147.32 265.418 146.953 265.273 146.487 265.273C146.166 265.273 145.879 265.342 145.626 265.482C145.376 265.621 145.179 265.824 145.034 266.091C144.889 266.358 144.817 266.682 144.817 267.062ZM152.757 271.153C152.342 271.153 151.966 271.075 151.627 270.919C151.289 270.76 151.021 270.531 150.822 270.233C150.623 269.932 150.524 269.568 150.524 269.142C150.524 268.767 150.598 268.463 150.745 268.23C150.893 267.994 151.091 267.81 151.338 267.676C151.585 267.543 151.858 267.443 152.156 267.378C152.457 267.31 152.76 267.256 153.064 267.216C153.461 267.165 153.784 267.126 154.031 267.101C154.281 267.072 154.463 267.026 154.576 266.96C154.693 266.895 154.751 266.781 154.751 266.619V266.585C154.751 266.165 154.636 265.838 154.406 265.605C154.179 265.372 153.833 265.256 153.37 265.256C152.89 265.256 152.514 265.361 152.241 265.571C151.968 265.781 151.777 266.006 151.666 266.244L150.711 265.903C150.882 265.506 151.109 265.196 151.393 264.974C151.68 264.75 151.993 264.594 152.331 264.506C152.672 264.415 153.007 264.369 153.336 264.369C153.547 264.369 153.788 264.395 154.061 264.446C154.336 264.494 154.602 264.595 154.858 264.749C155.116 264.902 155.331 265.134 155.501 265.443C155.672 265.753 155.757 266.168 155.757 266.688V271H154.751V270.114H154.7C154.632 270.256 154.518 270.408 154.359 270.57C154.2 270.732 153.988 270.869 153.724 270.983C153.46 271.097 153.137 271.153 152.757 271.153ZM152.91 270.25C153.308 270.25 153.643 270.172 153.916 270.016C154.191 269.859 154.399 269.658 154.538 269.411C154.68 269.163 154.751 268.903 154.751 268.631V267.71C154.708 267.761 154.615 267.808 154.47 267.851C154.328 267.891 154.163 267.926 153.975 267.957C153.791 267.986 153.61 268.011 153.434 268.034C153.261 268.054 153.12 268.071 153.012 268.085C152.751 268.119 152.507 268.175 152.279 268.251C152.055 268.325 151.873 268.437 151.734 268.588C151.598 268.736 151.529 268.937 151.529 269.193C151.529 269.543 151.659 269.807 151.917 269.986C152.179 270.162 152.51 270.25 152.91 270.25ZM158.598 267.062V271H157.592V264.455H158.564V265.477H158.649C158.803 265.145 159.036 264.878 159.348 264.676C159.661 264.472 160.064 264.369 160.558 264.369C161.001 264.369 161.389 264.46 161.722 264.642C162.054 264.821 162.313 265.094 162.497 265.46C162.682 265.824 162.774 266.284 162.774 266.841V271H161.768V266.909C161.768 266.395 161.635 265.994 161.368 265.707C161.101 265.418 160.734 265.273 160.268 265.273C159.947 265.273 159.661 265.342 159.408 265.482C159.158 265.621 158.96 265.824 158.815 266.091C158.67 266.358 158.598 266.682 158.598 267.062ZM167.271 271.136C166.657 271.136 166.129 270.991 165.686 270.702C165.243 270.412 164.902 270.013 164.663 269.504C164.424 268.996 164.305 268.415 164.305 267.761C164.305 267.097 164.427 266.51 164.672 266.001C164.919 265.49 165.262 265.091 165.703 264.804C166.146 264.514 166.663 264.369 167.254 264.369C167.714 264.369 168.129 264.455 168.498 264.625C168.868 264.795 169.17 265.034 169.406 265.341C169.642 265.648 169.788 266.006 169.845 266.415H168.839C168.762 266.116 168.592 265.852 168.328 265.622C168.066 265.389 167.714 265.273 167.271 265.273C166.879 265.273 166.535 265.375 166.24 265.58C165.947 265.781 165.718 266.067 165.554 266.436C165.392 266.803 165.311 267.233 165.311 267.727C165.311 268.233 165.39 268.673 165.549 269.048C165.711 269.423 165.939 269.714 166.231 269.922C166.527 270.129 166.873 270.233 167.271 270.233C167.532 270.233 167.77 270.188 167.983 270.097C168.196 270.006 168.376 269.875 168.524 269.705C168.672 269.534 168.777 269.33 168.839 269.091H169.845C169.788 269.477 169.647 269.825 169.423 270.135C169.201 270.442 168.907 270.686 168.541 270.868C168.177 271.047 167.754 271.136 167.271 271.136ZM174.059 271.136C173.429 271.136 172.885 270.997 172.427 270.719C171.973 270.438 171.622 270.045 171.375 269.543C171.13 269.037 171.008 268.449 171.008 267.778C171.008 267.108 171.13 266.517 171.375 266.006C171.622 265.491 171.966 265.091 172.406 264.804C172.849 264.514 173.366 264.369 173.957 264.369C174.298 264.369 174.635 264.426 174.967 264.54C175.299 264.653 175.602 264.838 175.875 265.094C176.147 265.347 176.365 265.682 176.527 266.099C176.689 266.517 176.77 267.031 176.77 267.642V268.068H171.724V267.199H175.747C175.747 266.83 175.673 266.5 175.525 266.21C175.38 265.92 175.173 265.692 174.903 265.524C174.636 265.357 174.321 265.273 173.957 265.273C173.556 265.273 173.21 265.372 172.917 265.571C172.627 265.767 172.404 266.023 172.248 266.338C172.092 266.653 172.014 266.991 172.014 267.352V267.932C172.014 268.426 172.099 268.845 172.27 269.189C172.443 269.53 172.683 269.79 172.99 269.969C173.297 270.145 173.653 270.233 174.059 270.233C174.324 270.233 174.562 270.196 174.775 270.122C174.991 270.045 175.177 269.932 175.333 269.781C175.49 269.628 175.61 269.437 175.696 269.21L176.667 269.483C176.565 269.812 176.393 270.102 176.152 270.352C175.91 270.599 175.612 270.793 175.257 270.932C174.902 271.068 174.502 271.136 174.059 271.136Z" fill="#7C3AED"/>
<rect x="119" y="286" width="216" height="39" rx="8" fill="#F3F4F6"/>
<rect x="127" y="294" width="69" height="23" rx="6" fill="#059669" fill-opacity="0.1"/>
<rect x="127.43" y="294.43" width="68.1405" height="22.1405" rx="5.57027" stroke="#059669" stroke-opacity="0.2" stroke-width="0.859451"/>
<path d="M134.057 301.273H135.318L138.284 308.517H138.386L141.352 301.273H142.614V310H141.625V303.369H141.54L138.812 310H137.858L135.131 303.369H135.045V310H134.057V301.273ZM146.522 310.153C146.108 310.153 145.731 310.075 145.393 309.919C145.055 309.76 144.787 309.531 144.588 309.233C144.389 308.932 144.289 308.568 144.289 308.142C144.289 307.767 144.363 307.463 144.511 307.23C144.659 306.994 144.856 306.81 145.103 306.676C145.35 306.543 145.623 306.443 145.922 306.378C146.223 306.31 146.525 306.256 146.829 306.216C147.227 306.165 147.549 306.126 147.797 306.101C148.047 306.072 148.228 306.026 148.342 305.96C148.458 305.895 148.517 305.781 148.517 305.619V305.585C148.517 305.165 148.402 304.838 148.172 304.605C147.944 304.372 147.599 304.256 147.136 304.256C146.656 304.256 146.279 304.361 146.007 304.571C145.734 304.781 145.542 305.006 145.431 305.244L144.477 304.903C144.647 304.506 144.875 304.196 145.159 303.974C145.446 303.75 145.758 303.594 146.096 303.506C146.437 303.415 146.772 303.369 147.102 303.369C147.312 303.369 147.554 303.395 147.826 303.446C148.102 303.494 148.368 303.595 148.623 303.749C148.882 303.902 149.096 304.134 149.267 304.443C149.437 304.753 149.522 305.168 149.522 305.688V310H148.517V309.114H148.466C148.397 309.256 148.284 309.408 148.125 309.57C147.966 309.732 147.754 309.869 147.49 309.983C147.225 310.097 146.903 310.153 146.522 310.153ZM146.676 309.25C147.074 309.25 147.409 309.172 147.681 309.016C147.957 308.859 148.164 308.658 148.304 308.411C148.446 308.163 148.517 307.903 148.517 307.631V306.71C148.474 306.761 148.38 306.808 148.235 306.851C148.093 306.891 147.929 306.926 147.741 306.957C147.556 306.986 147.376 307.011 147.2 307.034C147.027 307.054 146.886 307.071 146.778 307.085C146.517 307.119 146.272 307.175 146.045 307.251C145.821 307.325 145.639 307.437 145.5 307.588C145.363 307.736 145.295 307.937 145.295 308.193C145.295 308.543 145.424 308.807 145.683 308.986C145.944 309.162 146.275 309.25 146.676 309.25ZM151.358 310V303.455H152.33V304.443H152.398C152.517 304.119 152.733 303.857 153.045 303.655C153.358 303.453 153.71 303.352 154.102 303.352C154.176 303.352 154.268 303.354 154.379 303.357C154.49 303.359 154.574 303.364 154.631 303.369V304.392C154.597 304.384 154.518 304.371 154.396 304.354C154.277 304.334 154.151 304.324 154.017 304.324C153.699 304.324 153.415 304.391 153.165 304.524C152.918 304.655 152.722 304.837 152.577 305.07C152.435 305.3 152.364 305.562 152.364 305.858V310H151.358ZM156.76 307.614L156.743 306.369H156.948L159.811 303.455H161.056L158.005 306.54H157.919L156.76 307.614ZM155.823 310V301.273H156.828V310H155.823ZM159.982 310L157.425 306.761L158.141 306.062L161.26 310H159.982ZM164.825 310.136C164.194 310.136 163.65 309.997 163.193 309.719C162.738 309.438 162.387 309.045 162.14 308.543C161.896 308.037 161.774 307.449 161.774 306.778C161.774 306.108 161.896 305.517 162.14 305.006C162.387 304.491 162.731 304.091 163.172 303.804C163.615 303.514 164.132 303.369 164.723 303.369C165.064 303.369 165.4 303.426 165.733 303.54C166.065 303.653 166.368 303.838 166.64 304.094C166.913 304.347 167.13 304.682 167.292 305.099C167.454 305.517 167.535 306.031 167.535 306.642V307.068H162.49V306.199H166.512C166.512 305.83 166.439 305.5 166.291 305.21C166.146 304.92 165.939 304.692 165.669 304.524C165.402 304.357 165.086 304.273 164.723 304.273C164.322 304.273 163.975 304.372 163.683 304.571C163.393 304.767 163.17 305.023 163.014 305.338C162.858 305.653 162.779 305.991 162.779 306.352V306.932C162.779 307.426 162.865 307.845 163.035 308.189C163.208 308.53 163.449 308.79 163.755 308.969C164.062 309.145 164.419 309.233 164.825 309.233C165.089 309.233 165.328 309.196 165.541 309.122C165.757 309.045 165.943 308.932 166.099 308.781C166.255 308.628 166.376 308.437 166.461 308.21L167.433 308.483C167.331 308.812 167.159 309.102 166.917 309.352C166.676 309.599 166.377 309.793 166.022 309.932C165.667 310.068 165.268 310.136 164.825 310.136ZM171.912 303.455V304.307H168.52V303.455H171.912ZM169.508 301.886H170.514V308.125C170.514 308.409 170.555 308.622 170.637 308.764C170.723 308.903 170.831 308.997 170.961 309.045C171.095 309.091 171.235 309.114 171.383 309.114C171.494 309.114 171.585 309.108 171.656 309.097C171.727 309.082 171.784 309.071 171.826 309.062L172.031 309.966C171.963 309.991 171.868 310.017 171.745 310.043C171.623 310.071 171.468 310.085 171.281 310.085C170.997 310.085 170.718 310.024 170.446 309.902C170.176 309.78 169.951 309.594 169.772 309.344C169.596 309.094 169.508 308.778 169.508 308.398V301.886ZM173.424 310V303.455H174.43V310H173.424ZM173.936 302.364C173.74 302.364 173.571 302.297 173.429 302.163C173.289 302.03 173.22 301.869 173.22 301.682C173.22 301.494 173.289 301.334 173.429 301.2C173.571 301.067 173.74 301 173.936 301C174.132 301 174.299 301.067 174.439 301.2C174.581 301.334 174.652 301.494 174.652 301.682C174.652 301.869 174.581 302.03 174.439 302.163C174.299 302.297 174.132 302.364 173.936 302.364ZM177.278 306.062V310H176.272V303.455H177.244V304.477H177.329C177.482 304.145 177.715 303.878 178.028 303.676C178.34 303.472 178.744 303.369 179.238 303.369C179.681 303.369 180.069 303.46 180.401 303.642C180.734 303.821 180.992 304.094 181.177 304.46C181.362 304.824 181.454 305.284 181.454 305.841V310H180.448V305.909C180.448 305.395 180.315 304.994 180.048 304.707C179.781 304.418 179.414 304.273 178.948 304.273C178.627 304.273 178.34 304.342 178.087 304.482C177.837 304.621 177.64 304.824 177.495 305.091C177.35 305.358 177.278 305.682 177.278 306.062ZM185.934 312.591C185.448 312.591 185.03 312.528 184.681 312.403C184.331 312.281 184.04 312.119 183.807 311.918C183.577 311.719 183.394 311.506 183.257 311.278L184.059 310.716C184.15 310.835 184.265 310.972 184.404 311.125C184.543 311.281 184.733 311.416 184.975 311.53C185.219 311.646 185.539 311.705 185.934 311.705C186.462 311.705 186.898 311.577 187.242 311.321C187.586 311.065 187.757 310.665 187.757 310.119V308.79H187.672C187.598 308.909 187.493 309.057 187.357 309.233C187.223 309.406 187.03 309.561 186.777 309.697C186.527 309.831 186.189 309.898 185.763 309.898C185.235 309.898 184.76 309.773 184.34 309.523C183.922 309.273 183.591 308.909 183.347 308.432C183.105 307.955 182.985 307.375 182.985 306.693C182.985 306.023 183.103 305.439 183.338 304.942C183.574 304.442 183.902 304.055 184.323 303.783C184.743 303.507 185.229 303.369 185.78 303.369C186.206 303.369 186.544 303.44 186.794 303.582C187.047 303.722 187.24 303.881 187.374 304.06C187.51 304.236 187.615 304.381 187.689 304.494H187.792V303.455H188.763V310.188C188.763 310.75 188.635 311.207 188.38 311.56C188.127 311.915 187.786 312.175 187.357 312.339C186.931 312.507 186.456 312.591 185.934 312.591ZM185.9 308.994C186.303 308.994 186.644 308.902 186.922 308.717C187.201 308.533 187.412 308.267 187.557 307.92C187.702 307.574 187.775 307.159 187.775 306.676C187.775 306.205 187.703 305.788 187.561 305.428C187.419 305.067 187.209 304.784 186.931 304.58C186.652 304.375 186.309 304.273 185.9 304.273C185.473 304.273 185.118 304.381 184.834 304.597C184.553 304.812 184.341 305.102 184.199 305.466C184.06 305.83 183.99 306.233 183.99 306.676C183.99 307.131 184.061 307.533 184.203 307.882C184.348 308.229 184.561 308.501 184.843 308.7C185.127 308.896 185.479 308.994 185.9 308.994Z" fill="#059669"/>
<rect width="216" height="39" transform="translate(119 325)" fill="white"/>
<rect x="127" y="333" width="63" height="23" rx="6" fill="#D97706" fill-opacity="0.1"/>
<rect x="127.43" y="333.43" width="62.1405" height="22.1405" rx="5.57027" stroke="#D97706" stroke-opacity="0.2" stroke-width="0.859451"/>
<path d="M134.057 349V340.273H135.114V348.062H139.17V349H134.057ZM143.33 349.136C142.739 349.136 142.22 348.996 141.774 348.714C141.331 348.433 140.984 348.04 140.734 347.534C140.487 347.028 140.364 346.437 140.364 345.761C140.364 345.08 140.487 344.484 140.734 343.976C140.984 343.467 141.331 343.072 141.774 342.791C142.22 342.51 142.739 342.369 143.33 342.369C143.92 342.369 144.438 342.51 144.881 342.791C145.327 343.072 145.673 343.467 145.92 343.976C146.17 344.484 146.295 345.08 146.295 345.761C146.295 346.437 146.17 347.028 145.92 347.534C145.673 348.04 145.327 348.433 144.881 348.714C144.438 348.996 143.92 349.136 143.33 349.136ZM143.33 348.233C143.778 348.233 144.148 348.118 144.438 347.888C144.727 347.658 144.942 347.355 145.081 346.98C145.22 346.605 145.29 346.199 145.29 345.761C145.29 345.324 145.22 344.916 145.081 344.538C144.942 344.161 144.727 343.855 144.438 343.622C144.148 343.389 143.778 343.273 143.33 343.273C142.881 343.273 142.511 343.389 142.222 343.622C141.932 343.855 141.717 344.161 141.578 344.538C141.439 344.916 141.369 345.324 141.369 345.761C141.369 346.199 141.439 346.605 141.578 346.98C141.717 347.355 141.932 347.658 142.222 347.888C142.511 348.118 142.881 348.233 143.33 348.233ZM150.473 351.591C149.987 351.591 149.569 351.528 149.22 351.403C148.87 351.281 148.579 351.119 148.346 350.918C148.116 350.719 147.933 350.506 147.797 350.278L148.598 349.716C148.689 349.835 148.804 349.972 148.943 350.125C149.082 350.281 149.272 350.416 149.514 350.53C149.758 350.646 150.078 350.705 150.473 350.705C151.001 350.705 151.437 350.577 151.781 350.321C152.125 350.065 152.297 349.665 152.297 349.119V347.79H152.211C152.137 347.909 152.032 348.057 151.896 348.233C151.762 348.406 151.569 348.561 151.316 348.697C151.066 348.831 150.728 348.898 150.302 348.898C149.774 348.898 149.299 348.773 148.879 348.523C148.461 348.273 148.13 347.909 147.886 347.432C147.645 346.955 147.524 346.375 147.524 345.693C147.524 345.023 147.642 344.439 147.877 343.942C148.113 343.442 148.441 343.055 148.862 342.783C149.282 342.507 149.768 342.369 150.319 342.369C150.745 342.369 151.083 342.44 151.333 342.582C151.586 342.722 151.779 342.881 151.913 343.06C152.049 343.236 152.154 343.381 152.228 343.494H152.331V342.455H153.302V349.188C153.302 349.75 153.174 350.207 152.919 350.56C152.666 350.915 152.325 351.175 151.896 351.339C151.47 351.507 150.995 351.591 150.473 351.591ZM150.439 347.994C150.842 347.994 151.183 347.902 151.461 347.717C151.74 347.533 151.951 347.267 152.096 346.92C152.241 346.574 152.314 346.159 152.314 345.676C152.314 345.205 152.243 344.788 152.1 344.428C151.958 344.067 151.748 343.784 151.47 343.58C151.191 343.375 150.848 343.273 150.439 343.273C150.012 343.273 149.657 343.381 149.373 343.597C149.092 343.812 148.88 344.102 148.738 344.466C148.599 344.83 148.529 345.233 148.529 345.676C148.529 346.131 148.6 346.533 148.743 346.882C148.887 347.229 149.1 347.501 149.382 347.7C149.666 347.896 150.018 347.994 150.439 347.994ZM155.143 349V342.455H156.149V349H155.143ZM155.654 341.364C155.458 341.364 155.289 341.297 155.147 341.163C155.008 341.03 154.939 340.869 154.939 340.682C154.939 340.494 155.008 340.334 155.147 340.2C155.289 340.067 155.458 340 155.654 340C155.85 340 156.018 340.067 156.157 340.2C156.299 340.334 156.37 340.494 156.37 340.682C156.37 340.869 156.299 341.03 156.157 341.163C156.018 341.297 155.85 341.364 155.654 341.364ZM162.627 343.92L161.724 344.176C161.667 344.026 161.583 343.879 161.472 343.737C161.364 343.592 161.217 343.473 161.029 343.379C160.842 343.286 160.602 343.239 160.309 343.239C159.908 343.239 159.575 343.331 159.308 343.516C159.043 343.697 158.911 343.929 158.911 344.21C158.911 344.46 159.002 344.658 159.184 344.803C159.366 344.947 159.65 345.068 160.036 345.165L161.008 345.403C161.593 345.545 162.029 345.763 162.316 346.055C162.603 346.345 162.746 346.719 162.746 347.176C162.746 347.551 162.638 347.886 162.423 348.182C162.21 348.477 161.911 348.71 161.528 348.881C161.144 349.051 160.698 349.136 160.19 349.136C159.522 349.136 158.969 348.991 158.532 348.702C158.094 348.412 157.817 347.989 157.701 347.432L158.656 347.193C158.746 347.545 158.918 347.81 159.171 347.986C159.427 348.162 159.761 348.25 160.173 348.25C160.641 348.25 161.013 348.151 161.289 347.952C161.567 347.75 161.707 347.509 161.707 347.227C161.707 347 161.627 346.81 161.468 346.656C161.309 346.5 161.065 346.384 160.735 346.307L159.644 346.051C159.045 345.909 158.604 345.689 158.323 345.391C158.045 345.089 157.906 344.713 157.906 344.261C157.906 343.892 158.009 343.565 158.217 343.281C158.427 342.997 158.712 342.774 159.073 342.612C159.437 342.45 159.849 342.369 160.309 342.369C160.957 342.369 161.465 342.511 161.835 342.795C162.207 343.08 162.471 343.455 162.627 343.92ZM167.107 342.455V343.307H163.715V342.455H167.107ZM164.703 340.886H165.709V347.125C165.709 347.409 165.75 347.622 165.833 347.764C165.918 347.903 166.026 347.997 166.157 348.045C166.29 348.091 166.431 348.114 166.578 348.114C166.689 348.114 166.78 348.108 166.851 348.097C166.922 348.082 166.979 348.071 167.022 348.062L167.226 348.966C167.158 348.991 167.063 349.017 166.941 349.043C166.819 349.071 166.664 349.085 166.476 349.085C166.192 349.085 165.914 349.024 165.641 348.902C165.371 348.78 165.147 348.594 164.968 348.344C164.792 348.094 164.703 347.778 164.703 347.398V340.886ZM168.62 349V342.455H169.625V349H168.62ZM169.131 341.364C168.935 341.364 168.766 341.297 168.624 341.163C168.485 341.03 168.415 340.869 168.415 340.682C168.415 340.494 168.485 340.334 168.624 340.2C168.766 340.067 168.935 340 169.131 340C169.327 340 169.495 340.067 169.634 340.2C169.776 340.334 169.847 340.494 169.847 340.682C169.847 340.869 169.776 341.03 169.634 341.163C169.495 341.297 169.327 341.364 169.131 341.364ZM174.126 349.136C173.513 349.136 172.984 348.991 172.541 348.702C172.098 348.412 171.757 348.013 171.518 347.504C171.28 346.996 171.161 346.415 171.161 345.761C171.161 345.097 171.283 344.51 171.527 344.001C171.774 343.49 172.118 343.091 172.558 342.804C173.001 342.514 173.518 342.369 174.109 342.369C174.57 342.369 174.984 342.455 175.354 342.625C175.723 342.795 176.026 343.034 176.261 343.341C176.497 343.648 176.643 344.006 176.7 344.415H175.695C175.618 344.116 175.447 343.852 175.183 343.622C174.922 343.389 174.57 343.273 174.126 343.273C173.734 343.273 173.391 343.375 173.095 343.58C172.803 343.781 172.574 344.067 172.409 344.436C172.247 344.803 172.166 345.233 172.166 345.727C172.166 346.233 172.246 346.673 172.405 347.048C172.567 347.423 172.794 347.714 173.087 347.922C173.382 348.129 173.729 348.233 174.126 348.233C174.388 348.233 174.625 348.188 174.838 348.097C175.051 348.006 175.232 347.875 175.379 347.705C175.527 347.534 175.632 347.33 175.695 347.091H176.7C176.643 347.477 176.503 347.825 176.278 348.135C176.057 348.442 175.763 348.686 175.396 348.868C175.033 349.047 174.609 349.136 174.126 349.136ZM182.807 343.92L181.903 344.176C181.847 344.026 181.763 343.879 181.652 343.737C181.544 343.592 181.396 343.473 181.209 343.379C181.021 343.286 180.781 343.239 180.489 343.239C180.088 343.239 179.754 343.331 179.487 343.516C179.223 343.697 179.091 343.929 179.091 344.21C179.091 344.46 179.182 344.658 179.364 344.803C179.545 344.947 179.83 345.068 180.216 345.165L181.188 345.403C181.773 345.545 182.209 345.763 182.496 346.055C182.783 346.345 182.926 346.719 182.926 347.176C182.926 347.551 182.818 347.886 182.602 348.182C182.389 348.477 182.091 348.71 181.707 348.881C181.324 349.051 180.878 349.136 180.369 349.136C179.702 349.136 179.149 348.991 178.712 348.702C178.274 348.412 177.997 347.989 177.881 347.432L178.835 347.193C178.926 347.545 179.098 347.81 179.351 347.986C179.607 348.162 179.94 348.25 180.352 348.25C180.821 348.25 181.193 348.151 181.469 347.952C181.747 347.75 181.886 347.509 181.886 347.227C181.886 347 181.807 346.81 181.648 346.656C181.489 346.5 181.244 346.384 180.915 346.307L179.824 346.051C179.224 345.909 178.784 345.689 178.503 345.391C178.224 345.089 178.085 344.713 178.085 344.261C178.085 343.892 178.189 343.565 178.396 343.281C178.607 342.997 178.892 342.774 179.253 342.612C179.616 342.45 180.028 342.369 180.489 342.369C181.136 342.369 181.645 342.511 182.014 342.795C182.386 343.08 182.651 343.455 182.807 343.92Z" fill="#D97706"/>
</g>
<g filter="url(#filter4_d_7841_8772)">
<path d="M321.182 118L318 102L332 110L325 111.846L321.182 118Z" fill="#4F63CC"/>
</g>
<g filter="url(#filter5_d_7841_8772)">
<rect x="333" y="118" width="59" height="24" rx="12" fill="#4F63CC"/>
<path d="M346.849 127.455C346.798 127.023 346.591 126.688 346.227 126.449C345.863 126.21 345.417 126.091 344.889 126.091C344.502 126.091 344.164 126.153 343.875 126.278C343.588 126.403 343.363 126.575 343.201 126.794C343.042 127.013 342.963 127.261 342.963 127.54C342.963 127.773 343.018 127.973 343.129 128.141C343.243 128.305 343.387 128.443 343.564 128.554C343.74 128.662 343.924 128.751 344.118 128.822C344.311 128.891 344.488 128.946 344.65 128.989L345.537 129.227C345.764 129.287 346.017 129.369 346.295 129.474C346.576 129.58 346.845 129.723 347.1 129.905C347.359 130.084 347.572 130.314 347.74 130.595C347.907 130.876 347.991 131.222 347.991 131.631C347.991 132.102 347.868 132.528 347.62 132.909C347.376 133.29 347.018 133.592 346.547 133.817C346.078 134.041 345.508 134.153 344.838 134.153C344.213 134.153 343.672 134.053 343.214 133.851C342.76 133.649 342.402 133.368 342.14 133.007C341.882 132.646 341.735 132.227 341.701 131.75H342.792C342.821 132.08 342.931 132.352 343.125 132.568C343.321 132.781 343.568 132.94 343.866 133.045C344.167 133.148 344.491 133.199 344.838 133.199C345.241 133.199 345.603 133.134 345.924 133.003C346.245 132.869 346.5 132.685 346.687 132.449C346.875 132.21 346.968 131.932 346.968 131.614C346.968 131.324 346.887 131.088 346.725 130.906C346.564 130.724 346.35 130.577 346.086 130.463C345.822 130.349 345.537 130.25 345.23 130.165L344.156 129.858C343.474 129.662 342.934 129.382 342.537 129.018C342.139 128.655 341.94 128.179 341.94 127.591C341.94 127.102 342.072 126.676 342.336 126.312C342.603 125.946 342.961 125.662 343.41 125.46C343.862 125.256 344.366 125.153 344.923 125.153C345.485 125.153 345.985 125.254 346.423 125.456C346.86 125.655 347.207 125.928 347.463 126.274C347.721 126.621 347.858 127.014 347.872 127.455H346.849ZM351.518 134.153C351.104 134.153 350.727 134.075 350.389 133.919C350.051 133.76 349.783 133.531 349.584 133.233C349.385 132.932 349.286 132.568 349.286 132.142C349.286 131.767 349.359 131.463 349.507 131.23C349.655 130.994 349.852 130.81 350.099 130.676C350.347 130.543 350.619 130.443 350.918 130.378C351.219 130.31 351.521 130.256 351.825 130.216C352.223 130.165 352.545 130.126 352.793 130.101C353.043 130.072 353.224 130.026 353.338 129.96C353.455 129.895 353.513 129.781 353.513 129.619V129.585C353.513 129.165 353.398 128.838 353.168 128.605C352.94 128.372 352.595 128.256 352.132 128.256C351.652 128.256 351.276 128.361 351.003 128.571C350.73 128.781 350.538 129.006 350.428 129.244L349.473 128.903C349.643 128.506 349.871 128.196 350.155 127.974C350.442 127.75 350.754 127.594 351.092 127.506C351.433 127.415 351.768 127.369 352.098 127.369C352.308 127.369 352.55 127.395 352.822 127.446C353.098 127.494 353.364 127.595 353.619 127.749C353.878 127.902 354.092 128.134 354.263 128.443C354.433 128.753 354.518 129.168 354.518 129.688V134H353.513V133.114H353.462C353.393 133.256 353.28 133.408 353.121 133.57C352.962 133.732 352.75 133.869 352.486 133.983C352.222 134.097 351.899 134.153 351.518 134.153ZM351.672 133.25C352.07 133.25 352.405 133.172 352.678 133.016C352.953 132.859 353.161 132.658 353.3 132.411C353.442 132.163 353.513 131.903 353.513 131.631V130.71C353.47 130.761 353.376 130.808 353.232 130.851C353.089 130.891 352.925 130.926 352.737 130.957C352.553 130.986 352.372 131.011 352.196 131.034C352.023 131.054 351.882 131.071 351.774 131.085C351.513 131.119 351.268 131.175 351.041 131.251C350.817 131.325 350.635 131.437 350.496 131.588C350.359 131.736 350.291 131.937 350.291 132.193C350.291 132.543 350.42 132.807 350.679 132.986C350.94 133.162 351.271 133.25 351.672 133.25ZM356.49 134V125.273H357.496V128.494H357.581C357.655 128.381 357.757 128.236 357.888 128.06C358.022 127.881 358.212 127.722 358.459 127.582C358.709 127.44 359.047 127.369 359.473 127.369C360.025 127.369 360.51 127.507 360.931 127.783C361.351 128.058 361.679 128.449 361.915 128.955C362.151 129.46 362.269 130.057 362.269 130.744C362.269 131.438 362.151 132.038 361.915 132.547C361.679 133.053 361.353 133.445 360.935 133.723C360.517 133.999 360.036 134.136 359.49 134.136C359.07 134.136 358.733 134.067 358.48 133.928C358.228 133.786 358.033 133.625 357.897 133.446C357.76 133.264 357.655 133.114 357.581 132.994H357.462V134H356.49ZM357.479 130.727C357.479 131.222 357.551 131.658 357.696 132.036C357.841 132.411 358.053 132.705 358.331 132.918C358.61 133.128 358.951 133.233 359.354 133.233C359.775 133.233 360.125 133.122 360.407 132.901C360.691 132.676 360.904 132.375 361.046 131.997C361.191 131.616 361.263 131.193 361.263 130.727C361.263 130.267 361.192 129.852 361.05 129.483C360.911 129.111 360.699 128.817 360.415 128.601C360.134 128.382 359.78 128.273 359.354 128.273C358.945 128.273 358.601 128.376 358.323 128.584C358.044 128.788 357.834 129.075 357.692 129.445C357.55 129.811 357.479 130.239 357.479 130.727ZM363.807 134V127.455H364.779V128.443H364.847C364.966 128.119 365.182 127.857 365.495 127.655C365.807 127.453 366.159 127.352 366.551 127.352C366.625 127.352 366.718 127.354 366.828 127.357C366.939 127.359 367.023 127.364 367.08 127.369V128.392C367.046 128.384 366.968 128.371 366.846 128.354C366.726 128.334 366.6 128.324 366.466 128.324C366.148 128.324 365.864 128.391 365.614 128.524C365.367 128.655 365.171 128.837 365.026 129.07C364.884 129.3 364.813 129.562 364.813 129.858V134H363.807ZM368.272 134V127.455H369.278V134H368.272ZM368.783 126.364C368.587 126.364 368.418 126.297 368.276 126.163C368.137 126.03 368.067 125.869 368.067 125.682C368.067 125.494 368.137 125.334 368.276 125.2C368.418 125.067 368.587 125 368.783 125C368.979 125 369.147 125.067 369.286 125.2C369.428 125.334 369.499 125.494 369.499 125.682C369.499 125.869 369.428 126.03 369.286 126.163C369.147 126.297 368.979 126.364 368.783 126.364ZM372.125 130.062V134H371.12V127.455H372.091V128.477H372.176C372.33 128.145 372.563 127.878 372.875 127.676C373.188 127.472 373.591 127.369 374.086 127.369C374.529 127.369 374.917 127.46 375.249 127.642C375.581 127.821 375.84 128.094 376.025 128.46C376.209 128.824 376.301 129.284 376.301 129.841V134H375.296V129.909C375.296 129.395 375.162 128.994 374.895 128.707C374.628 128.418 374.262 128.273 373.796 128.273C373.475 128.273 373.188 128.342 372.935 128.482C372.685 128.621 372.488 128.824 372.343 129.091C372.198 129.358 372.125 129.682 372.125 130.062ZM380.065 134.153C379.651 134.153 379.274 134.075 378.936 133.919C378.598 133.76 378.33 133.531 378.131 133.233C377.932 132.932 377.832 132.568 377.832 132.142C377.832 131.767 377.906 131.463 378.054 131.23C378.202 130.994 378.399 130.81 378.646 130.676C378.893 130.543 379.166 130.443 379.464 130.378C379.766 130.31 380.068 130.256 380.372 130.216C380.77 130.165 381.092 130.126 381.339 130.101C381.589 130.072 381.771 130.026 381.885 129.96C382.001 129.895 382.06 129.781 382.06 129.619V129.585C382.06 129.165 381.945 128.838 381.714 128.605C381.487 128.372 381.142 128.256 380.679 128.256C380.199 128.256 379.822 128.361 379.55 128.571C379.277 128.781 379.085 129.006 378.974 129.244L378.02 128.903C378.19 128.506 378.418 128.196 378.702 127.974C378.989 127.75 379.301 127.594 379.639 127.506C379.98 127.415 380.315 127.369 380.645 127.369C380.855 127.369 381.097 127.395 381.369 127.446C381.645 127.494 381.911 127.595 382.166 127.749C382.425 127.902 382.639 128.134 382.81 128.443C382.98 128.753 383.065 129.168 383.065 129.688V134H382.06V133.114H382.009C381.94 133.256 381.827 133.408 381.668 133.57C381.509 133.732 381.297 133.869 381.033 133.983C380.768 134.097 380.446 134.153 380.065 134.153ZM380.219 133.25C380.616 133.25 380.952 133.172 381.224 133.016C381.5 132.859 381.707 132.658 381.847 132.411C381.989 132.163 382.06 131.903 382.06 131.631V130.71C382.017 130.761 381.923 130.808 381.778 130.851C381.636 130.891 381.472 130.926 381.284 130.957C381.099 130.986 380.919 131.011 380.743 131.034C380.57 131.054 380.429 131.071 380.321 131.085C380.06 131.119 379.815 131.175 379.588 131.251C379.364 131.325 379.182 131.437 379.043 131.588C378.906 131.736 378.838 131.937 378.838 132.193C378.838 132.543 378.967 132.807 379.226 132.986C379.487 133.162 379.818 133.25 380.219 133.25Z" fill="white"/>
</g>
<g filter="url(#filter6_d_7841_8772)">
<path d="M237.182 315L234 299L248 307L241 308.846L237.182 315Z" fill="#4FAECC"/>
</g>
<g filter="url(#filter7_d_7841_8772)">
<rect x="249" y="315" width="52" height="24" rx="12" fill="#4FAECC"/>
<path d="M261.462 322.273H262.519V328.511C262.519 329.068 262.417 329.541 262.212 329.93C262.008 330.32 261.719 330.615 261.347 330.817C260.975 331.018 260.536 331.119 260.03 331.119C259.553 331.119 259.128 331.033 258.756 330.859C258.384 330.683 258.091 330.433 257.878 330.109C257.665 329.786 257.559 329.401 257.559 328.955H258.599C258.599 329.202 258.66 329.418 258.782 329.602C258.907 329.784 259.077 329.926 259.293 330.028C259.509 330.131 259.755 330.182 260.03 330.182C260.334 330.182 260.593 330.118 260.806 329.99C261.019 329.862 261.181 329.675 261.292 329.428C261.405 329.178 261.462 328.872 261.462 328.511V322.273ZM267.245 331.136C266.614 331.136 266.07 330.997 265.613 330.719C265.158 330.438 264.807 330.045 264.56 329.543C264.316 329.037 264.194 328.449 264.194 327.778C264.194 327.108 264.316 326.517 264.56 326.006C264.807 325.491 265.151 325.091 265.591 324.804C266.035 324.514 266.552 324.369 267.143 324.369C267.483 324.369 267.82 324.426 268.153 324.54C268.485 324.653 268.787 324.838 269.06 325.094C269.333 325.347 269.55 325.682 269.712 326.099C269.874 326.517 269.955 327.031 269.955 327.642V328.068H264.91V327.199H268.932C268.932 326.83 268.858 326.5 268.711 326.21C268.566 325.92 268.358 325.692 268.089 325.524C267.822 325.357 267.506 325.273 267.143 325.273C266.742 325.273 266.395 325.372 266.103 325.571C265.813 325.767 265.59 326.023 265.434 326.338C265.278 326.653 265.199 326.991 265.199 327.352V327.932C265.199 328.426 265.285 328.845 265.455 329.189C265.628 329.53 265.868 329.79 266.175 329.969C266.482 330.145 266.839 330.233 267.245 330.233C267.509 330.233 267.748 330.196 267.961 330.122C268.177 330.045 268.363 329.932 268.519 329.781C268.675 329.628 268.796 329.437 268.881 329.21L269.853 329.483C269.751 329.812 269.579 330.102 269.337 330.352C269.096 330.599 268.797 330.793 268.442 330.932C268.087 331.068 267.688 331.136 267.245 331.136ZM276.121 325.92L275.218 326.176C275.161 326.026 275.077 325.879 274.966 325.737C274.858 325.592 274.711 325.473 274.523 325.379C274.336 325.286 274.096 325.239 273.803 325.239C273.403 325.239 273.069 325.331 272.802 325.516C272.537 325.697 272.405 325.929 272.405 326.21C272.405 326.46 272.496 326.658 272.678 326.803C272.86 326.947 273.144 327.068 273.53 327.165L274.502 327.403C275.087 327.545 275.523 327.763 275.81 328.055C276.097 328.345 276.241 328.719 276.241 329.176C276.241 329.551 276.133 329.886 275.917 330.182C275.704 330.477 275.405 330.71 275.022 330.881C274.638 331.051 274.192 331.136 273.684 331.136C273.016 331.136 272.464 330.991 272.026 330.702C271.589 330.412 271.312 329.989 271.195 329.432L272.15 329.193C272.241 329.545 272.412 329.81 272.665 329.986C272.921 330.162 273.255 330.25 273.667 330.25C274.135 330.25 274.508 330.151 274.783 329.952C275.062 329.75 275.201 329.509 275.201 329.227C275.201 329 275.121 328.81 274.962 328.656C274.803 328.5 274.559 328.384 274.229 328.307L273.138 328.051C272.539 327.909 272.099 327.689 271.817 327.391C271.539 327.089 271.4 326.713 271.4 326.261C271.4 325.892 271.503 325.565 271.711 325.281C271.921 324.997 272.206 324.774 272.567 324.612C272.931 324.45 273.343 324.369 273.803 324.369C274.451 324.369 274.959 324.511 275.329 324.795C275.701 325.08 275.965 325.455 276.121 325.92ZM282.391 325.92L281.487 326.176C281.431 326.026 281.347 325.879 281.236 325.737C281.128 325.592 280.98 325.473 280.793 325.379C280.605 325.286 280.365 325.239 280.073 325.239C279.672 325.239 279.338 325.331 279.071 325.516C278.807 325.697 278.675 325.929 278.675 326.21C278.675 326.46 278.766 326.658 278.948 326.803C279.129 326.947 279.414 327.068 279.8 327.165L280.771 327.403C281.357 327.545 281.793 327.763 282.08 328.055C282.367 328.345 282.51 328.719 282.51 329.176C282.51 329.551 282.402 329.886 282.186 330.182C281.973 330.477 281.675 330.71 281.291 330.881C280.908 331.051 280.462 331.136 279.953 331.136C279.286 331.136 278.733 330.991 278.296 330.702C277.858 330.412 277.581 329.989 277.465 329.432L278.419 329.193C278.51 329.545 278.682 329.81 278.935 329.986C279.191 330.162 279.524 330.25 279.936 330.25C280.405 330.25 280.777 330.151 281.053 329.952C281.331 329.75 281.47 329.509 281.47 329.227C281.47 329 281.391 328.81 281.232 328.656C281.073 328.5 280.828 328.384 280.499 328.307L279.408 328.051C278.808 327.909 278.368 327.689 278.087 327.391C277.808 327.089 277.669 326.713 277.669 326.261C277.669 325.892 277.773 325.565 277.98 325.281C278.191 324.997 278.476 324.774 278.837 324.612C279.2 324.45 279.612 324.369 280.073 324.369C280.72 324.369 281.229 324.511 281.598 324.795C281.97 325.08 282.235 325.455 282.391 325.92ZM284.024 331V324.455H285.03V331H284.024ZM284.535 323.364C284.339 323.364 284.17 323.297 284.028 323.163C283.889 323.03 283.819 322.869 283.819 322.682C283.819 322.494 283.889 322.334 284.028 322.2C284.17 322.067 284.339 322 284.535 322C284.731 322 284.899 322.067 285.038 322.2C285.18 322.334 285.251 322.494 285.251 322.682C285.251 322.869 285.18 323.03 285.038 323.163C284.899 323.297 284.731 323.364 284.535 323.364ZM289.616 331.136C288.985 331.136 288.441 330.997 287.984 330.719C287.529 330.438 287.178 330.045 286.931 329.543C286.687 329.037 286.565 328.449 286.565 327.778C286.565 327.108 286.687 326.517 286.931 326.006C287.178 325.491 287.522 325.091 287.963 324.804C288.406 324.514 288.923 324.369 289.514 324.369C289.855 324.369 290.191 324.426 290.524 324.54C290.856 324.653 291.159 324.838 291.431 325.094C291.704 325.347 291.921 325.682 292.083 326.099C292.245 326.517 292.326 327.031 292.326 327.642V328.068H287.281V327.199H291.303C291.303 326.83 291.23 326.5 291.082 326.21C290.937 325.92 290.73 325.692 290.46 325.524C290.193 325.357 289.877 325.273 289.514 325.273C289.113 325.273 288.767 325.372 288.474 325.571C288.184 325.767 287.961 326.023 287.805 326.338C287.649 326.653 287.57 326.991 287.57 327.352V327.932C287.57 328.426 287.656 328.845 287.826 329.189C287.999 329.53 288.24 329.79 288.546 329.969C288.853 330.145 289.21 330.233 289.616 330.233C289.88 330.233 290.119 330.196 290.332 330.122C290.548 330.045 290.734 329.932 290.89 329.781C291.046 329.628 291.167 329.437 291.252 329.21L292.224 329.483C292.122 329.812 291.95 330.102 291.708 330.352C291.467 330.599 291.169 330.793 290.813 330.932C290.458 331.068 290.059 331.136 289.616 331.136Z" fill="white"/>
</g>
</g>
<defs>
<filter id="filter0_f_7841_8772" x="-200" y="18" width="854" height="660" filterUnits="userSpaceOnUse" color-interpolation-filters="sRGB">
<feFlood flood-opacity="0" result="BackgroundImageFix"/>
<feBlend mode="normal" in="SourceGraphic" in2="BackgroundImageFix" result="shape"/>
<feGaussianBlur stdDeviation="100" result="effect1_foregroundBlur_7841_8772"/>
</filter>
<filter id="filter1_d_7841_8772" x="107" y="68" width="240" height="60" filterUnits="userSpaceOnUse" color-interpolation-filters="sRGB">
<feFlood flood-opacity="0" result="BackgroundImageFix"/>
<feColorMatrix in="SourceAlpha" type="matrix" values="0 0 0 0 0 0 0 0 0 0 0 0 0 0 0 0 0 0 127 0" result="hardAlpha"/>
<feOffset/>
<feGaussianBlur stdDeviation="4"/>
<feColorMatrix type="matrix" values="0 0 0 0 0 0 0 0 0 0 0 0 0 0 0 0 0 0 0.06 0"/>
<feBlend mode="normal" in2="BackgroundImageFix" result="effect1_dropShadow_7841_8772"/>
<feBlend mode="normal" in="SourceGraphic" in2="effect1_dropShadow_7841_8772" result="shape"/>
</filter>
<filter id="filter2_d_7841_8772" x="107" y="144" width="240" height="60" filterUnits="userSpaceOnUse" color-interpolation-filters="sRGB">
<feFlood flood-opacity="0" result="BackgroundImageFix"/>
<feColorMatrix in="SourceAlpha" type="matrix" values="0 0 0 0 0 0 0 0 0 0 0 0 0 0 0 0 0 0 127 0" result="hardAlpha"/>
<feOffset/>
<feGaussianBlur stdDeviation="4"/>
<feColorMatrix type="matrix" values="0 0 0 0 0 0 0 0 0 0 0 0 0 0 0 0 0 0 0.06 0"/>
<feBlend mode="normal" in2="BackgroundImageFix" result="effect1_dropShadow_7841_8772"/>
<feBlend mode="normal" in="SourceGraphic" in2="effect1_dropShadow_7841_8772" result="shape"/>
</filter>
<filter id="filter3_d_7841_8772" x="107" y="196" width="240" height="180" filterUnits="userSpaceOnUse" color-interpolation-filters="sRGB">
<feFlood flood-opacity="0" result="BackgroundImageFix"/>
<feColorMatrix in="SourceAlpha" type="matrix" values="0 0 0 0 0 0 0 0 0 0 0 0 0 0 0 0 0 0 127 0" result="hardAlpha"/>
<feOffset/>
<feGaussianBlur stdDeviation="4"/>
<feColorMatrix type="matrix" values="0 0 0 0 0 0 0 0 0 0 0 0 0 0 0 0 0 0 0.06 0"/>
<feBlend mode="normal" in2="BackgroundImageFix" result="effect1_dropShadow_7841_8772"/>
<feBlend mode="normal" in="SourceGraphic" in2="effect1_dropShadow_7841_8772" result="shape"/>
</filter>
<filter id="filter4_d_7841_8772" x="315" y="100" width="20" height="22" filterUnits="userSpaceOnUse" color-interpolation-filters="sRGB">
<feFlood flood-opacity="0" result="BackgroundImageFix"/>
<feColorMatrix in="SourceAlpha" type="matrix" values="0 0 0 0 0 0 0 0 0 0 0 0 0 0 0 0 0 0 127 0" result="hardAlpha"/>
<feOffset dy="1"/>
<feGaussianBlur stdDeviation="1.5"/>
<feColorMatrix type="matrix" values="0 0 0 0 0 0 0 0 0 0 0 0 0 0 0 0 0 0 0.35 0"/>
<feBlend mode="normal" in2="BackgroundImageFix" result="effect1_dropShadow_7841_8772"/>
<feBlend mode="normal" in="SourceGraphic" in2="effect1_dropShadow_7841_8772" result="shape"/>
</filter>
<filter id="filter5_d_7841_8772" x="329" y="115" width="67" height="32" filterUnits="userSpaceOnUse" color-interpolation-filters="sRGB">
<feFlood flood-opacity="0" result="BackgroundImageFix"/>
<feColorMatrix in="SourceAlpha" type="matrix" values="0 0 0 0 0 0 0 0 0 0 0 0 0 0 0 0 0 0 127 0" result="hardAlpha"/>
<feOffset dy="1"/>
<feGaussianBlur stdDeviation="2"/>
<feColorMatrix type="matrix" values="0 0 0 0 0 0 0 0 0 0 0 0 0 0 0 0 0 0 0.16 0"/>
<feBlend mode="normal" in2="BackgroundImageFix" result="effect1_dropShadow_7841_8772"/>
<feBlend mode="normal" in="SourceGraphic" in2="effect1_dropShadow_7841_8772" result="shape"/>
</filter>
<filter id="filter6_d_7841_8772" x="231" y="297" width="20" height="22" filterUnits="userSpaceOnUse" color-interpolation-filters="sRGB">
<feFlood flood-opacity="0" result="BackgroundImageFix"/>
<feColorMatrix in="SourceAlpha" type="matrix" values="0 0 0 0 0 0 0 0 0 0 0 0 0 0 0 0 0 0 127 0" result="hardAlpha"/>
<feOffset dy="1"/>
<feGaussianBlur stdDeviation="1.5"/>
<feColorMatrix type="matrix" values="0 0 0 0 0 0 0 0 0 0 0 0 0 0 0 0 0 0 0.35 0"/>
<feBlend mode="normal" in2="BackgroundImageFix" result="effect1_dropShadow_7841_8772"/>
<feBlend mode="normal" in="SourceGraphic" in2="effect1_dropShadow_7841_8772" result="shape"/>
</filter>
<filter id="filter7_d_7841_8772" x="245" y="312" width="60" height="32" filterUnits="userSpaceOnUse" color-interpolation-filters="sRGB">
<feFlood flood-opacity="0" result="BackgroundImageFix"/>
<feColorMatrix in="SourceAlpha" type="matrix" values="0 0 0 0 0 0 0 0 0 0 0 0 0 0 0 0 0 0 127 0" result="hardAlpha"/>
<feOffset dy="1"/>
<feGaussianBlur stdDeviation="2"/>
<feColorMatrix type="matrix" values="0 0 0 0 0 0 0 0 0 0 0 0 0 0 0 0 0 0 0.16 0"/>
<feBlend mode="normal" in2="BackgroundImageFix" result="effect1_dropShadow_7841_8772"/>
<feBlend mode="normal" in="SourceGraphic" in2="effect1_dropShadow_7841_8772" result="shape"/>
</filter>
<radialGradient id="paint0_radial_7841_8772" cx="0" cy="0" r="1" gradientUnits="userSpaceOnUse" gradientTransform="translate(1269 495) rotate(90) scale(428 186.583)">
<stop stop-color="white"/>
<stop offset="1" stop-color="#737373" stop-opacity="0"/>
</radialGradient>
<clipPath id="clip0_7841_8772">
<rect width="454" height="440" rx="20" fill="white"/>
</clipPath>
<clipPath id="clip1_7841_8772">
<rect width="10" height="10" fill="white" transform="translate(158 93)"/>
</clipPath>
</defs>
</svg>
