<svg width="454" height="440" viewBox="0 0 454 440" fill="none" xmlns="http://www.w3.org/2000/svg">
<g clip-path="url(#clip0_7841_8599)">
<rect width="454" height="440" rx="20" fill="#E1F7ED"/>
<g filter="url(#filter0_f_7841_8599)">
<path d="M0 478H454V445C454 319.631 352.369 218 227 218C101.631 218 0 319.631 0 445V478Z" fill="#6BF4C7"/>
</g>
<mask id="mask0_7841_8599" style="mask-type:alpha" maskUnits="userSpaceOnUse" x="-294" y="-29" width="1042" height="497">
<rect x="748" y="468" width="1042" height="497" transform="rotate(-180 748 468)" fill="url(#paint0_radial_7841_8599)"/>
</mask>
<g mask="url(#mask0_7841_8599)">
<path d="M507 423L427 468L427 393L507 348L507 423Z" stroke="#47D8A9" stroke-width="2"/>
<path d="M427 423L347 468L347 393L427 348L427 423Z" stroke="#47D8A9" stroke-width="2"/>
<path d="M347 423L267 468L267 393L347 348L347 423Z" stroke="#47D8A9" stroke-width="2"/>
<path d="M267 423L187 468L187 393L267 348L267 423Z" stroke="#47D8A9" stroke-width="2"/>
<path d="M187 423L107 468L107 393L187 348L187 423Z" stroke="#47D8A9" stroke-width="2"/>
<path d="M107 423L27 468L27 393L107 348L107 423Z" stroke="#47D8A9" stroke-width="2"/>
<path d="M27 423L-53 468L-53 393L27 348L27 423Z" stroke="#47D8A9" stroke-width="2"/>
<path d="M507 348L427 393L427 318L507 273L507 348Z" stroke="#47D8A9" stroke-width="2"/>
<path d="M427 348L347 393L347 318L427 273L427 348Z" stroke="#47D8A9" stroke-width="2"/>
<path d="M347 348L267 393L267 318L347 273L347 348Z" stroke="#47D8A9" stroke-width="2"/>
<path d="M267 348L187 393L187 318L267 273L267 348Z" stroke="#47D8A9" stroke-width="2"/>
<path d="M187 348L107 393L107 318L187 273L187 348Z" stroke="#47D8A9" stroke-width="2"/>
<path d="M107 348L27 393L27 318L107 273L107 348Z" stroke="#47D8A9" stroke-width="2"/>
<path d="M27 348L-53 393L-53 318L27 273L27 348Z" stroke="#47D8A9" stroke-width="2"/>
<path d="M507 273L427 318L427 243L507 198L507 273Z" stroke="#47D8A9" stroke-width="2"/>
<path d="M427 273L347 318L347 243L427 198L427 273Z" stroke="#47D8A9" stroke-width="2"/>
<path d="M347 273L267 318L267 243L347 198L347 273Z" stroke="#47D8A9" stroke-width="2"/>
<path d="M267 273L187 318L187 243L267 198L267 273Z" stroke="#47D8A9" stroke-width="2"/>
<path d="M187 273L107 318L107 243L187 198L187 273Z" stroke="#47D8A9" stroke-width="2"/>
<path d="M107 273L27 318L27 243L107 198L107 273Z" stroke="#47D8A9" stroke-width="2"/>
<path d="M27 273L-53 318L-53 243L27 198L27 273Z" stroke="#47D8A9" stroke-width="2"/>
<path d="M507 198L427 243L427 168L507 123L507 198Z" stroke="#47D8A9" stroke-width="2"/>
<path d="M427 198L347 243L347 168L427 123L427 198Z" stroke="#47D8A9" stroke-width="2"/>
<path d="M347 198L267 243L267 168L347 123L347 198Z" stroke="#47D8A9" stroke-width="2"/>
<path d="M267 198L187 243L187 168L267 123L267 198Z" stroke="#47D8A9" stroke-width="2"/>
<path d="M187 198L107 243L107 168L187 123L187 198Z" stroke="#47D8A9" stroke-width="2"/>
<path d="M107 198L27 243L27 168L107 123L107 198Z" stroke="#47D8A9" stroke-width="2"/>
<path d="M27 198L-53 243L-53 168L27 123L27 198Z" stroke="#47D8A9" stroke-width="2"/>
<path d="M507 123L427 168L427 93L507 48L507 123Z" stroke="#47D8A9" stroke-width="2"/>
<path d="M427 123L347 168L347 93L427 48L427 123Z" stroke="#47D8A9" stroke-width="2"/>
<path d="M347 123L267 168L267 93L347 48L347 123Z" stroke="#47D8A9" stroke-width="2"/>
<path d="M267 123L187 168L187 93L267 48L267 123Z" stroke="#47D8A9" stroke-width="2"/>
<path d="M187 123L107 168L107 93L187 48L187 123Z" stroke="#47D8A9" stroke-width="2"/>
<path d="M107 123L27 168L27 93L107 48L107 123Z" stroke="#47D8A9" stroke-width="2"/>
<path d="M27 123L-53 168L-53 93L27 48L27 123Z" stroke="#47D8A9" stroke-width="2"/>
<path d="M507 48L427 93L427 18L507 -27L507 48Z" stroke="#47D8A9" stroke-width="2"/>
<path d="M427 48L347 93L347 18L427 -27L427 48Z" stroke="#47D8A9" stroke-width="2"/>
<path d="M347 48L267 93L267 18L347 -27L347 48Z" stroke="#47D8A9" stroke-width="2"/>
<path d="M267 48L187 93L187 18L267 -27L267 48Z" stroke="#47D8A9" stroke-width="2"/>
<path d="M187 48L107 93L107 18L187 -27L187 48Z" stroke="#47D8A9" stroke-width="2"/>
<path d="M107 48L27.0001 93L27.0001 18L107 -27L107 48Z" stroke="#47D8A9" stroke-width="2"/>
<path d="M27.0001 48L-52.9999 93L-52.9999 18L27.0001 -27L27.0001 48Z" stroke="#47D8A9" stroke-width="2"/>
</g>
<mask id="mask1_7841_8599" style="mask-type:alpha" maskUnits="userSpaceOnUse" x="-77" y="159" width="168" height="122">
<rect x="-77" y="159" width="168" height="122" fill="url(#paint1_linear_7841_8599)"/>
</mask>
<g mask="url(#mask1_7841_8599)">
<rect x="-76.5" y="159.5" width="167" height="121" rx="19.5" fill="white" fill-opacity="0.4"/>
<rect x="-76.5" y="159.5" width="167" height="121" rx="19.5" stroke="white"/>
<rect x="-69" y="167" width="152" height="106" rx="14" fill="white"/>
<rect x="-25.4545" y="188.955" width="30" height="52.5" rx="5.72727" fill="#EFEFEF"/>
<rect x="8.54546" y="195.636" width="30" height="45.8182" rx="5.72727" fill="#5654D4"/>
<path d="M14.31 204.975V199.768H14.6435V204.975H14.31ZM15.272 201.434C15.253 201.256 15.173 201.118 15.032 201.019C14.8923 200.92 14.7107 200.871 14.4869 200.871C14.3297 200.871 14.1947 200.894 14.0822 200.942C13.9697 200.989 13.8836 201.054 13.8239 201.135C13.7642 201.216 13.7337 201.309 13.7324 201.414C13.7324 201.501 13.752 201.576 13.7914 201.64C13.832 201.703 13.887 201.757 13.9561 201.802C14.0253 201.846 14.1019 201.882 14.1859 201.912C14.27 201.942 14.3547 201.967 14.4402 201.987L14.8307 202.085C14.9879 202.122 15.1391 202.171 15.2842 202.233C15.4306 202.296 15.5615 202.374 15.6767 202.469C15.7933 202.564 15.8855 202.679 15.9533 202.813C16.0211 202.947 16.055 203.105 16.055 203.285C16.055 203.529 15.9926 203.744 15.8679 203.93C15.7432 204.114 15.5628 204.258 15.3269 204.363C15.0923 204.466 14.8083 204.517 14.4747 204.517C14.1507 204.517 13.8693 204.467 13.6307 204.367C13.3934 204.267 13.2077 204.12 13.0734 203.928C12.9405 203.735 12.8687 203.5 12.8578 203.224H13.6002C13.611 203.369 13.6558 203.49 13.7344 203.586C13.8131 203.682 13.9154 203.754 14.0415 203.801C14.169 203.849 14.3113 203.873 14.4686 203.873C14.6327 203.873 14.7764 203.848 14.8998 203.799C15.0245 203.749 15.1222 203.68 15.1927 203.592C15.2632 203.503 15.2991 203.398 15.3005 203.279C15.2991 203.17 15.2672 203.081 15.2049 203.01C15.1425 202.938 15.0551 202.879 14.9425 202.831C14.8313 202.783 14.7012 202.739 14.552 202.701L14.0781 202.579C13.7351 202.491 13.4639 202.357 13.2646 202.178C13.0666 201.998 12.9677 201.759 12.9677 201.461C12.9677 201.215 13.0341 201 13.167 200.816C13.3012 200.631 13.4836 200.488 13.7141 200.387C13.9446 200.284 14.2056 200.232 14.4971 200.232C14.7927 200.232 15.0517 200.284 15.274 200.387C15.4977 200.488 15.6733 200.63 15.8008 200.812C15.9282 200.992 15.994 201.2 15.9981 201.434H15.272ZM18.3812 200.289V204.454H17.6267V201.023H17.6023L16.6281 201.646V200.954L17.6633 200.289H18.3812ZM20.8869 204.511C20.6157 204.511 20.373 204.46 20.1588 204.359C19.9446 204.256 19.7744 204.115 19.6483 203.936C19.5236 203.757 19.4571 203.552 19.449 203.322H20.1812C20.1947 203.492 20.2686 203.632 20.4028 203.74C20.5371 203.848 20.6984 203.901 20.8869 203.901C21.0347 203.901 21.1662 203.867 21.2815 203.799C21.3967 203.732 21.4876 203.637 21.554 203.517C21.6204 203.396 21.653 203.258 21.6516 203.104C21.653 202.947 21.6198 202.807 21.552 202.685C21.4842 202.563 21.3913 202.467 21.2733 202.398C21.1554 202.328 21.0198 202.292 20.8666 202.292C20.7418 202.291 20.6191 202.314 20.4984 202.362C20.3778 202.409 20.2822 202.471 20.2117 202.549L19.5303 202.437L19.748 200.289H22.1641V200.92H20.3723L20.2523 202.024H20.2767C20.354 201.933 20.4632 201.858 20.6042 201.798C20.7452 201.737 20.8998 201.707 21.0679 201.707C21.3201 201.707 21.5452 201.766 21.7431 201.886C21.9411 202.004 22.097 202.166 22.2109 202.374C22.3248 202.581 22.3818 202.818 22.3818 203.086C22.3818 203.361 22.318 203.606 22.1906 203.822C22.0645 204.036 21.8889 204.205 21.6638 204.328C21.4401 204.45 21.1811 204.511 20.8869 204.511ZM23.7958 203.885L23.7693 204.109C23.7504 204.279 23.7165 204.453 23.6677 204.629C23.6202 204.807 23.57 204.97 23.5172 205.119C23.4643 205.269 23.4216 205.386 23.389 205.471H22.8928C22.9117 205.389 22.9375 205.276 22.9701 205.134C23.0039 204.991 23.0365 204.831 23.0677 204.654C23.0989 204.476 23.1199 204.296 23.1307 204.113L23.145 203.885H23.7958ZM24.6307 204.454L26.4021 200.948V200.92H24.3459V200.289H27.1831V200.934L25.4137 204.454H24.6307ZM29.2317 204.511C28.9605 204.511 28.7178 204.46 28.5036 204.359C28.2894 204.256 28.1192 204.115 27.9931 203.936C27.8684 203.757 27.8019 203.552 27.7938 203.322H28.526C28.5395 203.492 28.6134 203.632 28.7477 203.74C28.8819 203.848 29.0432 203.901 29.2317 203.901C29.3795 203.901 29.511 203.867 29.6263 203.799C29.7415 203.732 29.8324 203.637 29.8988 203.517C29.9652 203.396 29.9978 203.258 29.9964 203.104C29.9978 202.947 29.9646 202.807 29.8968 202.685C29.829 202.563 29.7361 202.467 29.6181 202.398C29.5002 202.328 29.3646 202.292 29.2114 202.292C29.0866 202.291 28.9639 202.314 28.8433 202.362C28.7226 202.409 28.627 202.471 28.5565 202.549L27.8751 202.437L28.0928 200.289H30.509V200.92H28.7172L28.5972 202.024H28.6216C28.6988 201.933 28.808 201.858 28.949 201.798C29.09 201.737 29.2446 201.707 29.4127 201.707C29.6649 201.707 29.89 201.766 30.088 201.886C30.2859 202.004 30.4418 202.166 30.5557 202.374C30.6696 202.581 30.7266 202.818 30.7266 203.086C30.7266 203.361 30.6629 203.606 30.5354 203.822C30.4093 204.036 30.2337 204.205 30.0086 204.328C29.7849 204.45 29.5259 204.511 29.2317 204.511ZM32.9475 204.534C32.6126 204.534 32.3252 204.449 32.0852 204.279C31.8465 204.109 31.6628 203.863 31.534 203.541C31.4066 203.218 31.3428 202.83 31.3428 202.376C31.3442 201.922 31.4086 201.535 31.536 201.216C31.6649 200.896 31.8486 200.652 32.0872 200.484C32.3272 200.316 32.614 200.232 32.9475 200.232C33.2811 200.232 33.5678 200.316 33.8078 200.484C34.0478 200.652 34.2316 200.896 34.359 201.216C34.4878 201.536 34.5522 201.923 34.5522 202.376C34.5522 202.831 34.4878 203.22 34.359 203.543C34.2316 203.865 34.0478 204.11 33.8078 204.279C33.5692 204.449 33.2824 204.534 32.9475 204.534ZM32.9475 203.897C33.2079 203.897 33.4133 203.769 33.5638 203.513C33.7156 203.255 33.7916 202.876 33.7916 202.376C33.7916 202.045 33.757 201.767 33.6878 201.542C33.6187 201.317 33.5211 201.147 33.395 201.033C33.2689 200.918 33.1197 200.861 32.9475 200.861C32.6886 200.861 32.4838 200.989 32.3333 201.247C32.1828 201.503 32.1069 201.88 32.1055 202.376C32.1042 202.708 32.1374 202.987 32.2052 203.214C32.2743 203.44 32.372 203.611 32.498 203.726C32.6241 203.84 32.774 203.897 32.9475 203.897Z" fill="white"/>
<rect x="42.5455" y="206.136" width="30" height="35.3182" rx="5.72727" fill="#EFEFEF"/>
<rect x="8.90909" y="247.364" width="30.3636" height="15.2727" rx="7.63636" fill="#EEEEFB"/>
<path d="M20.2002 252.447H21.0354V256.384C21.0354 256.74 20.9649 257.045 20.8239 257.298C20.6847 257.551 20.4885 257.744 20.2354 257.878C19.9823 258.01 19.6858 258.076 19.346 258.076C19.0332 258.076 18.7521 258.019 18.5026 257.905C18.2549 257.791 18.0588 257.626 17.9142 257.409C17.7713 257.19 17.6999 256.925 17.6999 256.612H18.5324C18.5324 256.765 18.5677 256.898 18.6382 257.01C18.7105 257.123 18.809 257.21 18.9338 257.273C19.0603 257.335 19.205 257.366 19.3677 257.366C19.5448 257.366 19.6949 257.329 19.8178 257.255C19.9426 257.179 20.0375 257.067 20.1026 256.921C20.1676 256.775 20.2002 256.596 20.2002 256.384V252.447ZM24.8285 256.273V253.835H25.642V258H24.8448V257.279H24.8014C24.7056 257.501 24.5519 257.687 24.3404 257.835C24.1307 257.981 23.8694 258.054 23.5567 258.054C23.2891 258.054 23.0523 257.996 22.8462 257.878C22.6419 257.759 22.481 257.583 22.3635 257.349C22.2478 257.116 22.1899 256.828 22.1899 256.484V253.835H23.0008V256.387C23.0008 256.671 23.0794 256.897 23.2367 257.065C23.394 257.233 23.5983 257.317 23.8496 257.317C24.0014 257.317 24.1524 257.279 24.3024 257.203C24.4543 257.127 24.5799 257.012 24.6794 256.859C24.7806 256.705 24.8303 256.51 24.8285 256.273ZM27.5423 255.527V258H26.7315V253.835H27.5098V254.513H27.5613C27.6571 254.292 27.8072 254.115 28.0115 253.981C28.2176 253.848 28.477 253.781 28.7897 253.781C29.0736 253.781 29.3221 253.84 29.5355 253.96C29.7488 254.077 29.9142 254.253 30.0317 254.486C30.1492 254.719 30.208 255.007 30.208 255.351V258H29.3972V255.448C29.3972 255.147 29.3185 254.911 29.1612 254.741C29.004 254.569 28.7879 254.483 28.5131 254.483C28.3251 254.483 28.1579 254.524 28.0115 254.605C27.8668 254.686 27.752 254.806 27.6671 254.963C27.5839 255.119 27.5423 255.307 27.5423 255.527Z" fill="#5654D4"/>
<path d="M55.7131 252.446H56.5484V256.384C56.5484 256.74 56.4779 257.045 56.3369 257.298C56.1976 257.551 56.0015 257.744 55.7484 257.878C55.4953 258.01 55.1988 258.076 54.8589 258.076C54.5462 258.076 54.2651 258.019 54.0156 257.905C53.7679 257.791 53.5717 257.626 53.4271 257.409C53.2843 257.19 53.2129 256.924 53.2129 256.612H54.0454C54.0454 256.765 54.0807 256.898 54.1512 257.01C54.2235 257.122 54.322 257.21 54.4467 257.273C54.5733 257.335 54.7179 257.365 54.8806 257.365C55.0578 257.365 55.2078 257.328 55.3308 257.254C55.4555 257.178 55.5504 257.067 55.6155 256.921C55.6806 256.774 55.7131 256.595 55.7131 256.384V252.446ZM60.3415 256.273V253.835H61.155V258H60.3577V257.279H60.3143C60.2185 257.501 60.0649 257.686 59.8533 257.835C59.6436 257.981 59.3824 258.054 59.0696 258.054C58.8021 258.054 58.5653 257.995 58.3592 257.878C58.1549 257.759 57.994 257.582 57.8765 257.349C57.7608 257.116 57.7029 256.828 57.7029 256.484V253.835H58.5137V256.386C58.5137 256.67 58.5924 256.896 58.7497 257.064C58.9069 257.233 59.1112 257.317 59.3625 257.317C59.5144 257.317 59.6653 257.279 59.8154 257.203C59.9672 257.127 60.0929 257.012 60.1923 256.858C60.2936 256.705 60.3433 256.509 60.3415 256.273ZM63.0553 252.446V258H62.2445V252.446H63.0553Z" fill="#717784"/>
</g>
<rect x="107.5" y="79.5" width="239" height="281" rx="19.5" fill="white" fill-opacity="0.4"/>
<rect x="107.5" y="79.5" width="239" height="281" rx="19.5" stroke="white"/>
<g filter="url(#filter1_dd_7841_8599)">
<rect x="115" y="87" width="224" height="266" rx="16" fill="white"/>
<path d="M144.562 309.676V308.995C143.531 308.913 142.715 308.326 142.682 307.355V307.351L143.531 307.347V307.355C143.6 307.828 143.906 308.183 144.562 308.252V306.47L144.403 306.429C143.372 306.189 142.813 305.724 142.813 304.9V304.892C142.813 303.982 143.539 303.379 144.562 303.297V302.612H145.044V303.297C146.055 303.383 146.785 304.011 146.822 304.929V304.933L145.978 304.937V304.929C145.92 304.423 145.562 304.113 145.044 304.039V305.748L145.227 305.793C146.3 306.042 146.887 306.482 146.887 307.347V307.355C146.887 308.35 146.075 308.917 145.044 308.995V309.676H144.562ZM143.673 304.835C143.673 305.198 143.918 305.471 144.562 305.634V304.039C143.979 304.117 143.673 304.455 143.673 304.827V304.835ZM146.022 307.429C146.022 307.008 145.794 306.76 145.044 306.58V308.256C145.733 308.199 146.022 307.869 146.022 307.437V307.429ZM150.823 309.088V307.918H147.951V307.143C148.726 305.814 149.591 304.423 150.403 303.203H151.703V307.143H152.515V307.918H151.703V309.088H150.823ZM148.828 307.159H150.835V303.974H150.782C150.15 304.924 149.432 306.07 148.828 307.102V307.159ZM155.643 303.061C156.822 303.061 157.935 303.893 157.935 306.054V306.062C157.935 308.057 157.066 309.231 155.61 309.231C154.566 309.231 153.792 308.619 153.6 307.73L153.588 307.681H154.497L154.509 307.722C154.677 308.171 155.06 308.456 155.61 308.456C156.601 308.456 157.017 307.49 157.062 306.315C157.062 306.27 157.066 306.225 157.066 306.181H156.985C156.773 306.654 156.238 307.074 155.439 307.074C154.318 307.074 153.51 306.242 153.51 305.116V305.108C153.51 303.925 154.407 303.061 155.643 303.061ZM155.639 306.336C156.345 306.336 156.887 305.822 156.887 305.112V305.108C156.887 304.39 156.345 303.827 155.651 303.827C154.962 303.827 154.411 304.378 154.411 305.084V305.092C154.411 305.814 154.929 306.336 155.639 306.336ZM158.571 310.618L158.93 308.224H159.872L159.195 310.618H158.571ZM163.188 309.198C161.932 309.198 161.112 308.509 161.035 307.535L161.03 307.486H161.903L161.907 307.526C161.964 308.061 162.458 308.436 163.188 308.436C163.906 308.436 164.391 308.032 164.391 307.453V307.445C164.391 306.78 163.91 306.409 163.127 306.409H162.409V305.699H163.098C163.771 305.699 164.228 305.304 164.228 304.757V304.749C164.228 304.178 163.844 303.844 163.18 303.844C162.527 303.844 162.07 304.19 162.013 304.745L162.009 304.786H161.153L161.157 304.741C161.247 303.75 162.03 303.093 163.18 303.093C164.35 303.093 165.117 303.721 165.117 304.631V304.639C165.117 305.369 164.595 305.858 163.877 306.009V306.03C164.742 306.107 165.321 306.629 165.321 307.453V307.461C165.321 308.473 164.436 309.198 163.188 309.198ZM166.732 309.088L169.326 304.039V303.974H166.242V303.203H170.251V303.995L167.69 309.088H166.732ZM173.404 309.231C172.221 309.231 171.112 308.399 171.112 306.234V306.225C171.112 304.235 171.981 303.061 173.437 303.061C174.476 303.061 175.251 303.672 175.447 304.562L175.455 304.61H174.55L174.534 304.57C174.37 304.121 173.987 303.836 173.432 303.836C172.441 303.836 172.03 304.802 171.985 305.977C171.981 306.022 171.981 306.066 171.981 306.111H172.058C172.274 305.638 172.804 305.218 173.608 305.218C174.729 305.218 175.533 306.05 175.533 307.176V307.184C175.533 308.367 174.64 309.231 173.404 309.231ZM172.16 307.184C172.16 307.902 172.702 308.464 173.396 308.464C174.085 308.464 174.631 307.914 174.631 307.208V307.2C174.631 306.478 174.118 305.956 173.404 305.956C172.698 305.956 172.16 306.47 172.16 307.18V307.184Z" fill="#080808"/>
<path d="M150.898 322.632V316.747H151.722L154.748 321.03H154.809V316.747H155.698V322.632H154.875L151.853 318.358H151.787V322.632H150.898ZM158.936 322.718C157.64 322.718 156.857 321.833 156.857 320.43V320.426C156.857 319.043 157.656 318.118 158.892 318.118C160.127 318.118 160.886 319.011 160.886 320.34V320.65H157.746C157.762 321.499 158.227 321.992 158.957 321.992C159.524 321.992 159.862 321.711 159.968 321.482L159.985 321.45L160.837 321.446L160.829 321.482C160.682 322.065 160.07 322.718 158.936 322.718ZM158.896 318.844C158.292 318.844 157.835 319.256 157.758 320.018H160.009C159.94 319.227 159.495 318.844 158.896 318.844ZM162.758 322.632L161.534 318.203H162.423L163.219 321.621H163.284L164.197 318.203H165.038L165.951 321.621H166.02L166.812 318.203H167.688L166.469 322.632H165.56L164.642 319.329H164.573L163.659 322.632H162.758ZM140.327 334.775C138.692 334.775 137.672 333.592 137.672 331.696V331.688C137.672 329.787 138.688 328.605 140.323 328.605C141.62 328.605 142.615 329.424 142.77 330.595L142.766 330.615H141.861V330.603C141.69 329.881 141.098 329.412 140.323 329.412C139.267 329.412 138.606 330.289 138.606 331.688V331.696C138.606 333.091 139.267 333.968 140.327 333.968C141.106 333.968 141.69 333.552 141.857 332.887L141.865 332.871H142.77V332.895C142.599 334.025 141.641 334.775 140.327 334.775ZM145.348 334.718C144.349 334.718 143.831 334.118 143.831 333.07V330.203H144.716V332.862C144.716 333.596 144.985 333.959 145.633 333.959C146.343 333.959 146.722 333.515 146.722 332.801V330.203H147.603V334.632H146.722V333.963H146.653C146.441 334.441 145.992 334.718 145.348 334.718ZM150.49 334.718C149.422 334.718 148.745 334.216 148.659 333.474V333.47H149.544L149.548 333.474C149.658 333.809 149.981 334.033 150.507 334.033C151.053 334.033 151.432 333.784 151.432 333.421V333.413C151.432 333.136 151.224 332.948 150.711 332.83L150.005 332.667C149.169 332.475 148.782 332.096 148.782 331.447V331.443C148.782 330.672 149.499 330.118 150.503 330.118C151.514 330.118 152.162 330.623 152.24 331.345V331.349H151.396V331.341C151.31 331.031 150.996 330.799 150.499 330.799C150.013 330.799 149.663 331.039 149.663 331.394V331.402C149.663 331.68 149.866 331.851 150.364 331.969L151.065 332.128C151.918 332.328 152.326 332.691 152.326 333.331V333.34C152.326 334.159 151.543 334.718 150.49 334.718ZM155.021 334.661C154.047 334.661 153.647 334.318 153.647 333.466V330.901H152.954V330.203H153.647V329.086H154.548V330.203H155.499V330.901H154.548V333.254C154.548 333.731 154.728 333.927 155.164 333.927C155.299 333.927 155.376 333.923 155.499 333.91V334.616C155.356 334.64 155.193 334.661 155.021 334.661ZM158.357 334.718C157.056 334.718 156.261 333.849 156.261 332.422V332.414C156.261 330.99 157.06 330.118 158.357 330.118C159.65 330.118 160.45 330.986 160.45 332.414V332.422C160.45 333.849 159.654 334.718 158.357 334.718ZM158.357 333.98C159.116 333.98 159.548 333.401 159.548 332.422V332.414C159.548 331.431 159.116 330.856 158.357 330.856C157.595 330.856 157.167 331.431 157.167 332.414V332.422C157.167 333.405 157.595 333.98 158.357 333.98ZM161.506 334.632V330.203H162.391V330.884H162.456C162.652 330.399 163.084 330.118 163.663 330.118C164.267 330.118 164.695 330.432 164.891 330.909H164.96C165.184 330.432 165.694 330.118 166.31 330.118C167.203 330.118 167.725 330.656 167.725 331.578V334.632H166.844V331.79C166.844 331.178 166.567 330.876 165.988 330.876C165.425 330.876 165.054 331.296 165.054 331.831V334.632H164.173V331.7C164.173 331.194 163.843 330.876 163.321 330.876C162.786 330.876 162.391 331.333 162.391 331.912V334.632H161.506ZM170.821 334.718C169.524 334.718 168.741 333.833 168.741 332.43V332.426C168.741 331.043 169.54 330.118 170.776 330.118C172.011 330.118 172.77 331.011 172.77 332.34V332.65H169.63C169.646 333.499 170.111 333.992 170.841 333.992C171.408 333.992 171.746 333.711 171.852 333.482L171.869 333.45L172.721 333.446L172.713 333.482C172.566 334.065 171.954 334.718 170.821 334.718ZM170.78 330.844C170.176 330.844 169.719 331.256 169.642 332.018H171.893C171.824 331.227 171.379 330.844 170.78 330.844ZM173.822 334.632V330.203H174.707V330.872H174.772C174.931 330.403 175.343 330.126 175.935 330.126C176.077 330.126 176.232 330.146 176.322 330.167V330.982C176.163 330.95 176.012 330.929 175.845 330.929C175.168 330.929 174.707 331.345 174.707 331.986V334.632H173.822ZM178.687 334.718C177.619 334.718 176.942 334.216 176.856 333.474V333.47H177.741L177.745 333.474C177.856 333.809 178.178 334.033 178.704 334.033C179.25 334.033 179.63 333.784 179.63 333.421V333.413C179.63 333.136 179.422 332.948 178.908 332.83L178.202 332.667C177.366 332.475 176.979 332.096 176.979 331.447V331.443C176.979 330.672 177.696 330.118 178.7 330.118C179.711 330.118 180.36 330.623 180.437 331.345V331.349H179.593V331.341C179.507 331.031 179.193 330.799 178.696 330.799C178.21 330.799 177.86 331.039 177.86 331.394V331.402C177.86 331.68 178.064 331.851 178.561 331.969L179.263 332.128C180.115 332.328 180.523 332.691 180.523 333.331V333.34C180.523 334.159 179.74 334.718 178.687 334.718Z" fill="#888888"/>
<path d="M193.029 306.332V331.389" stroke="#EFEFEF" stroke-width="0.596591"/>
<path d="M212.457 309.676V308.995C211.425 308.913 210.61 308.326 210.577 307.355V307.351L211.425 307.347V307.355C211.495 307.828 211.801 308.183 212.457 308.252V306.47L212.298 306.429C211.266 306.189 210.708 305.724 210.708 304.9V304.892C210.708 303.982 211.434 303.379 212.457 303.297V302.612H212.938V303.297C213.95 303.383 214.68 304.011 214.717 304.929V304.933L213.872 304.937V304.929C213.815 304.423 213.456 304.113 212.938 304.039V305.748L213.122 305.793C214.194 306.042 214.782 306.482 214.782 307.347V307.355C214.782 308.35 213.97 308.917 212.938 308.995V309.676H212.457ZM211.568 304.835C211.568 305.198 211.813 305.471 212.457 305.634V304.039C211.874 304.117 211.568 304.455 211.568 304.827V304.835ZM213.917 307.429C213.917 307.008 213.689 306.76 212.938 306.58V308.256C213.628 308.199 213.917 307.869 213.917 307.437V307.429ZM218.089 309.198C216.833 309.198 216.013 308.509 215.936 307.535L215.932 307.486H216.805L216.809 307.526C216.866 308.061 217.359 308.436 218.089 308.436C218.807 308.436 219.292 308.032 219.292 307.453V307.445C219.292 306.78 218.811 306.409 218.028 306.409H217.31V305.699H218C218.672 305.699 219.129 305.304 219.129 304.757V304.749C219.129 304.178 218.746 303.844 218.081 303.844C217.429 303.844 216.972 304.19 216.915 304.745L216.911 304.786H216.054L216.058 304.741C216.148 303.75 216.931 303.093 218.081 303.093C219.252 303.093 220.018 303.721 220.018 304.631V304.639C220.018 305.369 219.496 305.858 218.778 306.009V306.03C219.643 306.107 220.222 306.629 220.222 307.453V307.461C220.222 308.473 219.337 309.198 218.089 309.198ZM224.084 309.088V307.918H221.213V307.143C221.988 305.814 222.853 304.423 223.664 303.203H224.965V307.143H225.777V307.918H224.965V309.088H224.084ZM222.09 307.159H224.097V303.974H224.043C223.411 304.924 222.694 306.07 222.09 307.102V307.159ZM226.499 310.618L226.857 308.224H227.8L227.123 310.618H226.499ZM231.066 309.231C229.908 309.231 229.109 308.509 229.027 307.555L229.023 307.502H229.879L229.884 307.535C229.961 308.053 230.43 308.464 231.074 308.464C231.8 308.464 232.306 307.946 232.306 307.208V307.2C232.306 306.474 231.792 305.96 231.083 305.96C230.724 305.96 230.418 306.066 230.185 306.278C230.079 306.372 229.986 306.486 229.916 306.621H229.129L229.423 303.203H232.844V303.978H230.14L229.961 305.854H230.03C230.279 305.459 230.74 305.23 231.282 305.23C232.388 305.23 233.179 306.054 233.179 307.184V307.192C233.179 308.399 232.306 309.231 231.066 309.231ZM236.503 309.231C235.32 309.231 234.211 308.399 234.211 306.234V306.225C234.211 304.235 235.079 303.061 236.535 303.061C237.575 303.061 238.35 303.672 238.546 304.562L238.554 304.61H237.649L237.632 304.57C237.469 304.121 237.086 303.836 236.531 303.836C235.54 303.836 235.128 304.802 235.083 305.977C235.079 306.022 235.079 306.066 235.079 306.111H235.157C235.373 305.638 235.903 305.218 236.706 305.218C237.828 305.218 238.631 306.05 238.631 307.176V307.184C238.631 308.367 237.738 309.231 236.503 309.231ZM235.259 307.184C235.259 307.902 235.801 308.464 236.494 308.464C237.184 308.464 237.73 307.914 237.73 307.208V307.2C237.73 306.478 237.216 305.956 236.503 305.956C235.797 305.956 235.259 306.47 235.259 307.18V307.184ZM241.841 309.198C240.585 309.198 239.765 308.509 239.688 307.535L239.684 307.486H240.556L240.56 307.526C240.618 308.061 241.111 308.436 241.841 308.436C242.559 308.436 243.044 308.032 243.044 307.453V307.445C243.044 306.78 242.563 306.409 241.78 306.409H241.062V305.699H241.751C242.424 305.699 242.881 305.304 242.881 304.757V304.749C242.881 304.178 242.498 303.844 241.833 303.844C241.18 303.844 240.724 304.19 240.666 304.745L240.662 304.786H239.806L239.81 304.741C239.9 303.75 240.683 303.093 241.833 303.093C243.003 303.093 243.77 303.721 243.77 304.631V304.639C243.77 305.369 243.248 305.858 242.53 306.009V306.03C243.395 306.107 243.974 306.629 243.974 307.453V307.461C243.974 308.473 243.089 309.198 241.841 309.198Z" fill="#080808"/>
<path d="M211.821 322.632V316.747H215.556V317.535H212.734V319.256H215.406V320.014H212.734V321.845H215.556V322.632H211.821ZM216.433 322.632L217.906 320.426L216.421 318.203H217.445L218.399 319.786H218.468L219.414 318.203H220.393L218.929 320.389L220.41 322.632H219.402L218.432 321.034H218.366L217.396 322.632H216.433ZM221.788 317.412C221.482 317.412 221.233 317.163 221.233 316.862C221.233 316.556 221.482 316.307 221.788 316.307C222.09 316.307 222.343 316.556 222.343 316.862C222.343 317.163 222.09 317.412 221.788 317.412ZM221.343 322.632V318.203H222.224V322.632H221.343ZM225.124 322.718C224.056 322.718 223.379 322.216 223.293 321.474V321.47H224.178L224.182 321.474C224.292 321.809 224.614 322.033 225.14 322.033C225.687 322.033 226.066 321.784 226.066 321.421V321.413C226.066 321.136 225.858 320.948 225.344 320.83L224.639 320.667C223.803 320.475 223.415 320.096 223.415 319.447V319.443C223.415 318.672 224.133 318.118 225.136 318.118C226.148 318.118 226.796 318.623 226.874 319.345V319.349H226.029V319.341C225.944 319.031 225.63 318.799 225.132 318.799C224.647 318.799 224.296 319.039 224.296 319.394V319.402C224.296 319.68 224.5 319.851 224.998 319.969L225.699 320.128C226.551 320.328 226.959 320.691 226.959 321.331V321.34C226.959 322.159 226.176 322.718 225.124 322.718ZM229.655 322.661C228.68 322.661 228.281 322.318 228.281 321.466V318.901H227.587V318.203H228.281V317.086H229.182V318.203H230.132V318.901H229.182V321.254C229.182 321.731 229.361 321.927 229.798 321.927C229.932 321.927 230.01 321.923 230.132 321.91V322.616C229.989 322.64 229.826 322.661 229.655 322.661ZM231.625 317.412C231.319 317.412 231.07 317.163 231.07 316.862C231.07 316.556 231.319 316.307 231.625 316.307C231.927 316.307 232.179 316.556 232.179 316.862C232.179 317.163 231.927 317.412 231.625 317.412ZM231.18 322.632V318.203H232.061V322.632H231.18ZM233.35 322.632V318.203H234.235V318.876H234.3C234.516 318.403 234.94 318.118 235.585 318.118C236.576 318.118 237.122 318.709 237.122 319.765V322.632H236.241V319.973C236.241 319.239 235.935 318.876 235.287 318.876C234.639 318.876 234.235 319.321 234.235 320.034V322.632H233.35ZM240.23 324.194C239.104 324.194 238.411 323.701 238.305 322.963L238.313 322.955H239.206L239.21 322.963C239.284 323.269 239.643 323.485 240.242 323.485C240.972 323.485 241.404 323.142 241.404 322.539V321.666H241.339C241.07 322.147 240.581 322.416 239.973 322.416C238.835 322.416 238.134 321.539 238.134 320.291V320.283C238.134 319.019 238.839 318.126 239.989 318.126C240.609 318.126 241.09 318.432 241.347 318.929H241.4V318.203H242.281V322.543C242.281 323.55 241.486 324.194 240.23 324.194ZM240.218 321.686C240.968 321.686 241.421 321.115 241.421 320.287V320.279C241.421 319.455 240.964 318.876 240.218 318.876C239.463 318.876 239.039 319.455 239.039 320.279V320.287C239.039 321.111 239.463 321.686 240.218 321.686ZM208.269 334.775C206.633 334.775 205.614 333.592 205.614 331.696V331.688C205.614 329.787 206.629 328.605 208.265 328.605C209.561 328.605 210.556 329.424 210.711 330.595L210.707 330.615H209.802V330.603C209.631 329.881 209.039 329.412 208.265 329.412C207.208 329.412 206.548 330.289 206.548 331.688V331.696C206.548 333.091 207.208 333.968 208.269 333.968C209.048 333.968 209.631 333.552 209.798 332.887L209.806 332.871H210.711V332.895C210.54 334.025 209.582 334.775 208.269 334.775ZM213.289 334.718C212.29 334.718 211.772 334.118 211.772 333.07V330.203H212.657V332.862C212.657 333.596 212.926 333.959 213.574 333.959C214.284 333.959 214.663 333.515 214.663 332.801V330.203H215.544V334.632H214.663V333.963H214.594C214.382 334.441 213.933 334.718 213.289 334.718ZM218.432 334.718C217.363 334.718 216.686 334.216 216.6 333.474V333.47H217.485L217.49 333.474C217.6 333.809 217.922 334.033 218.448 334.033C218.994 334.033 219.374 333.784 219.374 333.421V333.413C219.374 333.136 219.166 332.948 218.652 332.83L217.946 332.667C217.11 332.475 216.723 332.096 216.723 331.447V331.443C216.723 330.672 217.441 330.118 218.444 330.118C219.455 330.118 220.104 330.623 220.181 331.345V331.349H219.337V331.341C219.251 331.031 218.937 330.799 218.44 330.799C217.954 330.799 217.604 331.039 217.604 331.394V331.402C217.604 331.68 217.808 331.851 218.305 331.969L219.007 332.128C219.859 332.328 220.267 332.691 220.267 333.331V333.34C220.267 334.159 219.484 334.718 218.432 334.718ZM222.963 334.661C221.988 334.661 221.588 334.318 221.588 333.466V330.901H220.895V330.203H221.588V329.086H222.489V330.203H223.44V330.901H222.489V333.254C222.489 333.731 222.669 333.927 223.105 333.927C223.24 333.927 223.317 333.923 223.44 333.91V334.616C223.297 334.64 223.134 334.661 222.963 334.661ZM226.299 334.718C224.998 334.718 224.202 333.849 224.202 332.422V332.414C224.202 330.99 225.002 330.118 226.299 330.118C227.591 330.118 228.391 330.986 228.391 332.414V332.422C228.391 333.849 227.595 334.718 226.299 334.718ZM226.299 333.98C227.057 333.98 227.489 333.401 227.489 332.422V332.414C227.489 331.431 227.057 330.856 226.299 330.856C225.536 330.856 225.108 331.431 225.108 332.414V332.422C225.108 333.405 225.536 333.98 226.299 333.98ZM229.447 334.632V330.203H230.332V330.884H230.397C230.593 330.399 231.025 330.118 231.604 330.118C232.208 330.118 232.636 330.432 232.832 330.909H232.901C233.126 330.432 233.635 330.118 234.251 330.118C235.144 330.118 235.666 330.656 235.666 331.578V334.632H234.785V331.79C234.785 331.178 234.508 330.876 233.929 330.876C233.366 330.876 232.995 331.296 232.995 331.831V334.632H232.114V331.7C232.114 331.194 231.784 330.876 231.262 330.876C230.728 330.876 230.332 331.333 230.332 331.912V334.632H229.447ZM238.762 334.718C237.465 334.718 236.682 333.833 236.682 332.43V332.426C236.682 331.043 237.481 330.118 238.717 330.118C239.953 330.118 240.711 331.011 240.711 332.34V332.65H237.571C237.587 333.499 238.052 333.992 238.782 333.992C239.349 333.992 239.687 333.711 239.794 333.482L239.81 333.45L240.662 333.446L240.654 333.482C240.507 334.065 239.895 334.718 238.762 334.718ZM238.721 330.844C238.117 330.844 237.661 331.256 237.583 332.018H239.834C239.765 331.227 239.32 330.844 238.721 330.844ZM241.763 334.632V330.203H242.648V330.872H242.714C242.873 330.403 243.285 330.126 243.876 330.126C244.019 330.126 244.174 330.146 244.263 330.167V330.982C244.104 330.95 243.953 330.929 243.786 330.929C243.109 330.929 242.648 331.345 242.648 331.986V334.632H241.763ZM246.629 334.718C245.56 334.718 244.883 334.216 244.798 333.474V333.47H245.683L245.687 333.474C245.797 333.809 246.119 334.033 246.645 334.033C247.191 334.033 247.571 333.784 247.571 333.421V333.413C247.571 333.136 247.363 332.948 246.849 332.83L246.143 332.667C245.307 332.475 244.92 332.096 244.92 331.447V331.443C244.92 330.672 245.638 330.118 246.641 330.118C247.652 330.118 248.301 330.623 248.378 331.345V331.349H247.534V331.341C247.448 331.031 247.134 330.799 246.637 330.799C246.152 330.799 245.801 331.039 245.801 331.394V331.402C245.801 331.68 246.005 331.851 246.502 331.969L247.204 332.128C248.056 332.328 248.464 332.691 248.464 333.331V333.34C248.464 334.159 247.681 334.718 246.629 334.718Z" fill="#888888"/>
<path d="M260.971 306.332V331.389" stroke="#EFEFEF" stroke-width="0.596591"/>
<path d="M281.508 309.676V308.995C280.477 308.913 279.661 308.326 279.628 307.355V307.351L280.477 307.347V307.355C280.546 307.828 280.852 308.183 281.508 308.252V306.47L281.349 306.429C280.318 306.189 279.759 305.724 279.759 304.9V304.892C279.759 303.982 280.485 303.379 281.508 303.297V302.612H281.99V303.297C283.001 303.383 283.731 304.011 283.768 304.929V304.933L282.924 304.937V304.929C282.866 304.423 282.508 304.113 281.99 304.039V305.748L282.173 305.793C283.246 306.042 283.833 306.482 283.833 307.347V307.355C283.833 308.35 283.021 308.917 281.99 308.995V309.676H281.508ZM280.619 304.835C280.619 305.198 280.864 305.471 281.508 305.634V304.039C280.925 304.117 280.619 304.455 280.619 304.827V304.835ZM282.968 307.429C282.968 307.008 282.74 306.76 281.99 306.58V308.256C282.679 308.199 282.968 307.869 282.968 307.437V307.429ZM286.508 309.088V304.146H286.439L284.959 305.202V304.305L286.508 303.203H287.422V309.088H286.508ZM291.79 309.088V307.918H288.919V307.143C289.693 305.814 290.558 304.423 291.37 303.203H292.671V307.143H293.482V307.918H292.671V309.088H291.79ZM289.795 307.159H291.802V303.974H291.749C291.117 304.924 290.399 306.07 289.795 307.102V307.159ZM294.204 310.618L294.563 308.224H295.505L294.828 310.618H294.204ZM298.796 309.198C297.491 309.198 296.569 308.497 296.569 307.498V307.49C296.569 306.747 297.104 306.156 297.874 305.989V305.969C297.214 305.781 296.781 305.287 296.781 304.663V304.655C296.781 303.754 297.626 303.093 298.796 303.093C299.971 303.093 300.811 303.754 300.811 304.655V304.663C300.811 305.287 300.383 305.781 299.722 305.969V305.989C300.493 306.156 301.027 306.747 301.027 307.49V307.498C301.027 308.497 300.105 309.198 298.796 309.198ZM298.796 305.663C299.457 305.663 299.905 305.279 299.905 304.741V304.733C299.905 304.194 299.453 303.819 298.796 303.819C298.14 303.819 297.687 304.194 297.687 304.733V304.741C297.687 305.279 298.14 305.663 298.796 305.663ZM298.796 308.464C299.551 308.464 300.085 308.036 300.085 307.441V307.433C300.085 306.829 299.555 306.393 298.796 306.393C298.042 306.393 297.511 306.829 297.511 307.433V307.441C297.511 308.036 298.046 308.464 298.796 308.464ZM303.629 309.088V304.146H303.56L302.079 305.202V304.305L303.629 303.203H304.542V309.088H303.629ZM308.282 309.198C307.026 309.198 306.206 308.509 306.129 307.535L306.125 307.486H306.998L307.002 307.526C307.059 308.061 307.552 308.436 308.282 308.436C309 308.436 309.485 308.032 309.485 307.453V307.445C309.485 306.78 309.004 306.409 308.221 306.409H307.503V305.699H308.192C308.865 305.699 309.322 305.304 309.322 304.757V304.749C309.322 304.178 308.939 303.844 308.274 303.844C307.621 303.844 307.165 304.19 307.108 304.745L307.104 304.786H306.247L306.251 304.741C306.341 303.75 307.124 303.093 308.274 303.093C309.444 303.093 310.211 303.721 310.211 304.631V304.639C310.211 305.369 309.689 305.858 308.971 306.009V306.03C309.836 306.107 310.415 306.629 310.415 307.453V307.461C310.415 308.473 309.53 309.198 308.282 309.198Z" fill="#080808"/>
<path d="M283.159 322.775C281.683 322.775 280.773 321.898 280.773 320.605V316.747H281.687V320.536C281.687 321.388 282.221 321.968 283.159 321.968C284.097 321.968 284.627 321.388 284.627 320.536V316.747H285.541V320.605C285.541 321.898 284.64 322.775 283.159 322.775ZM286.911 324.109V318.203H287.796V318.901H287.861C288.118 318.415 288.604 318.126 289.223 318.126C290.341 318.126 291.059 319.019 291.059 320.414V320.422C291.059 321.825 290.349 322.706 289.223 322.706C288.616 322.706 288.098 322.408 287.861 321.931H287.796V324.109H286.911ZM288.975 321.951C289.713 321.951 290.157 321.372 290.157 320.422V320.414C290.157 319.459 289.713 318.884 288.975 318.884C288.237 318.884 287.78 319.468 287.78 320.414V320.422C287.78 321.368 288.237 321.951 288.975 321.951ZM293.734 322.718C292.666 322.718 291.989 322.216 291.903 321.474V321.47H292.788L292.792 321.474C292.902 321.809 293.224 322.033 293.75 322.033C294.297 322.033 294.676 321.784 294.676 321.421V321.413C294.676 321.136 294.468 320.948 293.954 320.83L293.249 320.667C292.413 320.475 292.025 320.096 292.025 319.447V319.443C292.025 318.672 292.743 318.118 293.746 318.118C294.758 318.118 295.406 318.623 295.484 319.345V319.349H294.639V319.341C294.554 319.031 294.24 318.799 293.742 318.799C293.257 318.799 292.906 319.039 292.906 319.394V319.402C292.906 319.68 293.11 319.851 293.608 319.969L294.309 320.128C295.161 320.328 295.569 320.691 295.569 321.331V321.34C295.569 322.159 294.786 322.718 293.734 322.718ZM298.485 322.718C297.188 322.718 296.405 321.833 296.405 320.43V320.426C296.405 319.043 297.205 318.118 298.44 318.118C299.676 318.118 300.435 319.011 300.435 320.34V320.65H297.294C297.311 321.499 297.776 321.992 298.506 321.992C299.072 321.992 299.411 321.711 299.517 321.482L299.533 321.45L300.386 321.446L300.378 321.482C300.231 322.065 299.619 322.718 298.485 322.718ZM298.444 318.844C297.841 318.844 297.384 319.256 297.307 320.018H299.558C299.488 319.227 299.044 318.844 298.444 318.844ZM301.528 322.632V316.466H302.413V322.632H301.528ZM303.771 322.632V316.466H304.656V322.632H303.771ZM307.584 322.718C306.515 322.718 305.838 322.216 305.753 321.474V321.47H306.638L306.642 321.474C306.752 321.809 307.074 322.033 307.6 322.033C308.147 322.033 308.526 321.784 308.526 321.421V321.413C308.526 321.136 308.318 320.948 307.804 320.83L307.098 320.667C306.262 320.475 305.875 320.096 305.875 319.447V319.443C305.875 318.672 306.593 318.118 307.596 318.118C308.607 318.118 309.256 318.623 309.333 319.345V319.349H308.489V319.341C308.404 319.031 308.089 318.799 307.592 318.799C307.107 318.799 306.756 319.039 306.756 319.394V319.402C306.756 319.68 306.96 319.851 307.457 319.969L308.159 320.128C309.011 320.328 309.419 320.691 309.419 321.331V321.34C309.419 322.159 308.636 322.718 307.584 322.718ZM275.965 334.742C274.766 334.742 273.95 334.065 273.95 333.079V333.07C273.95 332.365 274.322 331.843 275.105 331.447L275.337 331.329C274.782 330.713 274.595 330.366 274.595 329.967V329.959C274.595 329.188 275.264 328.625 276.161 328.625C277.062 328.625 277.715 329.18 277.715 329.955V329.963C277.715 330.542 277.372 330.995 276.463 331.488L277.792 332.899C277.98 332.495 278.069 332.014 278.069 331.488V331.353H278.865V331.521C278.865 332.287 278.706 332.968 278.371 333.511L279.423 334.628V334.632H278.355L277.87 334.102C277.401 334.506 276.768 334.742 275.965 334.742ZM275.414 330.004C275.414 330.293 275.565 330.526 276.022 331.015C276.695 330.66 276.915 330.379 276.915 330.004V329.995C276.915 329.579 276.609 329.282 276.165 329.282C275.729 329.282 275.414 329.579 275.414 329.995V330.004ZM274.823 333.009C274.823 333.621 275.317 334.033 276.051 334.033C276.601 334.033 277.034 333.849 277.352 333.535L275.798 331.835L275.61 331.928C275.096 332.181 274.823 332.552 274.823 333.001V333.009ZM282.107 334.632L284.232 328.747H285.219L287.343 334.632H286.381L285.851 333.042H283.6L283.065 334.632H282.107ZM284.688 329.779L283.844 332.308H285.606L284.758 329.779H284.688ZM289.635 334.706C288.522 334.706 287.8 333.813 287.8 332.422V332.414C287.8 331.011 288.51 330.126 289.635 330.126C290.243 330.126 290.761 330.428 290.998 330.905H291.067V328.466H291.948V334.632H291.067V333.935H290.998C290.741 334.42 290.255 334.706 289.635 334.706ZM289.888 333.951C290.626 333.951 291.079 333.368 291.079 332.422V332.414C291.079 331.468 290.622 330.884 289.888 330.884C289.146 330.884 288.701 331.464 288.701 332.414V332.422C288.701 333.372 289.146 333.951 289.888 333.951ZM294.88 334.706C293.767 334.706 293.045 333.813 293.045 332.422V332.414C293.045 331.011 293.754 330.126 294.88 330.126C295.488 330.126 296.006 330.428 296.242 330.905H296.311V328.466H297.192V334.632H296.311V333.935H296.242C295.985 334.42 295.5 334.706 294.88 334.706ZM295.133 333.951C295.871 333.951 296.324 333.368 296.324 332.422V332.414C296.324 331.468 295.867 330.884 295.133 330.884C294.391 330.884 293.946 331.464 293.946 332.414V332.422C293.946 333.372 294.391 333.951 295.133 333.951ZM298.497 332.667V331.855H301.226V332.667H298.497ZM304.366 334.718C303.065 334.718 302.27 333.849 302.27 332.422V332.414C302.27 330.99 303.069 330.118 304.366 330.118C305.659 330.118 306.458 330.986 306.458 332.414V332.422C306.458 333.849 305.663 334.718 304.366 334.718ZM304.366 333.98C305.125 333.98 305.557 333.401 305.557 332.422V332.414C305.557 331.431 305.125 330.856 304.366 330.856C303.603 330.856 303.175 331.431 303.175 332.414V332.422C303.175 333.405 303.603 333.98 304.366 333.98ZM307.514 334.632V330.203H308.399V330.876H308.465C308.681 330.403 309.105 330.118 309.749 330.118C310.74 330.118 311.287 330.709 311.287 331.765V334.632H310.406V331.973C310.406 331.239 310.1 330.876 309.452 330.876C308.803 330.876 308.399 331.321 308.399 332.034V334.632H307.514ZM314.133 334.718C313.065 334.718 312.388 334.216 312.302 333.474V333.47H313.187L313.191 333.474C313.302 333.809 313.624 334.033 314.15 334.033C314.696 334.033 315.076 333.784 315.076 333.421V333.413C315.076 333.136 314.868 332.948 314.354 332.83L313.648 332.667C312.812 332.475 312.425 332.096 312.425 331.447V331.443C312.425 330.672 313.142 330.118 314.146 330.118C315.157 330.118 315.806 330.623 315.883 331.345V331.349H315.039V331.341C314.953 331.031 314.639 330.799 314.142 330.799C313.656 330.799 313.306 331.039 313.306 331.394V331.402C313.306 331.68 313.51 331.851 314.007 331.969L314.709 332.128C315.561 332.328 315.969 332.691 315.969 333.331V333.34C315.969 334.159 315.186 334.718 314.133 334.718Z" fill="#888888"/>
<circle cx="227" cy="197.404" r="69.2013" stroke="#EFEFEF" stroke-width="0.567954"/>
<path d="M209.49 139.89C208.434 136.361 210.436 132.608 214.053 131.909C226.659 129.474 239.753 130.721 251.741 135.575C265.799 141.267 277.497 151.579 284.907 164.812C292.317 178.044 294.997 193.407 292.505 208.366C290.013 223.326 282.497 236.99 271.197 247.106C259.897 257.221 245.487 263.184 230.344 264.011C215.201 264.838 200.227 260.48 187.893 251.656C175.558 242.831 166.599 230.067 162.492 215.468C158.99 203.017 159.195 189.866 163.006 177.605C164.1 174.087 168.05 172.511 171.442 173.95C174.833 175.39 176.371 179.299 175.366 182.844C172.689 192.284 172.655 202.326 175.335 211.855C178.621 223.535 185.788 233.746 195.655 240.805C205.523 247.865 217.502 251.351 229.616 250.69C241.731 250.028 253.259 245.258 262.299 237.165C271.339 229.073 277.351 218.142 279.345 206.174C281.339 194.206 279.195 181.916 273.267 171.33C267.339 160.744 257.98 152.494 246.734 147.941C237.559 144.226 227.575 143.152 217.897 144.772C214.263 145.38 210.547 143.42 209.49 139.89Z" fill="#E0E0E0"/>
<path d="M160 197.404C160 185.26 163.315 173.346 169.588 162.948C175.861 152.549 184.854 144.06 195.597 138.397C206.34 132.733 218.425 130.11 230.549 130.809C242.673 131.509 254.376 135.505 264.396 142.367L256.858 153.374C248.842 147.885 239.48 144.688 229.78 144.128C220.081 143.569 210.413 145.667 201.819 150.198C193.225 154.729 186.03 161.52 181.012 169.839C175.993 178.158 173.341 187.689 173.341 197.404H160Z" fill="#4F63CC"/>
<path d="M249.378 134.67C259.446 138.308 268.491 144.316 275.747 152.187C283.004 160.057 288.26 169.558 291.071 179.888C293.882 190.217 294.166 201.071 291.898 211.534C289.631 221.996 284.879 231.759 278.043 239.997C271.208 248.236 262.49 254.709 252.626 258.868C242.762 263.028 232.042 264.753 221.371 263.897C210.7 263.04 200.392 259.629 191.318 253.949C182.243 248.27 174.669 240.49 169.234 231.267L180.729 224.495C185.076 231.873 191.136 238.097 198.395 242.64C205.655 247.184 213.901 249.913 222.438 250.598C230.975 251.283 239.551 249.903 247.442 246.576C255.333 243.248 262.307 238.07 267.776 231.479C273.244 224.888 277.046 217.078 278.86 208.708C280.674 200.338 280.447 191.655 278.198 183.391C275.949 175.127 271.744 167.526 265.939 161.23C260.134 154.934 252.898 150.128 244.844 147.217L249.378 134.67Z" fill="#4FCCBD"/>
<path d="M179.538 244.573C171.293 236.327 165.353 226.065 162.311 214.809C159.268 203.553 159.23 191.695 162.199 180.419L175.1 183.816C172.725 192.837 172.756 202.323 175.19 211.328C177.624 220.333 182.375 228.543 188.971 235.139L179.538 244.573Z" fill="#4FAECC"/>
<path d="M195.482 206.28V189.435H196.561V206.28H195.482ZM198.594 194.824C198.533 194.25 198.274 193.802 197.818 193.482C197.366 193.162 196.778 193.002 196.054 193.002C195.545 193.002 195.109 193.078 194.745 193.232C194.381 193.385 194.102 193.594 193.909 193.857C193.716 194.12 193.617 194.421 193.613 194.759C193.613 195.039 193.677 195.283 193.804 195.489C193.935 195.695 194.113 195.871 194.337 196.015C194.56 196.156 194.808 196.274 195.08 196.371C195.352 196.467 195.626 196.548 195.903 196.614L197.166 196.93C197.675 197.048 198.164 197.209 198.633 197.41C199.107 197.612 199.531 197.867 199.903 198.174C200.281 198.481 200.579 198.851 200.798 199.286C201.018 199.72 201.127 200.229 201.127 200.812C201.127 201.602 200.926 202.297 200.522 202.898C200.118 203.495 199.535 203.962 198.772 204.3C198.013 204.633 197.094 204.8 196.015 204.8C194.966 204.8 194.056 204.637 193.284 204.313C192.516 203.988 191.915 203.514 191.481 202.891C191.051 202.269 190.819 201.51 190.783 200.615H193.185C193.22 201.084 193.365 201.475 193.619 201.786C193.874 202.097 194.205 202.33 194.613 202.484C195.025 202.637 195.486 202.714 195.995 202.714C196.526 202.714 196.991 202.635 197.39 202.477C197.793 202.315 198.109 202.091 198.337 201.806C198.565 201.516 198.682 201.178 198.686 200.792C198.682 200.442 198.579 200.152 198.377 199.924C198.175 199.691 197.892 199.498 197.528 199.345C197.168 199.187 196.747 199.047 196.265 198.924L194.732 198.529C193.622 198.244 192.744 197.812 192.099 197.233C191.459 196.649 191.139 195.875 191.139 194.91C191.139 194.116 191.354 193.421 191.784 192.824C192.218 192.227 192.808 191.765 193.554 191.436C194.299 191.102 195.144 190.936 196.087 190.936C197.043 190.936 197.881 191.102 198.601 191.436C199.324 191.765 199.892 192.223 200.305 192.811C200.717 193.394 200.93 194.065 200.943 194.824H198.594ZM207.85 190.936C208.495 190.94 209.123 191.054 209.732 191.278C210.347 191.497 210.899 191.857 211.391 192.357C211.882 192.853 212.272 193.517 212.562 194.351C212.851 195.184 212.996 196.215 212.996 197.443C213 198.601 212.878 199.637 212.628 200.549C212.382 201.457 212.029 202.225 211.568 202.852C211.108 203.479 210.553 203.957 209.903 204.286C209.254 204.615 208.524 204.78 207.712 204.78C206.861 204.78 206.107 204.613 205.449 204.28C204.795 203.946 204.267 203.49 203.863 202.911C203.459 202.332 203.212 201.67 203.119 200.924H205.521C205.644 201.459 205.894 201.885 206.271 202.201C206.653 202.512 207.133 202.668 207.712 202.668C208.647 202.668 209.366 202.262 209.871 201.45C210.375 200.639 210.627 199.512 210.627 198.068H210.535C210.32 198.454 210.042 198.788 209.699 199.068C209.357 199.345 208.969 199.558 208.535 199.707C208.105 199.856 207.649 199.93 207.166 199.93C206.377 199.93 205.666 199.742 205.034 199.365C204.407 198.987 203.909 198.47 203.541 197.812C203.176 197.154 202.992 196.401 202.988 195.555C202.988 194.677 203.19 193.89 203.593 193.192C204.001 192.491 204.569 191.938 205.297 191.534C206.026 191.126 206.877 190.927 207.85 190.936ZM207.857 192.91C207.383 192.91 206.956 193.026 206.574 193.258C206.197 193.486 205.898 193.798 205.679 194.193C205.464 194.583 205.357 195.02 205.357 195.502C205.361 195.98 205.469 196.415 205.679 196.805C205.894 197.195 206.186 197.505 206.554 197.733C206.927 197.961 207.353 198.075 207.831 198.075C208.186 198.075 208.517 198.007 208.824 197.871C209.131 197.735 209.399 197.546 209.627 197.305C209.86 197.059 210.039 196.781 210.167 196.469C210.298 196.158 210.362 195.829 210.357 195.482C210.357 195.022 210.248 194.596 210.028 194.206C209.814 193.815 209.517 193.502 209.14 193.265C208.767 193.028 208.34 192.91 207.857 192.91ZM219.978 204.78C218.999 204.78 218.131 204.615 217.372 204.286C216.617 203.957 216.025 203.508 215.595 202.938C215.17 202.363 214.959 201.711 214.964 200.983C214.959 200.417 215.082 199.898 215.332 199.424C215.582 198.95 215.92 198.555 216.345 198.239C216.775 197.919 217.253 197.715 217.78 197.627V197.535C217.087 197.382 216.525 197.029 216.095 196.476C215.67 195.919 215.459 195.276 215.464 194.548C215.459 193.855 215.652 193.236 216.043 192.692C216.433 192.148 216.968 191.721 217.648 191.409C218.328 191.093 219.105 190.936 219.978 190.936C220.842 190.936 221.612 191.093 222.287 191.409C222.967 191.721 223.502 192.148 223.893 192.692C224.287 193.236 224.485 193.855 224.485 194.548C224.485 195.276 224.268 195.919 223.833 196.476C223.404 197.029 222.849 197.382 222.169 197.535V197.627C222.695 197.715 223.169 197.919 223.59 198.239C224.015 198.555 224.353 198.95 224.603 199.424C224.858 199.898 224.985 200.417 224.985 200.983C224.985 201.711 224.77 202.363 224.34 202.938C223.91 203.508 223.318 203.957 222.563 204.286C221.813 204.615 220.951 204.78 219.978 204.78ZM219.978 202.898C220.482 202.898 220.921 202.813 221.294 202.641C221.666 202.466 221.956 202.22 222.162 201.904C222.368 201.589 222.474 201.225 222.478 200.812C222.474 200.382 222.362 200.003 222.142 199.674C221.927 199.34 221.631 199.079 221.254 198.891C220.881 198.702 220.456 198.608 219.978 198.608C219.495 198.608 219.065 198.702 218.688 198.891C218.311 199.079 218.012 199.34 217.793 199.674C217.578 200.003 217.473 200.382 217.477 200.812C217.473 201.225 217.574 201.589 217.78 201.904C217.986 202.216 218.275 202.459 218.648 202.635C219.026 202.81 219.469 202.898 219.978 202.898ZM219.978 196.759C220.39 196.759 220.754 196.676 221.07 196.509C221.39 196.342 221.642 196.11 221.826 195.811C222.011 195.513 222.105 195.169 222.109 194.778C222.105 194.392 222.013 194.054 221.833 193.765C221.653 193.471 221.403 193.245 221.083 193.087C220.763 192.925 220.394 192.844 219.978 192.844C219.552 192.844 219.177 192.925 218.852 193.087C218.532 193.245 218.282 193.471 218.102 193.765C217.927 194.054 217.841 194.392 217.846 194.778C217.841 195.169 217.929 195.513 218.109 195.811C218.293 196.105 218.545 196.338 218.865 196.509C219.19 196.676 219.561 196.759 219.978 196.759ZM229.573 202.753L229.487 203.477C229.426 204.03 229.316 204.591 229.158 205.162C229.005 205.736 228.842 206.265 228.671 206.747C228.5 207.23 228.362 207.609 228.257 207.886H226.651C226.713 207.618 226.796 207.254 226.901 206.793C227.011 206.333 227.116 205.815 227.217 205.241C227.318 204.666 227.386 204.082 227.421 203.49L227.467 202.753H229.573ZM232.274 204.596L238.005 193.252V193.16H231.353V191.12H240.532V193.206L234.807 204.596H232.274ZM247.16 204.78C246.282 204.78 245.497 204.615 244.804 204.286C244.111 203.953 243.56 203.497 243.152 202.918C242.749 202.339 242.534 201.676 242.508 200.931H244.876C244.92 201.483 245.159 201.935 245.594 202.286C246.028 202.633 246.55 202.806 247.16 202.806C247.638 202.806 248.063 202.696 248.436 202.477C248.809 202.258 249.103 201.953 249.318 201.562C249.533 201.172 249.638 200.727 249.634 200.227C249.638 199.718 249.531 199.266 249.311 198.871C249.092 198.476 248.792 198.167 248.41 197.943C248.028 197.715 247.59 197.601 247.094 197.601C246.69 197.597 246.293 197.671 245.903 197.825C245.512 197.978 245.203 198.18 244.975 198.43L242.771 198.068L243.475 191.12H251.292V193.16H245.495L245.107 196.733H245.186C245.436 196.439 245.789 196.195 246.245 196.002C246.701 195.805 247.201 195.706 247.745 195.706C248.561 195.706 249.289 195.899 249.93 196.285C250.57 196.667 251.075 197.193 251.443 197.864C251.812 198.535 251.996 199.303 251.996 200.167C251.996 201.058 251.79 201.852 251.377 202.549C250.97 203.242 250.401 203.789 249.673 204.188C248.949 204.583 248.112 204.78 247.16 204.78ZM254.2 204.596V202.832L258.879 198.246C259.326 197.794 259.699 197.393 259.997 197.042C260.296 196.691 260.519 196.351 260.669 196.022C260.818 195.693 260.892 195.342 260.892 194.969C260.892 194.544 260.796 194.179 260.603 193.877C260.41 193.57 260.144 193.333 259.807 193.166C259.469 192.999 259.085 192.916 258.655 192.916C258.212 192.916 257.824 193.008 257.49 193.192C257.157 193.372 256.898 193.629 256.714 193.962C256.534 194.296 256.444 194.693 256.444 195.153H254.121C254.121 194.298 254.317 193.554 254.707 192.923C255.097 192.291 255.635 191.802 256.319 191.455C257.008 191.109 257.797 190.936 258.688 190.936C259.592 190.936 260.386 191.104 261.07 191.442C261.754 191.78 262.285 192.243 262.662 192.831C263.044 193.418 263.235 194.09 263.235 194.844C263.235 195.349 263.138 195.844 262.945 196.331C262.752 196.818 262.412 197.358 261.925 197.95C261.443 198.542 260.765 199.259 259.892 200.102L257.569 202.464V202.556H263.439V204.596H254.2Z" fill="#080808"/>
<path d="M293.291 293.912C293.291 294.791 294.004 295.503 294.882 295.503C295.761 295.503 296.473 294.791 296.473 293.912C296.473 293.033 295.761 292.321 294.882 292.321C294.004 292.321 293.291 293.033 293.291 293.912ZM226.941 273.066H226.643V277.126H226.941H227.239V273.066H226.941ZM234.1 284.285V284.583H287.723V284.285V283.987H234.1V284.285ZM294.882 291.444H294.584V293.912H294.882H295.181V291.444H294.882ZM287.723 284.285V284.583C291.512 284.583 294.584 287.655 294.584 291.444H294.882H295.181C295.181 287.326 291.842 283.987 287.723 283.987V284.285ZM226.941 277.126H226.643C226.643 281.245 229.982 284.583 234.1 284.583V284.285V283.987C230.311 283.987 227.239 280.915 227.239 277.126H226.941Z" fill="#4F63CC"/>
<path d="M160.591 293.912C160.591 294.791 159.879 295.503 159 295.503C158.121 295.503 157.409 294.791 157.409 293.912C157.409 293.033 158.121 292.321 159 292.321C159.879 292.321 160.591 293.033 160.591 293.912ZM226.941 273.066H227.239V277.126H226.941H226.643V273.066H226.941ZM219.782 284.285V284.583H166.159V284.285V283.987H219.782V284.285ZM159 291.444H159.298V293.912H159H158.702V291.444H159ZM166.159 284.285V284.583C162.37 284.583 159.298 287.655 159.298 291.444H159H158.702C158.702 287.326 162.04 283.987 166.159 283.987V284.285ZM226.941 277.126H227.239C227.239 281.245 223.901 284.583 219.782 284.583V284.285V283.987C223.571 283.987 226.643 280.915 226.643 277.126H226.941Z" fill="#4FCCBD"/>
<path d="M225.35 293.912C225.35 294.791 226.063 295.503 226.941 295.503C227.82 295.503 228.532 294.791 228.532 293.912C228.532 293.033 227.82 292.321 226.941 292.321C226.063 292.321 225.35 293.033 225.35 293.912ZM226.941 273.066L226.643 273.066L226.643 283.724L226.941 283.724L227.239 283.724L227.239 273.066L226.941 273.066ZM226.941 283.724L226.643 283.724L226.643 285.053L226.941 285.053L227.239 285.053L227.239 283.724L226.941 283.724ZM226.941 285.053L226.643 285.053L226.643 293.912L226.941 293.912L227.239 293.912L227.239 285.053L226.941 285.053Z" fill="#4FAECC"/>
<path d="M128.217 111.353V103.492H131.019C131.628 103.492 132.133 103.597 132.535 103.807C132.939 104.017 133.241 104.307 133.441 104.678C133.64 105.047 133.74 105.473 133.74 105.956C133.74 106.437 133.639 106.861 133.437 107.227C133.237 107.59 132.935 107.873 132.531 108.075C132.129 108.277 131.624 108.378 131.015 108.378H128.892V107.357H130.907C131.291 107.357 131.603 107.302 131.844 107.192C132.087 107.082 132.265 106.922 132.377 106.712C132.49 106.503 132.546 106.251 132.546 105.956C132.546 105.659 132.489 105.402 132.374 105.185C132.261 104.967 132.083 104.801 131.84 104.686C131.599 104.568 131.283 104.509 130.892 104.509H129.403V111.353H128.217ZM132.097 107.806L134.039 111.353H132.688L130.784 107.806H132.097ZM137.558 111.472C136.977 111.472 136.477 111.348 136.057 111.1C135.64 110.849 135.318 110.497 135.09 110.044C134.865 109.589 134.752 109.055 134.752 108.444C134.752 107.84 134.865 107.307 135.09 106.847C135.318 106.386 135.635 106.027 136.042 105.768C136.451 105.51 136.93 105.381 137.478 105.381C137.81 105.381 138.133 105.436 138.445 105.546C138.757 105.656 139.037 105.828 139.285 106.064C139.534 106.299 139.729 106.605 139.873 106.981C140.016 107.355 140.088 107.809 140.088 108.344V108.751H135.401V107.891H138.963C138.963 107.589 138.902 107.321 138.779 107.089C138.656 106.853 138.483 106.668 138.261 106.532C138.041 106.396 137.782 106.329 137.485 106.329C137.163 106.329 136.881 106.408 136.641 106.567C136.403 106.723 136.219 106.927 136.088 107.181C135.96 107.432 135.896 107.704 135.896 107.998V108.67C135.896 109.064 135.965 109.399 136.103 109.676C136.244 109.952 136.44 110.163 136.691 110.309C136.941 110.452 137.234 110.524 137.57 110.524C137.787 110.524 137.986 110.493 138.165 110.432C138.344 110.368 138.499 110.273 138.629 110.148C138.76 110.022 138.859 109.868 138.928 109.683L140.015 109.879C139.928 110.199 139.772 110.479 139.546 110.72C139.324 110.958 139.044 111.143 138.706 111.276C138.371 111.407 137.988 111.472 137.558 111.472ZM146.236 105.457L144.098 111.353H142.87L140.728 105.457H141.96L143.453 109.994H143.514L145.004 105.457H146.236ZM149.655 111.472C149.074 111.472 148.574 111.348 148.154 111.1C147.737 110.849 147.414 110.497 147.187 110.044C146.962 109.589 146.849 109.055 146.849 108.444C146.849 107.84 146.962 107.307 147.187 106.847C147.414 106.386 147.732 106.027 148.139 105.768C148.548 105.51 149.027 105.381 149.574 105.381C149.907 105.381 150.229 105.436 150.541 105.546C150.854 105.656 151.134 105.828 151.382 106.064C151.63 106.299 151.826 106.605 151.969 106.981C152.113 107.355 152.184 107.809 152.184 108.344V108.751H147.498V107.891H151.06C151.06 107.589 150.998 107.321 150.875 107.089C150.753 106.853 150.58 106.668 150.357 106.532C150.137 106.396 149.879 106.329 149.582 106.329C149.259 106.329 148.978 106.408 148.737 106.567C148.499 106.723 148.315 106.927 148.185 107.181C148.057 107.432 147.993 107.704 147.993 107.998V108.67C147.993 109.064 148.062 109.399 148.2 109.676C148.341 109.952 148.537 110.163 148.787 110.309C149.038 110.452 149.331 110.524 149.666 110.524C149.884 110.524 150.082 110.493 150.261 110.432C150.44 110.368 150.595 110.273 150.726 110.148C150.856 110.022 150.956 109.868 151.025 109.683L152.111 109.879C152.024 110.199 151.868 110.479 151.643 110.72C151.42 110.958 151.14 111.143 150.802 111.276C150.467 111.407 150.085 111.472 149.655 111.472ZM154.605 107.852V111.353H153.458V105.457H154.559V106.417H154.632C154.768 106.105 154.98 105.854 155.269 105.665C155.561 105.475 155.928 105.381 156.371 105.381C156.773 105.381 157.125 105.465 157.426 105.634C157.728 105.8 157.963 106.048 158.129 106.379C158.295 106.709 158.378 107.117 158.378 107.603V111.353H157.231V107.741C157.231 107.314 157.119 106.98 156.897 106.739C156.674 106.496 156.368 106.375 155.979 106.375C155.713 106.375 155.477 106.432 155.269 106.547C155.065 106.663 154.902 106.831 154.782 107.054C154.664 107.274 154.605 107.54 154.605 107.852ZM163.652 108.908V105.457H164.804V111.353H163.675V110.332H163.614C163.478 110.647 163.261 110.909 162.961 111.119C162.665 111.326 162.295 111.43 161.852 111.43C161.473 111.43 161.138 111.347 160.846 111.18C160.557 111.011 160.33 110.762 160.163 110.432C159.999 110.102 159.918 109.694 159.918 109.207V105.457H161.065V109.069C161.065 109.471 161.177 109.791 161.399 110.029C161.622 110.267 161.911 110.386 162.267 110.386C162.482 110.386 162.695 110.332 162.908 110.225C163.123 110.117 163.3 109.955 163.441 109.737C163.585 109.52 163.655 109.243 163.652 108.908ZM168.887 111.472C168.306 111.472 167.806 111.348 167.386 111.1C166.969 110.849 166.647 110.497 166.419 110.044C166.194 109.589 166.081 109.055 166.081 108.444C166.081 107.84 166.194 107.307 166.419 106.847C166.647 106.386 166.964 106.027 167.371 105.768C167.78 105.51 168.259 105.381 168.806 105.381C169.139 105.381 169.461 105.436 169.774 105.546C170.086 105.656 170.366 105.828 170.614 106.064C170.862 106.299 171.058 106.605 171.201 106.981C171.345 107.355 171.416 107.809 171.416 108.344V108.751H166.73V107.891H170.292C170.292 107.589 170.23 107.321 170.107 107.089C169.985 106.853 169.812 106.668 169.589 106.532C169.369 106.396 169.111 106.329 168.814 106.329C168.492 106.329 168.21 106.408 167.97 106.567C167.732 106.723 167.547 106.927 167.417 107.181C167.289 107.432 167.225 107.704 167.225 107.998V108.67C167.225 109.064 167.294 109.399 167.432 109.676C167.573 109.952 167.769 110.163 168.019 110.309C168.27 110.452 168.563 110.524 168.898 110.524C169.116 110.524 169.314 110.493 169.493 110.432C169.672 110.368 169.827 110.273 169.958 110.148C170.088 110.022 170.188 109.868 170.257 109.683L171.343 109.879C171.256 110.199 171.1 110.479 170.875 110.72C170.653 110.958 170.372 111.143 170.035 111.276C169.699 111.407 169.317 111.472 168.887 111.472ZM179.93 105.557C179.889 105.194 179.72 104.912 179.423 104.713C179.126 104.511 178.753 104.409 178.302 104.409C177.98 104.409 177.701 104.461 177.466 104.563C177.23 104.663 177.047 104.801 176.917 104.978C176.789 105.152 176.725 105.35 176.725 105.572C176.725 105.759 176.768 105.92 176.855 106.056C176.945 106.192 177.061 106.306 177.205 106.398C177.35 106.487 177.507 106.563 177.673 106.624C177.839 106.683 177.999 106.732 178.153 106.77L178.92 106.97C179.171 107.031 179.428 107.114 179.692 107.219C179.955 107.324 180.2 107.462 180.425 107.634C180.65 107.805 180.832 108.017 180.97 108.271C181.111 108.524 181.181 108.827 181.181 109.181C181.181 109.626 181.066 110.021 180.836 110.367C180.608 110.712 180.277 110.985 179.842 111.184C179.409 111.384 178.886 111.484 178.272 111.484C177.683 111.484 177.174 111.39 176.744 111.203C176.314 111.017 175.978 110.752 175.735 110.409C175.491 110.063 175.357 109.654 175.331 109.181H176.521C176.544 109.465 176.637 109.701 176.798 109.891C176.962 110.077 177.17 110.217 177.423 110.309C177.679 110.399 177.959 110.443 178.264 110.443C178.599 110.443 178.897 110.391 179.158 110.286C179.422 110.178 179.629 110.03 179.78 109.841C179.931 109.649 180.007 109.425 180.007 109.169C180.007 108.936 179.94 108.746 179.807 108.597C179.677 108.449 179.499 108.326 179.273 108.229C179.051 108.131 178.799 108.046 178.517 107.971L177.588 107.718C176.959 107.547 176.46 107.295 176.091 106.962C175.726 106.629 175.543 106.189 175.543 105.642C175.543 105.189 175.665 104.793 175.911 104.455C176.157 104.118 176.489 103.855 176.909 103.669C177.329 103.479 177.802 103.385 178.329 103.385C178.861 103.385 179.331 103.478 179.738 103.665C180.147 103.852 180.47 104.109 180.705 104.436C180.941 104.761 181.063 105.135 181.074 105.557H179.93ZM186.241 108.908V105.457H187.393V111.353H186.264V110.332H186.203C186.067 110.647 185.85 110.909 185.55 111.119C185.253 111.326 184.884 111.43 184.441 111.43C184.062 111.43 183.727 111.347 183.435 111.18C183.146 111.011 182.918 110.762 182.752 110.432C182.588 110.102 182.506 109.694 182.506 109.207V105.457H183.654V109.069C183.654 109.471 183.765 109.791 183.988 110.029C184.211 110.267 184.5 110.386 184.855 110.386C185.07 110.386 185.284 110.332 185.496 110.225C185.711 110.117 185.889 109.955 186.03 109.737C186.173 109.52 186.244 109.243 186.241 108.908ZM188.935 111.353V105.457H190.036V106.417H190.109C190.232 106.092 190.433 105.839 190.712 105.657C190.991 105.473 191.325 105.381 191.714 105.381C192.108 105.381 192.438 105.473 192.704 105.657C192.973 105.841 193.171 106.094 193.299 106.417H193.36C193.501 106.102 193.725 105.851 194.032 105.665C194.339 105.475 194.705 105.381 195.13 105.381C195.665 105.381 196.101 105.548 196.439 105.883C196.779 106.219 196.949 106.724 196.949 107.4V111.353H195.801V107.507C195.801 107.108 195.693 106.819 195.475 106.64C195.258 106.46 194.998 106.371 194.696 106.371C194.322 106.371 194.032 106.486 193.825 106.716C193.617 106.944 193.514 107.237 193.514 107.595V111.353H192.37V107.434C192.37 107.114 192.27 106.857 192.071 106.663C191.871 106.468 191.611 106.371 191.291 106.371C191.074 106.371 190.873 106.428 190.689 106.544C190.507 106.656 190.36 106.814 190.247 107.016C190.137 107.218 190.082 107.452 190.082 107.718V111.353H188.935ZM198.487 111.353V105.457H199.589V106.417H199.662C199.785 106.092 199.986 105.839 200.265 105.657C200.543 105.473 200.877 105.381 201.266 105.381C201.66 105.381 201.99 105.473 202.257 105.657C202.525 105.841 202.724 106.094 202.852 106.417H202.913C203.054 106.102 203.278 105.851 203.585 105.665C203.892 105.475 204.258 105.381 204.682 105.381C205.217 105.381 205.654 105.548 205.991 105.883C206.332 106.219 206.502 106.724 206.502 107.4V111.353H205.354V107.507C205.354 107.108 205.245 106.819 205.028 106.64C204.81 106.46 204.551 106.371 204.249 106.371C203.875 106.371 203.585 106.486 203.377 106.716C203.17 106.944 203.067 107.237 203.067 107.595V111.353H201.923V107.434C201.923 107.114 201.823 106.857 201.623 106.663C201.424 106.468 201.164 106.371 200.844 106.371C200.627 106.371 200.426 106.428 200.241 106.544C200.06 106.656 199.913 106.814 199.8 107.016C199.69 107.218 199.635 107.452 199.635 107.718V111.353H198.487ZM209.756 111.484C209.382 111.484 209.044 111.414 208.742 111.276C208.441 111.136 208.201 110.932 208.025 110.666C207.851 110.4 207.764 110.074 207.764 109.687C207.764 109.355 207.828 109.081 207.956 108.866C208.084 108.651 208.256 108.481 208.474 108.355C208.691 108.23 208.934 108.135 209.203 108.071C209.472 108.007 209.746 107.959 210.025 107.925C210.378 107.884 210.664 107.851 210.884 107.826C211.104 107.797 211.264 107.753 211.364 107.691C211.464 107.63 211.514 107.53 211.514 107.392V107.365C211.514 107.03 211.419 106.77 211.23 106.586C211.043 106.402 210.764 106.309 210.393 106.309C210.007 106.309 209.702 106.395 209.479 106.567C209.259 106.735 209.107 106.924 209.023 107.131L207.944 106.885C208.072 106.527 208.259 106.238 208.505 106.018C208.753 105.795 209.038 105.634 209.36 105.534C209.683 105.432 210.022 105.381 210.378 105.381C210.613 105.381 210.863 105.409 211.126 105.465C211.392 105.519 211.64 105.619 211.871 105.764C212.104 105.91 212.294 106.119 212.443 106.39C212.591 106.659 212.665 107.008 212.665 107.438V111.353H211.544V110.547H211.498C211.424 110.695 211.313 110.841 211.164 110.985C211.016 111.128 210.825 111.247 210.593 111.342C210.36 111.436 210.081 111.484 209.756 111.484ZM210.005 110.562C210.323 110.562 210.594 110.5 210.819 110.374C211.047 110.249 211.22 110.085 211.337 109.883C211.457 109.678 211.518 109.459 211.518 109.227V108.467C211.477 108.508 211.397 108.546 211.28 108.582C211.164 108.615 211.033 108.644 210.884 108.67C210.736 108.693 210.591 108.715 210.451 108.735C210.31 108.753 210.192 108.769 210.097 108.781C209.875 108.809 209.671 108.857 209.487 108.923C209.305 108.99 209.16 109.086 209.05 109.211C208.942 109.334 208.888 109.498 208.888 109.703C208.888 109.987 208.993 110.202 209.203 110.347C209.413 110.491 209.68 110.562 210.005 110.562ZM214.194 111.353V105.457H215.303V106.394H215.365C215.472 106.077 215.661 105.827 215.933 105.645C216.207 105.461 216.516 105.369 216.862 105.369C216.933 105.369 217.018 105.372 217.115 105.377C217.215 105.382 217.293 105.388 217.349 105.396V106.494C217.303 106.481 217.221 106.467 217.103 106.451C216.986 106.434 216.868 106.425 216.75 106.425C216.479 106.425 216.237 106.482 216.025 106.597C215.815 106.71 215.649 106.867 215.526 107.069C215.403 107.269 215.342 107.497 215.342 107.753V111.353H214.194ZM219.247 113.564C219.076 113.564 218.92 113.55 218.779 113.522C218.638 113.496 218.533 113.468 218.464 113.437L218.74 112.497C218.95 112.553 219.137 112.577 219.301 112.57C219.465 112.562 219.609 112.501 219.735 112.386C219.863 112.27 219.975 112.082 220.072 111.821L220.214 111.43L218.057 105.457H219.286L220.779 110.033H220.84L222.333 105.457H223.565L221.136 112.14C221.023 112.447 220.88 112.707 220.706 112.919C220.532 113.134 220.324 113.295 220.084 113.403C219.843 113.51 219.564 113.564 219.247 113.564Z" fill="#080808"/>
</g>
<mask id="mask2_7841_8599" style="mask-type:alpha" maskUnits="userSpaceOnUse" x="363" y="159" width="168" height="122">
<rect x="363" y="159" width="168" height="122" fill="url(#paint2_linear_7841_8599)"/>
</mask>
<g mask="url(#mask2_7841_8599)">
<rect x="363.5" y="159.5" width="228.612" height="121" rx="19.5" fill="white" fill-opacity="0.4"/>
<rect x="363.5" y="159.5" width="228.612" height="121" rx="19.5" stroke="white"/>
<rect x="371" y="167" width="213.612" height="106" rx="14" fill="white"/>
<path d="M399.213 204.483L576.551 204.483" stroke="#E0E0E0" stroke-width="0.48365" stroke-linecap="round" stroke-dasharray="1.61 1.61"/>
<path d="M399.213 183.525L576.551 183.525" stroke="#E0E0E0" stroke-width="0.48365" stroke-linecap="round" stroke-dasharray="1.61 1.61"/>
<path d="M399.213 225.441L576.551 225.441" stroke="#E0E0E0" stroke-width="0.48365" stroke-linecap="round" stroke-dasharray="1.61 1.61"/>
<path d="M399.213 246.399L576.551 246.399" stroke="#E0E0E0" stroke-width="0.48365" stroke-linecap="round" stroke-dasharray="1.61 1.61"/>
<path d="M380.966 186.351V185.825C380.169 185.762 379.54 185.309 379.514 184.559V184.556L380.169 184.553V184.559C380.223 184.924 380.459 185.198 380.966 185.252V183.876L380.843 183.844C380.046 183.659 379.615 183.3 379.615 182.664V182.657C379.615 181.955 380.176 181.489 380.966 181.426V180.897H381.337V181.426C382.118 181.492 382.682 181.977 382.71 182.686V182.689L382.059 182.692V182.686C382.014 182.295 381.737 182.056 381.337 181.999V183.319L381.479 183.353C382.307 183.545 382.761 183.885 382.761 184.553V184.559C382.761 185.328 382.134 185.765 381.337 185.825V186.351H380.966ZM380.279 182.613C380.279 182.894 380.468 183.105 380.966 183.23V181.999C380.516 182.059 380.279 182.32 380.279 182.607V182.613ZM382.093 184.616C382.093 184.292 381.917 184.1 381.337 183.961V185.255C381.87 185.211 382.093 184.956 382.093 184.622V184.616ZM385.393 186.008C384.48 186.008 383.623 185.365 383.623 183.693V183.687C383.623 182.15 384.294 181.244 385.418 181.244C386.221 181.244 386.819 181.716 386.971 182.402L386.977 182.44H386.278L386.265 182.409C386.139 182.062 385.843 181.842 385.415 181.842C384.65 181.842 384.332 182.588 384.297 183.495C384.294 183.53 384.294 183.564 384.294 183.599H384.354C384.521 183.234 384.93 182.909 385.551 182.909C386.416 182.909 387.037 183.552 387.037 184.421V184.427C387.037 185.34 386.347 186.008 385.393 186.008ZM384.433 184.427C384.433 184.981 384.851 185.416 385.387 185.416C385.919 185.416 386.341 184.991 386.341 184.446V184.44C386.341 183.882 385.944 183.479 385.393 183.479C384.848 183.479 384.433 183.876 384.433 184.424V184.427ZM389.537 186.008C388.488 186.008 387.859 185.091 387.859 183.627V183.621C387.859 182.157 388.488 181.244 389.537 181.244C390.582 181.244 391.215 182.157 391.215 183.621V183.627C391.215 185.091 390.582 186.008 389.537 186.008ZM389.537 185.422C390.145 185.422 390.504 184.739 390.504 183.627V183.621C390.504 182.509 390.145 181.832 389.537 181.832C388.926 181.832 388.57 182.509 388.57 183.621V183.627C388.57 184.739 388.926 185.422 389.537 185.422ZM392.201 185.897V181.354H392.906V183.501H392.956L394.836 181.354H395.671L393.914 183.325L395.822 185.897H394.94L393.416 183.804L392.906 184.383V185.897H392.201Z" fill="#888888"/>
<path d="M380.966 207.86V207.335C380.169 207.272 379.54 206.818 379.514 206.069V206.066L380.169 206.062V206.069C380.223 206.434 380.459 206.708 380.966 206.761V205.385L380.843 205.354C380.046 205.168 379.615 204.809 379.615 204.173V204.167C379.615 203.465 380.176 202.999 380.966 202.936V202.407H381.337V202.936C382.118 203.002 382.682 203.487 382.71 204.195V204.198L382.059 204.202V204.195C382.014 203.805 381.737 203.565 381.337 203.509V204.828L381.479 204.863C382.307 205.055 382.761 205.395 382.761 206.062V206.069C382.761 206.837 382.134 207.275 381.337 207.335V207.86H380.966ZM380.279 204.123C380.279 204.403 380.468 204.614 380.966 204.74V203.509C380.516 203.569 380.279 203.83 380.279 204.117V204.123ZM382.093 206.125C382.093 205.801 381.917 205.609 381.337 205.47V206.765C381.87 206.721 382.093 206.466 382.093 206.132V206.125ZM385.799 207.407V206.503H383.583V205.905C384.181 204.879 384.848 203.805 385.475 202.863H386.479V205.905H387.106V206.503H386.479V207.407H385.799ZM384.26 205.918H385.809V203.458H385.768C385.28 204.192 384.726 205.077 384.26 205.874V205.918ZM389.568 207.517C388.52 207.517 387.89 206.601 387.89 205.137V205.13C387.89 203.666 388.52 202.753 389.568 202.753C390.614 202.753 391.247 203.666 391.247 205.13V205.137C391.247 206.601 390.614 207.517 389.568 207.517ZM389.568 206.932C390.176 206.932 390.535 206.248 390.535 205.137V205.13C390.535 204.019 390.176 203.342 389.568 203.342C388.957 203.342 388.602 204.019 388.602 205.13V205.137C388.602 206.248 388.957 206.932 389.568 206.932ZM392.232 207.407V202.863H392.938V205.011H392.988L394.868 202.863H395.702L393.945 204.834L395.853 207.407H394.972L393.448 205.313L392.938 205.892V207.407H392.232Z" fill="#888888"/>
<path d="M380.966 229.37V228.844C380.169 228.781 379.54 228.328 379.514 227.578V227.575L380.169 227.572V227.578C380.223 227.944 380.459 228.217 380.966 228.271V226.895L380.843 226.864C380.046 226.678 379.615 226.319 379.615 225.683V225.676C379.615 224.974 380.176 224.508 380.966 224.445V223.916H381.337V224.445C382.118 224.511 382.682 224.996 382.71 225.705V225.708L382.059 225.711V225.705C382.014 225.314 381.737 225.075 381.337 225.018V226.338L381.479 226.372C382.307 226.564 382.761 226.904 382.761 227.572V227.578C382.761 228.347 382.134 228.784 381.337 228.844V229.37H380.966ZM380.279 225.632C380.279 225.913 380.468 226.124 380.966 226.25V225.018C380.516 225.078 380.279 225.34 380.279 225.626V225.632ZM382.093 227.635C382.093 227.311 381.917 227.119 381.337 226.98V228.274C381.87 228.23 382.093 227.975 382.093 227.641V227.635ZM383.715 228.917V228.438L385.223 226.854C385.824 226.227 385.998 225.994 385.998 225.626V225.617C385.998 225.173 385.692 224.845 385.195 224.845C384.685 224.845 384.345 225.179 384.345 225.676L384.341 225.686H383.68L383.674 225.68C383.677 224.848 384.319 224.263 385.232 224.263C386.08 224.263 386.703 224.801 386.703 225.55V225.56C386.703 226.076 386.464 226.473 385.639 227.292L384.675 228.252V228.315H386.775V228.917H383.715ZM389.304 229.027C388.255 229.027 387.626 228.11 387.626 226.646V226.64C387.626 225.176 388.255 224.263 389.304 224.263C390.349 224.263 390.982 225.176 390.982 226.64V226.646C390.982 228.11 390.349 229.027 389.304 229.027ZM389.304 228.441C389.912 228.441 390.271 227.758 390.271 226.646V226.64C390.271 225.528 389.912 224.851 389.304 224.851C388.693 224.851 388.337 225.528 388.337 226.64V226.646C388.337 227.758 388.693 228.441 389.304 228.441ZM391.968 228.917V224.373H392.673V226.52H392.723L394.603 224.373H395.438L393.681 226.344L395.589 228.917H394.707L393.183 226.823L392.673 227.402V228.917H391.968Z" fill="#888888"/>
<path d="M393.155 250.536C392.106 250.536 391.477 249.62 391.477 248.156V248.149C391.477 246.685 392.106 245.772 393.155 245.772C394.2 245.772 394.833 246.685 394.833 248.149V248.156C394.833 249.62 394.2 250.536 393.155 250.536ZM393.155 249.951C393.763 249.951 394.122 249.267 394.122 248.156V248.149C394.122 247.038 393.763 246.361 393.155 246.361C392.544 246.361 392.188 247.038 392.188 248.149V248.156C392.188 249.267 392.544 249.951 393.155 249.951Z" fill="#888888"/>
<path d="M414.847 261.266L416.487 256.722H417.249L418.89 261.266H418.146L417.737 260.038H415.999L415.587 261.266H414.847ZM416.84 257.519L416.188 259.471H417.548L416.893 257.519H416.84ZM419.601 262.406V257.847H420.284V258.385H420.335C420.533 258.01 420.908 257.787 421.387 257.787C422.249 257.787 422.804 258.476 422.804 259.553V259.559C422.804 260.643 422.256 261.323 421.387 261.323C420.917 261.323 420.518 261.093 420.335 260.725H420.284V262.406H419.601ZM421.194 260.74C421.764 260.74 422.108 260.293 422.108 259.559V259.553C422.108 258.816 421.764 258.372 421.194 258.372C420.625 258.372 420.272 258.823 420.272 259.553V259.559C420.272 260.29 420.625 260.74 421.194 260.74ZM423.625 261.266V257.847H424.309V258.363H424.359C424.482 258.001 424.8 257.787 425.256 257.787C425.367 257.787 425.486 257.802 425.556 257.818V258.448C425.433 258.423 425.316 258.407 425.187 258.407C424.664 258.407 424.309 258.728 424.309 259.223V261.266H423.625Z" fill="#888888"/>
<path d="M400.019 228.505L411.482 225.56L432.116 215.367L452.75 222.162L473.383 220.803L494.017 226.013L514.65 219.897L535.284 210.384L555.918 219.897L576.551 211.969" stroke="#EE9D1A" stroke-width="0.806084"/>
<path d="M400.019 228.505V246.173V246.399H576.551V211.969L555.918 219.897L535.284 210.384L514.65 219.897L494.017 226.013L473.383 220.803L452.75 222.162L432.116 215.367L411.482 225.56L400.019 228.505Z" fill="#EE9D1A" fill-opacity="0.24"/>
<path d="M400.019 201.698L411.482 198.745L432.116 190.306L452.75 201.698L473.383 201.109L494.017 193.848L514.65 194.849L535.284 183.525L555.918 192.443L576.551 185.115" stroke="#3FC8E4" stroke-width="0.806084"/>
<path d="M400.019 228.505V201.698L411.482 198.745L432.116 190.306L452.75 201.698L473.383 201.109L494.017 193.848L514.65 194.849L535.284 183.525L555.918 192.443L576.551 185.115V211.969L555.918 219.897L535.284 210.384L514.65 219.897L494.017 226.013L473.383 220.803L452.75 222.162L432.116 215.367L411.482 225.56L400.019 228.505Z" fill="#3FC8E4" fill-opacity="0.12"/>
</g>
</g>
<defs>
<filter id="filter0_f_7841_8599" x="-200" y="18" width="854" height="660" filterUnits="userSpaceOnUse" color-interpolation-filters="sRGB">
<feFlood flood-opacity="0" result="BackgroundImageFix"/>
<feBlend mode="normal" in="SourceGraphic" in2="BackgroundImageFix" result="shape"/>
<feGaussianBlur stdDeviation="100" result="effect1_foregroundBlur_7841_8599"/>
</filter>
<filter id="filter1_dd_7841_8599" x="109.034" y="84.6136" width="235.932" height="277.932" filterUnits="userSpaceOnUse" color-interpolation-filters="sRGB">
<feFlood flood-opacity="0" result="BackgroundImageFix"/>
<feColorMatrix in="SourceAlpha" type="matrix" values="0 0 0 0 0 0 0 0 0 0 0 0 0 0 0 0 0 0 127 0" result="hardAlpha"/>
<feOffset dy="0.596591"/>
<feGaussianBlur stdDeviation="0.894886"/>
<feComposite in2="hardAlpha" operator="out"/>
<feColorMatrix type="matrix" values="0 0 0 0 0 0 0 0 0 0 0 0 0 0 0 0 0 0 0.02 0"/>
<feBlend mode="normal" in2="BackgroundImageFix" result="effect1_dropShadow_7841_8599"/>
<feColorMatrix in="SourceAlpha" type="matrix" values="0 0 0 0 0 0 0 0 0 0 0 0 0 0 0 0 0 0 127 0" result="hardAlpha"/>
<feOffset dy="3.57955"/>
<feGaussianBlur stdDeviation="2.98295"/>
<feComposite in2="hardAlpha" operator="out"/>
<feColorMatrix type="matrix" values="0 0 0 0 0.694118 0 0 0 0 0.694118 0 0 0 0 0.694118 0 0 0 0.08 0"/>
<feBlend mode="normal" in2="effect1_dropShadow_7841_8599" result="effect2_dropShadow_7841_8599"/>
<feBlend mode="normal" in="SourceGraphic" in2="effect2_dropShadow_7841_8599" result="shape"/>
</filter>
<radialGradient id="paint0_radial_7841_8599" cx="0" cy="0" r="1" gradientUnits="userSpaceOnUse" gradientTransform="translate(1269 495) rotate(90) scale(428 186.583)">
<stop stop-color="white"/>
<stop offset="1" stop-color="#737373" stop-opacity="0"/>
</radialGradient>
<linearGradient id="paint1_linear_7841_8599" x1="91" y1="220" x2="-77" y2="220" gradientUnits="userSpaceOnUse">
<stop offset="0.1" stop-color="#D9D9D9" stop-opacity="0.8"/>
<stop offset="0.7" stop-color="#737373" stop-opacity="0"/>
</linearGradient>
<linearGradient id="paint2_linear_7841_8599" x1="363" y1="220" x2="531" y2="220" gradientUnits="userSpaceOnUse">
<stop offset="0.1" stop-color="#D9D9D9" stop-opacity="0.64"/>
<stop offset="0.7" stop-color="#737373" stop-opacity="0"/>
</linearGradient>
<clipPath id="clip0_7841_8599">
<rect width="454" height="440" rx="20" fill="white"/>
</clipPath>
</defs>
</svg>
