<svg width="454" height="440" viewBox="0 0 454 440" fill="none" xmlns="http://www.w3.org/2000/svg">
<g clip-path="url(#clip0_7841_8906)">
<rect width="454" height="440" rx="20" fill="#E1F7ED"/>
<g filter="url(#filter0_f_7841_8906)">
<path d="M46 478H408V297C408 197.036 326.964 116 227 116C127.036 116 46 197.036 46 297V478Z" fill="#6BF4C7"/>
</g>
<mask id="mask0_7841_8906" style="mask-type:alpha" maskUnits="userSpaceOnUse" x="-294" y="-29" width="1042" height="497">
<rect x="748" y="468" width="1042" height="497" transform="rotate(-180 748 468)" fill="url(#paint0_radial_7841_8906)"/>
</mask>
<g mask="url(#mask0_7841_8906)">
<path d="M507 423L427 468L427 393L507 348L507 423Z" stroke="#47D8A9" stroke-width="2"/>
<path d="M427 423L347 468L347 393L427 348L427 423Z" stroke="#47D8A9" stroke-width="2"/>
<path d="M347 423L267 468L267 393L347 348L347 423Z" stroke="#47D8A9" stroke-width="2"/>
<path d="M267 423L187 468L187 393L267 348L267 423Z" stroke="#47D8A9" stroke-width="2"/>
<path d="M187 423L107 468L107 393L187 348L187 423Z" stroke="#47D8A9" stroke-width="2"/>
<path d="M107 423L27 468L27 393L107 348L107 423Z" stroke="#47D8A9" stroke-width="2"/>
<path d="M27 423L-53 468L-53 393L27 348L27 423Z" stroke="#47D8A9" stroke-width="2"/>
<path d="M507 348L427 393L427 318L507 273L507 348Z" stroke="#47D8A9" stroke-width="2"/>
<path d="M427 348L347 393L347 318L427 273L427 348Z" stroke="#47D8A9" stroke-width="2"/>
<path d="M347 348L267 393L267 318L347 273L347 348Z" stroke="#47D8A9" stroke-width="2"/>
<path d="M267 348L187 393L187 318L267 273L267 348Z" stroke="#47D8A9" stroke-width="2"/>
<path d="M187 348L107 393L107 318L187 273L187 348Z" stroke="#47D8A9" stroke-width="2"/>
<path d="M107 348L27 393L27 318L107 273L107 348Z" stroke="#47D8A9" stroke-width="2"/>
<path d="M27 348L-53 393L-53 318L27 273L27 348Z" stroke="#47D8A9" stroke-width="2"/>
<path d="M507 273L427 318L427 243L507 198L507 273Z" stroke="#47D8A9" stroke-width="2"/>
<path d="M427 273L347 318L347 243L427 198L427 273Z" stroke="#47D8A9" stroke-width="2"/>
<path d="M347 273L267 318L267 243L347 198L347 273Z" stroke="#47D8A9" stroke-width="2"/>
<path d="M267 273L187 318L187 243L267 198L267 273Z" stroke="#47D8A9" stroke-width="2"/>
<path d="M187 273L107 318L107 243L187 198L187 273Z" stroke="#47D8A9" stroke-width="2"/>
<path d="M107 273L27 318L27 243L107 198L107 273Z" stroke="#47D8A9" stroke-width="2"/>
<path d="M27 273L-53 318L-53 243L27 198L27 273Z" stroke="#47D8A9" stroke-width="2"/>
<path d="M507 198L427 243L427 168L507 123L507 198Z" stroke="#47D8A9" stroke-width="2"/>
<path d="M427 198L347 243L347 168L427 123L427 198Z" stroke="#47D8A9" stroke-width="2"/>
<path d="M347 198L267 243L267 168L347 123L347 198Z" stroke="#47D8A9" stroke-width="2"/>
<path d="M267 198L187 243L187 168L267 123L267 198Z" stroke="#47D8A9" stroke-width="2"/>
<path d="M187 198L107 243L107 168L187 123L187 198Z" stroke="#47D8A9" stroke-width="2"/>
<path d="M107 198L27 243L27 168L107 123L107 198Z" stroke="#47D8A9" stroke-width="2"/>
<path d="M27 198L-53 243L-53 168L27 123L27 198Z" stroke="#47D8A9" stroke-width="2"/>
<path d="M507 123L427 168L427 93L507 48L507 123Z" stroke="#47D8A9" stroke-width="2"/>
<path d="M427 123L347 168L347 93L427 48L427 123Z" stroke="#47D8A9" stroke-width="2"/>
<path d="M347 123L267 168L267 93L347 48L347 123Z" stroke="#47D8A9" stroke-width="2"/>
<path d="M267 123L187 168L187 93L267 48L267 123Z" stroke="#47D8A9" stroke-width="2"/>
<path d="M187 123L107 168L107 93L187 48L187 123Z" stroke="#47D8A9" stroke-width="2"/>
<path d="M107 123L27 168L27 93L107 48L107 123Z" stroke="#47D8A9" stroke-width="2"/>
<path d="M27 123L-53 168L-53 93L27 48L27 123Z" stroke="#47D8A9" stroke-width="2"/>
<path d="M507 48L427 93L427 18L507 -27L507 48Z" stroke="#47D8A9" stroke-width="2"/>
<path d="M427 48L347 93L347 18L427 -27L427 48Z" stroke="#47D8A9" stroke-width="2"/>
<path d="M347 48L267 93L267 18L347 -27L347 48Z" stroke="#47D8A9" stroke-width="2"/>
<path d="M267 48L187 93L187 18L267 -27L267 48Z" stroke="#47D8A9" stroke-width="2"/>
<path d="M187 48L107 93L107 18L187 -27L187 48Z" stroke="#47D8A9" stroke-width="2"/>
<path d="M107 48L27.0001 93L27.0001 18L107 -27L107 48Z" stroke="#47D8A9" stroke-width="2"/>
<path d="M27.0001 48L-52.9999 93L-52.9999 18L27.0001 -27L27.0001 48Z" stroke="#47D8A9" stroke-width="2"/>
</g>
<path d="M283 220H331" stroke="white" stroke-width="2" stroke-dasharray="4 4"/>
<path d="M227 164L227 116" stroke="white" stroke-width="2" stroke-dasharray="4 4"/>
<path d="M227 324L227 276" stroke="white" stroke-width="2" stroke-dasharray="4 4"/>
<rect x="107.5" y="324.5" width="239" height="75" rx="13.5" fill="white" fill-opacity="0.4"/>
<rect x="107.5" y="324.5" width="239" height="75" rx="13.5" stroke="white"/>
<g filter="url(#filter1_d_7841_8906)">
<path d="M115 344C115 337.373 120.373 332 127 332H327C333.627 332 339 337.373 339 344V380C339 386.627 333.627 392 327 392H127C120.373 392 115 386.627 115 380V344Z" fill="white"/>
<rect x="127" y="344" width="36" height="36" rx="10.2857" fill="#0E121B"/>
<path d="M141.503 355.077H150.176L143.799 364.165H135.126L141.503 355.077Z" fill="white"/>
<path d="M141.882 365.007L139.412 368.527H148.497L154.874 359.439H148.169L144.262 365.007H141.882Z" fill="white"/>
<path d="M175.959 357V348.273H177.276V355.866H181.23V357H175.959ZM184.535 357.145C184.12 357.145 183.745 357.068 183.41 356.915C183.075 356.759 182.809 356.533 182.613 356.237C182.42 355.942 182.323 355.58 182.323 355.151C182.323 354.781 182.394 354.477 182.536 354.239C182.678 354 182.87 353.811 183.112 353.672C183.353 353.533 183.623 353.428 183.921 353.357C184.219 353.286 184.523 353.232 184.833 353.195C185.225 353.149 185.543 353.112 185.788 353.084C186.032 353.053 186.21 353.003 186.32 352.935C186.431 352.866 186.487 352.756 186.487 352.602V352.572C186.487 352.2 186.381 351.912 186.171 351.707C185.964 351.503 185.654 351.401 185.242 351.401C184.813 351.401 184.475 351.496 184.228 351.686C183.984 351.874 183.815 352.082 183.721 352.312L182.523 352.04C182.665 351.642 182.873 351.321 183.146 351.077C183.421 350.83 183.738 350.651 184.096 350.54C184.454 350.426 184.83 350.369 185.225 350.369C185.487 350.369 185.763 350.401 186.056 350.463C186.352 350.523 186.627 350.634 186.883 350.795C187.141 350.957 187.353 351.189 187.518 351.49C187.683 351.788 187.765 352.176 187.765 352.653V357H186.521V356.105H186.469C186.387 356.27 186.263 356.432 186.099 356.591C185.934 356.75 185.722 356.882 185.464 356.987C185.205 357.092 184.896 357.145 184.535 357.145ZM184.812 356.122C185.164 356.122 185.465 356.053 185.715 355.913C185.968 355.774 186.16 355.592 186.29 355.368C186.424 355.141 186.491 354.898 186.491 354.639V353.795C186.445 353.841 186.357 353.884 186.227 353.923C186.099 353.96 185.952 353.993 185.788 354.021C185.623 354.047 185.462 354.071 185.306 354.094C185.15 354.114 185.019 354.131 184.914 354.145C184.667 354.176 184.441 354.229 184.237 354.303C184.035 354.376 183.873 354.483 183.751 354.622C183.631 354.759 183.572 354.94 183.572 355.168C183.572 355.483 183.688 355.722 183.921 355.884C184.154 356.043 184.451 356.122 184.812 356.122ZM189.462 357V350.455H190.685V351.52H190.766C190.902 351.159 191.125 350.878 191.435 350.676C191.745 350.472 192.115 350.369 192.547 350.369C192.985 350.369 193.351 350.472 193.647 350.676C193.945 350.881 194.165 351.162 194.307 351.52H194.375C194.532 351.17 194.78 350.892 195.121 350.685C195.462 350.474 195.868 350.369 196.34 350.369C196.934 350.369 197.418 350.555 197.793 350.928C198.171 351.3 198.36 351.861 198.36 352.611V357H197.086V352.73C197.086 352.287 196.965 351.966 196.723 351.767C196.482 351.568 196.194 351.469 195.858 351.469C195.444 351.469 195.121 351.597 194.891 351.852C194.661 352.105 194.546 352.43 194.546 352.828V357H193.276V352.649C193.276 352.294 193.165 352.009 192.944 351.793C192.722 351.577 192.434 351.469 192.078 351.469C191.837 351.469 191.614 351.533 191.409 351.661C191.208 351.786 191.044 351.96 190.919 352.185C190.797 352.409 190.736 352.669 190.736 352.964V357H189.462ZM200.17 357V348.273H201.444V351.516H201.521C201.594 351.379 201.701 351.222 201.84 351.043C201.979 350.864 202.173 350.707 202.42 350.574C202.667 350.438 202.994 350.369 203.4 350.369C203.928 350.369 204.4 350.503 204.815 350.77C205.229 351.037 205.555 351.422 205.79 351.925C206.029 352.428 206.148 353.033 206.148 353.74C206.148 354.447 206.031 355.054 205.795 355.56C205.559 356.062 205.235 356.45 204.823 356.723C204.411 356.993 203.941 357.128 203.413 357.128C203.015 357.128 202.69 357.061 202.437 356.928C202.187 356.794 201.991 356.638 201.849 356.459C201.707 356.28 201.597 356.121 201.521 355.982H201.414V357H200.17ZM201.418 353.727C201.418 354.187 201.485 354.591 201.619 354.938C201.752 355.284 201.945 355.555 202.198 355.751C202.451 355.945 202.761 356.041 203.127 356.041C203.508 356.041 203.826 355.94 204.082 355.739C204.337 355.534 204.531 355.257 204.661 354.908C204.795 354.558 204.862 354.165 204.862 353.727C204.862 353.295 204.796 352.908 204.665 352.564C204.538 352.22 204.344 351.949 204.086 351.75C203.83 351.551 203.511 351.452 203.127 351.452C202.758 351.452 202.445 351.547 202.19 351.737C201.937 351.928 201.745 352.193 201.614 352.534C201.484 352.875 201.418 353.273 201.418 353.727ZM210.029 357.128C209.501 357.128 209.029 356.993 208.615 356.723C208.203 356.45 207.879 356.062 207.643 355.56C207.41 355.054 207.294 354.447 207.294 353.74C207.294 353.033 207.412 352.428 207.647 351.925C207.886 351.422 208.213 351.037 208.627 350.77C209.042 350.503 209.512 350.369 210.038 350.369C210.444 350.369 210.771 350.438 211.018 350.574C211.268 350.707 211.461 350.864 211.598 351.043C211.737 351.222 211.845 351.379 211.922 351.516H211.998V348.273H213.272V357H212.028V355.982H211.922C211.845 356.121 211.734 356.28 211.589 356.459C211.447 356.638 211.251 356.794 211.001 356.928C210.751 357.061 210.427 357.128 210.029 357.128ZM210.311 356.041C210.677 356.041 210.987 355.945 211.24 355.751C211.495 355.555 211.689 355.284 211.819 354.938C211.953 354.591 212.02 354.187 212.02 353.727C212.02 353.273 211.954 352.875 211.824 352.534C211.693 352.193 211.501 351.928 211.248 351.737C210.995 351.547 210.683 351.452 210.311 351.452C209.927 351.452 209.608 351.551 209.352 351.75C209.096 351.949 208.903 352.22 208.772 352.564C208.645 352.908 208.581 353.295 208.581 353.727C208.581 354.165 208.646 354.558 208.777 354.908C208.907 355.257 209.1 355.534 209.356 355.739C209.615 355.94 209.933 356.041 210.311 356.041ZM216.996 357.145C216.581 357.145 216.206 357.068 215.871 356.915C215.536 356.759 215.27 356.533 215.074 356.237C214.881 355.942 214.784 355.58 214.784 355.151C214.784 354.781 214.855 354.477 214.997 354.239C215.139 354 215.331 353.811 215.572 353.672C215.814 353.533 216.084 353.428 216.382 353.357C216.68 353.286 216.984 353.232 217.294 353.195C217.686 353.149 218.004 353.112 218.249 353.084C218.493 353.053 218.67 353.003 218.781 352.935C218.892 352.866 218.947 352.756 218.947 352.602V352.572C218.947 352.2 218.842 351.912 218.632 351.707C218.425 351.503 218.115 351.401 217.703 351.401C217.274 351.401 216.936 351.496 216.689 351.686C216.445 351.874 216.276 352.082 216.182 352.312L214.984 352.04C215.126 351.642 215.334 351.321 215.607 351.077C215.882 350.83 216.199 350.651 216.557 350.54C216.915 350.426 217.291 350.369 217.686 350.369C217.947 350.369 218.224 350.401 218.517 350.463C218.813 350.523 219.088 350.634 219.344 350.795C219.602 350.957 219.814 351.189 219.979 351.49C220.143 351.788 220.226 352.176 220.226 352.653V357H218.982V356.105H218.93C218.848 356.27 218.724 356.432 218.56 356.591C218.395 356.75 218.183 356.882 217.925 356.987C217.666 357.092 217.357 357.145 216.996 357.145ZM217.273 356.122C217.625 356.122 217.926 356.053 218.176 355.913C218.429 355.774 218.621 355.592 218.751 355.368C218.885 355.141 218.952 354.898 218.952 354.639V353.795C218.906 353.841 218.818 353.884 218.688 353.923C218.56 353.96 218.413 353.993 218.249 354.021C218.084 354.047 217.923 354.071 217.767 354.094C217.611 354.114 217.48 354.131 217.375 354.145C217.128 354.176 216.902 354.229 216.697 354.303C216.496 354.376 216.334 354.483 216.212 354.622C216.092 354.759 216.033 354.94 216.033 355.168C216.033 355.483 216.149 355.722 216.382 355.884C216.615 356.043 216.912 356.122 217.273 356.122ZM229.961 350.565C229.915 350.162 229.728 349.849 229.398 349.628C229.069 349.403 228.654 349.291 228.154 349.291C227.796 349.291 227.487 349.348 227.225 349.462C226.964 349.572 226.761 349.726 226.616 349.922C226.474 350.115 226.403 350.335 226.403 350.582C226.403 350.79 226.451 350.969 226.548 351.119C226.647 351.27 226.776 351.396 226.935 351.499C227.097 351.598 227.271 351.682 227.455 351.75C227.64 351.815 227.817 351.869 227.988 351.912L228.84 352.134C229.119 352.202 229.404 352.294 229.697 352.411C229.989 352.527 230.261 352.68 230.511 352.871C230.761 353.061 230.962 353.297 231.116 353.578C231.272 353.859 231.35 354.196 231.35 354.588C231.35 355.082 231.222 355.521 230.967 355.905C230.714 356.288 230.346 356.591 229.863 356.812C229.383 357.034 228.802 357.145 228.12 357.145C227.467 357.145 226.901 357.041 226.424 356.834C225.947 356.626 225.573 356.332 225.303 355.952C225.033 355.568 224.884 355.114 224.856 354.588H226.177C226.202 354.903 226.305 355.166 226.484 355.376C226.665 355.584 226.897 355.739 227.178 355.841C227.462 355.94 227.773 355.99 228.112 355.99C228.484 355.99 228.815 355.932 229.104 355.815C229.397 355.696 229.627 355.531 229.795 355.321C229.962 355.108 230.046 354.859 230.046 354.575C230.046 354.317 229.972 354.105 229.825 353.94C229.68 353.776 229.482 353.639 229.232 353.531C228.985 353.423 228.705 353.328 228.393 353.246L227.362 352.964C226.663 352.774 226.109 352.494 225.7 352.125C225.293 351.756 225.09 351.267 225.09 350.659C225.09 350.156 225.227 349.717 225.499 349.342C225.772 348.967 226.141 348.676 226.607 348.469C227.073 348.259 227.599 348.153 228.184 348.153C228.775 348.153 229.296 348.257 229.748 348.464C230.202 348.672 230.56 348.957 230.822 349.321C231.083 349.682 231.219 350.097 231.231 350.565H229.961ZM235.578 357.132C234.965 357.132 234.429 356.991 233.972 356.71C233.515 356.429 233.159 356.036 232.907 355.53C232.654 355.024 232.527 354.433 232.527 353.757C232.527 353.078 232.654 352.484 232.907 351.976C233.159 351.467 233.515 351.072 233.972 350.791C234.429 350.51 234.965 350.369 235.578 350.369C236.192 350.369 236.728 350.51 237.185 350.791C237.642 351.072 237.998 351.467 238.25 351.976C238.503 352.484 238.63 353.078 238.63 353.757C238.63 354.433 238.503 355.024 238.25 355.53C237.998 356.036 237.642 356.429 237.185 356.71C236.728 356.991 236.192 357.132 235.578 357.132ZM235.583 356.062C235.98 356.062 236.31 355.957 236.571 355.747C236.833 355.537 237.026 355.257 237.151 354.908C237.279 354.558 237.343 354.173 237.343 353.753C237.343 353.335 237.279 352.952 237.151 352.602C237.026 352.25 236.833 351.967 236.571 351.754C236.31 351.541 235.98 351.435 235.583 351.435C235.182 351.435 234.85 351.541 234.586 351.754C234.324 351.967 234.13 352.25 234.002 352.602C233.877 352.952 233.814 353.335 233.814 353.753C233.814 354.173 233.877 354.558 234.002 354.908C234.13 355.257 234.324 355.537 234.586 355.747C234.85 355.957 235.182 356.062 235.583 356.062ZM241.326 348.273V357H240.052V348.273H241.326ZM247.186 354.286V350.455H248.465V357H247.212V355.866H247.144C246.993 356.216 246.752 356.507 246.419 356.74C246.09 356.97 245.679 357.085 245.188 357.085C244.767 357.085 244.395 356.993 244.071 356.808C243.75 356.621 243.498 356.344 243.313 355.977C243.131 355.611 243.04 355.158 243.04 354.618V350.455H244.314V354.464C244.314 354.911 244.438 355.266 244.685 355.53C244.932 355.794 245.253 355.926 245.648 355.926C245.887 355.926 246.124 355.866 246.36 355.747C246.598 355.628 246.796 355.447 246.952 355.206C247.111 354.964 247.189 354.658 247.186 354.286ZM253.232 350.455V351.477H249.657V350.455H253.232ZM250.616 348.886H251.89V355.078C251.89 355.325 251.927 355.511 252.001 355.636C252.075 355.759 252.17 355.842 252.286 355.888C252.406 355.93 252.535 355.952 252.674 355.952C252.776 355.952 252.866 355.945 252.942 355.93C253.019 355.916 253.079 355.905 253.121 355.896L253.352 356.949C253.278 356.977 253.173 357.006 253.036 357.034C252.9 357.065 252.729 357.082 252.525 357.085C252.19 357.091 251.877 357.031 251.587 356.906C251.298 356.781 251.063 356.588 250.884 356.327C250.705 356.065 250.616 355.737 250.616 355.342V348.886ZM254.642 357V350.455H255.916V357H254.642ZM255.285 349.445C255.064 349.445 254.873 349.371 254.714 349.223C254.558 349.072 254.48 348.893 254.48 348.686C254.48 348.476 254.558 348.297 254.714 348.149C254.873 347.999 255.064 347.923 255.285 347.923C255.507 347.923 255.696 347.999 255.852 348.149C256.011 348.297 256.091 348.476 256.091 348.686C256.091 348.893 256.011 349.072 255.852 349.223C255.696 349.371 255.507 349.445 255.285 349.445ZM260.387 357.132C259.773 357.132 259.238 356.991 258.781 356.71C258.323 356.429 257.968 356.036 257.715 355.53C257.462 355.024 257.336 354.433 257.336 353.757C257.336 353.078 257.462 352.484 257.715 351.976C257.968 351.467 258.323 351.072 258.781 350.791C259.238 350.51 259.773 350.369 260.387 350.369C261.001 350.369 261.536 350.51 261.994 350.791C262.451 351.072 262.806 351.467 263.059 351.976C263.312 352.484 263.438 353.078 263.438 353.757C263.438 354.433 263.312 355.024 263.059 355.53C262.806 356.036 262.451 356.429 261.994 356.71C261.536 356.991 261.001 357.132 260.387 357.132ZM260.391 356.062C260.789 356.062 261.119 355.957 261.38 355.747C261.641 355.537 261.835 355.257 261.96 354.908C262.087 354.558 262.151 354.173 262.151 353.753C262.151 353.335 262.087 352.952 261.96 352.602C261.835 352.25 261.641 351.967 261.38 351.754C261.119 351.541 260.789 351.435 260.391 351.435C259.991 351.435 259.658 351.541 259.394 351.754C259.133 351.967 258.938 352.25 258.81 352.602C258.685 352.952 258.623 353.335 258.623 353.753C258.623 354.173 258.685 354.558 258.81 354.908C258.938 355.257 259.133 355.537 259.394 355.747C259.658 355.957 259.991 356.062 260.391 356.062ZM266.135 353.114V357H264.86V350.455H266.083V351.52H266.164C266.315 351.173 266.551 350.895 266.872 350.685C267.196 350.474 267.603 350.369 268.095 350.369C268.541 350.369 268.931 350.463 269.267 350.651C269.602 350.835 269.862 351.111 270.047 351.477C270.231 351.844 270.324 352.297 270.324 352.837V357H269.049V352.99C269.049 352.516 268.926 352.145 268.679 351.878C268.431 351.608 268.092 351.473 267.66 351.473C267.365 351.473 267.102 351.537 266.872 351.665C266.645 351.793 266.464 351.98 266.331 352.227C266.2 352.472 266.135 352.767 266.135 353.114ZM276.937 352.053L275.782 352.257C275.734 352.109 275.657 351.969 275.552 351.835C275.45 351.702 275.311 351.592 275.135 351.507C274.958 351.422 274.738 351.379 274.474 351.379C274.113 351.379 273.812 351.46 273.571 351.622C273.329 351.781 273.208 351.987 273.208 352.24C273.208 352.459 273.289 352.635 273.451 352.768C273.613 352.902 273.875 353.011 274.235 353.097L275.275 353.335C275.877 353.474 276.326 353.689 276.622 353.979C276.917 354.268 277.065 354.645 277.065 355.108C277.065 355.5 276.951 355.849 276.724 356.156C276.5 356.46 276.186 356.699 275.782 356.872C275.382 357.045 274.917 357.132 274.389 357.132C273.656 357.132 273.058 356.976 272.595 356.663C272.132 356.348 271.848 355.901 271.743 355.321L272.974 355.134C273.051 355.455 273.208 355.697 273.447 355.862C273.686 356.024 273.997 356.105 274.38 356.105C274.798 356.105 275.132 356.018 275.382 355.845C275.632 355.669 275.757 355.455 275.757 355.202C275.757 354.997 275.68 354.825 275.527 354.686C275.376 354.547 275.145 354.442 274.832 354.371L273.724 354.128C273.113 353.989 272.662 353.767 272.369 353.463C272.079 353.159 271.934 352.774 271.934 352.308C271.934 351.922 272.042 351.584 272.258 351.294C272.474 351.004 272.772 350.778 273.153 350.616C273.534 350.452 273.97 350.369 274.461 350.369C275.169 350.369 275.725 350.523 276.132 350.83C276.538 351.134 276.806 351.541 276.937 352.053Z" fill="#2B303B"/>
<path d="M178.58 376.136C177.966 376.136 177.438 375.991 176.994 375.702C176.551 375.412 176.21 375.013 175.972 374.504C175.733 373.996 175.614 373.415 175.614 372.761C175.614 372.097 175.736 371.51 175.98 371.001C176.227 370.49 176.571 370.091 177.011 369.804C177.455 369.514 177.972 369.369 178.562 369.369C179.023 369.369 179.438 369.455 179.807 369.625C180.176 369.795 180.479 370.034 180.714 370.341C180.95 370.648 181.097 371.006 181.153 371.415H180.148C180.071 371.116 179.901 370.852 179.636 370.622C179.375 370.389 179.023 370.273 178.58 370.273C178.188 370.273 177.844 370.375 177.548 370.58C177.256 370.781 177.027 371.067 176.862 371.436C176.7 371.803 176.619 372.233 176.619 372.727C176.619 373.233 176.699 373.673 176.858 374.048C177.02 374.423 177.247 374.714 177.54 374.922C177.835 375.129 178.182 375.233 178.58 375.233C178.841 375.233 179.078 375.188 179.291 375.097C179.504 375.006 179.685 374.875 179.832 374.705C179.98 374.534 180.085 374.33 180.148 374.091H181.153C181.097 374.477 180.956 374.825 180.732 375.135C180.51 375.442 180.216 375.686 179.849 375.868C179.486 376.047 179.063 376.136 178.58 376.136ZM185.283 376.136C184.692 376.136 184.173 375.996 183.727 375.714C183.284 375.433 182.938 375.04 182.688 374.534C182.44 374.028 182.317 373.437 182.317 372.761C182.317 372.08 182.44 371.484 182.688 370.976C182.938 370.467 183.284 370.072 183.727 369.791C184.173 369.51 184.692 369.369 185.283 369.369C185.874 369.369 186.391 369.51 186.834 369.791C187.28 370.072 187.626 370.467 187.874 370.976C188.124 371.484 188.249 372.08 188.249 372.761C188.249 373.437 188.124 374.028 187.874 374.534C187.626 375.04 187.28 375.433 186.834 375.714C186.391 375.996 185.874 376.136 185.283 376.136ZM185.283 375.233C185.732 375.233 186.101 375.118 186.391 374.888C186.68 374.658 186.895 374.355 187.034 373.98C187.173 373.605 187.243 373.199 187.243 372.761C187.243 372.324 187.173 371.916 187.034 371.538C186.895 371.161 186.68 370.855 186.391 370.622C186.101 370.389 185.732 370.273 185.283 370.273C184.834 370.273 184.464 370.389 184.175 370.622C183.885 370.855 183.67 371.161 183.531 371.538C183.392 371.916 183.322 372.324 183.322 372.761C183.322 373.199 183.392 373.605 183.531 373.98C183.67 374.355 183.885 374.658 184.175 374.888C184.464 375.118 184.834 375.233 185.283 375.233ZM190.789 372.062V376H189.784V369.455H190.755V370.477H190.841C190.994 370.145 191.227 369.878 191.539 369.676C191.852 369.472 192.255 369.369 192.75 369.369C193.193 369.369 193.581 369.46 193.913 369.642C194.245 369.821 194.504 370.094 194.689 370.46C194.873 370.824 194.966 371.284 194.966 371.841V376H193.96V371.909C193.96 371.395 193.826 370.994 193.559 370.707C193.292 370.418 192.926 370.273 192.46 370.273C192.139 370.273 191.852 370.342 191.599 370.482C191.349 370.621 191.152 370.824 191.007 371.091C190.862 371.358 190.789 371.682 190.789 372.062ZM199.65 369.455V370.307H196.258V369.455H199.65ZM197.246 367.886H198.252V374.125C198.252 374.409 198.293 374.622 198.376 374.764C198.461 374.903 198.569 374.997 198.7 375.045C198.833 375.091 198.974 375.114 199.121 375.114C199.232 375.114 199.323 375.108 199.394 375.097C199.465 375.082 199.522 375.071 199.565 375.062L199.769 375.966C199.701 375.991 199.606 376.017 199.484 376.043C199.362 376.071 199.207 376.085 199.019 376.085C198.735 376.085 198.457 376.024 198.184 375.902C197.914 375.78 197.69 375.594 197.511 375.344C197.335 375.094 197.246 374.778 197.246 374.398V367.886ZM203.089 376.153C202.674 376.153 202.298 376.075 201.96 375.919C201.621 375.76 201.353 375.531 201.154 375.233C200.955 374.932 200.856 374.568 200.856 374.142C200.856 373.767 200.93 373.463 201.077 373.23C201.225 372.994 201.423 372.81 201.67 372.676C201.917 372.543 202.19 372.443 202.488 372.378C202.789 372.31 203.092 372.256 203.396 372.216C203.793 372.165 204.116 372.126 204.363 372.101C204.613 372.072 204.795 372.026 204.908 371.96C205.025 371.895 205.083 371.781 205.083 371.619V371.585C205.083 371.165 204.968 370.838 204.738 370.605C204.511 370.372 204.165 370.256 203.702 370.256C203.222 370.256 202.846 370.361 202.573 370.571C202.3 370.781 202.109 371.006 201.998 371.244L201.043 370.903C201.214 370.506 201.441 370.196 201.725 369.974C202.012 369.75 202.325 369.594 202.663 369.506C203.004 369.415 203.339 369.369 203.668 369.369C203.879 369.369 204.12 369.395 204.393 369.446C204.668 369.494 204.934 369.595 205.19 369.749C205.448 369.902 205.663 370.134 205.833 370.443C206.004 370.753 206.089 371.168 206.089 371.688V376H205.083V375.114H205.032C204.964 375.256 204.85 375.408 204.691 375.57C204.532 375.732 204.32 375.869 204.056 375.983C203.792 376.097 203.469 376.153 203.089 376.153ZM203.242 375.25C203.64 375.25 203.975 375.172 204.248 375.016C204.523 374.859 204.731 374.658 204.87 374.411C205.012 374.163 205.083 373.903 205.083 373.631V372.71C205.04 372.761 204.947 372.808 204.802 372.851C204.66 372.891 204.495 372.926 204.308 372.957C204.123 372.986 203.942 373.011 203.766 373.034C203.593 373.054 203.452 373.071 203.344 373.085C203.083 373.119 202.839 373.175 202.612 373.251C202.387 373.325 202.205 373.437 202.066 373.588C201.93 373.736 201.862 373.937 201.862 374.193C201.862 374.543 201.991 374.807 202.249 374.986C202.511 375.162 202.842 375.25 203.242 375.25ZM210.583 376.136C209.97 376.136 209.441 375.991 208.998 375.702C208.555 375.412 208.214 375.013 207.975 374.504C207.737 373.996 207.618 373.415 207.618 372.761C207.618 372.097 207.74 371.51 207.984 371.001C208.231 370.49 208.575 370.091 209.015 369.804C209.458 369.514 209.975 369.369 210.566 369.369C211.027 369.369 211.441 369.455 211.811 369.625C212.18 369.795 212.483 370.034 212.718 370.341C212.954 370.648 213.1 371.006 213.157 371.415H212.152C212.075 371.116 211.904 370.852 211.64 370.622C211.379 370.389 211.027 370.273 210.583 370.273C210.191 370.273 209.848 370.375 209.552 370.58C209.26 370.781 209.031 371.067 208.866 371.436C208.704 371.803 208.623 372.233 208.623 372.727C208.623 373.233 208.703 373.673 208.862 374.048C209.024 374.423 209.251 374.714 209.544 374.922C209.839 375.129 210.186 375.233 210.583 375.233C210.845 375.233 211.082 375.188 211.295 375.097C211.508 375.006 211.689 374.875 211.836 374.705C211.984 374.534 212.089 374.33 212.152 374.091H213.157C213.1 374.477 212.96 374.825 212.735 375.135C212.514 375.442 212.22 375.686 211.853 375.868C211.49 376.047 211.066 376.136 210.583 376.136ZM217.474 369.455V370.307H214.082V369.455H217.474ZM215.071 367.886H216.076V374.125C216.076 374.409 216.118 374.622 216.2 374.764C216.285 374.903 216.393 374.997 216.524 375.045C216.657 375.091 216.798 375.114 216.946 375.114C217.056 375.114 217.147 375.108 217.218 375.097C217.289 375.082 217.346 375.071 217.389 375.062L217.593 375.966C217.525 375.991 217.43 376.017 217.308 376.043C217.186 376.071 217.031 376.085 216.843 376.085C216.559 376.085 216.281 376.024 216.008 375.902C215.738 375.78 215.514 375.594 215.335 375.344C215.159 375.094 215.071 374.778 215.071 374.398V367.886ZM224.015 378.301C223.146 378.301 222.377 378.182 221.71 377.943C221.042 377.707 220.481 377.359 220.027 376.899C219.572 376.439 219.228 375.875 218.995 375.207C218.762 374.54 218.646 373.776 218.646 372.915C218.646 372.082 218.764 371.338 219 370.682C219.238 370.026 219.583 369.469 220.035 369.011C220.49 368.551 221.041 368.2 221.689 367.959C222.339 367.717 223.075 367.597 223.896 367.597C224.694 367.597 225.393 367.727 225.993 367.989C226.595 368.247 227.098 368.598 227.501 369.041C227.907 369.482 228.211 369.977 228.413 370.528C228.618 371.08 228.72 371.648 228.72 372.233C228.72 372.645 228.7 373.062 228.66 373.486C228.62 373.909 228.537 374.298 228.409 374.653C228.281 375.006 228.083 375.29 227.816 375.506C227.552 375.722 227.194 375.83 226.743 375.83C226.544 375.83 226.325 375.798 226.086 375.736C225.848 375.673 225.636 375.57 225.451 375.425C225.267 375.28 225.157 375.085 225.123 374.841H225.072C225.004 375.006 224.899 375.162 224.757 375.31C224.618 375.457 224.434 375.575 224.207 375.663C223.983 375.751 223.708 375.79 223.385 375.778C223.015 375.764 222.69 375.682 222.409 375.531C222.127 375.378 221.892 375.17 221.701 374.909C221.514 374.645 221.372 374.339 221.275 373.993C221.181 373.643 221.135 373.267 221.135 372.864C221.135 372.48 221.191 372.129 221.305 371.811C221.419 371.493 221.576 371.214 221.778 370.976C221.983 370.737 222.221 370.547 222.494 370.405C222.77 370.26 223.066 370.17 223.385 370.136C223.669 370.108 223.927 370.121 224.16 370.175C224.393 370.226 224.585 370.304 224.735 370.409C224.886 370.511 224.981 370.625 225.021 370.75H225.072V370.273H225.975V374.125C225.975 374.364 226.042 374.574 226.176 374.756C226.309 374.937 226.504 375.028 226.76 375.028C227.049 375.028 227.271 374.929 227.424 374.73C227.581 374.531 227.687 374.224 227.744 373.81C227.804 373.395 227.833 372.864 227.833 372.216C227.833 371.835 227.781 371.46 227.676 371.091C227.574 370.719 227.417 370.371 227.207 370.047C227 369.723 226.737 369.437 226.419 369.19C226.1 368.943 225.727 368.75 225.298 368.611C224.872 368.469 224.387 368.398 223.845 368.398C223.177 368.398 222.579 368.501 222.051 368.709C221.525 368.913 221.078 369.213 220.708 369.608C220.342 370 220.062 370.477 219.869 371.04C219.679 371.599 219.583 372.236 219.583 372.949C219.583 373.673 219.679 374.317 219.869 374.879C220.062 375.442 220.346 375.916 220.721 376.303C221.099 376.689 221.566 376.982 222.123 377.18C222.68 377.382 223.322 377.483 224.049 377.483C224.362 377.483 224.67 377.453 224.974 377.393C225.278 377.334 225.547 377.268 225.779 377.197C226.012 377.126 226.18 377.074 226.282 377.04L226.521 377.824C226.345 377.898 226.115 377.972 225.831 378.045C225.549 378.119 225.248 378.18 224.927 378.229C224.609 378.277 224.305 378.301 224.015 378.301ZM223.521 374.909C223.902 374.909 224.21 374.832 224.446 374.679C224.681 374.526 224.853 374.294 224.961 373.984C225.069 373.675 225.123 373.284 225.123 372.812C225.123 372.335 225.064 371.963 224.944 371.696C224.825 371.429 224.649 371.241 224.416 371.134C224.183 371.026 223.896 370.972 223.555 370.972C223.231 370.972 222.954 371.057 222.724 371.227C222.497 371.395 222.322 371.619 222.2 371.901C222.081 372.179 222.021 372.483 222.021 372.812C222.021 373.176 222.069 373.518 222.166 373.839C222.262 374.158 222.42 374.416 222.639 374.615C222.858 374.811 223.152 374.909 223.521 374.909ZM231.231 367.273V376H230.225V367.273H231.231ZM234.999 376.153C234.584 376.153 234.208 376.075 233.87 375.919C233.532 375.76 233.263 375.531 233.064 375.233C232.865 374.932 232.766 374.568 232.766 374.142C232.766 373.767 232.84 373.463 232.988 373.23C233.135 372.994 233.333 372.81 233.58 372.676C233.827 372.543 234.1 372.443 234.398 372.378C234.699 372.31 235.002 372.256 235.306 372.216C235.703 372.165 236.026 372.126 236.273 372.101C236.523 372.072 236.705 372.026 236.819 371.96C236.935 371.895 236.993 371.781 236.993 371.619V371.585C236.993 371.165 236.878 370.838 236.648 370.605C236.421 370.372 236.076 370.256 235.613 370.256C235.132 370.256 234.756 370.361 234.483 370.571C234.211 370.781 234.019 371.006 233.908 371.244L232.953 370.903C233.124 370.506 233.351 370.196 233.635 369.974C233.922 369.75 234.235 369.594 234.573 369.506C234.914 369.415 235.249 369.369 235.578 369.369C235.789 369.369 236.03 369.395 236.303 369.446C236.578 369.494 236.844 369.595 237.1 369.749C237.358 369.902 237.573 370.134 237.743 370.443C237.914 370.753 237.999 371.168 237.999 371.688V376H236.993V375.114H236.942C236.874 375.256 236.76 375.408 236.601 375.57C236.442 375.732 236.23 375.869 235.966 375.983C235.702 376.097 235.38 376.153 234.999 376.153ZM235.152 375.25C235.55 375.25 235.885 375.172 236.158 375.016C236.434 374.859 236.641 374.658 236.78 374.411C236.922 374.163 236.993 373.903 236.993 373.631V372.71C236.951 372.761 236.857 372.808 236.712 372.851C236.57 372.891 236.405 372.926 236.218 372.957C236.033 372.986 235.853 373.011 235.676 373.034C235.503 373.054 235.363 373.071 235.255 373.085C234.993 373.119 234.749 373.175 234.522 373.251C234.297 373.325 234.115 373.437 233.976 373.588C233.84 373.736 233.772 373.937 233.772 374.193C233.772 374.543 233.901 374.807 234.159 374.986C234.421 375.162 234.752 375.25 235.152 375.25ZM239.835 376V369.455H240.806V370.477H240.891C241.028 370.128 241.248 369.857 241.552 369.663C241.856 369.467 242.221 369.369 242.647 369.369C243.079 369.369 243.438 369.467 243.725 369.663C244.015 369.857 244.241 370.128 244.403 370.477H244.471C244.638 370.139 244.89 369.871 245.225 369.672C245.56 369.47 245.962 369.369 246.431 369.369C247.016 369.369 247.495 369.553 247.867 369.919C248.239 370.283 248.425 370.849 248.425 371.619V376H247.42V371.619C247.42 371.136 247.288 370.791 247.023 370.584C246.759 370.376 246.448 370.273 246.09 370.273C245.63 370.273 245.273 370.412 245.021 370.69C244.768 370.966 244.641 371.315 244.641 371.739V376H243.619V371.517C243.619 371.145 243.498 370.845 243.256 370.618C243.015 370.388 242.704 370.273 242.323 370.273C242.062 370.273 241.817 370.342 241.59 370.482C241.366 370.621 241.184 370.814 241.045 371.061C240.908 371.305 240.84 371.588 240.84 371.909V376H239.835ZM250.401 376V367.273H251.406V370.494H251.491C251.565 370.381 251.668 370.236 251.798 370.06C251.932 369.881 252.122 369.722 252.369 369.582C252.619 369.44 252.957 369.369 253.384 369.369C253.935 369.369 254.42 369.507 254.841 369.783C255.261 370.058 255.589 370.449 255.825 370.955C256.061 371.46 256.179 372.057 256.179 372.744C256.179 373.438 256.061 374.038 255.825 374.547C255.589 375.053 255.263 375.445 254.845 375.723C254.428 375.999 253.946 376.136 253.401 376.136C252.98 376.136 252.643 376.067 252.391 375.928C252.138 375.786 251.943 375.625 251.807 375.446C251.67 375.264 251.565 375.114 251.491 374.994H251.372V376H250.401ZM251.389 372.727C251.389 373.222 251.462 373.658 251.607 374.036C251.751 374.411 251.963 374.705 252.241 374.918C252.52 375.128 252.861 375.233 253.264 375.233C253.685 375.233 254.036 375.122 254.317 374.901C254.601 374.676 254.814 374.375 254.956 373.997C255.101 373.616 255.173 373.193 255.173 372.727C255.173 372.267 255.102 371.852 254.96 371.483C254.821 371.111 254.609 370.817 254.325 370.601C254.044 370.382 253.69 370.273 253.264 370.273C252.855 370.273 252.511 370.376 252.233 370.584C251.955 370.788 251.744 371.075 251.602 371.445C251.46 371.811 251.389 372.239 251.389 372.727ZM260.189 376.136C259.643 376.136 259.162 375.999 258.744 375.723C258.327 375.445 258 375.053 257.764 374.547C257.528 374.038 257.411 373.438 257.411 372.744C257.411 372.057 257.528 371.46 257.764 370.955C258 370.449 258.328 370.058 258.749 369.783C259.169 369.507 259.655 369.369 260.206 369.369C260.632 369.369 260.969 369.44 261.216 369.582C261.466 369.722 261.656 369.881 261.787 370.06C261.92 370.236 262.024 370.381 262.098 370.494H262.183V367.273H263.189V376H262.217V374.994H262.098C262.024 375.114 261.919 375.264 261.783 375.446C261.646 375.625 261.452 375.786 261.199 375.928C260.946 376.067 260.609 376.136 260.189 376.136ZM260.325 375.233C260.729 375.233 261.07 375.128 261.348 374.918C261.626 374.705 261.838 374.411 261.983 374.036C262.128 373.658 262.2 373.222 262.2 372.727C262.2 372.239 262.129 371.811 261.987 371.445C261.845 371.075 261.635 370.788 261.357 370.584C261.078 370.376 260.734 370.273 260.325 370.273C259.899 370.273 259.544 370.382 259.26 370.601C258.979 370.817 258.767 371.111 258.625 371.483C258.486 371.852 258.416 372.267 258.416 372.727C258.416 373.193 258.487 373.616 258.629 373.997C258.774 374.375 258.987 374.676 259.268 374.901C259.553 375.122 259.905 375.233 260.325 375.233ZM267.097 376.153C266.682 376.153 266.305 376.075 265.967 375.919C265.629 375.76 265.361 375.531 265.162 375.233C264.963 374.932 264.864 374.568 264.864 374.142C264.864 373.767 264.938 373.463 265.085 373.23C265.233 372.994 265.43 372.81 265.678 372.676C265.925 372.543 266.197 372.443 266.496 372.378C266.797 372.31 267.099 372.256 267.403 372.216C267.801 372.165 268.124 372.126 268.371 372.101C268.621 372.072 268.803 372.026 268.916 371.96C269.033 371.895 269.091 371.781 269.091 371.619V371.585C269.091 371.165 268.976 370.838 268.746 370.605C268.518 370.372 268.173 370.256 267.71 370.256C267.23 370.256 266.854 370.361 266.581 370.571C266.308 370.781 266.116 371.006 266.006 371.244L265.051 370.903C265.222 370.506 265.449 370.196 265.733 369.974C266.02 369.75 266.332 369.594 266.67 369.506C267.011 369.415 267.347 369.369 267.676 369.369C267.886 369.369 268.128 369.395 268.401 369.446C268.676 369.494 268.942 369.595 269.197 369.749C269.456 369.902 269.67 370.134 269.841 370.443C270.011 370.753 270.097 371.168 270.097 371.688V376H269.091V375.114H269.04C268.972 375.256 268.858 375.408 268.699 375.57C268.54 375.732 268.328 375.869 268.064 375.983C267.8 376.097 267.477 376.153 267.097 376.153ZM267.25 375.25C267.648 375.25 267.983 375.172 268.256 375.016C268.531 374.859 268.739 374.658 268.878 374.411C269.02 374.163 269.091 373.903 269.091 373.631V372.71C269.048 372.761 268.955 372.808 268.81 372.851C268.668 372.891 268.503 372.926 268.315 372.957C268.131 372.986 267.95 373.011 267.774 373.034C267.601 373.054 267.46 373.071 267.352 373.085C267.091 373.119 266.847 373.175 266.619 373.251C266.395 373.325 266.213 373.437 266.074 373.588C265.938 373.736 265.869 373.937 265.869 374.193C265.869 374.543 265.999 374.807 266.257 374.986C266.518 375.162 266.849 375.25 267.25 375.25ZM272.665 376.068C272.455 376.068 272.275 375.993 272.124 375.842C271.973 375.692 271.898 375.511 271.898 375.301C271.898 375.091 271.973 374.911 272.124 374.76C272.275 374.609 272.455 374.534 272.665 374.534C272.875 374.534 273.056 374.609 273.206 374.76C273.357 374.911 273.432 375.091 273.432 375.301C273.432 375.44 273.397 375.568 273.326 375.685C273.257 375.801 273.165 375.895 273.049 375.966C272.935 376.034 272.807 376.068 272.665 376.068ZM277.896 376.136C277.282 376.136 276.754 375.991 276.311 375.702C275.868 375.412 275.527 375.013 275.288 374.504C275.049 373.996 274.93 373.415 274.93 372.761C274.93 372.097 275.052 371.51 275.297 371.001C275.544 370.49 275.887 370.091 276.328 369.804C276.771 369.514 277.288 369.369 277.879 369.369C278.339 369.369 278.754 369.455 279.123 369.625C279.493 369.795 279.795 370.034 280.031 370.341C280.267 370.648 280.413 371.006 280.47 371.415H279.464C279.387 371.116 279.217 370.852 278.953 370.622C278.691 370.389 278.339 370.273 277.896 370.273C277.504 370.273 277.16 370.375 276.865 370.58C276.572 370.781 276.343 371.067 276.179 371.436C276.017 371.803 275.936 372.233 275.936 372.727C275.936 373.233 276.015 373.673 276.174 374.048C276.336 374.423 276.564 374.714 276.856 374.922C277.152 375.129 277.498 375.233 277.896 375.233C278.157 375.233 278.395 375.188 278.608 375.097C278.821 375.006 279.001 374.875 279.149 374.705C279.297 374.534 279.402 374.33 279.464 374.091H280.47C280.413 374.477 280.272 374.825 280.048 375.135C279.826 375.442 279.532 375.686 279.166 375.868C278.802 376.047 278.379 376.136 277.896 376.136ZM284.599 376.136C284.008 376.136 283.49 375.996 283.044 375.714C282.6 375.433 282.254 375.04 282.004 374.534C281.757 374.028 281.633 373.437 281.633 372.761C281.633 372.08 281.757 371.484 282.004 370.976C282.254 370.467 282.6 370.072 283.044 369.791C283.49 369.51 284.008 369.369 284.599 369.369C285.19 369.369 285.707 369.51 286.15 369.791C286.596 370.072 286.943 370.467 287.19 370.976C287.44 371.484 287.565 372.08 287.565 372.761C287.565 373.437 287.44 374.028 287.19 374.534C286.943 375.04 286.596 375.433 286.15 375.714C285.707 375.996 285.19 376.136 284.599 376.136ZM284.599 375.233C285.048 375.233 285.417 375.118 285.707 374.888C285.997 374.658 286.211 374.355 286.35 373.98C286.49 373.605 286.559 373.199 286.559 372.761C286.559 372.324 286.49 371.916 286.35 371.538C286.211 371.161 285.997 370.855 285.707 370.622C285.417 370.389 285.048 370.273 284.599 370.273C284.15 370.273 283.781 370.389 283.491 370.622C283.201 370.855 282.987 371.161 282.848 371.538C282.708 371.916 282.639 372.324 282.639 372.761C282.639 373.199 282.708 373.605 282.848 373.98C282.987 374.355 283.201 374.658 283.491 374.888C283.781 375.118 284.15 375.233 284.599 375.233ZM289.1 376V369.455H290.072V370.477H290.157C290.293 370.128 290.513 369.857 290.817 369.663C291.121 369.467 291.487 369.369 291.913 369.369C292.344 369.369 292.704 369.467 292.991 369.663C293.281 369.857 293.506 370.128 293.668 370.477H293.737C293.904 370.139 294.156 369.871 294.491 369.672C294.826 369.47 295.228 369.369 295.697 369.369C296.282 369.369 296.761 369.553 297.133 369.919C297.505 370.283 297.691 370.849 297.691 371.619V376H296.685V371.619C296.685 371.136 296.553 370.791 296.289 370.584C296.025 370.376 295.714 370.273 295.356 370.273C294.896 370.273 294.539 370.412 294.286 370.69C294.033 370.966 293.907 371.315 293.907 371.739V376H292.884V371.517C292.884 371.145 292.763 370.845 292.522 370.618C292.281 370.388 291.969 370.273 291.589 370.273C291.327 370.273 291.083 370.342 290.856 370.482C290.631 370.621 290.45 370.814 290.31 371.061C290.174 371.305 290.106 371.588 290.106 371.909V376H289.1Z" fill="#717784"/>
</g>
<rect x="107.5" y="40.5" width="239" height="75" rx="13.5" fill="white" fill-opacity="0.4"/>
<rect x="107.5" y="40.5" width="239" height="75" rx="13.5" stroke="white"/>
<g filter="url(#filter2_d_7841_8906)">
<path d="M115 60C115 53.3726 120.373 48 127 48H327C333.627 48 339 53.3726 339 60V96C339 102.627 333.627 108 327 108H127C120.373 108 115 102.627 115 96V60Z" fill="white"/>
<rect x="127" y="60" width="36" height="36" rx="10.2857" fill="#5233DD"/>
<g clip-path="url(#clip1_7841_8906)">
<path d="M148.154 82.5427C150.427 82.5427 152.269 80.7007 152.269 78.4284C152.269 76.1562 150.427 74.3141 148.154 74.3141C146.022 74.3141 144.268 75.9366 144.061 78.0144C143.22 77.6342 142.312 77.407 141.382 77.3472C141.9 74.0738 144.735 71.5713 148.154 71.5713C151.941 71.5713 155.011 74.6413 155.011 78.4284C155.011 82.0774 152.161 85.0607 148.566 85.2734V85.2856H144.047V84.6871C144.047 83.9097 143.726 83.1537 143.138 82.5885C142.549 82.0217 141.74 81.6949 140.886 81.6949C140.032 81.6949 139.222 82.0217 138.633 82.5885C138.045 83.1537 137.725 83.9097 137.725 84.6871V85.2856H134.714V84.6725C134.714 83.0697 135.379 81.5452 136.543 80.4306C137.669 79.3517 139.173 78.7405 140.739 78.7044C140.788 78.7033 140.837 78.7027 140.886 78.7027C140.924 78.7027 140.962 78.7031 141 78.7037C142.577 78.7319 144.094 79.3441 145.229 80.4306C145.857 81.0325 146.34 81.754 146.651 82.5427H148.154Z" fill="white"/>
<path d="M142.146 83.5459C142.481 83.8367 142.668 84.231 142.668 84.6422V85.2861H139.103V84.6422C139.103 84.231 139.291 83.8367 139.625 83.5459C139.959 83.2551 140.413 83.0918 140.886 83.0918C141.358 83.0918 141.812 83.2551 142.146 83.5459Z" fill="white"/>
<path d="M149.725 77.7558C149.229 77.7558 148.828 77.3539 148.828 76.8581V76.6337C148.828 76.2619 148.526 75.9604 148.154 75.9604C147.783 75.9604 147.481 76.2619 147.481 76.6337V76.8581C147.481 77.3539 147.079 77.7558 146.583 77.7558H146.359C145.987 77.7558 145.686 78.0572 145.686 78.429C145.686 78.8008 145.987 79.1023 146.359 79.1023H146.583C147.079 79.1023 147.481 79.5042 147.481 79.9999V80.2244C147.481 80.5962 147.783 80.8976 148.154 80.8976C148.526 80.8976 148.828 80.5962 148.828 80.2244V79.9999C148.828 79.5042 149.229 79.1023 149.725 79.1023H149.95C150.322 79.1023 150.623 78.8008 150.623 78.429C150.623 78.0572 150.322 77.7558 149.95 77.7558H149.725Z" fill="white"/>
<path d="M138.554 72.6684C138.554 73.2744 139.046 73.7656 139.651 73.7656H139.926C140.38 73.7656 140.749 74.134 140.749 74.5884C140.749 75.0429 140.38 75.4113 139.926 75.4113H139.651C139.046 75.4113 138.554 75.9025 138.554 76.5084V76.7827C138.554 77.2372 138.186 77.6056 137.731 77.6056C137.277 77.6056 136.909 77.2372 136.909 76.7827V76.5084C136.909 75.9025 136.417 75.4113 135.811 75.4113H135.537C135.083 75.4113 134.714 75.0429 134.714 74.5884C134.714 74.134 135.083 73.7656 135.537 73.7656H135.811C136.417 73.7656 136.909 73.2744 136.909 72.6684V72.3941C136.909 71.9397 137.277 71.5713 137.731 71.5713C138.186 71.5713 138.554 71.9397 138.554 72.3941V72.6684Z" fill="white"/>
</g>
<path d="M176.696 73H175.298L178.439 64.2727H179.96L183.101 73H181.703L179.236 65.858H179.168L176.696 73ZM176.93 69.5824H181.464V70.6903H176.93V69.5824ZM185.533 64.2727V73H184.259V64.2727H185.533ZM187.247 75.4545V66.4545H188.491V67.5156H188.598C188.672 67.3793 188.778 67.2216 188.918 67.0426C189.057 66.8636 189.25 66.7074 189.497 66.5739C189.744 66.4375 190.071 66.3693 190.477 66.3693C191.006 66.3693 191.477 66.5028 191.892 66.7699C192.307 67.0369 192.632 67.4219 192.868 67.9247C193.107 68.4276 193.226 69.0327 193.226 69.7401C193.226 70.4474 193.108 71.054 192.872 71.5597C192.636 72.0625 192.313 72.4503 191.901 72.723C191.489 72.9929 191.018 73.1278 190.49 73.1278C190.092 73.1278 189.767 73.0611 189.514 72.9276C189.264 72.794 189.068 72.6378 188.926 72.4588C188.784 72.2798 188.675 72.1207 188.598 71.9815H188.521V75.4545H187.247ZM188.496 69.7273C188.496 70.1875 188.563 70.5909 188.696 70.9375C188.83 71.2841 189.023 71.5554 189.276 71.7514C189.528 71.9446 189.838 72.0412 190.205 72.0412C190.585 72.0412 190.903 71.9403 191.159 71.7386C191.415 71.5341 191.608 71.2571 191.739 70.9077C191.872 70.5582 191.939 70.1648 191.939 69.7273C191.939 69.2955 191.874 68.9077 191.743 68.5639C191.615 68.2202 191.422 67.9489 191.163 67.75C190.908 67.5511 190.588 67.4517 190.205 67.4517C189.835 67.4517 189.523 67.5469 189.267 67.7372C189.014 67.9276 188.822 68.1932 188.692 68.5341C188.561 68.875 188.496 69.2727 188.496 69.7273ZM195.928 69.1136V73H194.653V64.2727H195.911V67.5199H195.991C196.145 67.1676 196.379 66.8878 196.695 66.6804C197.01 66.473 197.422 66.3693 197.93 66.3693C198.379 66.3693 198.771 66.4616 199.107 66.6463C199.445 66.831 199.706 67.1065 199.891 67.473C200.078 67.8366 200.172 68.2912 200.172 68.8366V73H198.898V68.9901C198.898 68.5099 198.774 68.1378 198.527 67.8736C198.28 67.6065 197.936 67.473 197.496 67.473C197.195 67.473 196.925 67.5369 196.686 67.6648C196.45 67.7926 196.264 67.9801 196.128 68.2273C195.994 68.4716 195.928 68.767 195.928 69.1136ZM203.777 73.1449C203.362 73.1449 202.987 73.0682 202.652 72.9148C202.317 72.7585 202.051 72.5327 201.855 72.2372C201.662 71.9418 201.565 71.5795 201.565 71.1506C201.565 70.7812 201.636 70.4773 201.778 70.2386C201.92 70 202.112 69.8111 202.354 69.6719C202.595 69.5327 202.865 69.4276 203.163 69.3565C203.462 69.2855 203.766 69.2315 204.075 69.1946C204.467 69.1491 204.786 69.1122 205.03 69.0838C205.274 69.0526 205.452 69.0028 205.562 68.9347C205.673 68.8665 205.729 68.7557 205.729 68.6023V68.5724C205.729 68.2003 205.624 67.9119 205.413 67.7074C205.206 67.5028 204.896 67.4006 204.484 67.4006C204.055 67.4006 203.717 67.4957 203.47 67.6861C203.226 67.8736 203.057 68.0824 202.963 68.3125L201.766 68.0398C201.908 67.642 202.115 67.321 202.388 67.0767C202.663 66.8295 202.98 66.6506 203.338 66.5398C203.696 66.4261 204.072 66.3693 204.467 66.3693C204.729 66.3693 205.006 66.4006 205.298 66.4631C205.594 66.5227 205.869 66.6335 206.125 66.7955C206.384 66.9574 206.595 67.1889 206.76 67.4901C206.925 67.7884 207.007 68.1761 207.007 68.6534V73H205.763V72.1051H205.712C205.629 72.2699 205.506 72.4318 205.341 72.5909C205.176 72.75 204.964 72.8821 204.706 72.9872C204.447 73.0923 204.138 73.1449 203.777 73.1449ZM204.054 72.1222C204.406 72.1222 204.707 72.0526 204.957 71.9134C205.21 71.7741 205.402 71.5923 205.533 71.3679C205.666 71.1406 205.733 70.8977 205.733 70.6392V69.7955C205.688 69.8409 205.599 69.8835 205.469 69.9233C205.341 69.9602 205.195 69.9929 205.03 70.0213C204.865 70.0469 204.705 70.071 204.548 70.0938C204.392 70.1136 204.261 70.1307 204.156 70.1449C203.909 70.1761 203.683 70.2287 203.479 70.3026C203.277 70.3764 203.115 70.483 202.993 70.6222C202.874 70.7585 202.814 70.9403 202.814 71.1676C202.814 71.483 202.93 71.7216 203.163 71.8835C203.396 72.0426 203.693 72.1222 204.054 72.1222ZM211.552 65.4062V64.2727H218.306V65.4062H215.583V73H214.271V65.4062H211.552ZM221.568 73.1321C220.923 73.1321 220.368 72.9943 219.902 72.7188C219.439 72.4403 219.081 72.0497 218.828 71.5469C218.578 71.0412 218.453 70.4489 218.453 69.7699C218.453 69.0994 218.578 68.5085 218.828 67.9972C219.081 67.4858 219.433 67.0866 219.885 66.7997C220.339 66.5128 220.871 66.3693 221.479 66.3693C221.848 66.3693 222.206 66.4304 222.553 66.5526C222.899 66.6747 223.21 66.8665 223.486 67.1278C223.761 67.3892 223.979 67.7287 224.138 68.1463C224.297 68.5611 224.376 69.0653 224.376 69.6591V70.1108H219.173V69.1562H223.128C223.128 68.821 223.06 68.5241 222.923 68.2656C222.787 68.0043 222.595 67.7983 222.348 67.6477C222.104 67.4972 221.817 67.4219 221.487 67.4219C221.129 67.4219 220.817 67.5099 220.55 67.6861C220.286 67.8594 220.081 68.0866 219.936 68.3679C219.794 68.6463 219.723 68.9489 219.723 69.2756V70.0213C219.723 70.4588 219.8 70.831 219.953 71.1378C220.109 71.4446 220.327 71.679 220.605 71.8409C220.884 72 221.209 72.0795 221.581 72.0795C221.822 72.0795 222.043 72.0455 222.241 71.9773C222.44 71.9062 222.612 71.8011 222.757 71.6619C222.902 71.5227 223.013 71.3509 223.089 71.1463L224.295 71.3636C224.199 71.7187 224.026 72.0298 223.776 72.2969C223.528 72.5611 223.217 72.767 222.842 72.9148C222.47 73.0597 222.045 73.1321 221.568 73.1321ZM228.547 73.1321C227.914 73.1321 227.368 72.9886 226.911 72.7017C226.456 72.4119 226.107 72.0128 225.863 71.5043C225.618 70.9957 225.496 70.4134 225.496 69.7571C225.496 69.0923 225.621 68.5057 225.871 67.9972C226.121 67.4858 226.473 67.0866 226.928 66.7997C227.382 66.5128 227.918 66.3693 228.534 66.3693C229.032 66.3693 229.475 66.4616 229.864 66.6463C230.253 66.8281 230.567 67.0838 230.806 67.4134C231.047 67.7429 231.191 68.1278 231.236 68.5682H229.996C229.928 68.2614 229.772 67.9972 229.527 67.7756C229.286 67.554 228.962 67.4432 228.556 67.4432C228.201 67.4432 227.89 67.5369 227.623 67.7244C227.358 67.9091 227.152 68.1733 227.005 68.517C226.857 68.858 226.783 69.2614 226.783 69.7273C226.783 70.2045 226.855 70.6165 227 70.9631C227.145 71.3097 227.35 71.5781 227.614 71.7685C227.881 71.9588 228.195 72.054 228.556 72.054C228.797 72.054 229.016 72.0099 229.212 71.9219C229.411 71.831 229.577 71.7017 229.711 71.5341C229.847 71.3665 229.942 71.1648 229.996 70.929H231.236C231.191 71.3523 231.053 71.7301 230.823 72.0625C230.593 72.3949 230.284 72.6562 229.898 72.8466C229.515 73.0369 229.064 73.1321 228.547 73.1321ZM233.873 69.1136V73H232.599V64.2727H233.856V67.5199H233.937C234.09 67.1676 234.325 66.8878 234.64 66.6804C234.955 66.473 235.367 66.3693 235.876 66.3693C236.325 66.3693 236.717 66.4616 237.052 66.6463C237.39 66.831 237.651 67.1065 237.836 67.473C238.023 67.8366 238.117 68.2912 238.117 68.8366V73H236.843V68.9901C236.843 68.5099 236.719 68.1378 236.472 67.8736C236.225 67.6065 235.881 67.473 235.441 67.473C235.14 67.473 234.87 67.5369 234.631 67.6648C234.396 67.7926 234.21 67.9801 234.073 68.2273C233.94 68.4716 233.873 68.767 233.873 69.1136Z" fill="#2B303B"/>
<path d="M178.58 92.1364C177.966 92.1364 177.438 91.9915 176.994 91.7017C176.551 91.4119 176.21 91.0128 175.972 90.5043C175.733 89.9957 175.614 89.4148 175.614 88.7614C175.614 88.0966 175.736 87.5099 175.98 87.0014C176.227 86.4901 176.571 86.0909 177.011 85.804C177.455 85.5142 177.972 85.3693 178.562 85.3693C179.023 85.3693 179.438 85.4545 179.807 85.625C180.176 85.7955 180.479 86.0341 180.714 86.3409C180.95 86.6477 181.097 87.0057 181.153 87.4148H180.148C180.071 87.1165 179.901 86.8523 179.636 86.6222C179.375 86.3892 179.023 86.2727 178.58 86.2727C178.188 86.2727 177.844 86.375 177.548 86.5795C177.256 86.7812 177.027 87.0668 176.862 87.4361C176.7 87.8026 176.619 88.233 176.619 88.7273C176.619 89.233 176.699 89.6733 176.858 90.0483C177.02 90.4233 177.247 90.7145 177.54 90.9219C177.835 91.1293 178.182 91.233 178.58 91.233C178.841 91.233 179.078 91.1875 179.291 91.0966C179.504 91.0057 179.685 90.875 179.832 90.7045C179.98 90.5341 180.085 90.3295 180.148 90.0909H181.153C181.097 90.4773 180.956 90.8253 180.732 91.1349C180.51 91.4418 180.216 91.6861 179.849 91.8679C179.486 92.0469 179.063 92.1364 178.58 92.1364ZM185.283 92.1364C184.692 92.1364 184.173 91.9957 183.727 91.7145C183.284 91.4332 182.938 91.0398 182.688 90.5341C182.44 90.0284 182.317 89.4375 182.317 88.7614C182.317 88.0795 182.44 87.4844 182.688 86.9759C182.938 86.4673 183.284 86.0724 183.727 85.7912C184.173 85.5099 184.692 85.3693 185.283 85.3693C185.874 85.3693 186.391 85.5099 186.834 85.7912C187.28 86.0724 187.626 86.4673 187.874 86.9759C188.124 87.4844 188.249 88.0795 188.249 88.7614C188.249 89.4375 188.124 90.0284 187.874 90.5341C187.626 91.0398 187.28 91.4332 186.834 91.7145C186.391 91.9957 185.874 92.1364 185.283 92.1364ZM185.283 91.233C185.732 91.233 186.101 91.1179 186.391 90.8878C186.68 90.6577 186.895 90.3551 187.034 89.9801C187.173 89.6051 187.243 89.1989 187.243 88.7614C187.243 88.3239 187.173 87.9162 187.034 87.5384C186.895 87.1605 186.68 86.8551 186.391 86.6222C186.101 86.3892 185.732 86.2727 185.283 86.2727C184.834 86.2727 184.464 86.3892 184.175 86.6222C183.885 86.8551 183.67 87.1605 183.531 87.5384C183.392 87.9162 183.322 88.3239 183.322 88.7614C183.322 89.1989 183.392 89.6051 183.531 89.9801C183.67 90.3551 183.885 90.6577 184.175 90.8878C184.464 91.1179 184.834 91.233 185.283 91.233ZM190.789 88.0625V92H189.784V85.4545H190.755V86.4773H190.841C190.994 86.1449 191.227 85.8778 191.539 85.6761C191.852 85.4716 192.255 85.3693 192.75 85.3693C193.193 85.3693 193.581 85.4602 193.913 85.642C194.245 85.821 194.504 86.0938 194.689 86.4602C194.873 86.8239 194.966 87.2841 194.966 87.8409V92H193.96V87.9091C193.96 87.3949 193.826 86.9943 193.559 86.7074C193.292 86.4176 192.926 86.2727 192.46 86.2727C192.139 86.2727 191.852 86.3423 191.599 86.4815C191.349 86.6207 191.152 86.8239 191.007 87.0909C190.862 87.358 190.789 87.6818 190.789 88.0625ZM199.65 85.4545V86.3068H196.258V85.4545H199.65ZM197.246 83.8864H198.252V90.125C198.252 90.4091 198.293 90.6222 198.376 90.7642C198.461 90.9034 198.569 90.9972 198.7 91.0455C198.833 91.0909 198.974 91.1136 199.121 91.1136C199.232 91.1136 199.323 91.108 199.394 91.0966C199.465 91.0824 199.522 91.071 199.565 91.0625L199.769 91.9659C199.701 91.9915 199.606 92.017 199.484 92.0426C199.362 92.071 199.207 92.0852 199.019 92.0852C198.735 92.0852 198.457 92.0241 198.184 91.902C197.914 91.7798 197.69 91.5938 197.511 91.3438C197.335 91.0938 197.246 90.7784 197.246 90.3977V83.8864ZM203.089 92.1534C202.674 92.1534 202.298 92.0753 201.96 91.919C201.621 91.7599 201.353 91.5312 201.154 91.233C200.955 90.9318 200.856 90.5682 200.856 90.142C200.856 89.767 200.93 89.4631 201.077 89.2301C201.225 88.9943 201.423 88.8097 201.67 88.6761C201.917 88.5426 202.19 88.4432 202.488 88.3778C202.789 88.3097 203.092 88.2557 203.396 88.2159C203.793 88.1648 204.116 88.1264 204.363 88.1009C204.613 88.0724 204.795 88.0256 204.908 87.9602C205.025 87.8949 205.083 87.7812 205.083 87.6193V87.5852C205.083 87.1648 204.968 86.8381 204.738 86.6051C204.511 86.3722 204.165 86.2557 203.702 86.2557C203.222 86.2557 202.846 86.3608 202.573 86.571C202.3 86.7812 202.109 87.0057 201.998 87.2443L201.043 86.9034C201.214 86.5057 201.441 86.196 201.725 85.9744C202.012 85.75 202.325 85.5937 202.663 85.5057C203.004 85.4148 203.339 85.3693 203.668 85.3693C203.879 85.3693 204.12 85.3949 204.393 85.446C204.668 85.4943 204.934 85.5952 205.19 85.7486C205.448 85.902 205.663 86.1335 205.833 86.4432C206.004 86.7528 206.089 87.1676 206.089 87.6875V92H205.083V91.1136H205.032C204.964 91.2557 204.85 91.4077 204.691 91.5696C204.532 91.7315 204.32 91.8693 204.056 91.983C203.792 92.0966 203.469 92.1534 203.089 92.1534ZM203.242 91.25C203.64 91.25 203.975 91.1719 204.248 91.0156C204.523 90.8594 204.731 90.6577 204.87 90.4105C205.012 90.1634 205.083 89.9034 205.083 89.6307V88.7102C205.04 88.7614 204.947 88.8082 204.802 88.8509C204.66 88.8906 204.495 88.9261 204.308 88.9574C204.123 88.9858 203.942 89.0114 203.766 89.0341C203.593 89.054 203.452 89.071 203.344 89.0852C203.083 89.1193 202.839 89.1747 202.612 89.2514C202.387 89.3253 202.205 89.4375 202.066 89.5881C201.93 89.7358 201.862 89.9375 201.862 90.1932C201.862 90.5426 201.991 90.8068 202.249 90.9858C202.511 91.1619 202.842 91.25 203.242 91.25ZM210.583 92.1364C209.97 92.1364 209.441 91.9915 208.998 91.7017C208.555 91.4119 208.214 91.0128 207.975 90.5043C207.737 89.9957 207.618 89.4148 207.618 88.7614C207.618 88.0966 207.74 87.5099 207.984 87.0014C208.231 86.4901 208.575 86.0909 209.015 85.804C209.458 85.5142 209.975 85.3693 210.566 85.3693C211.027 85.3693 211.441 85.4545 211.811 85.625C212.18 85.7955 212.483 86.0341 212.718 86.3409C212.954 86.6477 213.1 87.0057 213.157 87.4148H212.152C212.075 87.1165 211.904 86.8523 211.64 86.6222C211.379 86.3892 211.027 86.2727 210.583 86.2727C210.191 86.2727 209.848 86.375 209.552 86.5795C209.26 86.7812 209.031 87.0668 208.866 87.4361C208.704 87.8026 208.623 88.233 208.623 88.7273C208.623 89.233 208.703 89.6733 208.862 90.0483C209.024 90.4233 209.251 90.7145 209.544 90.9219C209.839 91.1293 210.186 91.233 210.583 91.233C210.845 91.233 211.082 91.1875 211.295 91.0966C211.508 91.0057 211.689 90.875 211.836 90.7045C211.984 90.5341 212.089 90.3295 212.152 90.0909H213.157C213.1 90.4773 212.96 90.8253 212.735 91.1349C212.514 91.4418 212.22 91.6861 211.853 91.8679C211.49 92.0469 211.066 92.1364 210.583 92.1364ZM217.474 85.4545V86.3068H214.082V85.4545H217.474ZM215.071 83.8864H216.076V90.125C216.076 90.4091 216.118 90.6222 216.2 90.7642C216.285 90.9034 216.393 90.9972 216.524 91.0455C216.657 91.0909 216.798 91.1136 216.946 91.1136C217.056 91.1136 217.147 91.108 217.218 91.0966C217.289 91.0824 217.346 91.071 217.389 91.0625L217.593 91.9659C217.525 91.9915 217.43 92.017 217.308 92.0426C217.186 92.071 217.031 92.0852 216.843 92.0852C216.559 92.0852 216.281 92.0241 216.008 91.902C215.738 91.7798 215.514 91.5938 215.335 91.3438C215.159 91.0938 215.071 90.7784 215.071 90.3977V83.8864ZM224.015 94.3011C223.146 94.3011 222.377 94.1818 221.71 93.9432C221.042 93.7074 220.481 93.3594 220.027 92.8991C219.572 92.4389 219.228 91.875 218.995 91.2074C218.762 90.5398 218.646 89.7756 218.646 88.9148C218.646 88.0824 218.764 87.3381 219 86.6818C219.238 86.0256 219.583 85.4688 220.035 85.0114C220.49 84.5511 221.041 84.2003 221.689 83.9588C222.339 83.7173 223.075 83.5966 223.896 83.5966C224.694 83.5966 225.393 83.7273 225.993 83.9886C226.595 84.2472 227.098 84.598 227.501 85.0412C227.907 85.4815 228.211 85.9773 228.413 86.5284C228.618 87.0795 228.72 87.6477 228.72 88.233C228.72 88.6449 228.7 89.0625 228.66 89.4858C228.62 89.9091 228.537 90.2983 228.409 90.6534C228.281 91.0057 228.083 91.2898 227.816 91.5057C227.552 91.7216 227.194 91.8295 226.743 91.8295C226.544 91.8295 226.325 91.7983 226.086 91.7358C225.848 91.6733 225.636 91.5696 225.451 91.4247C225.267 91.2798 225.157 91.0852 225.123 90.8409H225.072C225.004 91.0057 224.899 91.1619 224.757 91.3097C224.618 91.4574 224.434 91.5753 224.207 91.6634C223.983 91.7514 223.708 91.7898 223.385 91.7784C223.015 91.7642 222.69 91.6818 222.409 91.5312C222.127 91.3778 221.892 91.1705 221.701 90.9091C221.514 90.6449 221.372 90.3395 221.275 89.9929C221.181 89.6435 221.135 89.267 221.135 88.8636C221.135 88.4801 221.191 88.1293 221.305 87.8111C221.419 87.4929 221.576 87.2145 221.778 86.9759C221.983 86.7372 222.221 86.5469 222.494 86.4048C222.77 86.2599 223.066 86.1705 223.385 86.1364C223.669 86.108 223.927 86.1207 224.16 86.1747C224.393 86.2259 224.585 86.304 224.735 86.4091C224.886 86.5114 224.981 86.625 225.021 86.75H225.072V86.2727H225.975V90.125C225.975 90.3636 226.042 90.5739 226.176 90.7557C226.309 90.9375 226.504 91.0284 226.76 91.0284C227.049 91.0284 227.271 90.929 227.424 90.7301C227.581 90.5312 227.687 90.2244 227.744 89.8097C227.804 89.3949 227.833 88.8636 227.833 88.2159C227.833 87.8352 227.781 87.4602 227.676 87.0909C227.574 86.7187 227.417 86.3707 227.207 86.0469C227 85.723 226.737 85.4375 226.419 85.1903C226.1 84.9432 225.727 84.75 225.298 84.6108C224.872 84.4687 224.387 84.3977 223.845 84.3977C223.177 84.3977 222.579 84.5014 222.051 84.7088C221.525 84.9134 221.078 85.2131 220.708 85.608C220.342 86 220.062 86.4773 219.869 87.0398C219.679 87.5994 219.583 88.2358 219.583 88.9489C219.583 89.6733 219.679 90.3168 219.869 90.8793C220.062 91.4418 220.346 91.9162 220.721 92.3026C221.099 92.6889 221.566 92.9815 222.123 93.1804C222.68 93.3821 223.322 93.483 224.049 93.483C224.362 93.483 224.67 93.4531 224.974 93.3935C225.278 93.3338 225.547 93.2685 225.779 93.1974C226.012 93.1264 226.18 93.0739 226.282 93.0398L226.521 93.8239C226.345 93.8977 226.115 93.9716 225.831 94.0455C225.549 94.1193 225.248 94.1804 224.927 94.2287C224.609 94.277 224.305 94.3011 224.015 94.3011ZM223.521 90.9091C223.902 90.9091 224.21 90.8324 224.446 90.679C224.681 90.5256 224.853 90.294 224.961 89.9844C225.069 89.6747 225.123 89.2841 225.123 88.8125C225.123 88.3352 225.064 87.9631 224.944 87.696C224.825 87.429 224.649 87.2415 224.416 87.1335C224.183 87.0256 223.896 86.9716 223.555 86.9716C223.231 86.9716 222.954 87.0568 222.724 87.2273C222.497 87.3949 222.322 87.6193 222.2 87.9006C222.081 88.179 222.021 88.483 222.021 88.8125C222.021 89.1761 222.069 89.5185 222.166 89.8395C222.262 90.1577 222.42 90.4162 222.639 90.6151C222.858 90.8111 223.152 90.9091 223.521 90.9091ZM232.151 92.1534C231.737 92.1534 231.36 92.0753 231.022 91.919C230.684 91.7599 230.415 91.5312 230.217 91.233C230.018 90.9318 229.918 90.5682 229.918 90.142C229.918 89.767 229.992 89.4631 230.14 89.2301C230.288 88.9943 230.485 88.8097 230.732 88.6761C230.979 88.5426 231.252 88.4432 231.55 88.3778C231.852 88.3097 232.154 88.2557 232.458 88.2159C232.856 88.1648 233.178 88.1264 233.425 88.1009C233.675 88.0724 233.857 88.0256 233.971 87.9602C234.087 87.8949 234.146 87.7812 234.146 87.6193V87.5852C234.146 87.1648 234.031 86.8381 233.8 86.6051C233.573 86.3722 233.228 86.2557 232.765 86.2557C232.285 86.2557 231.908 86.3608 231.636 86.571C231.363 86.7812 231.171 87.0057 231.06 87.2443L230.106 86.9034C230.276 86.5057 230.504 86.196 230.788 85.9744C231.075 85.75 231.387 85.5937 231.725 85.5057C232.066 85.4148 232.401 85.3693 232.731 85.3693C232.941 85.3693 233.183 85.3949 233.455 85.446C233.731 85.4943 233.996 85.5952 234.252 85.7486C234.511 85.902 234.725 86.1335 234.896 86.4432C235.066 86.7528 235.151 87.1676 235.151 87.6875V92H234.146V91.1136H234.094C234.026 91.2557 233.913 91.4077 233.754 91.5696C233.594 91.7315 233.383 91.8693 233.119 91.983C232.854 92.0966 232.532 92.1534 232.151 92.1534ZM232.305 91.25C232.702 91.25 233.038 91.1719 233.31 91.0156C233.586 90.8594 233.793 90.6577 233.933 90.4105C234.075 90.1634 234.146 89.9034 234.146 89.6307V88.7102C234.103 88.7614 234.009 88.8082 233.864 88.8509C233.722 88.8906 233.558 88.9261 233.37 88.9574C233.185 88.9858 233.005 89.0114 232.829 89.0341C232.656 89.054 232.515 89.071 232.407 89.0852C232.146 89.1193 231.901 89.1747 231.674 89.2514C231.45 89.3253 231.268 89.4375 231.129 89.5881C230.992 89.7358 230.924 89.9375 230.924 90.1932C230.924 90.5426 231.053 90.8068 231.312 90.9858C231.573 91.1619 231.904 91.25 232.305 91.25ZM237.993 83.2727V92H236.987V83.2727H237.993ZM239.835 94.4545V85.4545H240.806V86.4943H240.925C240.999 86.3807 241.102 86.2358 241.232 86.0597C241.366 85.8807 241.556 85.7216 241.803 85.5824C242.053 85.4403 242.391 85.3693 242.817 85.3693C243.369 85.3693 243.854 85.5071 244.275 85.7827C244.695 86.0582 245.023 86.4489 245.259 86.9545C245.495 87.4602 245.613 88.0568 245.613 88.7443C245.613 89.4375 245.495 90.0384 245.259 90.5469C245.023 91.0526 244.697 91.4446 244.279 91.723C243.862 91.9986 243.38 92.1364 242.835 92.1364C242.414 92.1364 242.077 92.0668 241.825 91.9276C241.572 91.7855 241.377 91.625 241.241 91.446C241.104 91.2642 240.999 91.1136 240.925 90.9943H240.84V94.4545H239.835ZM240.823 88.7273C240.823 89.2216 240.896 89.6577 241.04 90.0355C241.185 90.4105 241.397 90.7045 241.675 90.9176C241.954 91.1278 242.295 91.233 242.698 91.233C243.119 91.233 243.469 91.1222 243.751 90.9006C244.035 90.6761 244.248 90.375 244.39 89.9972C244.535 89.6165 244.607 89.1932 244.607 88.7273C244.607 88.267 244.536 87.8523 244.394 87.483C244.255 87.1108 244.043 86.8168 243.759 86.6009C243.478 86.3821 243.124 86.2727 242.698 86.2727C242.289 86.2727 241.945 86.3764 241.667 86.5838C241.388 86.7884 241.178 87.0753 241.036 87.4446C240.894 87.8111 240.823 88.2386 240.823 88.7273ZM248.153 88.0625V92H247.147V83.2727H248.153V86.4773H248.238C248.391 86.1392 248.621 85.8707 248.928 85.6719C249.238 85.4702 249.65 85.3693 250.164 85.3693C250.61 85.3693 251.001 85.4588 251.336 85.6378C251.671 85.8139 251.931 86.0852 252.116 86.4517C252.303 86.8153 252.397 87.2784 252.397 87.8409V92H251.391V87.9091C251.391 87.3892 251.256 86.9872 250.987 86.7031C250.719 86.4162 250.349 86.2727 249.874 86.2727C249.545 86.2727 249.249 86.3423 248.988 86.4815C248.729 86.6207 248.525 86.8239 248.374 87.0909C248.227 87.358 248.153 87.6818 248.153 88.0625ZM256.163 92.1534C255.748 92.1534 255.372 92.0753 255.034 91.919C254.696 91.7599 254.427 91.5312 254.228 91.233C254.029 90.9318 253.93 90.5682 253.93 90.142C253.93 89.767 254.004 89.4631 254.152 89.2301C254.299 88.9943 254.497 88.8097 254.744 88.6761C254.991 88.5426 255.264 88.4432 255.562 88.3778C255.863 88.3097 256.166 88.2557 256.47 88.2159C256.868 88.1648 257.19 88.1264 257.437 88.1009C257.687 88.0724 257.869 88.0256 257.983 87.9602C258.099 87.8949 258.157 87.7812 258.157 87.6193V87.5852C258.157 87.1648 258.042 86.8381 257.812 86.6051C257.585 86.3722 257.24 86.2557 256.777 86.2557C256.297 86.2557 255.92 86.3608 255.647 86.571C255.375 86.7812 255.183 87.0057 255.072 87.2443L254.118 86.9034C254.288 86.5057 254.515 86.196 254.799 85.9744C255.086 85.75 255.399 85.5937 255.737 85.5057C256.078 85.4148 256.413 85.3693 256.743 85.3693C256.953 85.3693 257.194 85.3949 257.467 85.446C257.743 85.4943 258.008 85.5952 258.264 85.7486C258.522 85.902 258.737 86.1335 258.907 86.4432C259.078 86.7528 259.163 87.1676 259.163 87.6875V92H258.157V91.1136H258.106C258.038 91.2557 257.924 91.4077 257.765 91.5696C257.606 91.7315 257.395 91.8693 257.13 91.983C256.866 92.0966 256.544 92.1534 256.163 92.1534ZM256.316 91.25C256.714 91.25 257.049 91.1719 257.322 91.0156C257.598 90.8594 257.805 90.6577 257.944 90.4105C258.086 90.1634 258.157 89.9034 258.157 89.6307V88.7102C258.115 88.7614 258.021 88.8082 257.876 88.8509C257.734 88.8906 257.569 88.9261 257.382 88.9574C257.197 88.9858 257.017 89.0114 256.841 89.0341C256.667 89.054 256.527 89.071 256.419 89.0852C256.157 89.1193 255.913 89.1747 255.686 89.2514C255.461 89.3253 255.279 89.4375 255.14 89.5881C255.004 89.7358 254.936 89.9375 254.936 90.1932C254.936 90.5426 255.065 90.8068 255.324 90.9858C255.585 91.1619 255.916 91.25 256.316 91.25ZM261.732 92.0682C261.521 92.0682 261.341 91.9929 261.19 91.8423C261.04 91.6918 260.964 91.5114 260.964 91.3011C260.964 91.0909 261.04 90.9105 261.19 90.7599C261.341 90.6094 261.521 90.5341 261.732 90.5341C261.942 90.5341 262.122 90.6094 262.273 90.7599C262.423 90.9105 262.499 91.0909 262.499 91.3011C262.499 91.4403 262.463 91.5682 262.392 91.6847C262.324 91.8011 262.232 91.8949 262.115 91.9659C262.001 92.0341 261.874 92.0682 261.732 92.0682ZM266.962 92.1364C266.349 92.1364 265.82 91.9915 265.377 91.7017C264.934 91.4119 264.593 91.0128 264.354 90.5043C264.116 89.9957 263.996 89.4148 263.996 88.7614C263.996 88.0966 264.119 87.5099 264.363 87.0014C264.61 86.4901 264.954 86.0909 265.394 85.804C265.837 85.5142 266.354 85.3693 266.945 85.3693C267.406 85.3693 267.82 85.4545 268.19 85.625C268.559 85.7955 268.862 86.0341 269.097 86.3409C269.333 86.6477 269.479 87.0057 269.536 87.4148H268.531C268.454 87.1165 268.283 86.8523 268.019 86.6222C267.758 86.3892 267.406 86.2727 266.962 86.2727C266.57 86.2727 266.227 86.375 265.931 86.5795C265.638 86.7812 265.41 87.0668 265.245 87.4361C265.083 87.8026 265.002 88.233 265.002 88.7273C265.002 89.233 265.082 89.6733 265.241 90.0483C265.403 90.4233 265.63 90.7145 265.923 90.9219C266.218 91.1293 266.565 91.233 266.962 91.233C267.224 91.233 267.461 91.1875 267.674 91.0966C267.887 91.0057 268.067 90.875 268.215 90.7045C268.363 90.5341 268.468 90.3295 268.531 90.0909H269.536C269.479 90.4773 269.339 90.8253 269.114 91.1349C268.893 91.4418 268.599 91.6861 268.232 91.8679C267.869 92.0469 267.445 92.1364 266.962 92.1364ZM273.665 92.1364C273.075 92.1364 272.556 91.9957 272.11 91.7145C271.667 91.4332 271.32 91.0398 271.07 90.5341C270.823 90.0284 270.7 89.4375 270.7 88.7614C270.7 88.0795 270.823 87.4844 271.07 86.9759C271.32 86.4673 271.667 86.0724 272.11 85.7912C272.556 85.5099 273.075 85.3693 273.665 85.3693C274.256 85.3693 274.773 85.5099 275.217 85.7912C275.663 86.0724 276.009 86.4673 276.256 86.9759C276.506 87.4844 276.631 88.0795 276.631 88.7614C276.631 89.4375 276.506 90.0284 276.256 90.5341C276.009 91.0398 275.663 91.4332 275.217 91.7145C274.773 91.9957 274.256 92.1364 273.665 92.1364ZM273.665 91.233C274.114 91.233 274.484 91.1179 274.773 90.8878C275.063 90.6577 275.278 90.3551 275.417 89.9801C275.556 89.6051 275.626 89.1989 275.626 88.7614C275.626 88.3239 275.556 87.9162 275.417 87.5384C275.278 87.1605 275.063 86.8551 274.773 86.6222C274.484 86.3892 274.114 86.2727 273.665 86.2727C273.217 86.2727 272.847 86.3892 272.558 86.6222C272.268 86.8551 272.053 87.1605 271.914 87.5384C271.775 87.9162 271.705 88.3239 271.705 88.7614C271.705 89.1989 271.775 89.6051 271.914 89.9801C272.053 90.3551 272.268 90.6577 272.558 90.8878C272.847 91.1179 273.217 91.233 273.665 91.233ZM278.167 92V85.4545H279.138V86.4773H279.223C279.36 86.1278 279.58 85.8565 279.884 85.6634C280.188 85.4673 280.553 85.3693 280.979 85.3693C281.411 85.3693 281.77 85.4673 282.057 85.6634C282.347 85.8565 282.573 86.1278 282.735 86.4773H282.803C282.971 86.1392 283.222 85.8707 283.557 85.6719C283.892 85.4702 284.294 85.3693 284.763 85.3693C285.348 85.3693 285.827 85.5526 286.199 85.919C286.571 86.2827 286.757 86.8494 286.757 87.6193V92H285.752V87.6193C285.752 87.1364 285.62 86.7912 285.355 86.5838C285.091 86.3764 284.78 86.2727 284.422 86.2727C283.962 86.2727 283.605 86.4119 283.353 86.6903C283.1 86.9659 282.973 87.3153 282.973 87.7386V92H281.951V87.517C281.951 87.1449 281.83 86.8452 281.588 86.6179C281.347 86.3878 281.036 86.2727 280.655 86.2727C280.394 86.2727 280.15 86.3423 279.922 86.4815C279.698 86.6207 279.516 86.8139 279.377 87.0611C279.24 87.3054 279.172 87.5881 279.172 87.9091V92H278.167Z" fill="#717784"/>
</g>
<mask id="mask1_7841_8906" style="mask-type:alpha" maskUnits="userSpaceOnUse" x="331" y="180" width="240" height="76">
<rect x="331" y="180" width="240" height="76" fill="url(#paint1_linear_7841_8906)"/>
</mask>
<g mask="url(#mask1_7841_8906)">
<rect x="331.5" y="180.5" width="239" height="75" rx="13.5" fill="white" fill-opacity="0.4"/>
<rect x="331.5" y="180.5" width="239" height="75" rx="13.5" stroke="white"/>
<g filter="url(#filter3_d_7841_8906)">
<path d="M339 200C339 193.373 344.373 188 351 188H551C557.627 188 563 193.373 563 200V236C563 242.627 557.627 248 551 248H351C344.373 248 339 242.627 339 236V200Z" fill="white"/>
<rect x="351" y="200" width="36" height="36" rx="10.2857" fill="#E5E7EB"/>
<rect x="399" y="204" width="72" height="10" rx="4" fill="#D1D5DB"/>
<rect x="399" y="222" width="152" height="10" rx="4" fill="#E5E7EB"/>
</g>
</g>
<mask id="mask2_7841_8906" style="mask-type:alpha" maskUnits="userSpaceOnUse" x="-117" y="180" width="240" height="76">
<rect x="-117" y="180" width="240" height="76" fill="url(#paint2_linear_7841_8906)"/>
</mask>
<g mask="url(#mask2_7841_8906)">
<rect x="-116.5" y="180.5" width="239" height="75" rx="13.5" fill="white" fill-opacity="0.4"/>
<rect x="-116.5" y="180.5" width="239" height="75" rx="13.5" stroke="white"/>
<g filter="url(#filter4_d_7841_8906)">
<path d="M-109 200C-109 193.373 -103.627 188 -97 188H103C109.627 188 115 193.373 115 200V236C115 242.627 109.627 248 103 248H-97C-103.627 248 -109 242.627 -109 236V200Z" fill="white"/>
<rect x="-49" y="204" width="72" height="10" rx="4" fill="#D1D5DB"/>
<rect x="-49" y="222" width="152" height="10" rx="4" fill="#E5E7EB"/>
</g>
</g>
<rect x="171.5" y="164.5" width="111" height="111" rx="55.5" fill="white" fill-opacity="0.4"/>
<rect x="171.5" y="164.5" width="111" height="111" rx="55.5" stroke="white"/>
<g filter="url(#filter5_d_7841_8906)">
<rect x="179" y="172" width="96" height="96" rx="48" fill="white"/>
<path d="M206.95 233.113C205.991 232.57 205.4 231.566 205.4 230.479L205.4 209.521C205.4 208.434 205.991 207.43 206.95 206.887L225.45 196.407C226.409 195.864 227.591 195.864 228.55 196.407L242.791 204.474L238.14 207.108L227 200.798L210.05 210.399L210.05 229.601L221.133 235.879L221.133 241.147L206.95 233.113Z" fill="black"/>
<path d="M243.87 210.354L248.144 207.933C248.437 208.403 248.6 208.95 248.6 209.521L248.6 230.479C248.6 231.566 248.009 232.57 247.05 233.113L228.55 243.593C228.054 243.873 227.499 244.009 226.946 244L226.945 221.241C226.945 220.424 227.391 219.67 228.112 219.263L243.895 210.368L243.87 210.354Z" fill="black"/>
</g>
<path d="M123 220H171" stroke="white" stroke-width="2" stroke-dasharray="4 4"/>
<g filter="url(#filter6_d_7841_8906)">
<rect x="117" y="214" width="12" height="12" rx="6" fill="white" shape-rendering="crispEdges"/>
<circle cx="123" cy="220" r="4" fill="#F06225"/>
</g>
<g filter="url(#filter7_d_7841_8906)">
<rect x="325" y="214" width="12" height="12" rx="6" fill="white" shape-rendering="crispEdges"/>
<circle cx="331" cy="220" r="4" fill="#F06225"/>
</g>
<g filter="url(#filter8_d_7841_8906)">
<rect x="221" y="110" width="12" height="12" rx="6" fill="white" shape-rendering="crispEdges"/>
<circle cx="227" cy="116" r="4" fill="#F06225"/>
</g>
<g filter="url(#filter9_d_7841_8906)">
<rect x="221" y="318" width="12" height="12" rx="6" fill="white" shape-rendering="crispEdges"/>
<circle cx="227" cy="324" r="4" fill="#F06225"/>
</g>
</g>
<defs>
<filter id="filter0_f_7841_8906" x="-154" y="-84" width="762" height="762" filterUnits="userSpaceOnUse" color-interpolation-filters="sRGB">
<feFlood flood-opacity="0" result="BackgroundImageFix"/>
<feBlend mode="normal" in="SourceGraphic" in2="BackgroundImageFix" result="shape"/>
<feGaussianBlur stdDeviation="100" result="effect1_foregroundBlur_7841_8906"/>
</filter>
<filter id="filter1_d_7841_8906" x="107" y="324" width="240" height="76" filterUnits="userSpaceOnUse" color-interpolation-filters="sRGB">
<feFlood flood-opacity="0" result="BackgroundImageFix"/>
<feColorMatrix in="SourceAlpha" type="matrix" values="0 0 0 0 0 0 0 0 0 0 0 0 0 0 0 0 0 0 127 0" result="hardAlpha"/>
<feOffset/>
<feGaussianBlur stdDeviation="4"/>
<feColorMatrix type="matrix" values="0 0 0 0 0 0 0 0 0 0 0 0 0 0 0 0 0 0 0.06 0"/>
<feBlend mode="normal" in2="BackgroundImageFix" result="effect1_dropShadow_7841_8906"/>
<feBlend mode="normal" in="SourceGraphic" in2="effect1_dropShadow_7841_8906" result="shape"/>
</filter>
<filter id="filter2_d_7841_8906" x="107" y="40" width="240" height="76" filterUnits="userSpaceOnUse" color-interpolation-filters="sRGB">
<feFlood flood-opacity="0" result="BackgroundImageFix"/>
<feColorMatrix in="SourceAlpha" type="matrix" values="0 0 0 0 0 0 0 0 0 0 0 0 0 0 0 0 0 0 127 0" result="hardAlpha"/>
<feOffset/>
<feGaussianBlur stdDeviation="4"/>
<feColorMatrix type="matrix" values="0 0 0 0 0 0 0 0 0 0 0 0 0 0 0 0 0 0 0.06 0"/>
<feBlend mode="normal" in2="BackgroundImageFix" result="effect1_dropShadow_7841_8906"/>
<feBlend mode="normal" in="SourceGraphic" in2="effect1_dropShadow_7841_8906" result="shape"/>
</filter>
<filter id="filter3_d_7841_8906" x="331" y="180" width="240" height="76" filterUnits="userSpaceOnUse" color-interpolation-filters="sRGB">
<feFlood flood-opacity="0" result="BackgroundImageFix"/>
<feColorMatrix in="SourceAlpha" type="matrix" values="0 0 0 0 0 0 0 0 0 0 0 0 0 0 0 0 0 0 127 0" result="hardAlpha"/>
<feOffset/>
<feGaussianBlur stdDeviation="4"/>
<feColorMatrix type="matrix" values="0 0 0 0 0 0 0 0 0 0 0 0 0 0 0 0 0 0 0.06 0"/>
<feBlend mode="normal" in2="BackgroundImageFix" result="effect1_dropShadow_7841_8906"/>
<feBlend mode="normal" in="SourceGraphic" in2="effect1_dropShadow_7841_8906" result="shape"/>
</filter>
<filter id="filter4_d_7841_8906" x="-117" y="180" width="240" height="76" filterUnits="userSpaceOnUse" color-interpolation-filters="sRGB">
<feFlood flood-opacity="0" result="BackgroundImageFix"/>
<feColorMatrix in="SourceAlpha" type="matrix" values="0 0 0 0 0 0 0 0 0 0 0 0 0 0 0 0 0 0 127 0" result="hardAlpha"/>
<feOffset/>
<feGaussianBlur stdDeviation="4"/>
<feColorMatrix type="matrix" values="0 0 0 0 0 0 0 0 0 0 0 0 0 0 0 0 0 0 0.06 0"/>
<feBlend mode="normal" in2="BackgroundImageFix" result="effect1_dropShadow_7841_8906"/>
<feBlend mode="normal" in="SourceGraphic" in2="effect1_dropShadow_7841_8906" result="shape"/>
</filter>
<filter id="filter5_d_7841_8906" x="171" y="164" width="112" height="112" filterUnits="userSpaceOnUse" color-interpolation-filters="sRGB">
<feFlood flood-opacity="0" result="BackgroundImageFix"/>
<feColorMatrix in="SourceAlpha" type="matrix" values="0 0 0 0 0 0 0 0 0 0 0 0 0 0 0 0 0 0 127 0" result="hardAlpha"/>
<feOffset/>
<feGaussianBlur stdDeviation="4"/>
<feColorMatrix type="matrix" values="0 0 0 0 0 0 0 0 0 0 0 0 0 0 0 0 0 0 0.06 0"/>
<feBlend mode="normal" in2="BackgroundImageFix" result="effect1_dropShadow_7841_8906"/>
<feBlend mode="normal" in="SourceGraphic" in2="effect1_dropShadow_7841_8906" result="shape"/>
</filter>
<filter id="filter6_d_7841_8906" x="109" y="206" width="28" height="28" filterUnits="userSpaceOnUse" color-interpolation-filters="sRGB">
<feFlood flood-opacity="0" result="BackgroundImageFix"/>
<feColorMatrix in="SourceAlpha" type="matrix" values="0 0 0 0 0 0 0 0 0 0 0 0 0 0 0 0 0 0 127 0" result="hardAlpha"/>
<feOffset/>
<feGaussianBlur stdDeviation="4"/>
<feComposite in2="hardAlpha" operator="out"/>
<feColorMatrix type="matrix" values="0 0 0 0 0 0 0 0 0 0 0 0 0 0 0 0 0 0 0.12 0"/>
<feBlend mode="normal" in2="BackgroundImageFix" result="effect1_dropShadow_7841_8906"/>
<feBlend mode="normal" in="SourceGraphic" in2="effect1_dropShadow_7841_8906" result="shape"/>
</filter>
<filter id="filter7_d_7841_8906" x="317" y="206" width="28" height="28" filterUnits="userSpaceOnUse" color-interpolation-filters="sRGB">
<feFlood flood-opacity="0" result="BackgroundImageFix"/>
<feColorMatrix in="SourceAlpha" type="matrix" values="0 0 0 0 0 0 0 0 0 0 0 0 0 0 0 0 0 0 127 0" result="hardAlpha"/>
<feOffset/>
<feGaussianBlur stdDeviation="4"/>
<feComposite in2="hardAlpha" operator="out"/>
<feColorMatrix type="matrix" values="0 0 0 0 0 0 0 0 0 0 0 0 0 0 0 0 0 0 0.12 0"/>
<feBlend mode="normal" in2="BackgroundImageFix" result="effect1_dropShadow_7841_8906"/>
<feBlend mode="normal" in="SourceGraphic" in2="effect1_dropShadow_7841_8906" result="shape"/>
</filter>
<filter id="filter8_d_7841_8906" x="213" y="102" width="28" height="28" filterUnits="userSpaceOnUse" color-interpolation-filters="sRGB">
<feFlood flood-opacity="0" result="BackgroundImageFix"/>
<feColorMatrix in="SourceAlpha" type="matrix" values="0 0 0 0 0 0 0 0 0 0 0 0 0 0 0 0 0 0 127 0" result="hardAlpha"/>
<feOffset/>
<feGaussianBlur stdDeviation="4"/>
<feComposite in2="hardAlpha" operator="out"/>
<feColorMatrix type="matrix" values="0 0 0 0 0 0 0 0 0 0 0 0 0 0 0 0 0 0 0.12 0"/>
<feBlend mode="normal" in2="BackgroundImageFix" result="effect1_dropShadow_7841_8906"/>
<feBlend mode="normal" in="SourceGraphic" in2="effect1_dropShadow_7841_8906" result="shape"/>
</filter>
<filter id="filter9_d_7841_8906" x="213" y="310" width="28" height="28" filterUnits="userSpaceOnUse" color-interpolation-filters="sRGB">
<feFlood flood-opacity="0" result="BackgroundImageFix"/>
<feColorMatrix in="SourceAlpha" type="matrix" values="0 0 0 0 0 0 0 0 0 0 0 0 0 0 0 0 0 0 127 0" result="hardAlpha"/>
<feOffset/>
<feGaussianBlur stdDeviation="4"/>
<feComposite in2="hardAlpha" operator="out"/>
<feColorMatrix type="matrix" values="0 0 0 0 0 0 0 0 0 0 0 0 0 0 0 0 0 0 0.12 0"/>
<feBlend mode="normal" in2="BackgroundImageFix" result="effect1_dropShadow_7841_8906"/>
<feBlend mode="normal" in="SourceGraphic" in2="effect1_dropShadow_7841_8906" result="shape"/>
</filter>
<radialGradient id="paint0_radial_7841_8906" cx="0" cy="0" r="1" gradientUnits="userSpaceOnUse" gradientTransform="translate(1269 495) rotate(90) scale(428 186.583)">
<stop stop-color="white"/>
<stop offset="1" stop-color="#737373" stop-opacity="0"/>
</radialGradient>
<linearGradient id="paint1_linear_7841_8906" x1="331" y1="218" x2="571" y2="218" gradientUnits="userSpaceOnUse">
<stop offset="0.1" stop-color="#D9D9D9"/>
<stop offset="0.7" stop-color="#737373" stop-opacity="0"/>
</linearGradient>
<linearGradient id="paint2_linear_7841_8906" x1="123" y1="218" x2="-117" y2="218" gradientUnits="userSpaceOnUse">
<stop offset="0.1" stop-color="#D9D9D9"/>
<stop offset="0.7" stop-color="#737373" stop-opacity="0"/>
</linearGradient>
<clipPath id="clip0_7841_8906">
<rect width="454" height="440" rx="20" fill="white"/>
</clipPath>
<clipPath id="clip1_7841_8906">
<rect width="20.5714" height="13.7143" fill="white" transform="translate(134.714 71.5713)"/>
</clipPath>
</defs>
</svg>
