<svg width="24" height="24" viewBox="0 0 24 24" fill="none" xmlns="http://www.w3.org/2000/svg">
<path d="M1.97502 18.5566C1.49544 18.285 1.2 17.7829 1.2 17.2396L1.2 6.76039C1.2 6.21707 1.49543 5.71502 1.97502 5.44336L11.225 0.203748C11.7046 -0.0679135 12.2954 -0.0679135 12.775 0.203746L19.8953 4.237L17.5702 5.55403L12 2.3988L3.52507 7.1994L3.52507 16.8006L9.06651 19.9395L9.06651 22.5736L1.97502 18.5566Z" fill="black"/>
<path d="M20.435 7.17681L22.5719 5.96637C22.7186 6.20145 22.8 6.47523 22.8 6.76039L22.8 17.2396C22.8 17.7829 22.5046 18.285 22.025 18.5566L12.775 23.7963C12.5271 23.9367 12.2495 24.0045 11.9729 23.9998L11.9728 12.6205C11.9728 12.2121 12.1953 11.8349 12.5562 11.6314L20.4474 7.18382L20.435 7.17681Z" fill="black"/>
</svg>
