<svg width="92" height="24" viewBox="0 0 92 24" fill="none" xmlns="http://www.w3.org/2000/svg">
<path d="M1.97502 18.5566C1.49544 18.285 1.2 17.7829 1.2 17.2396L1.2 6.76039C1.2 6.21707 1.49543 5.71502 1.97502 5.44336L11.225 0.203748C11.7046 -0.0679135 12.2954 -0.0679135 12.775 0.203746L19.8953 4.237L17.5702 5.55403L12 2.3988L3.52507 7.1994L3.52507 16.8006L9.06651 19.9395L9.06651 22.5736L1.97502 18.5566Z" fill="black"/>
<path d="M20.435 7.17681L22.5719 5.96637C22.7186 6.20145 22.8 6.47523 22.8 6.76039L22.8 17.2396C22.8 17.7829 22.5046 18.285 22.025 18.5566L12.775 23.7963C12.5271 23.9367 12.2495 24.0045 11.9729 23.9998L11.9728 12.6205C11.9728 12.2121 12.1953 11.8349 12.5562 11.6314L20.4474 7.18382L20.435 7.17681Z" fill="black"/>
<path d="M47.8849 9.36222H45.2287C45.1529 8.92661 45.0133 8.54072 44.8097 8.20455C44.6061 7.86364 44.3527 7.57481 44.0497 7.33807C43.7467 7.10133 43.401 6.92377 43.0128 6.8054C42.6293 6.68229 42.215 6.62074 41.7699 6.62074C40.9792 6.62074 40.2784 6.8196 39.6676 7.21733C39.0568 7.61032 38.5786 8.18797 38.233 8.95028C37.8873 9.70786 37.7145 10.6335 37.7145 11.7273C37.7145 12.84 37.8873 13.7775 38.233 14.5398C38.5833 15.2973 39.0616 15.8703 39.6676 16.2585C40.2784 16.642 40.9768 16.8338 41.7628 16.8338C42.1984 16.8338 42.6056 16.777 42.9844 16.6634C43.3679 16.545 43.7112 16.3722 44.0142 16.1449C44.322 15.9176 44.58 15.6383 44.7884 15.3068C45.0014 14.9754 45.1482 14.5966 45.2287 14.1705L47.8849 14.1847C47.7855 14.8759 47.5701 15.5246 47.2386 16.1307C46.9119 16.7367 46.4834 17.2718 45.9531 17.7358C45.4228 18.1951 44.8026 18.5549 44.0923 18.8153C43.3821 19.071 42.5938 19.1989 41.7273 19.1989C40.4489 19.1989 39.3078 18.9029 38.304 18.3111C37.3002 17.7192 36.5095 16.8646 35.9318 15.7472C35.3542 14.6297 35.0653 13.2898 35.0653 11.7273C35.0653 10.16 35.3565 8.82008 35.9389 7.70739C36.5213 6.58996 37.3144 5.73532 38.3182 5.14347C39.322 4.55161 40.4583 4.25568 41.7273 4.25568C42.5369 4.25568 43.2898 4.36932 43.9858 4.59659C44.6818 4.82386 45.3021 5.15767 45.8466 5.59801C46.3911 6.03362 46.8385 6.56866 47.1889 7.20312C47.544 7.83286 47.776 8.55256 47.8849 9.36222ZM57.1374 14.4119V8.09091H59.7085V19H57.2156V17.0611H57.1019C56.8557 17.6719 56.4509 18.1714 55.8874 18.5597C55.3287 18.9479 54.6398 19.142 53.8207 19.142C53.1057 19.142 52.4736 18.9834 51.9244 18.6662C51.3799 18.3442 50.9537 17.8778 50.646 17.267C50.3382 16.6515 50.1843 15.9081 50.1843 15.0369V8.09091H52.7553V14.6392C52.7553 15.3305 52.9447 15.8797 53.3235 16.2869C53.7023 16.6941 54.1995 16.8977 54.815 16.8977C55.1938 16.8977 55.5607 16.8054 55.9158 16.6207C56.271 16.4361 56.5621 16.1615 56.7894 15.7969C57.0214 15.4276 57.1374 14.9659 57.1374 14.4119ZM70.9744 10.9744L68.6307 11.2301C68.5644 10.9934 68.4484 10.7708 68.2827 10.5625C68.1217 10.3542 67.9039 10.1861 67.6293 10.0582C67.3546 9.9304 67.0185 9.86648 66.6207 9.86648C66.0857 9.86648 65.6359 9.98248 65.2713 10.2145C64.9115 10.4465 64.7339 10.7472 64.7386 11.1165C64.7339 11.4337 64.8499 11.6918 65.0866 11.8906C65.3281 12.0895 65.7259 12.2528 66.2798 12.3807L68.1406 12.7784C69.1728 13.0009 69.9399 13.3537 70.4418 13.8366C70.9484 14.3196 71.2041 14.9517 71.2088 15.733C71.2041 16.4195 71.0028 17.0256 70.6051 17.5511C70.2121 18.072 69.6652 18.4792 68.9645 18.7727C68.2637 19.0663 67.4588 19.2131 66.5497 19.2131C65.2145 19.2131 64.1397 18.9337 63.3253 18.375C62.5109 17.8116 62.0256 17.0279 61.8693 16.0241L64.3764 15.7827C64.4901 16.2751 64.7315 16.6468 65.1009 16.8977C65.4702 17.1487 65.9508 17.2741 66.5426 17.2741C67.1534 17.2741 67.6435 17.1487 68.0128 16.8977C68.3868 16.6468 68.5739 16.3366 68.5739 15.9673C68.5739 15.6548 68.4531 15.3968 68.2116 15.1932C67.9749 14.9896 67.6056 14.8333 67.1037 14.7244L65.2429 14.3338C64.1965 14.116 63.4223 13.7491 62.9205 13.233C62.4186 12.7121 62.17 12.054 62.1747 11.2585C62.17 10.5862 62.3523 10.0038 62.7216 9.51136C63.0956 9.0142 63.6141 8.63068 64.277 8.3608C64.9446 8.08617 65.714 7.94886 66.5852 7.94886C67.8636 7.94886 68.8698 8.22112 69.6037 8.76562C70.3423 9.31013 70.7992 10.0464 70.9744 10.9744ZM78.7763 8.09091V10.0795H72.505V8.09091H78.7763ZM74.0533 5.47727H76.6243V15.7188C76.6243 16.0644 76.6764 16.3295 76.7805 16.5142C76.8894 16.6941 77.0315 16.8172 77.2067 16.8835C77.3819 16.9498 77.576 16.983 77.7891 16.983C77.95 16.983 78.0968 16.9711 78.2294 16.9474C78.3667 16.9238 78.4709 16.9025 78.5419 16.8835L78.9751 18.8935C78.8378 18.9408 78.6413 18.9929 78.3857 19.0497C78.1347 19.1065 77.8269 19.1397 77.4624 19.1491C76.8184 19.1681 76.2384 19.071 75.7223 18.858C75.2062 18.6402 74.7966 18.304 74.4936 17.8494C74.1953 17.3949 74.0485 16.8267 74.0533 16.1449V5.47727ZM85.5678 19.2131C84.5025 19.2131 83.5792 18.9787 82.7979 18.5099C82.0167 18.0412 81.4106 17.3854 80.9798 16.5426C80.5536 15.6998 80.3406 14.715 80.3406 13.5881C80.3406 12.4612 80.5536 11.474 80.9798 10.6264C81.4106 9.77888 82.0167 9.12074 82.7979 8.65199C83.5792 8.18324 84.5025 7.94886 85.5678 7.94886C86.6332 7.94886 87.5565 8.18324 88.3377 8.65199C89.119 9.12074 89.7227 9.77888 90.1488 10.6264C90.5797 11.474 90.7951 12.4612 90.7951 13.5881C90.7951 14.715 90.5797 15.6998 90.1488 16.5426C89.7227 17.3854 89.119 18.0412 88.3377 18.5099C87.5565 18.9787 86.6332 19.2131 85.5678 19.2131ZM85.582 17.1534C86.1597 17.1534 86.6426 16.9948 87.0309 16.6776C87.4192 16.3556 87.708 15.9247 87.8974 15.3849C88.0915 14.8452 88.1886 14.2438 88.1886 13.581C88.1886 12.9134 88.0915 12.3097 87.8974 11.7699C87.708 11.2254 87.4192 10.7921 87.0309 10.4702C86.6426 10.1482 86.1597 9.98722 85.582 9.98722C84.9902 9.98722 84.4978 10.1482 84.1048 10.4702C83.7165 10.7921 83.4253 11.2254 83.2312 11.7699C83.0418 12.3097 82.9471 12.9134 82.9471 13.581C82.9471 14.2438 83.0418 14.8452 83.2312 15.3849C83.4253 15.9247 83.7165 16.3556 84.1048 16.6776C84.4978 16.9948 84.9902 17.1534 85.582 17.1534Z" fill="#0E121B"/>
</svg>
