<svg width="24" height="24" viewBox="0 0 24 24" fill="none" xmlns="http://www.w3.org/2000/svg">
<path d="M4.5 3.75V20.25C4.5 20.4489 4.42098 20.6397 4.28033 20.7803C4.13968 20.921 3.94891 21 3.75 21C3.55109 21 3.36032 20.921 3.21967 20.7803C3.07902 20.6397 3 20.4489 3 20.25V3.75C3 3.55109 3.07902 3.36032 3.21967 3.21967C3.36032 3.07902 3.55109 3 3.75 3C3.94891 3 4.13968 3.07902 4.28033 3.21967C4.42098 3.36032 4.5 3.55109 4.5 3.75ZM7.5 11.25H16.5C16.8978 11.25 17.2794 11.092 17.5607 10.8107C17.842 10.5294 18 10.1478 18 9.75V6C18 5.60218 17.842 5.22064 17.5607 4.93934C17.2794 4.65804 16.8978 4.5 16.5 4.5H7.5C7.10218 4.5 6.72064 4.65804 6.43934 4.93934C6.15804 5.22064 6 5.60218 6 6V9.75C6 10.1478 6.15804 10.5294 6.43934 10.8107C6.72064 11.092 7.10218 11.25 7.5 11.25ZM20.25 12.75H7.5C7.10218 12.75 6.72064 12.908 6.43934 13.1893C6.15804 13.4706 6 13.8522 6 14.25V18C6 18.3978 6.15804 18.7794 6.43934 19.0607C6.72064 19.342 7.10218 19.5 7.5 19.5H20.25C20.6478 19.5 21.0294 19.342 21.3107 19.0607C21.592 18.7794 21.75 18.3978 21.75 18V14.25C21.75 13.8522 21.592 13.4706 21.3107 13.1893C21.0294 12.908 20.6478 12.75 20.25 12.75Z" fill="white"/>
</svg>
