<svg width="24" height="24" viewBox="0 0 24 24" fill="none" xmlns="http://www.w3.org/2000/svg">
<rect width="24" height="24" rx="6" fill="white" fill-opacity="0.1"/>
<path d="M9.9993 12C9.9993 10.8945 10.895 9.99802 12.0002 9.99802C13.1054 9.99802 14.0015 10.8945 14.0015 12C14.0015 13.1055 13.1054 14.0019 12.0002 14.0019C10.895 14.0019 9.9993 13.1055 9.9993 12ZM8.91741 12C8.91741 13.7031 10.2976 15.0836 12.0002 15.0836C13.7028 15.0836 15.083 13.7031 15.083 12C15.083 10.2969 13.7028 8.9163 12.0002 8.9163C10.2976 8.9163 8.91741 10.2969 8.91741 12ZM14.4846 8.79403C14.4845 8.93656 14.5267 9.0759 14.6058 9.19444C14.6849 9.31298 14.7974 9.40539 14.929 9.45999C15.0607 9.51459 15.2055 9.52891 15.3453 9.50116C15.485 9.47341 15.6134 9.40483 15.7142 9.30409C15.815 9.20335 15.8837 9.07497 15.9115 8.93519C15.9394 8.79541 15.9252 8.65051 15.8707 8.5188C15.8162 8.3871 15.7239 8.27452 15.6055 8.19529C15.487 8.11605 15.3478 8.07373 15.2053 8.07368H15.205C15.014 8.07376 14.8309 8.14968 14.6958 8.28474C14.5607 8.41981 14.4847 8.60298 14.4846 8.79403ZM9.57473 16.8882C8.9894 16.8615 8.67126 16.764 8.45984 16.6816C8.17954 16.5724 7.97955 16.4424 7.76928 16.2324C7.55901 16.0223 7.42885 15.8225 7.32021 15.5421C7.23779 15.3307 7.14029 15.0124 7.11368 14.4269C7.08458 13.7939 7.07877 13.6037 7.07877 12C7.07877 10.3963 7.08506 10.2067 7.11368 9.57314C7.14034 8.98764 7.23856 8.66993 7.32021 8.45792C7.42933 8.17754 7.5593 7.97749 7.76928 7.76716C7.97926 7.55683 8.17906 7.42664 8.45984 7.31796C8.67116 7.23552 8.9894 7.138 9.57473 7.11138C10.2076 7.08227 10.3977 7.07645 12.0002 7.07645C13.6027 7.07645 13.793 7.08275 14.4264 7.11138C15.0117 7.13804 15.3293 7.23629 15.5413 7.31796C15.8215 7.42664 16.0215 7.55712 16.2318 7.76716C16.4421 7.97721 16.5718 8.17754 16.6809 8.45792C16.7633 8.66931 16.8608 8.98764 16.8874 9.57314C16.9165 10.2067 16.9223 10.3963 16.9223 12C16.9223 13.6037 16.9165 13.7933 16.8874 14.4269C16.8607 15.0124 16.7628 15.3306 16.6809 15.5421C16.5718 15.8225 16.4418 16.0225 16.2318 16.2324C16.0218 16.4422 15.8215 16.5724 15.5413 16.6816C15.3299 16.764 15.0117 16.8615 14.4264 16.8882C13.7935 16.9173 13.6034 16.9231 12.0002 16.9231C10.3969 16.9231 10.2074 16.9173 9.57473 16.8882ZM9.52502 6.031C8.8859 6.06011 8.44917 6.16148 8.06778 6.30993C7.67279 6.46324 7.33841 6.66891 7.00427 7.00261C6.67014 7.33632 6.46505 7.67132 6.3118 8.06642C6.16339 8.44817 6.06205 8.88478 6.03294 9.52408C6.00335 10.1644 5.99658 10.3691 5.99658 12C5.99658 13.6308 6.00335 13.8355 6.03294 14.4758C6.06205 15.1152 6.16339 15.5518 6.3118 15.9335C6.46505 16.3284 6.67019 16.6638 7.00427 16.9973C7.33836 17.3309 7.67279 17.5363 8.06778 17.69C8.44989 17.8384 8.8859 17.9398 9.52502 17.9689C10.1655 17.998 10.3698 18.0053 12.0002 18.0053C13.6306 18.0053 13.8352 17.9985 14.4753 17.9689C15.1145 17.9398 15.551 17.8384 15.9326 17.69C16.3273 17.5363 16.662 17.331 16.9961 16.9973C17.3302 16.6636 17.5349 16.3284 17.6886 15.9335C17.837 15.5518 17.9388 15.1151 17.9674 14.4758C17.9965 13.835 18.0033 13.6308 18.0033 12C18.0033 10.3691 17.9965 10.1644 17.9674 9.52408C17.9383 8.88473 17.837 8.44793 17.6886 8.06642C17.5349 7.67156 17.3297 7.33685 16.9961 7.00261C16.6625 6.66838 16.3273 6.46324 15.9331 6.30993C15.551 6.16148 15.1145 6.05963 14.4758 6.031C13.8357 6.00188 13.631 5.99463 12.0007 5.99463C10.3703 5.99463 10.1655 6.0014 9.52502 6.031Z" fill="white"/>
</svg>
