<svg width="24" height="24" viewBox="0 0 24 24" fill="none" xmlns="http://www.w3.org/2000/svg">
<rect width="24" height="24" rx="6" fill="white" fill-opacity="0.1"/>
<path d="M9.25814 16.8041V10.321H7.10517V16.8041H9.25837H9.25814ZM8.18211 9.43601C8.93273 9.43601 9.40005 8.93819 9.40005 8.31605C9.386 7.67973 8.93273 7.1958 8.19638 7.1958C7.45952 7.1958 6.97827 7.67973 6.97827 8.31599C6.97827 8.93813 7.44542 9.43596 8.168 9.43596H8.18194L8.18211 9.43601ZM10.4498 16.8041H12.6026V13.184C12.6026 12.9905 12.6167 12.7965 12.6736 12.6583C12.8291 12.271 13.1834 11.8701 13.7783 11.8701C14.5571 11.8701 14.8688 12.4646 14.8688 13.3362V16.8041H17.0216V13.0869C17.0216 11.0957 15.9596 10.169 14.5432 10.169C13.3819 10.169 12.8718 10.8187 12.5885 11.2611H12.6028V10.3212H10.4499C10.4781 10.9294 10.4498 16.8043 10.4498 16.8043L10.4498 16.8041Z" fill="white"/>
</svg>
