<svg width="76" height="36" viewBox="0 0 76 36" fill="none" xmlns="http://www.w3.org/2000/svg">
<rect x="1" y="1" width="34" height="34" rx="17" fill="#FF0A0A"/>
<rect x="1" y="1" width="34" height="34" rx="17" stroke="white" stroke-width="2"/>
<g clip-path="url(#clip0_7841_7629)">
<path d="M22.4649 23.3333C24.6091 23.2896 26.3333 21.5358 26.3333 19.3796C26.3333 18.331 25.917 17.3254 25.176 16.5839L18.5965 10V14.0924C18.5965 14.7768 18.8682 15.4332 19.3518 15.9171L20.8931 17.4595L20.8973 17.4636L23.4817 20.0497C23.5656 20.1336 23.5656 20.2698 23.4817 20.3538C23.3978 20.4378 23.2617 20.4378 23.1778 20.3538L22.287 19.4624H14.0463L13.1555 20.3538C13.0715 20.4378 12.9355 20.4378 12.8515 20.3538C12.7676 20.2698 12.7676 20.1336 12.8515 20.0497L15.4359 17.4636L15.4401 17.4595L16.9814 15.9171C17.4651 15.4332 17.7368 14.7768 17.7368 14.0924V10L11.1572 16.5839C10.4162 17.3254 9.99995 18.331 9.99995 19.3796C9.99995 21.5358 11.7241 23.2896 13.8684 23.3333H22.4649Z" fill="white"/>
</g>
<rect x="21" y="1" width="34" height="34" rx="17" fill="#F06225"/>
<rect x="21" y="1" width="34" height="34" rx="17" stroke="white" stroke-width="2"/>
<g clip-path="url(#clip1_7841_7629)">
<path d="M38.0001 11.3333C41.6821 11.3333 44.6668 14.3179 44.6668 17.9999V22.6666C44.6668 23.197 44.4561 23.7057 44.081 24.0808C43.7059 24.4559 43.1972 24.6666 42.6668 24.6666H38.3334V21.7419C38.3334 21.0746 38.3741 20.3833 38.7241 19.8153C38.9747 19.4082 39.3099 19.0598 39.7069 18.7937C40.104 18.5276 40.5537 18.35 41.0254 18.2729L41.1531 18.2523C41.2057 18.2343 41.2514 18.2003 41.2838 18.155C41.3161 18.1098 41.3335 18.0555 41.3335 17.9999C41.3335 17.9443 41.3161 17.8901 41.2838 17.8448C41.2514 17.7996 41.2057 17.7656 41.1531 17.7476L41.0254 17.7269C40.3362 17.6143 39.6997 17.2881 39.2058 16.7942C38.712 16.3004 38.3857 15.6639 38.2731 14.9746L38.2524 14.8469C38.2344 14.7943 38.2004 14.7486 38.1552 14.7162C38.1099 14.6839 38.0557 14.6665 38.0001 14.6665C37.9445 14.6665 37.8902 14.6839 37.845 14.7162C37.7998 14.7486 37.7658 14.7943 37.7478 14.8469L37.7271 14.9746C37.6501 15.4463 37.4725 15.896 37.2064 16.2931C36.9402 16.6902 36.5918 17.0254 36.1848 17.2759C35.6168 17.6259 34.9254 17.6666 34.2581 17.6666H31.3414C31.5158 14.1396 34.4301 11.3333 38.0001 11.3333Z" fill="white"/>
<path d="M31.3334 18.3333H34.2581C34.9254 18.3333 35.6167 18.3739 36.1847 18.7239C36.6287 18.9975 37.0025 19.3713 37.2761 19.8153C37.6261 20.3833 37.6667 21.0746 37.6667 21.7419V24.6666H33.3334C32.803 24.6666 32.2943 24.4559 31.9192 24.0808C31.5441 23.7057 31.3334 23.197 31.3334 22.6666V18.3333ZM44.6667 11.9999C44.6667 12.1767 44.5965 12.3463 44.4715 12.4713C44.3464 12.5963 44.1769 12.6666 44.0001 12.6666C43.8233 12.6666 43.6537 12.5963 43.5287 12.4713C43.4036 12.3463 43.3334 12.1767 43.3334 11.9999C43.3334 11.8231 43.4036 11.6535 43.5287 11.5285C43.6537 11.4035 43.8233 11.3333 44.0001 11.3333C44.1769 11.3333 44.3464 11.4035 44.4715 11.5285C44.5965 11.6535 44.6667 11.8231 44.6667 11.9999Z" fill="white"/>
</g>
<rect x="41" y="1" width="34" height="34" rx="17" fill="#3A04FF"/>
<rect x="41" y="1" width="34" height="34" rx="17" stroke="white" stroke-width="2"/>
<g clip-path="url(#clip2_7841_7629)">
<path d="M58.5156 13.0974C58.7271 12.8407 59.0143 12.6965 59.3134 12.6965C60.6589 12.6965 61.9269 12.6965 63.1756 12.6965C65.6871 12.6965 66.9447 16.3819 65.1689 18.5373L61.3005 23.2323C61.1229 23.4478 60.8193 23.2952 60.8193 22.9903V18.8552L61.2663 18.3126C61.6215 17.8815 61.37 17.1444 60.8676 17.1444H55.1812L58.5156 13.0974Z" fill="white"/>
<path d="M57.4846 22.9025C57.2731 23.1592 56.9859 23.3034 56.6869 23.3034C55.3414 23.3034 54.0734 23.3034 52.8247 23.3034C50.3131 23.3034 49.0555 19.618 50.8314 17.4626L54.6997 12.7676C54.8773 12.5521 55.181 12.7048 55.181 13.0096L55.181 17.1447L54.7339 17.6873C54.3788 18.1184 54.6303 18.8555 55.1326 18.8555L60.8191 18.8554L57.4846 22.9025Z" fill="white"/>
</g>
<defs>
<clipPath id="clip0_7841_7629">
<rect width="16.3333" height="13.3333" fill="white" transform="translate(9.99995 10)"/>
</clipPath>
<clipPath id="clip1_7841_7629">
<rect width="13.3333" height="13.3333" fill="white" transform="translate(31.3334 11.3333)"/>
</clipPath>
<clipPath id="clip2_7841_7629">
<rect width="16" height="10.6667" fill="white" transform="translate(50 12.6667)"/>
</clipPath>
</defs>
</svg>
