<svg width="116" height="20" viewBox="0 0 116 20" fill="none" xmlns="http://www.w3.org/2000/svg">
<path d="M18.6875 7.60938C18.6093 7.36327 18.4585 7.14654 18.255 6.98761C18.0515 6.82868 17.8046 6.73496 17.5469 6.71875L12.9063 6.39844L11.1875 2.0625C11.0937 1.82375 10.9303 1.61867 10.7186 1.47382C10.5069 1.32896 10.2566 1.25099 10 1.25C9.7435 1.25099 9.49317 1.32896 9.28146 1.47382C9.06974 1.61867 8.90638 1.82375 8.81253 2.0625L7.06253 6.42188L2.45315 6.71875C2.19574 6.73601 1.94942 6.83012 1.74607 6.9889C1.54272 7.14768 1.39169 7.36383 1.31253 7.60938C1.23123 7.85869 1.22648 8.12664 1.29889 8.37868C1.3713 8.63072 1.51755 8.85529 1.71878 9.02344L5.26565 12.0234L4.21097 16.1719C4.138 16.4525 4.15113 16.7486 4.24866 17.0217C4.34618 17.2948 4.5236 17.5322 4.75784 17.7031C4.98521 17.8663 5.2561 17.9579 5.53584 17.9663C5.81558 17.9746 6.09146 17.8993 6.32815 17.75L9.99222 15.4297H10.0078L13.9532 17.9219C14.1555 18.0534 14.3915 18.1239 14.6328 18.125C14.8299 18.1235 15.024 18.0767 15.2002 17.9884C15.3764 17.9002 15.53 17.7727 15.6492 17.6157C15.7684 17.4588 15.85 17.2766 15.8878 17.0832C15.9256 16.8898 15.9186 16.6903 15.8672 16.5L14.75 11.9609L18.2813 9.02344C18.4825 8.85529 18.6288 8.63072 18.7012 8.37868C18.7736 8.12664 18.7688 7.85869 18.6875 7.60938Z" fill="#F29C06"/>
<path d="M42.6875 7.60938C42.6093 7.36327 42.4585 7.14654 42.255 6.98761C42.0515 6.82868 41.8046 6.73496 41.5469 6.71875L36.9063 6.39844L35.1875 2.0625C35.0937 1.82375 34.9303 1.61867 34.7186 1.47382C34.5069 1.32896 34.2566 1.25099 34 1.25C33.7435 1.25099 33.4932 1.32896 33.2815 1.47382C33.0697 1.61867 32.9064 1.82375 32.8125 2.0625L31.0625 6.42188L26.4532 6.71875C26.1957 6.73601 25.9494 6.83012 25.7461 6.9889C25.5427 7.14768 25.3917 7.36383 25.3125 7.60938C25.2312 7.85869 25.2265 8.12664 25.2989 8.37868C25.3713 8.63072 25.5175 8.85529 25.7188 9.02344L29.2657 12.0234L28.211 16.1719C28.138 16.4525 28.1511 16.7486 28.2487 17.0217C28.3462 17.2948 28.5236 17.5322 28.7578 17.7031C28.9852 17.8663 29.2561 17.9579 29.5358 17.9663C29.8156 17.9746 30.0915 17.8993 30.3282 17.75L33.9922 15.4297H34.0078L37.9532 17.9219C38.1555 18.0534 38.3915 18.1239 38.6328 18.125C38.8299 18.1235 39.024 18.0767 39.2002 17.9884C39.3764 17.9002 39.53 17.7727 39.6492 17.6157C39.7684 17.4588 39.85 17.2766 39.8878 17.0832C39.9256 16.8898 39.9186 16.6903 39.8672 16.5L38.75 11.9609L42.2813 9.02344C42.4825 8.85529 42.6288 8.63072 42.7012 8.37868C42.7736 8.12664 42.7688 7.85869 42.6875 7.60938Z" fill="#F29C06"/>
<path d="M66.6875 7.60938C66.6093 7.36327 66.4585 7.14654 66.255 6.98761C66.0515 6.82868 65.8046 6.73496 65.5469 6.71875L60.9063 6.39844L59.1875 2.0625C59.0937 1.82375 58.9303 1.61867 58.7186 1.47382C58.5069 1.32896 58.2566 1.25099 58 1.25C57.7435 1.25099 57.4932 1.32896 57.2815 1.47382C57.0697 1.61867 56.9064 1.82375 56.8125 2.0625L55.0625 6.42188L50.4532 6.71875C50.1957 6.73601 49.9494 6.83012 49.7461 6.9889C49.5427 7.14768 49.3917 7.36383 49.3125 7.60938C49.2312 7.85869 49.2265 8.12664 49.2989 8.37868C49.3713 8.63072 49.5175 8.85529 49.7188 9.02344L53.2657 12.0234L52.211 16.1719C52.138 16.4525 52.1511 16.7486 52.2487 17.0217C52.3462 17.2948 52.5236 17.5322 52.7578 17.7031C52.9852 17.8663 53.2561 17.9579 53.5358 17.9663C53.8156 17.9746 54.0915 17.8993 54.3282 17.75L57.9922 15.4297H58.0078L61.9532 17.9219C62.1555 18.0534 62.3915 18.1239 62.6328 18.125C62.8299 18.1235 63.024 18.0767 63.2002 17.9884C63.3764 17.9002 63.53 17.7727 63.6492 17.6157C63.7684 17.4588 63.85 17.2766 63.8878 17.0832C63.9256 16.8898 63.9186 16.6903 63.8672 16.5L62.75 11.9609L66.2813 9.02344C66.4825 8.85529 66.6288 8.63072 66.7012 8.37868C66.7736 8.12664 66.7688 7.85869 66.6875 7.60938Z" fill="#F29C06"/>
<path d="M90.6875 7.60938C90.6092 7.36327 90.4585 7.14654 90.2549 6.98761C90.0514 6.82868 89.8046 6.73496 89.5468 6.71875L84.9062 6.39844L83.1875 2.0625C83.0936 1.82375 82.9303 1.61867 82.7185 1.47382C82.5068 1.32896 82.2565 1.25099 82 1.25C81.7434 1.25099 81.4931 1.32896 81.2814 1.47382C81.0697 1.61867 80.9063 1.82375 80.8125 2.0625L79.0625 6.42188L74.4531 6.71875C74.1957 6.73601 73.9494 6.83012 73.746 6.9889C73.5427 7.14768 73.3916 7.36383 73.3125 7.60938C73.2312 7.85869 73.2264 8.12664 73.2988 8.37868C73.3712 8.63072 73.5175 8.85529 73.7187 9.02344L77.2656 12.0234L76.2109 16.1719C76.1379 16.4525 76.1511 16.7486 76.2486 17.0217C76.3461 17.2948 76.5235 17.5322 76.7578 17.7031C76.9851 17.8663 77.256 17.9579 77.5358 17.9663C77.8155 17.9746 78.0914 17.8993 78.3281 17.75L81.9922 15.4297H82.0078L85.9531 17.9219C86.1555 18.0534 86.3914 18.1239 86.6328 18.125C86.8299 18.1235 87.0239 18.0767 87.2001 17.9884C87.3763 17.9002 87.5299 17.7727 87.6491 17.6157C87.7683 17.4588 87.85 17.2766 87.8878 17.0832C87.9256 16.8898 87.9185 16.6903 87.8672 16.5L86.75 11.9609L90.2812 9.02344C90.4824 8.85529 90.6287 8.63072 90.7011 8.37868C90.7735 8.12664 90.7688 7.85869 90.6875 7.60938Z" fill="#F29C06"/>
<path d="M114.687 7.60938C114.609 7.36327 114.458 7.14654 114.255 6.98761C114.051 6.82868 113.805 6.73496 113.547 6.71875L108.906 6.39844L107.187 2.0625C107.094 1.82375 106.93 1.61867 106.719 1.47382C106.507 1.32896 106.256 1.25099 106 1.25C105.743 1.25099 105.493 1.32896 105.281 1.47382C105.07 1.61867 104.906 1.82375 104.812 2.0625L103.062 6.42188L98.4531 6.71875C98.1957 6.73601 97.9494 6.83012 97.746 6.9889C97.5427 7.14768 97.3916 7.36383 97.3125 7.60938C97.2312 7.85869 97.2264 8.12664 97.2988 8.37868C97.3712 8.63072 97.5175 8.85529 97.7187 9.02344L101.266 12.0234L100.211 16.1719C100.138 16.4525 100.151 16.7486 100.249 17.0217C100.346 17.2948 100.524 17.5322 100.758 17.7031C100.985 17.8663 101.256 17.9579 101.536 17.9663C101.816 17.9746 102.091 17.8993 102.328 17.75L105.992 15.4297H106.008L109.953 17.9219C110.155 18.0534 110.391 18.1239 110.633 18.125C110.83 18.1235 111.024 18.0767 111.2 17.9884C111.376 17.9002 111.53 17.7727 111.649 17.6157C111.768 17.4588 111.85 17.2766 111.888 17.0832C111.926 16.8898 111.919 16.6903 111.867 16.5L110.75 11.9609L114.281 9.02344C114.482 8.85529 114.629 8.63072 114.701 8.37868C114.774 8.12664 114.769 7.85869 114.687 7.60938Z" fill="#F29C06"/>
</svg>
