<svg width="24" height="24" viewBox="0 0 24 24" fill="none" xmlns="http://www.w3.org/2000/svg">
<rect width="24" height="24" rx="6" fill="white" fill-opacity="0.1"/>
<path d="M17.0713 8.66317C17.0206 8.4645 16.8766 8.3145 16.7119 8.2685C16.4199 8.1865 15.0006 7.99984 12.0006 7.99984C9.00059 7.99984 7.58192 8.1865 7.28792 8.2685C7.12525 8.31384 6.98125 8.46384 6.92992 8.66317C6.85725 8.94584 6.66725 10.1298 6.66725 11.9998C6.66725 13.8698 6.85725 15.0532 6.92992 15.3372C6.98059 15.5352 7.12459 15.6852 7.28859 15.7305C7.58192 15.8132 8.99992 15.9998 11.9999 15.9998C14.9999 15.9998 16.4193 15.8132 16.7126 15.7312C16.8753 15.6858 17.0193 15.5358 17.0706 15.3365C17.1439 15.0538 17.3333 13.8665 17.3333 11.9998C17.3333 10.1332 17.1439 8.9465 17.0713 8.66317ZM18.3619 8.33184C18.6666 9.51984 18.6666 11.9998 18.6666 11.9998C18.6666 11.9998 18.6666 14.4798 18.3619 15.6678C18.1926 16.3245 17.6973 16.8412 17.0699 17.0158C15.9313 17.3332 11.9999 17.3332 11.9999 17.3332C11.9999 17.3332 8.07125 17.3332 6.92992 17.0158C6.29992 16.8385 5.80525 16.3225 5.63792 15.6678C5.33325 14.4798 5.33325 11.9998 5.33325 11.9998C5.33325 11.9998 5.33325 9.51984 5.63792 8.33184C5.80725 7.67517 6.30259 7.1585 6.92992 6.98384C8.07192 6.6665 12.0006 6.6665 12.0006 6.6665C12.0006 6.6665 15.9313 6.6665 17.0706 6.98384C17.6999 7.16117 18.1953 7.67717 18.3626 8.33184M10.6673 14.3332V9.6665L14.6673 11.9998L10.6673 14.3332Z" fill="white"/>
</svg>
