<svg width="250" height="199" viewBox="0 0 250 199" fill="none" xmlns="http://www.w3.org/2000/svg">
<g filter="url(#filter0_d_7841_8022)">
<g clip-path="url(#clip0_7841_8022)">
<mask id="path-3-inside-1_7841_8022" fill="white">
<path d="M8.72693 8.91724H241.982V45.7311H8.72693V8.91724Z"/>
</mask>
<path d="M8.72693 8.91724H241.982V45.7311H8.72693V8.91724Z" fill="white"/>
<path d="M241.982 45.7311V44.7428H8.72693V45.7311V46.7195H241.982V45.7311Z" fill="#E5E7EB" mask="url(#path-3-inside-1_7841_8022)"/>
<rect x="20.5873" y="19.4172" width="15.8139" height="15.8139" rx="3.95347" fill="#E5E7EB"/>
<path d="M28.2739 23.3739L24.5419 27.1058C24.4213 27.2264 24.4213 27.422 24.5419 27.5426L28.275 31.2756C28.3956 31.3963 28.5911 31.3963 28.7118 31.2756L32.4437 27.5437C32.5643 27.4231 32.5643 27.2275 32.4437 27.1069L28.7107 23.3739C28.5901 23.2533 28.3945 23.2533 28.2739 23.3739Z" stroke="#2B303B" stroke-width="1.23546" stroke-linecap="round" stroke-linejoin="round"/>
<path d="M47.3906 32.8245V22.7611H48.909V31.5174H53.469V32.8245H47.3906ZM57.2796 32.9915C56.8013 32.9915 56.3689 32.9031 55.9823 32.7262C55.5958 32.546 55.2895 32.2856 55.0635 31.9449C54.8407 31.6042 54.7293 31.1865 54.7293 30.6919C54.7293 30.266 54.8112 29.9155 54.975 29.6403C55.1388 29.3652 55.3599 29.1473 55.6384 28.9868C55.9168 28.8263 56.228 28.7051 56.572 28.6232C56.916 28.5413 57.2665 28.4791 57.6235 28.4365C58.0756 28.3841 58.4425 28.3415 58.7242 28.3087C59.0059 28.2727 59.2107 28.2154 59.3384 28.1367C59.4662 28.0581 59.5301 27.9304 59.5301 27.7535V27.7191C59.5301 27.2899 59.4089 26.9574 59.1665 26.7216C58.9273 26.4857 58.5703 26.3678 58.0953 26.3678C57.6006 26.3678 57.2108 26.4775 56.9258 26.697C56.6441 26.9132 56.4492 27.154 56.3411 27.4193L54.9603 27.1048C55.1241 26.6462 55.3632 26.2761 55.6777 25.9943C55.9954 25.7093 56.3607 25.503 56.7735 25.3752C57.1862 25.2442 57.6203 25.1786 58.0756 25.1786C58.377 25.1786 58.6964 25.2147 59.0338 25.2868C59.3745 25.3555 59.6922 25.4833 59.9871 25.67C60.2852 25.8567 60.5292 26.1237 60.7192 26.471C60.9092 26.8149 61.0042 27.2621 61.0042 27.8124V32.8245H59.5694V31.7926H59.5104C59.4154 31.9826 59.2729 32.1693 59.0829 32.3527C58.8929 32.5362 58.6489 32.6885 58.3508 32.8097C58.0527 32.9309 57.6956 32.9915 57.2796 32.9915ZM57.599 31.8122C58.0052 31.8122 58.3524 31.732 58.6407 31.5715C58.9322 31.4109 59.1534 31.2013 59.304 30.9425C59.458 30.6804 59.535 30.4003 59.535 30.1022V29.1293C59.4826 29.1817 59.381 29.2309 59.2303 29.2767C59.0829 29.3193 58.9142 29.357 58.7242 29.3897C58.5342 29.4192 58.3491 29.4471 58.169 29.4733C57.9888 29.4962 57.8381 29.5159 57.7169 29.5322C57.4319 29.5683 57.1715 29.6289 56.9356 29.7141C56.703 29.7992 56.5163 29.9221 56.3754 30.0826C56.2379 30.2398 56.1691 30.4495 56.1691 30.7115C56.1691 31.0752 56.3034 31.3503 56.572 31.5371C56.8406 31.7205 57.1829 31.8122 57.599 31.8122ZM62.9611 32.8245V25.2769H64.3714V26.5054H64.4647C64.622 26.0893 64.8791 25.765 65.2362 25.5324C65.5933 25.2966 66.0208 25.1786 66.5187 25.1786C67.0232 25.1786 67.4457 25.2966 67.7864 25.5324C68.1304 25.7683 68.3843 26.0926 68.5481 26.5054H68.6267C68.8069 26.1024 69.0935 25.7814 69.4866 25.5423C69.8797 25.2999 70.3481 25.1786 70.8919 25.1786C71.5766 25.1786 72.1351 25.3932 72.5675 25.8224C73.0032 26.2515 73.2211 26.8985 73.2211 27.7633V32.8245H71.7518V27.9009C71.7518 27.3898 71.6126 27.0197 71.3342 26.7904C71.0557 26.5611 70.7232 26.4464 70.3367 26.4464C69.8584 26.4464 69.4866 26.5938 69.2213 26.8886C68.9559 27.1802 68.8232 27.5553 68.8232 28.0139V32.8245H67.3589V27.8075C67.3589 27.398 67.2312 27.0688 66.9757 26.8198C66.7201 26.5709 66.3876 26.4464 65.9782 26.4464C65.6997 26.4464 65.4426 26.5201 65.2067 26.6675C64.9741 26.8117 64.7858 27.0131 64.6416 27.2719C64.5008 27.5307 64.4303 27.8304 64.4303 28.1711V32.8245H62.9611ZM75.3082 32.8245V22.7611H76.7774V26.5005H76.8658C76.951 26.3432 77.0739 26.1614 77.2344 25.955C77.3949 25.7486 77.6176 25.5685 77.9026 25.4145C78.1876 25.2573 78.5644 25.1786 79.0328 25.1786C79.6421 25.1786 80.1859 25.3326 80.6642 25.6405C81.1424 25.9485 81.5175 26.3923 81.7894 26.9722C82.0646 27.552 82.2022 28.2497 82.2022 29.0654C82.2022 29.8811 82.0662 30.5805 81.7943 31.1636C81.5224 31.7434 81.149 32.1906 80.674 32.5051C80.199 32.8163 79.6569 32.9719 79.0475 32.9719C78.5889 32.9719 78.2138 32.8949 77.9223 32.7409C77.634 32.587 77.408 32.4068 77.2442 32.2004C77.0804 31.994 76.9543 31.8106 76.8658 31.6501H76.743V32.8245H75.3082ZM76.7479 29.0507C76.7479 29.5814 76.8249 30.0465 76.9789 30.4462C77.1328 30.8459 77.3556 31.1587 77.6471 31.3847C77.9387 31.6075 78.2957 31.7189 78.7183 31.7189C79.1573 31.7189 79.5242 31.6026 79.819 31.37C80.1138 31.1341 80.3366 30.8147 80.4873 30.4118C80.6412 30.0089 80.7182 29.5552 80.7182 29.0507C80.7182 28.5528 80.6429 28.1056 80.4922 27.7092C80.3448 27.3129 80.122 27 79.8239 26.7707C79.5291 26.5414 79.1606 26.4267 78.7183 26.4267C78.2925 26.4267 77.9321 26.5365 77.6373 26.756C77.3457 26.9754 77.1246 27.2817 76.9739 27.6748C76.8233 28.0679 76.7479 28.5266 76.7479 29.0507ZM86.6774 32.9719C86.0681 32.9719 85.5243 32.8163 85.046 32.5051C84.571 32.1906 84.1976 31.7434 83.9257 31.1636C83.6571 30.5805 83.5228 29.8811 83.5228 29.0654C83.5228 28.2497 83.6587 27.552 83.9306 26.9722C84.2058 26.3923 84.5825 25.9485 85.0608 25.6405C85.539 25.3326 86.0812 25.1786 86.6872 25.1786C87.1557 25.1786 87.5324 25.2573 87.8174 25.4145C88.1057 25.5685 88.3284 25.7486 88.4857 25.955C88.6462 26.1614 88.7707 26.3432 88.8591 26.5005H88.9475V22.7611H90.4168V32.8245H88.9819V31.6501H88.8591C88.7707 31.8106 88.6429 31.994 88.4758 32.2004C88.312 32.4068 88.086 32.587 87.7977 32.7409C87.5095 32.8949 87.136 32.9719 86.6774 32.9719ZM87.0017 31.7189C87.4243 31.7189 87.7814 31.6075 88.0729 31.3847C88.3677 31.1587 88.5905 30.8459 88.7412 30.4462C88.8951 30.0465 88.9721 29.5814 88.9721 29.0507C88.9721 28.5266 88.8968 28.0679 88.7461 27.6748C88.5954 27.2817 88.3743 26.9754 88.0827 26.756C87.7912 26.5365 87.4308 26.4267 87.0017 26.4267C86.5595 26.4267 86.1909 26.5414 85.8961 26.7707C85.6013 27 85.3785 27.3129 85.2278 27.7092C85.0804 28.1056 85.0067 28.5528 85.0067 29.0507C85.0067 29.5552 85.0821 30.0089 85.2327 30.4118C85.3834 30.8147 85.6062 31.1341 85.901 31.37C86.1991 31.6026 86.566 31.7189 87.0017 31.7189ZM94.7102 32.9915C94.2319 32.9915 93.7995 32.9031 93.4129 32.7262C93.0264 32.546 92.7201 32.2856 92.4941 31.9449C92.2713 31.6042 92.1599 31.1865 92.1599 30.6919C92.1599 30.266 92.2418 29.9155 92.4056 29.6403C92.5694 29.3652 92.7905 29.1473 93.069 28.9868C93.3474 28.8263 93.6586 28.7051 94.0026 28.6232C94.3465 28.5413 94.6971 28.4791 95.0541 28.4365C95.5062 28.3841 95.8731 28.3415 96.1548 28.3087C96.4365 28.2727 96.6413 28.2154 96.769 28.1367C96.8968 28.0581 96.9607 27.9304 96.9607 27.7535V27.7191C96.9607 27.2899 96.8395 26.9574 96.5971 26.7216C96.3579 26.4857 96.0008 26.3678 95.5258 26.3678C95.0312 26.3678 94.6414 26.4775 94.3564 26.697C94.0747 26.9132 93.8797 27.154 93.7716 27.4193L92.3909 27.1048C92.5547 26.6462 92.7938 26.2761 93.1083 25.9943C93.426 25.7093 93.7913 25.503 94.204 25.3752C94.6168 25.2442 95.0509 25.1786 95.5062 25.1786C95.8076 25.1786 96.127 25.2147 96.4644 25.2868C96.8051 25.3555 97.1228 25.4833 97.4176 25.67C97.7158 25.8567 97.9598 26.1237 98.1498 26.471C98.3398 26.8149 98.4348 27.2621 98.4348 27.8124V32.8245H97V31.7926H96.941C96.846 31.9826 96.7035 32.1693 96.5135 32.3527C96.3235 32.5362 96.0795 32.6885 95.7814 32.8097C95.4833 32.9309 95.1262 32.9915 94.7102 32.9915ZM95.0296 31.8122C95.4358 31.8122 95.783 31.732 96.0713 31.5715C96.3628 31.4109 96.5839 31.2013 96.7346 30.9425C96.8886 30.6804 96.9656 30.4003 96.9656 30.1022V29.1293C96.9132 29.1817 96.8116 29.2309 96.6609 29.2767C96.5135 29.3193 96.3448 29.357 96.1548 29.3897C95.9648 29.4192 95.7797 29.4471 95.5996 29.4733C95.4194 29.4962 95.2687 29.5159 95.1475 29.5322C94.8625 29.5683 94.6021 29.6289 94.3662 29.7141C94.1336 29.7992 93.9469 29.9221 93.806 30.0826C93.6684 30.2398 93.5997 30.4495 93.5997 30.7115C93.5997 31.0752 93.734 31.3503 94.0026 31.5371C94.2712 31.7205 94.6135 31.8122 95.0296 31.8122ZM109.66 25.4047C109.608 24.9395 109.392 24.5792 109.012 24.3237C108.632 24.0649 108.153 23.9355 107.577 23.9355C107.164 23.9355 106.807 24.001 106.506 24.132C106.204 24.2598 105.97 24.4367 105.803 24.6627C105.639 24.8855 105.557 25.1393 105.557 25.4243C105.557 25.6635 105.613 25.8699 105.724 26.0435C105.839 26.2171 105.988 26.3629 106.172 26.4808C106.358 26.5954 106.558 26.6921 106.771 26.7707C106.984 26.8461 107.189 26.9083 107.385 26.9574L108.368 27.2129C108.689 27.2916 109.018 27.398 109.356 27.5323C109.693 27.6666 110.006 27.8435 110.294 28.063C110.582 28.2825 110.815 28.5544 110.992 28.8787C111.172 29.203 111.262 29.5912 111.262 30.0433C111.262 30.6133 111.115 31.1194 110.82 31.5616C110.528 32.0039 110.104 32.3527 109.547 32.6083C108.994 32.8638 108.324 32.9915 107.538 32.9915C106.784 32.9915 106.132 32.872 105.582 32.6328C105.032 32.3937 104.601 32.0546 104.29 31.6157C103.978 31.1734 103.806 30.6493 103.774 30.0433H105.297C105.326 30.4069 105.444 30.7099 105.651 30.9523C105.86 31.1915 106.127 31.37 106.452 31.4879C106.779 31.6026 107.138 31.6599 107.528 31.6599C107.957 31.6599 108.338 31.5927 108.673 31.4584C109.01 31.3209 109.275 31.1309 109.469 30.8884C109.662 30.6428 109.759 30.3561 109.759 30.0285C109.759 29.7304 109.673 29.4864 109.503 29.2964C109.336 29.1064 109.108 28.9491 108.82 28.8247C108.535 28.7002 108.212 28.5904 107.852 28.4954L106.663 28.1711C105.857 27.9516 105.218 27.629 104.747 27.2031C104.278 26.7773 104.044 26.2138 104.044 25.5128C104.044 24.933 104.201 24.4268 104.516 23.9944C104.83 23.562 105.256 23.2262 105.793 22.9871C106.33 22.7447 106.936 22.6235 107.611 22.6235C108.293 22.6235 108.894 22.7431 109.415 22.9822C109.939 23.2213 110.351 23.5506 110.653 23.9699C110.954 24.3859 111.111 24.8642 111.125 25.4047H109.66ZM116.138 32.9768C115.43 32.9768 114.813 32.8146 114.285 32.4903C113.758 32.166 113.348 31.7123 113.057 31.1292C112.765 30.5461 112.62 29.8647 112.62 29.0851C112.62 28.3022 112.765 27.6175 113.057 27.0311C113.348 26.4448 113.758 25.9894 114.285 25.6651C114.813 25.3408 115.43 25.1786 116.138 25.1786C116.845 25.1786 117.463 25.3408 117.99 25.6651C118.518 25.9894 118.927 26.4448 119.219 27.0311C119.51 27.6175 119.656 28.3022 119.656 29.0851C119.656 29.8647 119.51 30.5461 119.219 31.1292C118.927 31.7123 118.518 32.166 117.99 32.4903C117.463 32.8146 116.845 32.9768 116.138 32.9768ZM116.143 31.7434C116.601 31.7434 116.981 31.6222 117.283 31.3798C117.584 31.1374 117.807 30.8147 117.951 30.4118C118.098 30.0089 118.172 29.565 118.172 29.0802C118.172 28.5986 118.098 28.1564 117.951 27.7535C117.807 27.3473 117.584 27.0213 117.283 26.7756C116.981 26.5299 116.601 26.4071 116.143 26.4071C115.681 26.4071 115.298 26.5299 114.993 26.7756C114.692 27.0213 114.467 27.3473 114.32 27.7535C114.176 28.1564 114.104 28.5986 114.104 29.0802C114.104 29.565 114.176 30.0089 114.32 30.4118C114.467 30.8147 114.692 31.1374 114.993 31.3798C115.298 31.6222 115.681 31.7434 116.143 31.7434ZM122.765 22.7611V32.8245H121.296V22.7611H122.765ZM129.523 29.6944V25.2769H130.997V32.8245H129.552V31.5174H129.474C129.3 31.9203 129.022 32.2561 128.638 32.5247C128.258 32.7901 127.785 32.9227 127.218 32.9227C126.734 32.9227 126.304 32.8163 125.931 32.6033C125.561 32.3871 125.269 32.0677 125.056 31.6452C124.847 31.2226 124.742 30.7001 124.742 30.0777V25.2769H126.211V29.9008C126.211 30.4151 126.354 30.8246 126.639 31.1292C126.924 31.4339 127.294 31.5862 127.749 31.5862C128.024 31.5862 128.298 31.5174 128.57 31.3798C128.845 31.2422 129.073 31.0342 129.253 30.7558C129.436 30.4773 129.526 30.1235 129.523 29.6944ZM136.494 25.2769V26.4562H132.372V25.2769H136.494ZM133.477 23.4687H134.947V30.6084C134.947 30.8934 134.989 31.1079 135.074 31.2521C135.159 31.3929 135.269 31.4896 135.403 31.542C135.541 31.5911 135.69 31.6157 135.851 31.6157C135.969 31.6157 136.072 31.6075 136.16 31.5911C136.249 31.5747 136.317 31.5616 136.367 31.5518L136.632 32.7655C136.547 32.7983 136.426 32.831 136.268 32.8638C136.111 32.8998 135.915 32.9195 135.679 32.9227C135.292 32.9293 134.932 32.8605 134.598 32.7164C134.263 32.5722 133.993 32.3495 133.787 32.0481C133.58 31.7467 133.477 31.3684 133.477 30.913V23.4687ZM138.12 32.8245V25.2769H139.589V32.8245H138.12ZM138.862 24.1124C138.606 24.1124 138.387 24.0272 138.203 23.8568C138.023 23.6832 137.933 23.4768 137.933 23.2377C137.933 22.9953 138.023 22.7889 138.203 22.6186C138.387 22.445 138.606 22.3581 138.862 22.3581C139.117 22.3581 139.335 22.445 139.515 22.6186C139.699 22.7889 139.79 22.9953 139.79 23.2377C139.79 23.4768 139.699 23.6832 139.515 23.8568C139.335 24.0272 139.117 24.1124 138.862 24.1124ZM144.745 32.9768C144.037 32.9768 143.419 32.8146 142.892 32.4903C142.365 32.166 141.955 31.7123 141.664 31.1292C141.372 30.5461 141.226 29.8647 141.226 29.0851C141.226 28.3022 141.372 27.6175 141.664 27.0311C141.955 26.4448 142.365 25.9894 142.892 25.6651C143.419 25.3408 144.037 25.1786 144.745 25.1786C145.452 25.1786 146.07 25.3408 146.597 25.6651C147.124 25.9894 147.534 26.4448 147.825 27.0311C148.117 27.6175 148.263 28.3022 148.263 29.0851C148.263 29.8647 148.117 30.5461 147.825 31.1292C147.534 31.7123 147.124 32.166 146.597 32.4903C146.07 32.8146 145.452 32.9768 144.745 32.9768ZM144.749 31.7434C145.208 31.7434 145.588 31.6222 145.889 31.3798C146.191 31.1374 146.414 30.8147 146.558 30.4118C146.705 30.0089 146.779 29.565 146.779 29.0802C146.779 28.5986 146.705 28.1564 146.558 27.7535C146.414 27.3473 146.191 27.0213 145.889 26.7756C145.588 26.5299 145.208 26.4071 144.749 26.4071C144.288 26.4071 143.904 26.5299 143.6 26.7756C143.298 27.0213 143.074 27.3473 142.926 27.7535C142.782 28.1564 142.71 28.5986 142.71 29.0802C142.71 29.565 142.782 30.0089 142.926 30.4118C143.074 30.8147 143.298 31.1374 143.6 31.3798C143.904 31.6222 144.288 31.7434 144.749 31.7434ZM151.372 28.3431V32.8245H149.903V25.2769H151.313V26.5054H151.406C151.58 26.1057 151.852 25.7847 152.222 25.5423C152.596 25.2999 153.066 25.1786 153.632 25.1786C154.147 25.1786 154.597 25.2868 154.984 25.503C155.37 25.7159 155.67 26.0336 155.883 26.4562C156.096 26.8788 156.202 27.4013 156.202 28.0237V32.8245H154.733V28.2006C154.733 27.6535 154.591 27.226 154.306 26.9181C154.021 26.6069 153.629 26.4513 153.131 26.4513C152.79 26.4513 152.487 26.525 152.222 26.6724C151.96 26.8198 151.752 27.036 151.598 27.321C151.447 27.6028 151.372 27.9435 151.372 28.3431ZM163.828 27.1196L162.497 27.3554C162.441 27.1851 162.353 27.0229 162.231 26.869C162.113 26.715 161.953 26.5889 161.75 26.4906C161.547 26.3923 161.293 26.3432 160.988 26.3432C160.572 26.3432 160.225 26.4366 159.947 26.6233C159.668 26.8067 159.529 27.0442 159.529 27.3358C159.529 27.588 159.622 27.7911 159.809 27.9451C159.996 28.0991 160.297 28.2252 160.713 28.3235L161.912 28.5986C162.606 28.7591 163.124 29.0065 163.465 29.3406C163.805 29.6747 163.976 30.1088 163.976 30.6428C163.976 31.0948 163.845 31.4977 163.583 31.8515C163.324 32.2021 162.962 32.4772 162.497 32.6771C162.035 32.8769 161.499 32.9768 160.89 32.9768C160.045 32.9768 159.355 32.7966 158.821 32.4363C158.287 32.0727 157.96 31.5567 157.839 30.8884L159.259 30.6722C159.347 31.0424 159.529 31.3225 159.804 31.5125C160.079 31.6992 160.438 31.7926 160.88 31.7926C161.362 31.7926 161.747 31.6927 162.035 31.4928C162.323 31.2897 162.467 31.0424 162.467 30.7509C162.467 30.515 162.379 30.3168 162.202 30.1563C162.028 29.9958 161.761 29.8746 161.401 29.7927L160.123 29.5126C159.419 29.3521 158.898 29.0966 158.561 28.746C158.227 28.3955 158.06 27.9516 158.06 27.4144C158.06 26.9689 158.184 26.5791 158.433 26.2449C158.682 25.9108 159.026 25.6504 159.465 25.4636C159.904 25.2736 160.407 25.1786 160.973 25.1786C161.789 25.1786 162.431 25.3555 162.9 25.7093C163.368 26.0598 163.678 26.5299 163.828 27.1196Z" fill="#181B25"/>
<rect width="233.255" height="145.209" transform="translate(8.72693 45.7312)" fill="white"/>
<path d="M28.4945 70.5451C30.6779 70.5451 32.448 68.7751 32.448 66.5917C32.448 64.4082 30.6779 62.6382 28.4945 62.6382C26.311 62.6382 24.541 64.4082 24.541 66.5917C24.541 68.7751 26.311 70.5451 28.4945 70.5451Z" stroke="#717784" stroke-width="1.48255" stroke-miterlimit="10"/>
<path d="M22.5025 74.0045C23.1097 72.9526 23.9831 72.0791 25.0349 71.4718C26.0867 70.8644 27.2799 70.5447 28.4945 70.5447C29.7091 70.5447 30.9022 70.8644 31.9541 71.4718C33.0059 72.0791 33.8793 72.9526 34.4865 74.0045" stroke="#717784" stroke-width="1.48255" stroke-linecap="round" stroke-linejoin="round"/>
<rect x="46.7793" y="58.0857" width="80.8721" height="20.9651" rx="5.43603" fill="#F3F4F6"/>
<rect x="46.7793" y="58.0857" width="80.8721" height="20.9651" rx="5.43603" stroke="#E5E7EB" stroke-width="0.988368"/>
<path d="M60.6559 68.2555C60.6559 69.1765 60.4874 69.9683 60.1505 70.6309C59.8135 71.2908 59.3516 71.799 58.7648 72.1556C58.1808 72.5094 57.5167 72.6863 56.7726 72.6863C56.0257 72.6863 55.3589 72.5094 54.772 72.1556C54.188 71.799 53.7275 71.2894 53.3905 70.6267C53.0536 69.9641 52.8851 69.1737 52.8851 68.2555C52.8851 67.3345 53.0536 66.5441 53.3905 65.8842C53.7275 65.2216 54.188 64.7134 54.772 64.3596C55.3589 64.003 56.0257 63.8247 56.7726 63.8247C57.5167 63.8247 58.1808 64.003 58.7648 64.3596C59.3516 64.7134 59.8135 65.2216 60.1505 65.8842C60.4874 66.5441 60.6559 67.3345 60.6559 68.2555ZM59.3671 68.2555C59.3671 67.5535 59.2534 66.9625 59.0259 66.4823C58.8013 65.9994 58.4924 65.6343 58.0993 65.3872C57.709 65.1373 57.2668 65.0124 56.7726 65.0124C56.2756 65.0124 55.832 65.1373 55.4417 65.3872C55.0514 65.6343 54.7425 65.9994 54.5151 66.4823C54.2905 66.9625 54.1782 67.5535 54.1782 68.2555C54.1782 68.9574 54.2905 69.5499 54.5151 70.0329C54.7425 70.513 55.0514 70.878 55.4417 71.1279C55.832 71.375 56.2756 71.4986 56.7726 71.4986C57.2668 71.4986 57.709 71.375 58.0993 71.1279C58.4924 70.878 58.8013 70.513 59.0259 70.0329C59.2534 69.5499 59.3671 68.9574 59.3671 68.2555ZM63.4367 63.9426V72.5684H62.1774V63.9426H63.4367ZM65.1309 72.5684V66.099H66.3903V72.5684H65.1309ZM65.7669 65.1008C65.5479 65.1008 65.3598 65.0278 65.2025 64.8818C65.0481 64.733 64.9709 64.5561 64.9709 64.3511C64.9709 64.1434 65.0481 63.9665 65.2025 63.8205C65.3598 63.6716 65.5479 63.5972 65.7669 63.5972C65.9859 63.5972 66.1726 63.6716 66.3271 63.8205C66.4843 63.9665 66.5629 64.1434 66.5629 64.3511C66.5629 64.5561 66.4843 64.733 66.3271 64.8818C66.1726 65.0278 65.9859 65.1008 65.7669 65.1008ZM73.6188 66.099L71.2728 72.5684H69.925L67.5748 66.099H68.9268L70.5652 71.0774H70.6326L72.2668 66.099H73.6188ZM74.8023 72.5684V66.099H76.0616V72.5684H74.8023ZM75.4382 65.1008C75.2192 65.1008 75.0311 65.0278 74.8739 64.8818C74.7194 64.733 74.6422 64.5561 74.6422 64.3511C74.6422 64.1434 74.7194 63.9665 74.8739 63.8205C75.0311 63.6716 75.2192 63.5972 75.4382 63.5972C75.6573 63.5972 75.844 63.6716 75.9984 63.8205C76.1557 63.9665 76.2343 64.1434 76.2343 64.3511C76.2343 64.5561 76.1557 64.733 75.9984 64.8818C75.844 65.0278 75.6573 65.1008 75.4382 65.1008ZM79.6385 72.7116C79.2285 72.7116 78.8579 72.6357 78.5265 72.4841C78.1952 72.3297 77.9327 72.1065 77.7389 71.8144C77.548 71.5224 77.4525 71.1644 77.4525 70.7404C77.4525 70.3754 77.5227 70.075 77.6631 69.8391C77.8035 69.6033 77.9931 69.4165 78.2317 69.2789C78.4704 69.1414 78.7371 69.0375 79.032 68.9673C79.3268 68.8971 79.6272 68.8437 79.9333 68.8072C80.3208 68.7623 80.6353 68.7258 80.8767 68.6977C81.1182 68.6668 81.2937 68.6177 81.4032 68.5503C81.5127 68.4829 81.5675 68.3734 81.5675 68.2218V68.1923C81.5675 67.8245 81.4636 67.5395 81.2558 67.3373C81.0508 67.1351 80.7448 67.0341 80.3376 67.0341C79.9136 67.0341 79.5795 67.1281 79.3352 67.3162C79.0937 67.5016 78.9267 67.7079 78.834 67.9354L77.6505 67.6658C77.7909 67.2727 77.9959 66.9554 78.2654 66.714C78.5378 66.4697 78.8509 66.2928 79.2046 66.1833C79.5584 66.071 79.9305 66.0148 80.3208 66.0148C80.5791 66.0148 80.8529 66.0457 81.1421 66.1075C81.4341 66.1664 81.7065 66.2759 81.9592 66.436C82.2147 66.596 82.4239 66.8249 82.5867 67.1225C82.7496 67.4173 82.831 67.8006 82.831 68.2723V72.5684H81.6012V71.6839H81.5506C81.4692 71.8467 81.347 72.0068 81.1842 72.164C81.0213 72.3213 80.8122 72.4518 80.5566 72.5557C80.3011 72.6596 79.9951 72.7116 79.6385 72.7116ZM79.9122 71.7007C80.2604 71.7007 80.558 71.6319 80.8051 71.4944C81.055 71.3568 81.2446 71.1771 81.3737 70.9552C81.5057 70.7306 81.5717 70.4905 81.5717 70.235V69.4011C81.5268 69.446 81.4397 69.4881 81.3105 69.5274C81.1842 69.5639 81.0396 69.5962 80.8767 69.6243C80.7139 69.6496 80.5552 69.6735 80.4008 69.6959C80.2464 69.7156 80.1172 69.7324 80.0133 69.7465C79.769 69.7773 79.5458 69.8293 79.3436 69.9023C79.1443 69.9753 78.9842 70.0806 78.8635 70.2182C78.7456 70.353 78.6866 70.5327 78.6866 70.7573C78.6866 71.069 78.8017 71.3048 79.032 71.4649C79.2622 71.6221 79.5556 71.7007 79.9122 71.7007ZM87.3229 65.0629V63.9426H93.9986V65.0629H91.3072V72.5684H90.01V65.0629H87.3229ZM96.3751 72.7116C95.9651 72.7116 95.5945 72.6357 95.2632 72.4841C94.9318 72.3297 94.6693 72.1065 94.4756 71.8144C94.2846 71.5224 94.1892 71.1644 94.1892 70.7404C94.1892 70.3754 94.2594 70.075 94.3998 69.8391C94.5402 69.6033 94.7297 69.4165 94.9684 69.2789C95.207 69.1414 95.4738 69.0375 95.7686 68.9673C96.0634 68.8971 96.3639 68.8437 96.6699 68.8072C97.0574 68.7623 97.3719 68.7258 97.6134 68.6977C97.8548 68.6668 98.0303 68.6177 98.1398 68.5503C98.2493 68.4829 98.3041 68.3734 98.3041 68.2218V68.1923C98.3041 67.8245 98.2002 67.5395 97.9924 67.3373C97.7874 67.1351 97.4814 67.0341 97.0743 67.0341C96.6503 67.0341 96.3161 67.1281 96.0718 67.3162C95.8304 67.5016 95.6633 67.7079 95.5706 67.9354L94.3871 67.6658C94.5275 67.2727 94.7325 66.9554 95.002 66.714C95.2744 66.4697 95.5875 66.2928 95.9413 66.1833C96.2951 66.071 96.6671 66.0148 97.0574 66.0148C97.3157 66.0148 97.5895 66.0457 97.8787 66.1075C98.1707 66.1664 98.4431 66.2759 98.6958 66.436C98.9513 66.596 99.1605 66.8249 99.3233 67.1225C99.4862 67.4173 99.5676 67.8006 99.5676 68.2723V72.5684H98.3378V71.6839H98.2872C98.2058 71.8467 98.0837 72.0068 97.9208 72.164C97.758 72.3213 97.5488 72.4518 97.2933 72.5557C97.0377 72.6596 96.7317 72.7116 96.3751 72.7116ZM96.6489 71.7007C96.997 71.7007 97.2947 71.6319 97.5418 71.4944C97.7917 71.3568 97.9812 71.1771 98.1104 70.9552C98.2423 70.7306 98.3083 70.4905 98.3083 70.235V69.4011C98.2634 69.446 98.1763 69.4881 98.0472 69.5274C97.9208 69.5639 97.7762 69.5962 97.6134 69.6243C97.4505 69.6496 97.2919 69.6735 97.1374 69.6959C96.983 69.7156 96.8538 69.7324 96.7499 69.7465C96.5057 69.7773 96.2824 69.8293 96.0803 69.9023C95.8809 69.9753 95.7209 70.0806 95.6001 70.2182C95.4822 70.353 95.4232 70.5327 95.4232 70.7573C95.4232 71.069 95.5383 71.3048 95.7686 71.4649C95.9988 71.6221 96.2923 71.7007 96.6489 71.7007ZM101.809 74.9944C101.621 74.9944 101.45 74.9789 101.296 74.948C101.141 74.9199 101.026 74.8891 100.95 74.8554L101.253 73.8235C101.484 73.8852 101.689 73.9119 101.868 73.9035C102.048 73.8951 102.207 73.8277 102.344 73.7013C102.485 73.575 102.608 73.3686 102.715 73.0822L102.871 72.6526L100.504 66.099H101.851L103.49 71.1195H103.557L105.196 66.099H106.548L103.882 73.4318C103.758 73.7687 103.601 74.0537 103.41 74.2868C103.219 74.5226 102.991 74.6995 102.728 74.8175C102.464 74.9354 102.158 74.9944 101.809 74.9944ZM108.99 63.9426V72.5684H107.731V63.9426H108.99ZM113.41 72.6989C112.803 72.6989 112.274 72.5599 111.822 72.282C111.37 72.004 111.019 71.6151 110.769 71.1153C110.519 70.6155 110.394 70.0315 110.394 69.3632C110.394 68.6921 110.519 68.1053 110.769 67.6027C111.019 67.1 111.37 66.7097 111.822 66.4318C112.274 66.1538 112.803 66.0148 113.41 66.0148C114.016 66.0148 114.545 66.1538 114.998 66.4318C115.45 66.7097 115.801 67.1 116.051 67.6027C116.3 68.1053 116.425 68.6921 116.425 69.3632C116.425 70.0315 116.3 70.6155 116.051 71.1153C115.801 71.6151 115.45 72.004 114.998 72.282C114.545 72.5599 114.016 72.6989 113.41 72.6989ZM113.414 71.6418C113.807 71.6418 114.133 71.5379 114.391 71.3301C114.649 71.1223 114.84 70.8457 114.964 70.5004C115.09 70.155 115.153 69.7745 115.153 69.359C115.153 68.9462 115.09 68.5672 114.964 68.2218C114.84 67.8736 114.649 67.5942 114.391 67.3836C114.133 67.173 113.807 67.0678 113.414 67.0678C113.018 67.0678 112.689 67.173 112.428 67.3836C112.17 67.5942 111.978 67.8736 111.851 68.2218C111.728 68.5672 111.666 68.9462 111.666 69.359C111.666 69.7745 111.728 70.155 111.851 70.5004C111.978 70.8457 112.17 71.1223 112.428 71.3301C112.689 71.5379 113.018 71.6418 113.414 71.6418ZM117.831 72.5684V66.099H119.048V67.1267H119.116C119.234 66.7785 119.441 66.5048 119.739 66.3054C120.039 66.1033 120.379 66.0022 120.758 66.0022C120.837 66.0022 120.93 66.005 121.036 66.0106C121.146 66.0162 121.231 66.0232 121.293 66.0317V67.2362C121.243 67.2222 121.153 67.2067 121.024 67.1899C120.894 67.1702 120.765 67.1604 120.636 67.1604C120.338 67.1604 120.073 67.2236 119.84 67.3499C119.61 67.4735 119.427 67.6462 119.293 67.868C119.158 68.087 119.09 68.3369 119.09 68.6177V72.5684H117.831Z" fill="#2B303B"/>
<path d="M33.9303 98.9231H23.0583C22.7853 98.9231 22.5641 99.1443 22.5641 99.4173V107.324C22.5641 107.597 22.7853 107.818 23.0583 107.818H33.9303C34.2033 107.818 34.4245 107.597 34.4245 107.324V99.4173C34.4245 99.1443 34.2033 98.9231 33.9303 98.9231Z" stroke="#717784" stroke-width="1.48255" stroke-linecap="round" stroke-linejoin="round"/>
<path d="M26.0234 98.9231C26.0234 98.2677 26.2837 97.6393 26.7471 97.1759C27.2105 96.7125 27.839 96.4521 28.4943 96.4521C29.1496 96.4521 29.7781 96.7125 30.2415 97.1759C30.7049 97.6393 30.9652 98.2677 30.9652 98.9231" stroke="#717784" stroke-width="1.48255" stroke-linecap="round" stroke-linejoin="round"/>
<rect x="46.2849" y="91.4055" width="42.8604" height="21.9535" rx="5.93021" fill="#059669" fill-opacity="0.1"/>
<rect x="46.7791" y="91.8997" width="41.8721" height="20.9651" rx="5.43603" stroke="#059669" stroke-opacity="0.2" stroke-width="0.988368"/>
<path d="M53.1629 106.382V97.7566H56.3217C56.9338 97.7566 57.4406 97.8576 57.8422 98.0598C58.2437 98.2592 58.5441 98.5301 58.7435 98.8727C58.9429 99.2124 59.0425 99.5957 59.0425 100.023C59.0425 100.382 58.9765 100.685 58.8446 100.932C58.7126 101.177 58.5357 101.373 58.3139 101.522C58.0949 101.668 57.8534 101.775 57.5895 101.842V101.926C57.8759 101.94 58.1552 102.033 58.4276 102.204C58.7028 102.373 58.9302 102.613 59.1099 102.924C59.2896 103.236 59.3795 103.615 59.3795 104.062C59.3795 104.502 59.2756 104.898 59.0678 105.249C58.8628 105.598 58.5455 105.874 58.1159 106.079C57.6863 106.281 57.1374 106.382 56.4691 106.382H53.1629ZM54.4643 105.266H56.3428C56.9661 105.266 57.4126 105.145 57.6821 104.904C57.9517 104.663 58.0865 104.361 58.0865 103.998C58.0865 103.726 58.0177 103.476 57.8801 103.249C57.7425 103.021 57.5459 102.84 57.2904 102.705C57.0377 102.571 56.7373 102.503 56.3891 102.503H54.4643V105.266ZM54.4643 101.488H56.208C56.5 101.488 56.7625 101.432 56.9956 101.32C57.2315 101.207 57.4182 101.05 57.5558 100.848C57.6962 100.643 57.7664 100.402 57.7664 100.124C57.7664 99.767 57.6414 99.468 57.3915 99.2265C57.1416 98.985 56.7583 98.8643 56.2417 98.8643H54.4643V101.488ZM62.7047 106.526C62.2947 106.526 61.9241 106.45 61.5928 106.298C61.2614 106.144 60.9989 105.92 60.8052 105.628C60.6142 105.336 60.5188 104.978 60.5188 104.554C60.5188 104.189 60.589 103.889 60.7294 103.653C60.8698 103.417 61.0593 103.23 61.298 103.093C61.5366 102.955 61.8034 102.851 62.0982 102.781C62.393 102.711 62.6935 102.658 62.9995 102.621C63.387 102.576 63.7015 102.54 63.943 102.512C64.1844 102.481 64.3599 102.432 64.4694 102.364C64.5789 102.297 64.6337 102.187 64.6337 102.036V102.006C64.6337 101.638 64.5298 101.353 64.322 101.151C64.117 100.949 63.811 100.848 63.4038 100.848C62.9799 100.848 62.6457 100.942 62.4014 101.13C62.16 101.316 61.9929 101.522 61.9002 101.749L60.7167 101.48C60.8571 101.087 61.0621 100.769 61.3316 100.528C61.604 100.284 61.9171 100.107 62.2709 99.9972C62.6247 99.8849 62.9967 99.8288 63.387 99.8288C63.6453 99.8288 63.9191 99.8597 64.2083 99.9214C64.5003 99.9804 64.7727 100.09 65.0254 100.25C65.2809 100.41 65.4901 100.639 65.6529 100.936C65.8158 101.231 65.8972 101.615 65.8972 102.086V106.382H64.6674V105.498H64.6168C64.5354 105.661 64.4133 105.821 64.2504 105.978C64.0876 106.135 63.8784 106.266 63.6229 106.37C63.3673 106.474 63.0613 106.526 62.7047 106.526ZM62.9785 105.515C63.3266 105.515 63.6243 105.446 63.8714 105.308C64.1213 105.171 64.3108 104.991 64.44 104.769C64.5719 104.545 64.6379 104.305 64.6379 104.049V103.215C64.593 103.26 64.5059 103.302 64.3768 103.341C64.2504 103.378 64.1058 103.41 63.943 103.438C63.7801 103.464 63.6215 103.487 63.467 103.51C63.3126 103.53 63.1834 103.546 63.0795 103.56C62.8353 103.591 62.612 103.643 62.4099 103.716C62.2105 103.789 62.0505 103.895 61.9297 104.032C61.8118 104.167 61.7528 104.347 61.7528 104.571C61.7528 104.883 61.8679 105.119 62.0982 105.279C62.3284 105.436 62.6219 105.515 62.9785 105.515ZM72.4224 101.492L71.281 101.695C71.2332 101.549 71.1574 101.41 71.0535 101.278C70.9524 101.146 70.8149 101.038 70.6408 100.953C70.4667 100.869 70.2491 100.827 69.9879 100.827C69.6313 100.827 69.3337 100.907 69.095 101.067C68.8564 101.224 68.737 101.428 68.737 101.678C68.737 101.894 68.8171 102.068 68.9771 102.2C69.1372 102.332 69.3955 102.44 69.7521 102.524L70.7798 102.76C71.375 102.898 71.8187 103.11 72.1107 103.396C72.4027 103.683 72.5487 104.055 72.5487 104.512C72.5487 104.9 72.4364 105.245 72.2118 105.548C71.9899 105.849 71.6797 106.085 71.281 106.256C70.8851 106.427 70.426 106.513 69.9037 106.513C69.1793 106.513 68.5882 106.358 68.1305 106.05C67.6729 105.738 67.3921 105.296 67.2882 104.723L68.5054 104.538C68.5812 104.855 68.737 105.095 68.9729 105.258C69.2088 105.418 69.5162 105.498 69.8953 105.498C70.308 105.498 70.638 105.412 70.8851 105.241C71.1321 105.067 71.2557 104.855 71.2557 104.605C71.2557 104.403 71.1799 104.233 71.0283 104.095C70.8794 103.958 70.6506 103.854 70.3417 103.784L69.2467 103.544C68.643 103.406 68.1965 103.187 67.9073 102.887C67.6209 102.586 67.4777 102.206 67.4777 101.745C67.4777 101.363 67.5844 101.029 67.7978 100.743C68.0112 100.456 68.306 100.233 68.6823 100.073C69.0585 99.9102 69.4895 99.8288 69.9753 99.8288C70.6745 99.8288 71.2248 99.9804 71.6263 100.284C72.0279 100.584 72.2932 100.987 72.4224 101.492ZM73.9333 106.382V99.913H75.1927V106.382H73.9333ZM74.5693 98.9148C74.3503 98.9148 74.1622 98.8418 74.0049 98.6958C73.8505 98.547 73.7733 98.3701 73.7733 98.1651C73.7733 97.9573 73.8505 97.7804 74.0049 97.6344C74.1622 97.4856 74.3503 97.4112 74.5693 97.4112C74.7883 97.4112 74.9751 97.4856 75.1295 97.6344C75.2867 97.7804 75.3654 97.9573 75.3654 98.1651C75.3654 98.3701 75.2867 98.547 75.1295 98.6958C74.9751 98.8418 74.7883 98.9148 74.5693 98.9148ZM79.6119 106.513C78.9857 106.513 78.4466 106.371 77.9946 106.087C77.5453 105.801 77.1999 105.407 76.9585 104.904C76.717 104.401 76.5962 103.826 76.5962 103.177C76.5962 102.52 76.7198 101.94 76.9669 101.438C77.214 100.932 77.5622 100.538 78.0114 100.254C78.4607 99.9706 78.99 99.8288 79.5993 99.8288C80.0906 99.8288 80.5287 99.92 80.9133 100.103C81.298 100.282 81.6083 100.535 81.8441 100.861C82.0828 101.186 82.2246 101.567 82.2695 102.002H81.0439C80.9765 101.699 80.8221 101.438 80.5806 101.219C80.3419 101 80.0218 100.89 79.6203 100.89C79.2693 100.89 78.9619 100.983 78.6979 101.168C78.4368 101.351 78.2332 101.612 78.0872 101.952C77.9412 102.288 77.8682 102.687 77.8682 103.148C77.8682 103.619 77.9398 104.027 78.083 104.369C78.2262 104.712 78.4284 104.977 78.6895 105.165C78.9535 105.353 79.2637 105.447 79.6203 105.447C79.859 105.447 80.0752 105.404 80.2689 105.317C80.4655 105.227 80.6297 105.099 80.7617 104.933C80.8965 104.768 80.9906 104.568 81.0439 104.335H82.2695C82.2246 104.754 82.0884 105.127 81.861 105.456C81.6336 105.784 81.3289 106.043 80.947 106.231C80.568 106.419 80.1229 106.513 79.6119 106.513Z" fill="#059669"/>
<path d="M28.4943 132.26V133.249" stroke="#717784" stroke-width="1.48255" stroke-linecap="round" stroke-linejoin="round"/>
<path d="M28.4943 138.19V139.179" stroke="#717784" stroke-width="1.48255" stroke-linecap="round" stroke-linejoin="round"/>
<path d="M28.4943 141.65C31.7695 141.65 34.4245 138.995 34.4245 135.72C34.4245 132.444 31.7695 129.789 28.4943 129.789C25.2191 129.789 22.5641 132.444 22.5641 135.72C22.5641 138.995 25.2191 141.65 28.4943 141.65Z" stroke="#717784" stroke-width="1.48255" stroke-linecap="round" stroke-linejoin="round"/>
<path d="M27.0118 138.19H29.2356C29.5633 138.19 29.8775 138.06 30.1092 137.829C30.3409 137.597 30.4711 137.283 30.4711 136.955C30.4711 136.627 30.3409 136.313 30.1092 136.081C29.8775 135.85 29.5633 135.719 29.2356 135.719H27.753C27.4254 135.719 27.1111 135.589 26.8794 135.358C26.6477 135.126 26.5176 134.812 26.5176 134.484C26.5176 134.156 26.6477 133.842 26.8794 133.61C27.1111 133.379 27.4254 133.249 27.753 133.249H29.9769" stroke="#717784" stroke-width="1.48255" stroke-linecap="round" stroke-linejoin="round"/>
<path d="M50.2945 142.477V129.898H51.1004V142.477H50.2945ZM53.0069 133.672C52.948 133.174 52.7088 132.787 52.2895 132.512C51.8702 132.237 51.3559 132.1 50.7466 132.1C50.3011 132.1 49.9113 132.172 49.5771 132.316C49.2463 132.46 48.9875 132.658 48.8008 132.91C48.6173 133.163 48.5256 133.449 48.5256 133.77C48.5256 134.039 48.5895 134.27 48.7172 134.463C48.8483 134.653 49.0153 134.812 49.2184 134.94C49.4215 135.064 49.6345 135.167 49.8572 135.249C50.08 135.328 50.2847 135.392 50.4714 135.441L51.4935 135.716C51.7556 135.785 52.0471 135.88 52.3682 136.001C52.6925 136.122 53.002 136.288 53.2969 136.497C53.595 136.704 53.8406 136.969 54.0339 137.293C54.2272 137.618 54.3238 138.016 54.3238 138.487C54.3238 139.031 54.1813 139.523 53.8963 139.962C53.6146 140.401 53.2019 140.749 52.6581 141.008C52.1175 141.267 51.4607 141.396 50.6876 141.396C49.967 141.396 49.3429 141.28 48.8155 141.048C48.2914 140.815 47.8786 140.491 47.5772 140.075C47.2791 139.659 47.1104 139.175 47.0711 138.625H48.329C48.3618 139.005 48.4896 139.319 48.7123 139.568C48.9383 139.814 49.2233 139.998 49.5673 140.119C49.9145 140.237 50.288 140.296 50.6876 140.296C51.1528 140.296 51.5705 140.22 51.9407 140.07C52.3108 139.916 52.604 139.703 52.8202 139.431C53.0364 139.156 53.1445 138.835 53.1445 138.468C53.1445 138.134 53.0512 137.862 52.8644 137.652C52.6777 137.442 52.432 137.272 52.1274 137.141C51.8227 137.01 51.4935 136.895 51.1397 136.797L49.9014 136.443C49.1152 136.217 48.4928 135.895 48.0342 135.475C47.5756 135.056 47.3463 134.507 47.3463 133.829C47.3463 133.266 47.4986 132.774 47.8033 132.355C48.1112 131.932 48.524 131.605 49.0415 131.372C49.5624 131.136 50.1439 131.019 50.7859 131.019C51.4345 131.019 52.0111 131.135 52.5156 131.367C53.02 131.597 53.4197 131.911 53.7145 132.311C54.0126 132.71 54.1699 133.164 54.1862 133.672H53.0069ZM59.4919 141.357C59.0791 141.351 58.6664 141.272 58.2536 141.121C57.8409 140.971 57.4641 140.717 57.1234 140.36C56.7828 139.999 56.5092 139.513 56.3028 138.9C56.0965 138.284 55.9933 137.511 55.9933 136.581C55.9933 135.69 56.0768 134.9 56.2439 134.212C56.4109 133.521 56.6534 132.94 56.9711 132.468C57.2889 131.993 57.6721 131.633 58.1209 131.387C58.573 131.141 59.0824 131.019 59.6491 131.019C60.2126 131.019 60.7138 131.132 61.1527 131.358C61.595 131.58 61.9553 131.892 62.2338 132.291C62.5122 132.691 62.6924 133.151 62.7743 133.672H61.5753C61.4639 133.22 61.2477 132.845 60.9267 132.547C60.6057 132.249 60.1798 132.1 59.6491 132.1C58.8695 132.1 58.2552 132.439 57.8065 133.117C57.3609 133.795 57.1365 134.746 57.1333 135.972H57.2119C57.3953 135.693 57.6132 135.456 57.8654 135.259C58.1209 135.059 58.4027 134.905 58.7106 134.797C59.0185 134.689 59.3445 134.635 59.6884 134.635C60.265 134.635 60.7924 134.779 61.2707 135.067C61.7489 135.352 62.1322 135.747 62.4205 136.252C62.7088 136.753 62.8529 137.328 62.8529 137.976C62.8529 138.599 62.7137 139.169 62.4352 139.686C62.1568 140.201 61.7653 140.61 61.2608 140.915C60.7596 141.216 60.17 141.364 59.4919 141.357ZM59.4919 140.276C59.9046 140.276 60.2748 140.173 60.6024 139.966C60.9332 139.76 61.1937 139.483 61.3837 139.136C61.577 138.789 61.6736 138.402 61.6736 137.976C61.6736 137.56 61.5802 137.182 61.3935 136.841C61.2101 136.497 60.9562 136.224 60.6319 136.021C60.3108 135.818 59.9439 135.716 59.5312 135.716C59.22 135.716 58.9301 135.778 58.6615 135.903C58.3928 136.024 58.157 136.191 57.9539 136.404C57.754 136.617 57.5968 136.861 57.4821 137.136C57.3675 137.408 57.3102 137.695 57.3102 137.996C57.3102 138.396 57.4035 138.769 57.5903 139.116C57.7803 139.464 58.039 139.744 58.3666 139.957C58.6975 140.17 59.0726 140.276 59.4919 140.276ZM68.0676 141.357C67.3273 141.357 66.6967 141.156 66.1758 140.753C65.655 140.346 65.257 139.758 64.9818 138.989C64.7066 138.216 64.569 137.282 64.569 136.188C64.569 135.1 64.7066 134.172 64.9818 133.402C65.2602 132.629 65.6599 132.039 66.1807 131.633C66.7049 131.223 67.3338 131.019 68.0676 131.019C68.8014 131.019 69.4287 131.223 69.9496 131.633C70.4737 132.039 70.8734 132.629 71.1486 133.402C71.427 134.172 71.5662 135.1 71.5662 136.188C71.5662 137.282 71.4286 138.216 71.1535 138.989C70.8783 139.758 70.4803 140.346 69.9594 140.753C69.4386 141.156 68.808 141.357 68.0676 141.357ZM68.0676 140.276C68.8014 140.276 69.3714 139.922 69.7776 139.215C70.1838 138.507 70.3869 137.498 70.3869 136.188C70.3869 135.316 70.2936 134.574 70.1068 133.962C69.9234 133.349 69.658 132.882 69.3108 132.561C68.9668 132.24 68.5524 132.08 68.0676 132.08C67.3404 132.08 66.772 132.439 66.3625 133.156C65.9531 133.87 65.7483 134.881 65.7483 136.188C65.7483 137.059 65.8401 137.8 66.0235 138.409C66.2069 139.018 66.4706 139.482 66.8146 139.799C67.1619 140.117 67.5795 140.276 68.0676 140.276ZM74.8314 139.844L74.7528 140.374C74.6971 140.748 74.6119 141.147 74.4973 141.573C74.3859 141.999 74.2696 142.4 74.1484 142.777C74.0272 143.154 73.9273 143.454 73.8487 143.676H72.9642C73.0068 143.467 73.0625 143.19 73.1313 142.846C73.2 142.502 73.2688 142.117 73.3376 141.691C73.4097 141.269 73.4687 140.836 73.5145 140.394L73.5735 139.844H74.8314ZM80.0695 131.019C80.4822 131.022 80.895 131.1 81.3078 131.254C81.7205 131.408 82.0972 131.664 82.4379 132.021C82.7786 132.375 83.0521 132.858 83.2585 133.47C83.4649 134.083 83.5681 134.851 83.5681 135.775C83.5681 136.669 83.4829 137.464 83.3126 138.158C83.1455 138.849 82.9031 139.433 82.5853 139.908C82.2709 140.383 81.8876 140.743 81.4355 140.989C80.9867 141.234 80.479 141.357 79.9122 141.357C79.3488 141.357 78.846 141.246 78.4037 141.023C77.9648 140.797 77.6044 140.484 77.3227 140.084C77.0442 139.681 76.8657 139.215 76.7871 138.684H77.9861C78.0942 139.146 78.3087 139.528 78.6298 139.829C78.9541 140.127 79.3816 140.276 79.9122 140.276C80.6886 140.276 81.3012 139.937 81.75 139.259C82.2021 138.581 82.4281 137.623 82.4281 136.384H82.3495C82.166 136.66 81.9482 136.897 81.6959 137.097C81.4437 137.297 81.1636 137.451 80.8557 137.559C80.5478 137.667 80.2202 137.721 79.8729 137.721C79.2964 137.721 78.7673 137.578 78.2858 137.293C77.8075 137.005 77.4242 136.61 77.136 136.109C76.851 135.605 76.7085 135.028 76.7085 134.38C76.7085 133.764 76.8461 133.2 77.1212 132.689C77.3997 132.175 77.7895 131.765 78.2907 131.461C78.7952 131.156 79.3881 131.009 80.0695 131.019ZM80.0695 132.1C79.6567 132.1 79.2849 132.203 78.9541 132.409C78.6265 132.612 78.3661 132.887 78.1728 133.235C77.9828 133.579 77.8878 133.96 77.8878 134.38C77.8878 134.799 77.9795 135.18 78.1629 135.524C78.3497 135.865 78.6035 136.137 78.9246 136.34C79.2489 136.54 79.6174 136.64 80.0302 136.64C80.3414 136.64 80.6313 136.579 80.8999 136.458C81.1685 136.334 81.4028 136.165 81.6026 135.952C81.8057 135.736 81.9646 135.492 82.0792 135.22C82.1939 134.945 82.2512 134.658 82.2512 134.36C82.2512 133.967 82.1562 133.598 81.9662 133.254C81.7795 132.91 81.5207 132.632 81.1898 132.419C80.8622 132.206 80.4888 132.1 80.0695 132.1ZM89.0383 131.156V141.219H87.8197V132.434H87.7608L85.3039 134.065V132.827L87.8197 131.156H89.0383ZM95.2149 141.357C94.4746 141.357 93.844 141.156 93.3231 140.753C92.8023 140.346 92.4043 139.758 92.1291 138.989C91.8539 138.216 91.7163 137.282 91.7163 136.188C91.7163 135.1 91.8539 134.172 92.1291 133.402C92.4075 132.629 92.8072 132.039 93.328 131.633C93.8522 131.223 94.4811 131.019 95.2149 131.019C95.9487 131.019 96.576 131.223 97.0969 131.633C97.621 132.039 98.0207 132.629 98.2959 133.402C98.5743 134.172 98.7135 135.1 98.7135 136.188C98.7135 137.282 98.5759 138.216 98.3008 138.989C98.0256 139.758 97.6276 140.346 97.1067 140.753C96.5859 141.156 95.9553 141.357 95.2149 141.357ZM95.2149 140.276C95.9487 140.276 96.5187 139.922 96.9249 139.215C97.3311 138.507 97.5342 137.498 97.5342 136.188C97.5342 135.316 97.4409 134.574 97.2541 133.962C97.0707 133.349 96.8054 132.882 96.4581 132.561C96.1142 132.24 95.6998 132.08 95.2149 132.08C94.4877 132.08 93.9193 132.439 93.5099 133.156C93.1004 133.87 92.8956 134.881 92.8956 136.188C92.8956 137.059 92.9874 137.8 93.1708 138.409C93.3543 139.018 93.618 139.482 93.9619 139.799C94.3092 140.117 94.7268 140.276 95.2149 140.276Z" fill="#181B25"/>
<path d="M33.4362 163.144H23.5525C23.2795 163.144 23.0583 163.365 23.0583 163.638V173.522C23.0583 173.795 23.2795 174.016 23.5525 174.016H33.4362C33.7091 174.016 33.9303 173.795 33.9303 173.522V163.638C33.9303 163.365 33.7091 163.144 33.4362 163.144Z" stroke="#717784" stroke-width="1.48255" stroke-linecap="round" stroke-linejoin="round"/>
<path d="M31.4594 162.156V164.132" stroke="#717784" stroke-width="1.48255" stroke-linecap="round" stroke-linejoin="round"/>
<path d="M25.5292 162.156V164.132" stroke="#717784" stroke-width="1.48255" stroke-linecap="round" stroke-linejoin="round"/>
<path d="M23.0583 166.109H33.9303" stroke="#717784" stroke-width="1.48255" stroke-linecap="round" stroke-linejoin="round"/>
<path d="M47.5035 174.08V164.016H53.5376V165.097H48.7221V168.498H53.0856V169.579H48.7221V174.08H47.5035ZM58.0779 174.237C57.3507 174.237 56.7234 174.077 56.196 173.756C55.6718 173.431 55.2673 172.979 54.9823 172.399C54.7006 171.816 54.5597 171.138 54.5597 170.365C54.5597 169.592 54.7006 168.911 54.9823 168.321C55.2673 167.728 55.6636 167.266 56.1714 166.935C56.6824 166.601 57.2786 166.434 57.96 166.434C58.3531 166.434 58.7413 166.5 59.1246 166.631C59.5078 166.762 59.8567 166.975 60.1712 167.269C60.4857 167.561 60.7363 167.947 60.923 168.429C61.1097 168.911 61.2031 169.503 61.2031 170.208V170.699H55.3852V169.697H60.0238C60.0238 169.271 59.9386 168.891 59.7683 168.557C59.6012 168.223 59.3621 167.959 59.0509 167.766C58.7429 167.572 58.3793 167.476 57.96 167.476C57.4981 167.476 57.0985 167.59 56.7611 167.82C56.4269 168.046 56.1698 168.341 55.9896 168.704C55.8094 169.068 55.7193 169.458 55.7193 169.874V170.542C55.7193 171.112 55.8176 171.595 56.0142 171.991C56.214 172.385 56.4908 172.684 56.8446 172.891C57.1984 173.094 57.6095 173.195 58.0779 173.195C58.3826 173.195 58.6578 173.153 58.9035 173.068C59.1524 172.979 59.367 172.848 59.5472 172.674C59.7273 172.498 59.8666 172.278 59.9648 172.016L61.0852 172.331C60.9672 172.711 60.769 173.045 60.4906 173.333C60.2122 173.618 59.8682 173.841 59.4587 174.001C59.0492 174.158 58.589 174.237 58.0779 174.237ZM63.1244 174.08V164.016H64.284V167.731H64.3823C64.4675 167.6 64.5854 167.433 64.7361 167.23C64.8901 167.024 65.1095 166.84 65.3945 166.68C65.6828 166.516 66.0726 166.434 66.564 166.434C67.1995 166.434 67.7597 166.593 68.2445 166.911C68.7293 167.228 69.1077 167.679 69.3796 168.262C69.6515 168.845 69.7874 169.533 69.7874 170.326C69.7874 171.125 69.6515 171.818 69.3796 172.404C69.1077 172.987 68.731 173.439 68.2494 173.76C67.7679 174.078 67.2126 174.237 66.5837 174.237C66.0988 174.237 65.7107 174.157 65.4191 173.996C65.1276 173.833 64.9032 173.647 64.7459 173.441C64.5887 173.231 64.4675 173.058 64.3823 172.92H64.2447V174.08H63.1244ZM64.2644 170.306C64.2644 170.876 64.3479 171.379 64.515 171.815C64.682 172.247 64.9261 172.586 65.2471 172.832C65.5682 173.074 65.9613 173.195 66.4264 173.195C66.9113 173.195 67.3158 173.068 67.6401 172.812C67.9677 172.553 68.2134 172.206 68.3772 171.77C68.5443 171.331 68.6278 170.843 68.6278 170.306C68.6278 169.775 68.5459 169.297 68.3821 168.871C68.2216 168.442 67.9775 168.103 67.65 167.854C67.3256 167.602 66.9178 167.476 66.4264 167.476C65.9547 167.476 65.5583 167.595 65.2373 167.834C64.9163 168.07 64.6739 168.401 64.5101 168.827C64.3463 169.25 64.2644 169.743 64.2644 170.306ZM78.7157 174.217C77.9754 174.217 77.3448 174.016 76.8239 173.613C76.3031 173.207 75.9051 172.619 75.6299 171.849C75.3547 171.076 75.2171 170.142 75.2171 169.048C75.2171 167.961 75.3547 167.032 75.6299 166.262C75.9084 165.489 76.308 164.899 76.8289 164.493C77.353 164.084 77.982 163.879 78.7157 163.879C79.4495 163.879 80.0769 164.084 80.5977 164.493C81.1219 164.899 81.5215 165.489 81.7967 166.262C82.0751 167.032 82.2143 167.961 82.2143 169.048C82.2143 170.142 82.0768 171.076 81.8016 171.849C81.5264 172.619 81.1284 173.207 80.6075 173.613C80.0867 174.016 79.4561 174.217 78.7157 174.217ZM78.7157 173.136C79.4495 173.136 80.0195 172.783 80.4257 172.075C80.8319 171.367 81.035 170.358 81.035 169.048C81.035 168.177 80.9417 167.435 80.755 166.822C80.5715 166.21 80.3062 165.743 79.9589 165.422C79.615 165.101 79.2006 164.94 78.7157 164.94C77.9885 164.94 77.4202 165.299 77.0107 166.016C76.6012 166.73 76.3965 167.741 76.3965 169.048C76.3965 169.92 76.4882 170.66 76.6716 171.269C76.8551 171.878 77.1188 172.342 77.4627 172.66C77.81 172.978 78.2276 173.136 78.7157 173.136ZM84.1258 174.08L88.6268 165.176V165.097H83.4379V164.016H89.8847V165.156L85.4034 174.08H84.1258ZM91.736 172.704L91.6574 173.235C91.6017 173.608 91.5165 174.008 91.4019 174.434C91.2905 174.859 91.1742 175.261 91.053 175.637C90.9318 176.014 90.8319 176.314 90.7532 176.537H89.8688C89.9113 176.327 89.967 176.05 90.0358 175.706C90.1046 175.362 90.1734 174.977 90.2422 174.552C90.3143 174.129 90.3732 173.697 90.4191 173.254L90.4781 172.704H91.736ZM97.7566 174.08V173.195L101.078 169.559C101.468 169.133 101.789 168.763 102.041 168.449C102.294 168.131 102.48 167.833 102.602 167.554C102.726 167.273 102.788 166.978 102.788 166.67C102.788 166.316 102.703 166.01 102.533 165.751C102.366 165.492 102.136 165.292 101.845 165.152C101.553 165.011 101.226 164.94 100.862 164.94C100.476 164.94 100.138 165.02 99.8498 165.181C99.5648 165.338 99.3437 165.559 99.1865 165.844C99.0325 166.129 98.9555 166.464 98.9555 166.847H97.7959C97.7959 166.257 97.9318 165.74 98.2037 165.294C98.4756 164.849 98.8458 164.501 99.3142 164.252C99.786 164.003 100.315 163.879 100.901 163.879C101.491 163.879 102.014 164.003 102.469 164.252C102.924 164.501 103.281 164.837 103.54 165.26C103.799 165.682 103.928 166.152 103.928 166.67C103.928 167.04 103.861 167.402 103.727 167.756C103.596 168.106 103.366 168.498 103.039 168.93C102.715 169.359 102.264 169.883 101.688 170.503L99.4273 172.92V172.999H104.105V174.08H97.7566ZM109.417 174.217C108.677 174.217 108.046 174.016 107.525 173.613C107.004 173.207 106.606 172.619 106.331 171.849C106.056 171.076 105.918 170.142 105.918 169.048C105.918 167.961 106.056 167.032 106.331 166.262C106.61 165.489 107.009 164.899 107.53 164.493C108.054 164.084 108.683 163.879 109.417 163.879C110.151 163.879 110.778 164.084 111.299 164.493C111.823 164.899 112.223 165.489 112.498 166.262C112.776 167.032 112.916 167.961 112.916 169.048C112.916 170.142 112.778 171.076 112.503 171.849C112.228 172.619 111.83 173.207 111.309 173.613C110.788 174.016 110.157 174.217 109.417 174.217ZM109.417 173.136C110.151 173.136 110.721 172.783 111.127 172.075C111.533 171.367 111.736 170.358 111.736 169.048C111.736 168.177 111.643 167.435 111.456 166.822C111.273 166.21 111.007 165.743 110.66 165.422C110.316 165.101 109.902 164.94 109.417 164.94C108.69 164.94 108.121 165.299 107.712 166.016C107.302 166.73 107.098 167.741 107.098 169.048C107.098 169.92 107.189 170.66 107.373 171.269C107.556 171.878 107.82 172.342 108.164 172.66C108.511 172.978 108.929 173.136 109.417 173.136ZM114.783 174.08V173.195L118.104 169.559C118.494 169.133 118.815 168.763 119.068 168.449C119.32 168.131 119.507 167.833 119.628 167.554C119.752 167.273 119.814 166.978 119.814 166.67C119.814 166.316 119.729 166.01 119.559 165.751C119.392 165.492 119.163 165.292 118.871 165.152C118.579 165.011 118.252 164.94 117.888 164.94C117.502 164.94 117.164 165.02 116.876 165.181C116.591 165.338 116.37 165.559 116.213 165.844C116.059 166.129 115.982 166.464 115.982 166.847H114.822C114.822 166.257 114.958 165.74 115.23 165.294C115.502 164.849 115.872 164.501 116.34 164.252C116.812 164.003 117.341 163.879 117.928 163.879C118.517 163.879 119.04 164.003 119.495 164.252C119.95 164.501 120.307 164.837 120.566 165.26C120.825 165.682 120.954 166.152 120.954 166.67C120.954 167.04 120.887 167.402 120.753 167.756C120.622 168.106 120.393 168.498 120.065 168.93C119.741 169.359 119.29 169.883 118.714 170.503L116.453 172.92V172.999H121.131V174.08H114.783ZM126.306 174.217C125.729 174.217 125.21 174.103 124.748 173.873C124.286 173.644 123.916 173.33 123.637 172.93C123.359 172.53 123.207 172.075 123.18 171.564H124.36C124.406 172.019 124.612 172.396 124.979 172.694C125.349 172.989 125.791 173.136 126.306 173.136C126.718 173.136 127.085 173.04 127.406 172.846C127.731 172.653 127.984 172.388 128.168 172.05C128.355 171.71 128.448 171.325 128.448 170.896C128.448 170.457 128.351 170.065 128.158 169.721C127.968 169.374 127.706 169.101 127.372 168.901C127.038 168.701 126.656 168.599 126.227 168.596C125.919 168.593 125.603 168.64 125.279 168.739C124.954 168.834 124.687 168.956 124.478 169.107L123.338 168.97L123.947 164.016H129.175V165.097H124.969L124.615 168.065H124.674C124.881 167.902 125.139 167.766 125.451 167.658C125.762 167.549 126.086 167.495 126.423 167.495C127.039 167.495 127.588 167.643 128.07 167.938C128.554 168.229 128.934 168.629 129.21 169.137C129.488 169.644 129.627 170.224 129.627 170.876C129.627 171.518 129.483 172.091 129.195 172.596C128.91 173.097 128.517 173.493 128.016 173.785C127.514 174.073 126.944 174.217 126.306 174.217Z" fill="#181B25"/>
</g>
<rect x="9.22111" y="9.41142" width="232.267" height="181.035" rx="7.41276" stroke="#E5E7EB" stroke-width="0.988368"/>
</g>
<g filter="url(#filter1_d_7841_8022)">
<mask id="path-27-outside-2_7841_8022" maskUnits="userSpaceOnUse" x="36.025" y="36.95" width="19" height="20" fill="black">
<rect fill="white" x="36.025" y="36.95" width="19" height="20"/>
<path fill-rule="evenodd" clip-rule="evenodd" d="M49.525 55.05L48.375 52.75L47.225 55.05H42.625V53.858C42.625 52.9164 38.9448 50.2929 38.9448 50.2929C38.4368 49.9154 38.025 49.1019 38.025 48.4609V44.3166C38.025 42.9994 39.0548 41.9314 40.325 41.9314V45.5092H41.475V39.944C41.475 39.3948 41.904 38.95 42.4335 38.95C43.4921 38.95 44.35 39.8396 44.35 40.9374V40.5403C44.35 39.9911 44.779 39.5462 45.3085 39.5462C46.3671 39.5462 47.225 40.4359 47.225 41.5337V41.1366C47.225 40.5874 47.654 40.1425 48.1835 40.1C49.2421 40.1425 50.1 41.0322 50.1 42.13V41.7329C50.1 41.1837 50.529 40.7388 51.0585 40.7388C52.1171 40.7388 52.975 41.6285 52.975 42.7263V48.1549C52.975 48.7873 52.7022 49.7383 52.3707 50.2858C52.3707 50.2858 50.675 52.9164 50.675 53.858V55.05H49.525ZM44.925 45.85H46.075V50.45H44.925V45.85ZM47.225 45.85H48.375V50.45H47.225V45.85ZM49.525 45.85H50.675V50.45H49.525V45.85Z"/>
</mask>
<path fill-rule="evenodd" clip-rule="evenodd" d="M49.525 55.05L48.375 52.75L47.225 55.05H42.625V53.858C42.625 52.9164 38.9448 50.2929 38.9448 50.2929C38.4368 49.9154 38.025 49.1019 38.025 48.4609V44.3166C38.025 42.9994 39.0548 41.9314 40.325 41.9314V45.5092H41.475V39.944C41.475 39.3948 41.904 38.95 42.4335 38.95C43.4921 38.95 44.35 39.8396 44.35 40.9374V40.5403C44.35 39.9911 44.779 39.5462 45.3085 39.5462C46.3671 39.5462 47.225 40.4359 47.225 41.5337V41.1366C47.225 40.5874 47.654 40.1425 48.1835 40.1C49.2421 40.1425 50.1 41.0322 50.1 42.13V41.7329C50.1 41.1837 50.529 40.7388 51.0585 40.7388C52.1171 40.7388 52.975 41.6285 52.975 42.7263V48.1549C52.975 48.7873 52.7022 49.7383 52.3707 50.2858C52.3707 50.2858 50.675 52.9164 50.675 53.858V55.05H49.525ZM44.925 45.85H46.075V50.45H44.925V45.85ZM47.225 45.85H48.375V50.45H47.225V45.85ZM49.525 45.85H50.675V50.45H49.525V45.85Z" fill="white"/>
<path d="M49.525 55.05L48.4964 55.5642L48.8143 56.2H49.525V55.05ZM48.375 52.75L49.4036 52.2357L48.375 50.1785L47.3464 52.2357L48.375 52.75ZM47.225 55.05V56.2H47.9358L48.2536 55.5642L47.225 55.05ZM42.625 55.05H41.475V56.2H42.625V55.05ZM38.9448 50.2929L38.2589 51.2159L38.268 51.2227L38.2773 51.2293L38.9448 50.2929ZM40.325 41.9314H41.475V40.7814H40.325V41.9314ZM40.325 45.5092H39.175V46.6592H40.325V45.5092ZM41.475 45.5092V46.6592H42.625V45.5092H41.475ZM48.1835 40.1L48.2298 38.9509L48.1605 38.9481L48.0914 38.9537L48.1835 40.1ZM52.3707 50.2858L53.3373 50.9089L53.3461 50.8953L53.3545 50.8814L52.3707 50.2858ZM50.675 55.05V56.2H51.825V55.05H50.675ZM46.075 45.85H47.225V44.7H46.075V45.85ZM46.075 50.45V51.6H47.225V50.45H46.075ZM44.925 50.45H43.775V51.6H44.925V50.45ZM48.375 45.85H49.525V44.7H48.375V45.85ZM48.375 50.45V51.6H49.525V50.45H48.375ZM47.225 50.45H46.075V51.6H47.225V50.45ZM50.675 45.85H51.825V44.7H50.675V45.85ZM50.675 50.45V51.6H51.825V50.45H50.675ZM49.525 50.45H48.375V51.6H49.525V50.45ZM49.525 55.05L50.5536 54.5357L49.4036 52.2357L48.375 52.75L47.3464 53.2642L48.4964 55.5642L49.525 55.05ZM48.375 52.75L47.3464 52.2357L46.1964 54.5357L47.225 55.05L48.2536 55.5642L49.4036 53.2642L48.375 52.75ZM47.225 55.05V53.9H42.625V55.05V56.2H47.225V55.05ZM42.625 55.05H43.775V53.858H42.625H41.475V55.05H42.625ZM42.625 53.858H43.775C43.775 53.4104 43.5753 53.0392 43.4435 52.8272C43.2911 52.5821 43.0962 52.3443 42.8997 52.1288C42.5042 51.6951 41.9995 51.241 41.525 50.8421C41.0447 50.4383 40.5678 50.068 40.2131 49.8C40.0351 49.6655 39.8865 49.5557 39.7817 49.4791C39.7293 49.4408 39.6878 49.4107 39.659 49.39C39.6446 49.3796 39.6333 49.3715 39.6255 49.3659C39.6216 49.3631 39.6185 49.3609 39.6163 49.3593C39.6152 49.3585 39.6143 49.3579 39.6137 49.3574C39.6134 49.3572 39.6131 49.357 39.6129 49.3568C39.6128 49.3568 39.6126 49.3567 39.6126 49.3566C39.6125 49.3566 39.6124 49.3565 38.9448 50.2929C38.2773 51.2293 38.2772 51.2293 38.2772 51.2293C38.2772 51.2293 38.2772 51.2292 38.2772 51.2292C38.2772 51.2292 38.2772 51.2293 38.2773 51.2294C38.2776 51.2295 38.278 51.2299 38.2787 51.2303C38.2801 51.2313 38.2823 51.2329 38.2853 51.2351C38.2914 51.2394 38.3008 51.2462 38.3134 51.2552C38.3385 51.2734 38.376 51.3006 38.4242 51.3358C38.5207 51.4064 38.6596 51.5089 38.8266 51.6351C39.162 51.8885 39.6051 52.2329 40.0449 52.6026C40.4905 52.9772 40.9057 53.3556 41.2002 53.6786C41.3488 53.8415 41.4414 53.963 41.4903 54.0417C41.5597 54.1533 41.475 54.0701 41.475 53.858H42.625ZM38.9448 50.2929L39.6308 49.3699C39.5569 49.315 39.4306 49.1752 39.3216 48.9586C39.2128 48.7424 39.175 48.5566 39.175 48.4609H38.025H36.875C36.875 49.0062 37.0432 49.5476 37.2672 49.9927C37.4911 50.4376 37.8248 50.8933 38.2589 51.2159L38.9448 50.2929ZM38.025 48.4609H39.175V44.3166H38.025H36.875V48.4609H38.025ZM38.025 44.3166H39.175C39.175 43.5947 39.729 43.0814 40.325 43.0814V41.9314V40.7814C38.3807 40.7814 36.875 42.404 36.875 44.3166H38.025ZM40.325 41.9314H39.175V45.5092H40.325H41.475V41.9314H40.325ZM40.325 45.5092V46.6592H41.475V45.5092V44.3592H40.325V45.5092ZM41.475 45.5092H42.625V39.944H41.475H40.325V45.5092H41.475ZM41.475 39.944H42.625C42.625 39.9729 42.6127 40.009 42.5835 40.0393C42.5536 40.0703 42.4998 40.1 42.4335 40.1V38.95V37.8C41.2298 37.8 40.325 38.7994 40.325 39.944H41.475ZM42.4335 38.95V40.1C42.8179 40.1 43.2 40.435 43.2 40.9374H44.35H45.5C45.5 39.2443 44.1663 37.8 42.4335 37.8V38.95ZM44.35 40.9374H45.5V40.5403H44.35H43.2V40.9374H44.35ZM44.35 40.5403H45.5C45.5 40.5692 45.4877 40.6053 45.4585 40.6356C45.4286 40.6666 45.3748 40.6962 45.3085 40.6962V39.5462V38.3962C44.1048 38.3962 43.2 39.3957 43.2 40.5403H44.35ZM45.3085 39.5462V40.6962C45.6929 40.6962 46.075 41.0313 46.075 41.5337H47.225H48.375C48.375 39.8406 47.0413 38.3962 45.3085 38.3962V39.5462ZM47.225 41.5337H48.375V41.1366H47.225H46.075V41.5337H47.225ZM47.225 41.1366H48.375C48.375 41.1684 48.3611 41.1972 48.3451 41.2144C48.3308 41.2296 48.3075 41.2437 48.2757 41.2462L48.1835 40.1L48.0914 38.9537C46.9797 39.0431 46.075 39.9727 46.075 41.1366H47.225ZM48.1835 40.1L48.1373 41.249C48.5678 41.2663 48.95 41.6378 48.95 42.13H50.1H51.25C51.25 40.4266 49.9165 39.0187 48.2298 38.9509L48.1835 40.1ZM50.1 42.13H51.25V41.7329H50.1H48.95V42.13H50.1ZM50.1 41.7329H51.25C51.25 41.7618 51.2377 41.7979 51.2085 41.8282C51.1786 41.8592 51.1248 41.8888 51.0585 41.8888V40.7388V39.5888C49.8548 39.5888 48.95 40.5883 48.95 41.7329H50.1ZM51.0585 40.7388V41.8888C51.4429 41.8888 51.825 42.2239 51.825 42.7263H52.975H54.125C54.125 41.0332 52.7913 39.5888 51.0585 39.5888V40.7388ZM52.975 42.7263H51.825V48.1549H52.975H54.125V42.7263H52.975ZM52.975 48.1549H51.825C51.825 48.3298 51.783 48.6145 51.6911 48.9374C51.5996 49.2588 51.4836 49.5306 51.3869 49.6903L52.3707 50.2858L53.3545 50.8814C53.5893 50.4936 53.7754 50.0161 53.9032 49.567C54.0306 49.1194 54.125 48.6124 54.125 48.1549H52.975ZM52.3707 50.2858C51.4041 49.6628 51.4041 49.6628 51.404 49.6629C51.404 49.663 51.4039 49.6631 51.4039 49.6632C51.4037 49.6634 51.4036 49.6636 51.4034 49.6639C51.4031 49.6644 51.4027 49.6651 51.4021 49.6659C51.401 49.6676 51.3995 49.6699 51.3977 49.6729C51.3939 49.6787 51.3886 49.6871 51.3818 49.6977C51.3682 49.7191 51.3487 49.7498 51.3242 49.7887C51.2753 49.8666 51.206 49.9778 51.1233 50.1139C50.9583 50.3851 50.7368 50.7593 50.5139 51.1671C50.2929 51.5713 50.0601 52.0271 49.8795 52.4578C49.7195 52.8392 49.525 53.3696 49.525 53.858H50.675H51.825C51.825 53.8756 51.8425 53.724 52.0005 53.3474C52.1378 53.02 52.329 52.6417 52.5319 52.2705C52.7329 51.903 52.9353 51.5607 53.0883 51.3092C53.1645 51.184 53.2277 51.0823 53.2715 51.0127C53.2934 50.9779 53.3104 50.9511 53.3216 50.9335C53.3272 50.9246 53.3314 50.9181 53.3341 50.9139C53.3354 50.9119 53.3363 50.9104 53.3369 50.9096C53.3372 50.9091 53.3373 50.9089 53.3374 50.9088C53.3374 50.9087 53.3374 50.9087 53.3374 50.9087C53.3374 50.9087 53.3374 50.9088 53.3374 50.9088C53.3374 50.9088 53.3373 50.9089 52.3707 50.2858ZM50.675 53.858H49.525V55.05H50.675H51.825V53.858H50.675ZM50.675 55.05V53.9H49.525V55.05V56.2H50.675V55.05ZM44.925 45.85V47H46.075L46.075 45.85V44.7L44.925 44.7V45.85ZM46.075 45.85H44.925V50.45H46.075H47.225V45.85H46.075ZM46.075 50.45V49.3H44.925V50.45V51.6H46.075V50.45ZM44.925 50.45H46.075V45.85H44.925H43.775V50.45H44.925ZM47.225 45.85V47H48.375L48.375 45.85V44.7L47.225 44.7V45.85ZM48.375 45.85H47.225V50.45H48.375H49.525V45.85H48.375ZM48.375 50.45V49.3H47.225V50.45V51.6H48.375V50.45ZM47.225 50.45H48.375V45.85H47.225H46.075V50.45H47.225ZM49.525 45.85V47H50.675L50.675 45.85V44.7L49.525 44.7V45.85ZM50.675 45.85H49.525V50.45H50.675H51.825V45.85H50.675ZM50.675 50.45V49.3H49.525V50.45V51.6H50.675V50.45ZM49.525 50.45H50.675V45.85H49.525H48.375V50.45H49.525Z" fill="black" fill-opacity="0.8" mask="url(#path-27-outside-2_7841_8022)"/>
</g>
<defs>
<filter id="filter0_d_7841_8022" x="0.726929" y="0.917236" width="249.255" height="198.023" filterUnits="userSpaceOnUse" color-interpolation-filters="sRGB">
<feFlood flood-opacity="0" result="BackgroundImageFix"/>
<feColorMatrix in="SourceAlpha" type="matrix" values="0 0 0 0 0 0 0 0 0 0 0 0 0 0 0 0 0 0 127 0" result="hardAlpha"/>
<feOffset/>
<feGaussianBlur stdDeviation="4"/>
<feColorMatrix type="matrix" values="0 0 0 0 0 0 0 0 0 0 0 0 0 0 0 0 0 0 0.06 0"/>
<feBlend mode="normal" in2="BackgroundImageFix" result="effect1_dropShadow_7841_8022"/>
<feBlend mode="normal" in="SourceGraphic" in2="effect1_dropShadow_7841_8022" result="shape"/>
</filter>
<filter id="filter1_d_7841_8022" x="33.425" y="35.5" width="24.15" height="25.2999" filterUnits="userSpaceOnUse" color-interpolation-filters="sRGB">
<feFlood flood-opacity="0" result="BackgroundImageFix"/>
<feColorMatrix in="SourceAlpha" type="matrix" values="0 0 0 0 0 0 0 0 0 0 0 0 0 0 0 0 0 0 127 0" result="hardAlpha"/>
<feOffset dy="1.15"/>
<feGaussianBlur stdDeviation="1.725"/>
<feColorMatrix type="matrix" values="0 0 0 0 0 0 0 0 0 0 0 0 0 0 0 0 0 0 0.2 0"/>
<feBlend mode="normal" in2="BackgroundImageFix" result="effect1_dropShadow_7841_8022"/>
<feBlend mode="normal" in="SourceGraphic" in2="effect1_dropShadow_7841_8022" result="shape"/>
</filter>
<clipPath id="clip0_7841_8022">
<rect x="8.72693" y="8.91724" width="233.255" height="182.023" rx="7.90695" fill="white"/>
</clipPath>
</defs>
</svg>
