<svg width="456" height="312" viewBox="0 0 456 312" fill="none" xmlns="http://www.w3.org/2000/svg">
<g clip-path="url(#clip0_7841_8336)">
<circle cx="2.5" cy="2" r="2" fill="#E5E7EB"/>
<circle cx="31.4412" cy="2" r="2" fill="#E5E7EB"/>
<circle cx="60.3823" cy="2" r="2" fill="#E5E7EB"/>
<circle cx="89.3235" cy="2" r="2" fill="#E5E7EB"/>
<circle cx="118.265" cy="2" r="2" fill="#E5E7EB"/>
<circle cx="147.206" cy="2" r="2" fill="#E5E7EB"/>
<circle cx="176.147" cy="2" r="2" fill="#E5E7EB"/>
<circle cx="205.088" cy="2" r="2" fill="#E5E7EB"/>
<circle cx="234.029" cy="2" r="2" fill="#E5E7EB"/>
<circle cx="262.971" cy="2" r="2" fill="#E5E7EB"/>
<circle cx="291.912" cy="2" r="2" fill="#E5E7EB"/>
<circle cx="320.853" cy="2" r="2" fill="#E5E7EB"/>
<circle cx="349.794" cy="2" r="2" fill="#E5E7EB"/>
<circle cx="378.735" cy="2" r="2" fill="#E5E7EB"/>
<circle cx="407.676" cy="2" r="2" fill="#E5E7EB"/>
<circle cx="436.618" cy="2" r="2" fill="#E5E7EB"/>
<circle cx="2.5" cy="30" r="2" fill="#E5E7EB"/>
<circle cx="31.4412" cy="30" r="2" fill="#E5E7EB"/>
<circle cx="60.3823" cy="30" r="2" fill="#E5E7EB"/>
<circle cx="89.3235" cy="30" r="2" fill="#E5E7EB"/>
<circle cx="118.265" cy="30" r="2" fill="#E5E7EB"/>
<circle cx="147.206" cy="30" r="2" fill="#E5E7EB"/>
<circle cx="176.147" cy="30" r="2" fill="#E5E7EB"/>
<circle cx="205.088" cy="30" r="2" fill="#E5E7EB"/>
<circle cx="234.029" cy="30" r="2" fill="#E5E7EB"/>
<circle cx="262.971" cy="30" r="2" fill="#E5E7EB"/>
<circle cx="291.912" cy="30" r="2" fill="#E5E7EB"/>
<circle cx="320.853" cy="30" r="2" fill="#E5E7EB"/>
<circle cx="349.794" cy="30" r="2" fill="#E5E7EB"/>
<circle cx="378.735" cy="30" r="2" fill="#E5E7EB"/>
<circle cx="407.676" cy="30" r="2" fill="#E5E7EB"/>
<circle cx="436.618" cy="30" r="2" fill="#E5E7EB"/>
<circle cx="2.5" cy="58" r="2" fill="#E5E7EB"/>
<circle cx="31.4412" cy="58" r="2" fill="#E5E7EB"/>
<circle cx="60.3823" cy="58" r="2" fill="#E5E7EB"/>
<circle cx="89.3235" cy="58" r="2" fill="#E5E7EB"/>
<circle cx="118.265" cy="58" r="2" fill="#E5E7EB"/>
<circle cx="147.206" cy="58" r="2" fill="#E5E7EB"/>
<circle cx="176.147" cy="58" r="2" fill="#E5E7EB"/>
<circle cx="205.088" cy="58" r="2" fill="#E5E7EB"/>
<circle cx="234.029" cy="58" r="2" fill="#E5E7EB"/>
<circle cx="262.971" cy="58" r="2" fill="#E5E7EB"/>
<circle cx="291.912" cy="58" r="2" fill="#E5E7EB"/>
<circle cx="320.853" cy="58" r="2" fill="#E5E7EB"/>
<circle cx="349.794" cy="58" r="2" fill="#E5E7EB"/>
<circle cx="378.735" cy="58" r="2" fill="#E5E7EB"/>
<circle cx="407.676" cy="58" r="2" fill="#E5E7EB"/>
<circle cx="436.618" cy="58" r="2" fill="#E5E7EB"/>
<circle cx="2.5" cy="86" r="2" fill="#E5E7EB"/>
<circle cx="31.4412" cy="86" r="2" fill="#E5E7EB"/>
<circle cx="60.3823" cy="86" r="2" fill="#E5E7EB"/>
<circle cx="89.3235" cy="86" r="2" fill="#E5E7EB"/>
<circle cx="118.265" cy="86" r="2" fill="#E5E7EB"/>
<circle cx="147.206" cy="86" r="2" fill="#E5E7EB"/>
<circle cx="176.147" cy="86" r="2" fill="#E5E7EB"/>
<circle cx="205.088" cy="86" r="2" fill="#E5E7EB"/>
<circle cx="234.029" cy="86" r="2" fill="#E5E7EB"/>
<circle cx="262.971" cy="86" r="2" fill="#E5E7EB"/>
<circle cx="291.912" cy="86" r="2" fill="#E5E7EB"/>
<circle cx="320.853" cy="86" r="2" fill="#E5E7EB"/>
<circle cx="349.794" cy="86" r="2" fill="#E5E7EB"/>
<circle cx="378.735" cy="86" r="2" fill="#E5E7EB"/>
<circle cx="407.676" cy="86" r="2" fill="#E5E7EB"/>
<circle cx="436.618" cy="86" r="2" fill="#E5E7EB"/>
<circle cx="2.5" cy="114" r="2" fill="#E5E7EB"/>
<circle cx="31.4412" cy="114" r="2" fill="#E5E7EB"/>
<circle cx="60.3823" cy="114" r="2" fill="#E5E7EB"/>
<circle cx="89.3235" cy="114" r="2" fill="#E5E7EB"/>
<circle cx="118.265" cy="114" r="2" fill="#E5E7EB"/>
<circle cx="147.206" cy="114" r="2" fill="#E5E7EB"/>
<circle cx="176.147" cy="114" r="2" fill="#E5E7EB"/>
<circle cx="205.088" cy="114" r="2" fill="#E5E7EB"/>
<circle cx="234.029" cy="114" r="2" fill="#E5E7EB"/>
<circle cx="262.971" cy="114" r="2" fill="#E5E7EB"/>
<circle cx="291.912" cy="114" r="2" fill="#E5E7EB"/>
<circle cx="320.853" cy="114" r="2" fill="#E5E7EB"/>
<circle cx="349.794" cy="114" r="2" fill="#E5E7EB"/>
<circle cx="378.735" cy="114" r="2" fill="#E5E7EB"/>
<circle cx="407.676" cy="114" r="2" fill="#E5E7EB"/>
<circle cx="436.618" cy="114" r="2" fill="#E5E7EB"/>
<circle cx="2.5" cy="142" r="2" fill="#E5E7EB"/>
<circle cx="31.4412" cy="142" r="2" fill="#E5E7EB"/>
<circle cx="60.3823" cy="142" r="2" fill="#E5E7EB"/>
<circle cx="89.3235" cy="142" r="2" fill="#E5E7EB"/>
<circle cx="118.265" cy="142" r="2" fill="#E5E7EB"/>
<circle cx="147.206" cy="142" r="2" fill="#E5E7EB"/>
<circle cx="176.147" cy="142" r="2" fill="#E5E7EB"/>
<circle cx="205.088" cy="142" r="2" fill="#E5E7EB"/>
<circle cx="234.029" cy="142" r="2" fill="#E5E7EB"/>
<circle cx="262.971" cy="142" r="2" fill="#E5E7EB"/>
<circle cx="291.912" cy="142" r="2" fill="#E5E7EB"/>
<circle cx="320.853" cy="142" r="2" fill="#E5E7EB"/>
<circle cx="349.794" cy="142" r="2" fill="#E5E7EB"/>
<circle cx="378.735" cy="142" r="2" fill="#E5E7EB"/>
<circle cx="407.676" cy="142" r="2" fill="#E5E7EB"/>
<circle cx="436.618" cy="142" r="2" fill="#E5E7EB"/>
<circle cx="2.5" cy="170" r="2" fill="#E5E7EB"/>
<circle cx="31.4412" cy="170" r="2" fill="#E5E7EB"/>
<circle cx="60.3823" cy="170" r="2" fill="#E5E7EB"/>
<circle cx="89.3235" cy="170" r="2" fill="#E5E7EB"/>
<circle cx="118.265" cy="170" r="2" fill="#E5E7EB"/>
<circle cx="147.206" cy="170" r="2" fill="#E5E7EB"/>
<circle cx="176.147" cy="170" r="2" fill="#E5E7EB"/>
<circle cx="205.088" cy="170" r="2" fill="#E5E7EB"/>
<circle cx="234.029" cy="170" r="2" fill="#E5E7EB"/>
<circle cx="262.971" cy="170" r="2" fill="#E5E7EB"/>
<circle cx="291.912" cy="170" r="2" fill="#E5E7EB"/>
<circle cx="320.853" cy="170" r="2" fill="#E5E7EB"/>
<circle cx="349.794" cy="170" r="2" fill="#E5E7EB"/>
<circle cx="378.735" cy="170" r="2" fill="#E5E7EB"/>
<circle cx="407.676" cy="170" r="2" fill="#E5E7EB"/>
<circle cx="436.618" cy="170" r="2" fill="#E5E7EB"/>
<circle cx="2.5" cy="198" r="2" fill="#E5E7EB"/>
<circle cx="31.4412" cy="198" r="2" fill="#E5E7EB"/>
<circle cx="60.3823" cy="198" r="2" fill="#E5E7EB"/>
<circle cx="89.3235" cy="198" r="2" fill="#E5E7EB"/>
<circle cx="118.265" cy="198" r="2" fill="#E5E7EB"/>
<circle cx="147.206" cy="198" r="2" fill="#E5E7EB"/>
<circle cx="176.147" cy="198" r="2" fill="#E5E7EB"/>
<circle cx="205.088" cy="198" r="2" fill="#E5E7EB"/>
<circle cx="234.029" cy="198" r="2" fill="#E5E7EB"/>
<circle cx="262.971" cy="198" r="2" fill="#E5E7EB"/>
<circle cx="291.912" cy="198" r="2" fill="#E5E7EB"/>
<circle cx="320.853" cy="198" r="2" fill="#E5E7EB"/>
<circle cx="349.794" cy="198" r="2" fill="#E5E7EB"/>
<circle cx="378.735" cy="198" r="2" fill="#E5E7EB"/>
<circle cx="407.676" cy="198" r="2" fill="#E5E7EB"/>
<circle cx="436.618" cy="198" r="2" fill="#E5E7EB"/>
<circle cx="2.5" cy="226" r="2" fill="#E5E7EB"/>
<circle cx="31.4412" cy="226" r="2" fill="#E5E7EB"/>
<circle cx="60.3823" cy="226" r="2" fill="#E5E7EB"/>
<circle cx="89.3235" cy="226" r="2" fill="#E5E7EB"/>
<circle cx="118.265" cy="226" r="2" fill="#E5E7EB"/>
<circle cx="147.206" cy="226" r="2" fill="#E5E7EB"/>
<circle cx="176.147" cy="226" r="2" fill="#E5E7EB"/>
<circle cx="205.088" cy="226" r="2" fill="#E5E7EB"/>
<circle cx="234.029" cy="226" r="2" fill="#E5E7EB"/>
<circle cx="262.971" cy="226" r="2" fill="#E5E7EB"/>
<circle cx="291.912" cy="226" r="2" fill="#E5E7EB"/>
<circle cx="320.853" cy="226" r="2" fill="#E5E7EB"/>
<circle cx="349.794" cy="226" r="2" fill="#E5E7EB"/>
<circle cx="378.735" cy="226" r="2" fill="#E5E7EB"/>
<circle cx="407.676" cy="226" r="2" fill="#E5E7EB"/>
<circle cx="436.618" cy="226" r="2" fill="#E5E7EB"/>
<circle cx="2.5" cy="254" r="2" fill="#E5E7EB"/>
<circle cx="31.4412" cy="254" r="2" fill="#E5E7EB"/>
<circle cx="60.3823" cy="254" r="2" fill="#E5E7EB"/>
<circle cx="89.3235" cy="254" r="2" fill="#E5E7EB"/>
<circle cx="118.265" cy="254" r="2" fill="#E5E7EB"/>
<circle cx="147.206" cy="254" r="2" fill="#E5E7EB"/>
<circle cx="176.147" cy="254" r="2" fill="#E5E7EB"/>
<circle cx="205.088" cy="254" r="2" fill="#E5E7EB"/>
<circle cx="234.029" cy="254" r="2" fill="#E5E7EB"/>
<circle cx="262.971" cy="254" r="2" fill="#E5E7EB"/>
<circle cx="291.912" cy="254" r="2" fill="#E5E7EB"/>
<circle cx="320.853" cy="254" r="2" fill="#E5E7EB"/>
<circle cx="349.794" cy="254" r="2" fill="#E5E7EB"/>
<circle cx="378.735" cy="254" r="2" fill="#E5E7EB"/>
<circle cx="407.676" cy="254" r="2" fill="#E5E7EB"/>
<circle cx="436.618" cy="254" r="2" fill="#E5E7EB"/>
<circle cx="2.5" cy="282" r="2" fill="#E5E7EB"/>
<circle cx="31.4412" cy="282" r="2" fill="#E5E7EB"/>
<circle cx="60.3823" cy="282" r="2" fill="#E5E7EB"/>
<circle cx="89.3235" cy="282" r="2" fill="#E5E7EB"/>
<circle cx="118.265" cy="282" r="2" fill="#E5E7EB"/>
<circle cx="147.206" cy="282" r="2" fill="#E5E7EB"/>
<circle cx="176.147" cy="282" r="2" fill="#E5E7EB"/>
<circle cx="205.088" cy="282" r="2" fill="#E5E7EB"/>
<circle cx="234.029" cy="282" r="2" fill="#E5E7EB"/>
<circle cx="262.971" cy="282" r="2" fill="#E5E7EB"/>
<circle cx="291.912" cy="282" r="2" fill="#E5E7EB"/>
<circle cx="320.853" cy="282" r="2" fill="#E5E7EB"/>
<circle cx="349.794" cy="282" r="2" fill="#E5E7EB"/>
<circle cx="378.735" cy="282" r="2" fill="#E5E7EB"/>
<circle cx="407.676" cy="282" r="2" fill="#E5E7EB"/>
<circle cx="436.618" cy="282" r="2" fill="#E5E7EB"/>
<circle cx="2.5" cy="310" r="2" fill="#E5E7EB"/>
<circle cx="31.4412" cy="310" r="2" fill="#E5E7EB"/>
<circle cx="60.3823" cy="310" r="2" fill="#E5E7EB"/>
<circle cx="89.3235" cy="310" r="2" fill="#E5E7EB"/>
<circle cx="118.265" cy="310" r="2" fill="#E5E7EB"/>
<circle cx="147.206" cy="310" r="2" fill="#E5E7EB"/>
<circle cx="176.147" cy="310" r="2" fill="#E5E7EB"/>
<circle cx="205.088" cy="310" r="2" fill="#E5E7EB"/>
<circle cx="234.029" cy="310" r="2" fill="#E5E7EB"/>
<circle cx="262.971" cy="310" r="2" fill="#E5E7EB"/>
<circle cx="291.912" cy="310" r="2" fill="#E5E7EB"/>
<circle cx="320.853" cy="310" r="2" fill="#E5E7EB"/>
<circle cx="349.794" cy="310" r="2" fill="#E5E7EB"/>
<circle cx="378.735" cy="310" r="2" fill="#E5E7EB"/>
<circle cx="407.676" cy="310" r="2" fill="#E5E7EB"/>
<circle cx="436.618" cy="310" r="2" fill="#E5E7EB"/>
<rect x="74" y="22.5" width="309" height="267" rx="15.5" fill="#F3F4F6"/>
<rect x="74" y="22.5" width="309" height="267" rx="15.5" stroke="#E5E7EB"/>
<g filter="url(#filter0_d_7841_8336)">
<g clip-path="url(#clip1_7841_8336)">
<mask id="path-196-inside-1_7841_8336" fill="white">
<path d="M81.5 30H375.5V72H81.5V30Z"/>
</mask>
<path d="M81.5 30H375.5V72H81.5V30Z" fill="white"/>
<path d="M375.5 72V71H81.5V72V73H375.5V72Z" fill="#E5E7EB" mask="url(#path-196-inside-1_7841_8336)"/>
<path d="M105.075 49.1293H103.524C103.464 48.7978 103.353 48.5062 103.191 48.2543C103.029 48.0024 102.83 47.7886 102.594 47.6129C102.359 47.4373 102.096 47.3047 101.804 47.2152C101.516 47.1257 101.209 47.081 100.884 47.081C100.298 47.081 99.7723 47.2285 99.3082 47.5234C98.8475 47.8184 98.483 48.2509 98.2145 48.821C97.9493 49.3911 97.8168 50.0871 97.8168 50.9091C97.8168 51.7377 97.9493 52.437 98.2145 53.0071C98.483 53.5772 98.8492 54.008 99.3132 54.2997C99.7772 54.5914 100.299 54.7372 100.879 54.7372C101.201 54.7372 101.506 54.6941 101.794 54.608C102.086 54.5185 102.349 54.3875 102.585 54.2152C102.82 54.0429 103.019 53.8324 103.181 53.5838C103.347 53.3319 103.461 53.0436 103.524 52.7188L105.075 52.7237C104.992 53.2242 104.832 53.6849 104.593 54.1058C104.358 54.5234 104.054 54.8847 103.683 55.1896C103.315 55.4912 102.894 55.7249 102.42 55.8906C101.946 56.0563 101.429 56.1392 100.869 56.1392C99.9877 56.1392 99.2022 55.9304 98.5128 55.5128C97.8234 55.0919 97.2798 54.4903 96.8821 53.7081C96.4877 52.9259 96.2905 51.9929 96.2905 50.9091C96.2905 49.822 96.4893 48.889 96.8871 48.1101C97.2848 47.3279 97.8284 46.728 98.5178 46.3104C99.2071 45.8894 99.991 45.679 100.869 45.679C101.41 45.679 101.913 45.7569 102.381 45.9126C102.851 46.0651 103.274 46.2905 103.648 46.5888C104.023 46.8838 104.333 47.245 104.578 47.6726C104.823 48.0968 104.989 48.5824 105.075 49.1293ZM106.794 56V48.3636H108.231V49.5767H108.311C108.45 49.1657 108.695 48.8426 109.046 48.6072C109.401 48.3686 109.802 48.2493 110.249 48.2493C110.342 48.2493 110.452 48.2526 110.578 48.2592C110.707 48.2659 110.808 48.2741 110.881 48.2841V49.706C110.821 49.6894 110.715 49.6712 110.563 49.6513C110.41 49.6281 110.258 49.6165 110.105 49.6165C109.754 49.6165 109.441 49.6911 109.166 49.8402C108.894 49.986 108.678 50.1899 108.519 50.4517C108.36 50.7102 108.281 51.0052 108.281 51.3366V56H106.794ZM115.185 56.1541C114.433 56.1541 113.785 55.9934 113.241 55.6719C112.701 55.3471 112.283 54.8913 111.988 54.3047C111.697 53.7147 111.551 53.0237 111.551 52.2315C111.551 51.4493 111.697 50.7599 111.988 50.1634C112.283 49.5668 112.694 49.1011 113.221 48.7663C113.752 48.4316 114.371 48.2642 115.081 48.2642C115.511 48.2642 115.929 48.3355 116.333 48.478C116.738 48.6205 117.101 48.8442 117.422 49.1491C117.744 49.4541 117.997 49.8501 118.183 50.3374C118.368 50.8213 118.461 51.4096 118.461 52.1023V52.6293H112.391V51.5156H117.005C117.005 51.1245 116.925 50.7782 116.766 50.4766C116.607 50.1716 116.383 49.9313 116.095 49.7557C115.81 49.58 115.475 49.4922 115.091 49.4922C114.673 49.4922 114.308 49.5949 113.997 49.8004C113.689 50.0026 113.45 50.2678 113.281 50.5959C113.115 50.9207 113.032 51.2737 113.032 51.6548V52.5249C113.032 53.0353 113.122 53.4695 113.301 53.8274C113.483 54.1854 113.737 54.4588 114.061 54.6477C114.386 54.8333 114.766 54.9261 115.2 54.9261C115.482 54.9261 115.739 54.8864 115.971 54.8068C116.203 54.724 116.403 54.6013 116.572 54.4389C116.741 54.2765 116.87 54.076 116.96 53.8374L118.367 54.0909C118.254 54.5052 118.052 54.8681 117.76 55.1797C117.472 55.4879 117.109 55.7282 116.672 55.9006C116.237 56.0696 115.742 56.1541 115.185 56.1541ZM122.333 56.169C121.849 56.169 121.412 56.0795 121.02 55.9006C120.629 55.7183 120.319 55.4548 120.091 55.1101C119.865 54.7654 119.753 54.3428 119.753 53.8423C119.753 53.4115 119.836 53.0568 120.001 52.7784C120.167 52.5 120.391 52.2796 120.672 52.1172C120.954 51.9548 121.269 51.8321 121.617 51.7493C121.965 51.6664 122.32 51.6035 122.681 51.5604C123.138 51.5073 123.51 51.4643 123.795 51.4311C124.08 51.3946 124.287 51.3366 124.416 51.2571C124.545 51.1776 124.61 51.0483 124.61 50.8693V50.8345C124.61 50.4003 124.487 50.0639 124.242 49.8253C124 49.5866 123.639 49.4673 123.158 49.4673C122.658 49.4673 122.263 49.5784 121.975 49.8004C121.69 50.0192 121.493 50.2628 121.383 50.5312L119.986 50.2131C120.152 49.7491 120.394 49.3745 120.712 49.0895C121.034 48.8011 121.403 48.5923 121.821 48.4631C122.238 48.3305 122.678 48.2642 123.138 48.2642C123.443 48.2642 123.766 48.3007 124.108 48.3736C124.452 48.4432 124.774 48.5724 125.072 48.7614C125.374 48.9503 125.621 49.2204 125.813 49.5717C126.005 49.9197 126.101 50.3722 126.101 50.929V56H124.65V54.956H124.59C124.494 55.1482 124.35 55.3371 124.157 55.5227C123.965 55.7083 123.718 55.8625 123.417 55.9851C123.115 56.1077 122.754 56.169 122.333 56.169ZM122.656 54.9759C123.067 54.9759 123.418 54.8946 123.71 54.7322C124.005 54.5698 124.229 54.3577 124.381 54.0959C124.537 53.8307 124.615 53.5473 124.615 53.2457V52.2614C124.562 52.3144 124.459 52.3641 124.307 52.4105C124.157 52.4536 123.987 52.4917 123.795 52.5249C123.602 52.5547 123.415 52.5829 123.233 52.6094C123.05 52.6326 122.898 52.6525 122.775 52.669C122.487 52.7055 122.224 52.7668 121.985 52.853C121.75 52.9392 121.561 53.0634 121.418 53.2259C121.279 53.3849 121.209 53.5971 121.209 53.8622C121.209 54.2301 121.345 54.5085 121.617 54.6974C121.889 54.883 122.235 54.9759 122.656 54.9759ZM131.646 48.3636V49.5568H127.475V48.3636H131.646ZM128.593 46.5341H130.08V53.7578C130.08 54.0462 130.123 54.2633 130.209 54.4091C130.295 54.5516 130.406 54.6494 130.542 54.7024C130.681 54.7521 130.832 54.777 130.995 54.777C131.114 54.777 131.218 54.7687 131.308 54.7521C131.397 54.7356 131.467 54.7223 131.517 54.7124L131.785 55.9403C131.699 55.9735 131.576 56.0066 131.417 56.0398C131.258 56.0762 131.059 56.0961 130.821 56.0994C130.43 56.1061 130.065 56.0365 129.727 55.8906C129.389 55.7448 129.115 55.5194 128.907 55.2145C128.698 54.9096 128.593 54.5268 128.593 54.0661V46.5341ZM136.499 56.1541C135.747 56.1541 135.099 55.9934 134.556 55.6719C134.015 55.3471 133.598 54.8913 133.303 54.3047C133.011 53.7147 132.865 53.0237 132.865 52.2315C132.865 51.4493 133.011 50.7599 133.303 50.1634C133.598 49.5668 134.009 49.1011 134.536 48.7663C135.066 48.4316 135.686 48.2642 136.395 48.2642C136.826 48.2642 137.244 48.3355 137.648 48.478C138.052 48.6205 138.415 48.8442 138.737 49.1491C139.058 49.4541 139.312 49.8501 139.497 50.3374C139.683 50.8213 139.776 51.4096 139.776 52.1023V52.6293H133.705V51.5156H138.319C138.319 51.1245 138.24 50.7782 138.08 50.4766C137.921 50.1716 137.698 49.9313 137.409 49.7557C137.124 49.58 136.789 49.4922 136.405 49.4922C135.987 49.4922 135.623 49.5949 135.311 49.8004C135.003 50.0026 134.764 50.2678 134.595 50.5959C134.43 50.9207 134.347 51.2737 134.347 51.6548V52.5249C134.347 53.0353 134.436 53.4695 134.615 53.8274C134.798 54.1854 135.051 54.4588 135.376 54.6477C135.701 54.8333 136.08 54.9261 136.514 54.9261C136.796 54.9261 137.053 54.8864 137.285 54.8068C137.517 54.724 137.718 54.6013 137.887 54.4389C138.056 54.2765 138.185 54.076 138.274 53.8374L139.681 54.0909C139.569 54.5052 139.366 54.8681 139.075 55.1797C138.786 55.4879 138.423 55.7282 137.986 55.9006C137.552 56.0696 137.056 56.1541 136.499 56.1541ZM145.249 45.8182H147.114L150.355 53.733H150.475L153.716 45.8182H155.58V56H154.119V48.6321H154.024L151.021 55.9851H149.808L146.806 48.6271H146.711V56H145.249V45.8182ZM160.986 56.1541C160.233 56.1541 159.585 55.9934 159.042 55.6719C158.502 55.3471 158.084 54.8913 157.789 54.3047C157.497 53.7147 157.352 53.0237 157.352 52.2315C157.352 51.4493 157.497 50.7599 157.789 50.1634C158.084 49.5668 158.495 49.1011 159.022 48.7663C159.552 48.4316 160.172 48.2642 160.881 48.2642C161.312 48.2642 161.73 48.3355 162.134 48.478C162.539 48.6205 162.902 48.8442 163.223 49.1491C163.545 49.4541 163.798 49.8501 163.984 50.3374C164.169 50.8213 164.262 51.4096 164.262 52.1023V52.6293H158.192V51.5156H162.805C162.805 51.1245 162.726 50.7782 162.567 50.4766C162.408 50.1716 162.184 49.9313 161.896 49.7557C161.611 49.58 161.276 49.4922 160.891 49.4922C160.474 49.4922 160.109 49.5949 159.798 49.8004C159.489 50.0026 159.251 50.2678 159.082 50.5959C158.916 50.9207 158.833 51.2737 158.833 51.6548V52.5249C158.833 53.0353 158.923 53.4695 159.102 53.8274C159.284 54.1854 159.537 54.4588 159.862 54.6477C160.187 54.8333 160.567 54.9261 161.001 54.9261C161.282 54.9261 161.539 54.8864 161.771 54.8068C162.003 54.724 162.204 54.6013 162.373 54.4389C162.542 54.2765 162.671 54.076 162.761 53.8374L164.168 54.0909C164.055 54.5052 163.853 54.8681 163.561 55.1797C163.273 55.4879 162.91 55.7282 162.472 55.9006C162.038 56.0696 161.543 56.1541 160.986 56.1541ZM169.203 56.1541C168.45 56.1541 167.802 55.9934 167.259 55.6719C166.718 55.3471 166.301 54.8913 166.006 54.3047C165.714 53.7147 165.568 53.0237 165.568 52.2315C165.568 51.4493 165.714 50.7599 166.006 50.1634C166.301 49.5668 166.712 49.1011 167.239 48.7663C167.769 48.4316 168.389 48.2642 169.098 48.2642C169.529 48.2642 169.947 48.3355 170.351 48.478C170.755 48.6205 171.118 48.8442 171.44 49.1491C171.761 49.4541 172.015 49.8501 172.2 50.3374C172.386 50.8213 172.479 51.4096 172.479 52.1023V52.6293H166.409V51.5156H171.022C171.022 51.1245 170.943 50.7782 170.784 50.4766C170.624 50.1716 170.401 49.9313 170.112 49.7557C169.827 49.58 169.493 49.4922 169.108 49.4922C168.691 49.4922 168.326 49.5949 168.014 49.8004C167.706 50.0026 167.468 50.2678 167.298 50.5959C167.133 50.9207 167.05 51.2737 167.05 51.6548V52.5249C167.05 53.0353 167.139 53.4695 167.318 53.8274C167.501 54.1854 167.754 54.4588 168.079 54.6477C168.404 54.8333 168.783 54.9261 169.218 54.9261C169.499 54.9261 169.756 54.8864 169.988 54.8068C170.22 54.724 170.421 54.6013 170.59 54.4389C170.759 54.2765 170.888 54.076 170.977 53.8374L172.384 54.0909C172.272 54.5052 172.07 54.8681 171.778 55.1797C171.49 55.4879 171.127 55.7282 170.689 55.9006C170.255 56.0696 169.759 56.1541 169.203 56.1541ZM177.693 48.3636V49.5568H173.522V48.3636H177.693ZM174.64 46.5341H176.127V53.7578C176.127 54.0462 176.17 54.2633 176.256 54.4091C176.342 54.5516 176.453 54.6494 176.589 54.7024C176.728 54.7521 176.879 54.777 177.042 54.777C177.161 54.777 177.265 54.7687 177.355 54.7521C177.444 54.7356 177.514 54.7223 177.564 54.7124L177.832 55.9403C177.746 55.9735 177.623 56.0066 177.464 56.0398C177.305 56.0762 177.106 56.0961 176.868 56.0994C176.476 56.1061 176.112 56.0365 175.774 55.8906C175.436 55.7448 175.162 55.5194 174.953 55.2145C174.745 54.9096 174.64 54.5268 174.64 54.0661V46.5341ZM179.337 56V48.3636H180.824V56H179.337ZM180.088 47.1854C179.829 47.1854 179.607 47.0992 179.422 46.9268C179.239 46.7512 179.148 46.5424 179.148 46.3004C179.148 46.0552 179.239 45.8464 179.422 45.674C179.607 45.4983 179.829 45.4105 180.088 45.4105C180.346 45.4105 180.567 45.4983 180.749 45.674C180.935 45.8464 181.028 46.0552 181.028 46.3004C181.028 46.5424 180.935 46.7512 180.749 46.9268C180.567 47.0992 180.346 47.1854 180.088 47.1854ZM184.31 51.4659V56H182.824V48.3636H184.25V49.6065H184.345C184.52 49.2022 184.796 48.8774 185.17 48.6321C185.548 48.3868 186.024 48.2642 186.597 48.2642C187.117 48.2642 187.573 48.3736 187.964 48.5923C188.355 48.8078 188.658 49.1293 188.874 49.5568C189.089 49.9844 189.197 50.513 189.197 51.1428V56H187.711V51.3217C187.711 50.7682 187.566 50.3357 187.278 50.0241C186.99 49.7093 186.594 49.5518 186.09 49.5518C185.745 49.5518 185.439 49.6264 185.17 49.7756C184.905 49.9247 184.694 50.1435 184.539 50.4318C184.386 50.7169 184.31 51.0616 184.31 51.4659ZM194.392 59.0227C193.786 59.0227 193.264 58.9432 192.826 58.7841C192.392 58.625 192.038 58.4145 191.762 58.1527C191.487 57.8909 191.282 57.6042 191.146 57.2926L192.424 56.7656C192.513 56.9115 192.632 57.0656 192.782 57.228C192.934 57.3937 193.14 57.5346 193.398 57.6506C193.66 57.7666 193.996 57.8246 194.407 57.8246C194.971 57.8246 195.436 57.687 195.804 57.4119C196.172 57.1402 196.356 56.706 196.356 56.1094V54.608H196.262C196.172 54.7704 196.043 54.951 195.874 55.1499C195.708 55.3487 195.48 55.5211 195.188 55.6669C194.896 55.8127 194.517 55.8857 194.049 55.8857C193.446 55.8857 192.903 55.7448 192.419 55.4631C191.938 55.178 191.557 54.7588 191.275 54.2053C190.997 53.6484 190.858 52.964 190.858 52.152C190.858 51.34 190.995 50.6439 191.27 50.0639C191.549 49.4839 191.93 49.0398 192.414 48.7315C192.898 48.42 193.446 48.2642 194.059 48.2642C194.533 48.2642 194.916 48.3438 195.208 48.5028C195.499 48.6586 195.726 48.8409 195.889 49.0497C196.055 49.2585 196.182 49.4425 196.272 49.6016H196.381V48.3636H197.838V56.169C197.838 56.8253 197.685 57.3639 197.38 57.7848C197.075 58.2057 196.663 58.5173 196.142 58.7195C195.625 58.9216 195.042 59.0227 194.392 59.0227ZM194.377 54.6527C194.805 54.6527 195.166 54.5533 195.461 54.3544C195.76 54.1522 195.985 53.8639 196.137 53.4893C196.293 53.1115 196.371 52.6591 196.371 52.1321C196.371 51.6184 196.295 51.166 196.142 50.7749C195.99 50.3838 195.766 50.0788 195.471 49.8601C195.176 49.638 194.812 49.527 194.377 49.527C193.93 49.527 193.557 49.643 193.259 49.875C192.961 50.1037 192.735 50.4152 192.583 50.8097C192.434 51.2041 192.359 51.6449 192.359 52.1321C192.359 52.6326 192.435 53.0717 192.588 53.4496C192.74 53.8274 192.966 54.1224 193.264 54.3345C193.565 54.5466 193.937 54.6527 194.377 54.6527Z" fill="#0E121B"/>
<path d="M358 46.5L349 55.5" stroke="#525866" stroke-width="1.5" stroke-linecap="round" stroke-linejoin="round"/>
<path d="M358 55.5L349 46.5" stroke="#525866" stroke-width="1.5" stroke-linecap="round" stroke-linejoin="round"/>
<rect width="294" height="158" transform="translate(81.5 72)" fill="white"/>
<path d="M101.219 93.5653C101.173 93.1619 100.986 92.8494 100.656 92.6278C100.327 92.4034 99.9119 92.2912 99.4119 92.2912C99.054 92.2912 98.7443 92.348 98.483 92.4616C98.2216 92.5724 98.0185 92.7259 97.8736 92.9219C97.7315 93.1151 97.6605 93.3352 97.6605 93.5824C97.6605 93.7898 97.7088 93.9687 97.8054 94.1193C97.9048 94.2699 98.0341 94.3963 98.1932 94.4986C98.3551 94.598 98.5284 94.6818 98.7131 94.75C98.8977 94.8153 99.0753 94.8693 99.2457 94.9119L100.098 95.1335C100.376 95.2017 100.662 95.294 100.955 95.4105C101.247 95.527 101.518 95.6804 101.768 95.8707C102.018 96.0611 102.22 96.2969 102.374 96.5781C102.53 96.8594 102.608 97.196 102.608 97.5881C102.608 98.0824 102.48 98.5213 102.224 98.9048C101.972 99.2884 101.604 99.5909 101.121 99.8125C100.641 100.034 100.06 100.145 99.3778 100.145C98.7244 100.145 98.1591 100.041 97.6818 99.8338C97.2045 99.6264 96.831 99.3324 96.5611 98.9517C96.2912 98.5682 96.142 98.1136 96.1136 97.5881H97.4347C97.4602 97.9034 97.5625 98.1662 97.7415 98.3764C97.9233 98.5838 98.1548 98.7386 98.4361 98.8409C98.7202 98.9403 99.0312 98.9901 99.3693 98.9901C99.7415 98.9901 100.072 98.9318 100.362 98.8153C100.655 98.696 100.885 98.5312 101.053 98.321C101.22 98.108 101.304 97.8594 101.304 97.5753C101.304 97.3168 101.23 97.1051 101.082 96.9403C100.938 96.7756 100.74 96.6392 100.49 96.5312C100.243 96.4233 99.9631 96.3281 99.6506 96.2457L98.6193 95.9645C97.9205 95.7741 97.3665 95.4943 96.9574 95.125C96.5511 94.7557 96.348 94.267 96.348 93.6591C96.348 93.1562 96.4844 92.7173 96.7571 92.3423C97.0298 91.9673 97.3991 91.6761 97.8651 91.4688C98.331 91.2585 98.8565 91.1534 99.4418 91.1534C100.033 91.1534 100.554 91.2571 101.006 91.4645C101.46 91.6719 101.818 91.9574 102.08 92.321C102.341 92.6818 102.477 93.0966 102.489 93.5653H101.219ZM107.135 93.4545V94.4773H103.559V93.4545H107.135ZM104.518 91.8864H105.792V98.0781C105.792 98.3253 105.829 98.5114 105.903 98.6364C105.977 98.7585 106.072 98.8423 106.189 98.8878C106.308 98.9304 106.437 98.9517 106.576 98.9517C106.679 98.9517 106.768 98.9446 106.845 98.9304C106.922 98.9162 106.981 98.9048 107.024 98.8963L107.254 99.9489C107.18 99.9773 107.075 100.006 106.939 100.034C106.802 100.065 106.632 100.082 106.427 100.085C106.092 100.091 105.779 100.031 105.49 99.9062C105.2 99.7812 104.966 99.5881 104.787 99.3267C104.608 99.0653 104.518 98.7372 104.518 98.3423V91.8864ZM110.449 100.145C110.034 100.145 109.659 100.068 109.324 99.9148C108.989 99.7585 108.723 99.5327 108.527 99.2372C108.334 98.9418 108.237 98.5795 108.237 98.1506C108.237 97.7812 108.308 97.4773 108.45 97.2386C108.592 97 108.784 96.8111 109.026 96.6719C109.267 96.5327 109.537 96.4276 109.835 96.3565C110.134 96.2855 110.438 96.2315 110.747 96.1946C111.139 96.1491 111.457 96.1122 111.702 96.0838C111.946 96.0526 112.124 96.0028 112.234 95.9347C112.345 95.8665 112.401 95.7557 112.401 95.6023V95.5724C112.401 95.2003 112.295 94.9119 112.085 94.7074C111.878 94.5028 111.568 94.4006 111.156 94.4006C110.727 94.4006 110.389 94.4957 110.142 94.6861C109.898 94.8736 109.729 95.0824 109.635 95.3125L108.438 95.0398C108.58 94.642 108.787 94.321 109.06 94.0767C109.335 93.8295 109.652 93.6506 110.01 93.5398C110.368 93.4261 110.744 93.3693 111.139 93.3693C111.401 93.3693 111.678 93.4006 111.97 93.4631C112.266 93.5227 112.541 93.6335 112.797 93.7955C113.055 93.9574 113.267 94.1889 113.432 94.4901C113.597 94.7884 113.679 95.1761 113.679 95.6534V100H112.435V99.1051H112.384C112.301 99.2699 112.178 99.4318 112.013 99.5909C111.848 99.75 111.636 99.8821 111.378 99.9872C111.119 100.092 110.81 100.145 110.449 100.145ZM110.726 99.1222C111.078 99.1222 111.379 99.0526 111.629 98.9134C111.882 98.7741 112.074 98.5923 112.205 98.3679C112.338 98.1406 112.405 97.8977 112.405 97.6392V96.7955C112.359 96.8409 112.271 96.8835 112.141 96.9233C112.013 96.9602 111.866 96.9929 111.702 97.0213C111.537 97.0469 111.376 97.071 111.22 97.0938C111.064 97.1136 110.933 97.1307 110.828 97.1449C110.581 97.1761 110.355 97.2287 110.151 97.3026C109.949 97.3764 109.787 97.483 109.665 97.6222C109.545 97.7585 109.486 97.9403 109.486 98.1676C109.486 98.483 109.602 98.7216 109.835 98.8835C110.068 99.0426 110.365 99.1222 110.726 99.1222ZM115.376 100V93.4545H116.608V94.4943H116.676C116.795 94.142 117.005 93.8651 117.306 93.6634C117.61 93.4588 117.954 93.3565 118.338 93.3565C118.417 93.3565 118.511 93.3594 118.619 93.3651C118.73 93.3707 118.816 93.3778 118.879 93.3864V94.6051C118.828 94.5909 118.737 94.5753 118.606 94.5582C118.475 94.5384 118.345 94.5284 118.214 94.5284C117.913 94.5284 117.645 94.5923 117.409 94.7202C117.176 94.8452 116.991 95.0199 116.855 95.2443C116.718 95.4659 116.65 95.7187 116.65 96.0028V100H115.376ZM123.424 93.4545V94.4773H119.848V93.4545H123.424ZM120.807 91.8864H122.081V98.0781C122.081 98.3253 122.118 98.5114 122.192 98.6364C122.266 98.7585 122.361 98.8423 122.478 98.8878C122.597 98.9304 122.726 98.9517 122.865 98.9517C122.968 98.9517 123.057 98.9446 123.134 98.9304C123.211 98.9162 123.27 98.9048 123.313 98.8963L123.543 99.9489C123.469 99.9773 123.364 100.006 123.228 100.034C123.091 100.065 122.921 100.082 122.716 100.085C122.381 100.091 122.069 100.031 121.779 99.9062C121.489 99.7812 121.255 99.5881 121.076 99.3267C120.897 99.0653 120.807 98.7372 120.807 98.3423V91.8864ZM124.833 100V93.4545H126.107V100H124.833ZM125.477 92.4446C125.255 92.4446 125.065 92.3707 124.906 92.223C124.749 92.0724 124.671 91.8935 124.671 91.6861C124.671 91.4759 124.749 91.2969 124.906 91.1491C125.065 90.9986 125.255 90.9233 125.477 90.9233C125.698 90.9233 125.887 90.9986 126.043 91.1491C126.202 91.2969 126.282 91.4759 126.282 91.6861C126.282 91.8935 126.202 92.0724 126.043 92.223C125.887 92.3707 125.698 92.4446 125.477 92.4446ZM129.096 96.1136V100H127.821V93.4545H129.044V94.5199H129.125C129.276 94.1733 129.512 93.8949 129.833 93.6847C130.157 93.4744 130.564 93.3693 131.056 93.3693C131.502 93.3693 131.892 93.4631 132.228 93.6506C132.563 93.8352 132.823 94.1108 133.007 94.4773C133.192 94.8437 133.284 95.2969 133.284 95.8366V100H132.01V95.9901C132.01 95.5156 131.887 95.1449 131.64 94.8778C131.392 94.608 131.053 94.473 130.621 94.473C130.326 94.473 130.063 94.5369 129.833 94.6648C129.605 94.7926 129.425 94.9801 129.292 95.2273C129.161 95.4716 129.096 95.767 129.096 96.1136ZM137.738 102.591C137.218 102.591 136.77 102.523 136.395 102.386C136.023 102.25 135.719 102.07 135.483 101.845C135.248 101.621 135.071 101.375 134.955 101.108L136.05 100.656C136.127 100.781 136.229 100.913 136.357 101.053C136.488 101.195 136.664 101.315 136.885 101.415C137.11 101.514 137.398 101.564 137.75 101.564C138.233 101.564 138.632 101.446 138.948 101.21C139.263 100.977 139.421 100.605 139.421 100.094V98.8068H139.34C139.263 98.946 139.152 99.1009 139.007 99.2713C138.865 99.4418 138.669 99.5895 138.419 99.7145C138.169 99.8395 137.844 99.902 137.444 99.902C136.926 99.902 136.461 99.7812 136.046 99.5398C135.634 99.2955 135.307 98.9361 135.066 98.4616C134.827 97.9844 134.708 97.3977 134.708 96.7017C134.708 96.0057 134.826 95.4091 135.061 94.9119C135.3 94.4148 135.627 94.0341 136.042 93.7699C136.456 93.5028 136.926 93.3693 137.452 93.3693C137.858 93.3693 138.186 93.4375 138.436 93.5739C138.686 93.7074 138.881 93.8636 139.02 94.0426C139.162 94.2216 139.272 94.3793 139.348 94.5156H139.442V93.4545H140.691V100.145C140.691 100.707 140.56 101.169 140.299 101.53C140.037 101.891 139.684 102.158 139.238 102.331C138.794 102.504 138.294 102.591 137.738 102.591ZM137.725 98.8452C138.091 98.8452 138.401 98.7599 138.654 98.5895C138.909 98.4162 139.103 98.169 139.233 97.848C139.367 97.5241 139.434 97.1364 139.434 96.6847C139.434 96.2443 139.368 95.8565 139.238 95.5213C139.107 95.1861 138.915 94.9247 138.662 94.7372C138.409 94.5469 138.097 94.4517 137.725 94.4517C137.341 94.4517 137.022 94.5511 136.766 94.75C136.51 94.946 136.317 95.2131 136.186 95.5511C136.059 95.8892 135.995 96.267 135.995 96.6847C135.995 97.1136 136.06 97.4901 136.191 97.8139C136.321 98.1378 136.515 98.3906 136.77 98.5724C137.029 98.7543 137.347 98.8452 137.725 98.8452ZM148.332 100.132C147.719 100.132 147.183 99.9915 146.726 99.7102C146.268 99.429 145.913 99.0355 145.661 98.5298C145.408 98.0241 145.281 97.4332 145.281 96.7571C145.281 96.0781 145.408 95.4844 145.661 94.9759C145.913 94.4673 146.268 94.0724 146.726 93.7912C147.183 93.5099 147.719 93.3693 148.332 93.3693C148.946 93.3693 149.482 93.5099 149.939 93.7912C150.396 94.0724 150.751 94.4673 151.004 94.9759C151.257 95.4844 151.384 96.0781 151.384 96.7571C151.384 97.4332 151.257 98.0241 151.004 98.5298C150.751 99.0355 150.396 99.429 149.939 99.7102C149.482 99.9915 148.946 100.132 148.332 100.132ZM148.337 99.0625C148.734 99.0625 149.064 98.9574 149.325 98.7472C149.587 98.5369 149.78 98.2571 149.905 97.9077C150.033 97.5582 150.097 97.1733 150.097 96.7528C150.097 96.3352 150.033 95.9517 149.905 95.6023C149.78 95.25 149.587 94.9673 149.325 94.7543C149.064 94.5412 148.734 94.4347 148.337 94.4347C147.936 94.4347 147.604 94.5412 147.339 94.7543C147.078 94.9673 146.884 95.25 146.756 95.6023C146.631 95.9517 146.568 96.3352 146.568 96.7528C146.568 97.1733 146.631 97.5582 146.756 97.9077C146.884 98.2571 147.078 98.5369 147.339 98.7472C147.604 98.9574 147.936 99.0625 148.337 99.0625ZM154.08 96.1136V100H152.806V93.4545H154.029V94.5199H154.11C154.26 94.1733 154.496 93.8949 154.817 93.6847C155.141 93.4744 155.549 93.3693 156.04 93.3693C156.486 93.3693 156.877 93.4631 157.212 93.6506C157.547 93.8352 157.807 94.1108 157.992 94.4773C158.176 94.8437 158.269 95.2969 158.269 95.8366V100H156.995V95.9901C156.995 95.5156 156.871 95.1449 156.624 94.8778C156.377 94.608 156.037 94.473 155.605 94.473C155.31 94.473 155.047 94.5369 154.817 94.6648C154.59 94.7926 154.409 94.9801 154.276 95.2273C154.145 95.4716 154.08 95.767 154.08 96.1136Z" fill="#717784"/>
<g clip-path="url(#clip2_7841_8336)">
<mask id="path-204-inside-2_7841_8336" fill="white">
<path d="M95.5 111H302.5V145H95.5V111Z"/>
</mask>
<path d="M95.5 111H302.5V145H95.5V111Z" fill="white"/>
<path d="M302.5 111H301.5V145H302.5H303.5V111H302.5Z" fill="#E5E7EB" mask="url(#path-204-inside-2_7841_8336)"/>
<path d="M108.733 122.818H110.205L113.665 131.27H113.784L117.244 122.818H118.716V133H117.562V125.264H117.463L114.281 133H113.168L109.986 125.264H109.886V133H108.733V122.818ZM124.131 133.159C123.442 133.159 122.837 132.995 122.317 132.667C121.8 132.339 121.395 131.88 121.104 131.29C120.815 130.7 120.671 130.01 120.671 129.222C120.671 128.426 120.815 127.732 121.104 127.138C121.395 126.545 121.8 126.085 122.317 125.756C122.837 125.428 123.442 125.264 124.131 125.264C124.821 125.264 125.424 125.428 125.941 125.756C126.461 126.085 126.866 126.545 127.154 127.138C127.446 127.732 127.591 128.426 127.591 129.222C127.591 130.01 127.446 130.7 127.154 131.29C126.866 131.88 126.461 132.339 125.941 132.667C125.424 132.995 124.821 133.159 124.131 133.159ZM124.131 132.105C124.655 132.105 125.086 131.971 125.424 131.702C125.762 131.434 126.012 131.081 126.175 130.643C126.337 130.206 126.418 129.732 126.418 129.222C126.418 128.711 126.337 128.236 126.175 127.795C126.012 127.354 125.762 126.998 125.424 126.726C125.086 126.454 124.655 126.318 124.131 126.318C123.608 126.318 123.177 126.454 122.839 126.726C122.501 126.998 122.25 127.354 122.088 127.795C121.925 128.236 121.844 128.711 121.844 129.222C121.844 129.732 121.925 130.206 122.088 130.643C122.25 131.081 122.501 131.434 122.839 131.702C123.177 131.971 123.608 132.105 124.131 132.105ZM130.556 128.406V133H129.382V125.364H130.516V126.557H130.615C130.794 126.169 131.066 125.857 131.431 125.622C131.795 125.384 132.266 125.264 132.843 125.264C133.36 125.264 133.812 125.37 134.2 125.582C134.588 125.791 134.889 126.109 135.105 126.537C135.32 126.961 135.428 127.498 135.428 128.148V133H134.255V128.227C134.255 127.627 134.099 127.16 133.787 126.825C133.476 126.487 133.048 126.318 132.505 126.318C132.13 126.318 131.795 126.399 131.5 126.562C131.209 126.724 130.978 126.961 130.809 127.273C130.64 127.584 130.556 127.962 130.556 128.406ZM139.322 131.608L139.242 132.145C139.186 132.523 139.1 132.927 138.984 133.358C138.871 133.789 138.753 134.195 138.631 134.576C138.508 134.957 138.407 135.26 138.328 135.486H137.433C137.476 135.274 137.532 134.994 137.602 134.646C137.671 134.298 137.741 133.908 137.811 133.477C137.883 133.05 137.943 132.612 137.99 132.165L138.049 131.608H139.322ZM145.592 122.818H147.064L150.524 131.27H150.643L154.104 122.818H155.575V133H154.422V125.264H154.322L151.141 133H150.027L146.845 125.264H146.746V133H145.592V122.818ZM160.135 133.179C159.652 133.179 159.212 133.088 158.818 132.906C158.424 132.72 158.11 132.453 157.878 132.105C157.646 131.754 157.53 131.33 157.53 130.832C157.53 130.395 157.617 130.04 157.789 129.768C157.961 129.493 158.192 129.278 158.48 129.122C158.768 128.966 159.086 128.85 159.434 128.774C159.786 128.695 160.139 128.632 160.493 128.585C160.957 128.526 161.334 128.481 161.622 128.451C161.914 128.418 162.126 128.363 162.258 128.287C162.394 128.211 162.462 128.078 162.462 127.889V127.849C162.462 127.359 162.328 126.978 162.059 126.706C161.794 126.434 161.392 126.298 160.851 126.298C160.291 126.298 159.852 126.421 159.534 126.666C159.216 126.911 158.992 127.173 158.863 127.452L157.749 127.054C157.948 126.59 158.213 126.229 158.545 125.97C158.879 125.708 159.244 125.526 159.638 125.423C160.036 125.317 160.427 125.264 160.812 125.264C161.057 125.264 161.339 125.294 161.657 125.354C161.978 125.41 162.288 125.528 162.586 125.707C162.888 125.886 163.138 126.156 163.337 126.517C163.536 126.878 163.635 127.362 163.635 127.969V133H162.462V131.966H162.403C162.323 132.132 162.19 132.309 162.005 132.498C161.819 132.687 161.572 132.848 161.264 132.98C160.956 133.113 160.58 133.179 160.135 133.179ZM160.314 132.125C160.778 132.125 161.17 132.034 161.488 131.852C161.809 131.669 162.051 131.434 162.214 131.146C162.379 130.857 162.462 130.554 162.462 130.236V129.162C162.412 129.222 162.303 129.276 162.134 129.326C161.968 129.372 161.776 129.414 161.557 129.45C161.342 129.483 161.131 129.513 160.926 129.54C160.724 129.563 160.56 129.583 160.434 129.599C160.129 129.639 159.844 129.704 159.579 129.793C159.317 129.879 159.105 130.01 158.942 130.186C158.783 130.358 158.704 130.594 158.704 130.892C158.704 131.3 158.854 131.608 159.156 131.817C159.461 132.022 159.847 132.125 160.314 132.125ZM165.777 133V125.364H166.911V126.517H166.99C167.129 126.139 167.381 125.833 167.746 125.597C168.11 125.362 168.521 125.244 168.979 125.244C169.065 125.244 169.173 125.246 169.302 125.249C169.431 125.253 169.529 125.258 169.595 125.264V126.457C169.555 126.447 169.464 126.433 169.322 126.413C169.183 126.389 169.035 126.378 168.879 126.378C168.508 126.378 168.177 126.456 167.885 126.612C167.597 126.764 167.368 126.976 167.199 127.248C167.033 127.516 166.95 127.823 166.95 128.168V133H165.777ZM178.483 122.818V133H177.25V124.111H177.191L174.705 125.761V124.509L177.25 122.818H178.483ZM181.73 133L186.284 123.991V123.912H181.034V122.818H187.556V123.972L183.022 133H181.73Z" fill="#181B25"/>
<mask id="path-207-inside-3_7841_8336" fill="white">
<path d="M302.5 111H361.5V145H302.5V111Z"/>
</mask>
<path d="M302.5 111H361.5V145H302.5V111Z" fill="white"/>
<path d="M361.5 111H360.5V145H361.5H362.5V111H361.5Z" fill="#E5E7EB" mask="url(#path-207-inside-3_7841_8336)"/>
<path d="M319.134 122.818V133H317.901V124.111H317.841L315.355 125.761V124.509L317.901 122.818H319.134ZM325.641 122.818V133H324.408V124.111H324.349L321.863 125.761V124.509L324.408 122.818H325.641ZM329.445 131.697C329.199 131.697 328.989 131.61 328.813 131.434C328.638 131.258 328.55 131.048 328.55 130.803C328.55 130.557 328.638 130.347 328.813 130.171C328.989 129.996 329.199 129.908 329.445 129.908C329.69 129.908 329.9 129.996 330.076 130.171C330.252 130.347 330.339 130.557 330.339 130.803C330.339 130.965 330.298 131.114 330.215 131.25C330.136 131.386 330.028 131.495 329.892 131.578C329.759 131.658 329.61 131.697 329.445 131.697ZM329.445 126.547C329.199 126.547 328.989 126.459 328.813 126.283C328.638 126.108 328.55 125.897 328.55 125.652C328.55 125.407 328.638 125.196 328.813 125.021C328.989 124.845 329.199 124.757 329.445 124.757C329.69 124.757 329.9 124.845 330.076 125.021C330.252 125.196 330.339 125.407 330.339 125.652C330.339 125.814 330.298 125.964 330.215 126.099C330.136 126.235 330.028 126.345 329.892 126.428C329.759 126.507 329.61 126.547 329.445 126.547ZM335.746 133.139C334.997 133.139 334.359 132.935 333.832 132.528C333.305 132.117 332.902 131.522 332.624 130.743C332.346 129.961 332.206 129.016 332.206 127.909C332.206 126.809 332.346 125.869 332.624 125.09C332.906 124.308 333.31 123.711 333.837 123.3C334.367 122.886 335.004 122.679 335.746 122.679C336.489 122.679 337.123 122.886 337.65 123.3C338.181 123.711 338.585 124.308 338.863 125.09C339.145 125.869 339.286 126.809 339.286 127.909C339.286 129.016 339.147 129.961 338.868 130.743C338.59 131.522 338.187 132.117 337.66 132.528C337.133 132.935 336.495 133.139 335.746 133.139ZM335.746 132.045C336.489 132.045 337.065 131.687 337.476 130.972C337.887 130.256 338.093 129.235 338.093 127.909C338.093 127.027 337.998 126.277 337.809 125.657C337.624 125.037 337.355 124.565 337.004 124.24C336.656 123.915 336.237 123.753 335.746 123.753C335.01 123.753 334.435 124.116 334.021 124.842C333.607 125.564 333.4 126.587 333.4 127.909C333.4 128.791 333.492 129.54 333.678 130.156C333.864 130.773 334.13 131.242 334.478 131.563C334.83 131.885 335.252 132.045 335.746 132.045ZM344.496 133.139C343.747 133.139 343.109 132.935 342.582 132.528C342.055 132.117 341.652 131.522 341.374 130.743C341.096 129.961 340.956 129.016 340.956 127.909C340.956 126.809 341.096 125.869 341.374 125.09C341.656 124.308 342.06 123.711 342.587 123.3C343.117 122.886 343.754 122.679 344.496 122.679C345.239 122.679 345.873 122.886 346.4 123.3C346.931 123.711 347.335 124.308 347.613 125.09C347.895 125.869 348.036 126.809 348.036 127.909C348.036 129.016 347.897 129.961 347.618 130.743C347.34 131.522 346.937 132.117 346.41 132.528C345.883 132.935 345.245 133.139 344.496 133.139ZM344.496 132.045C345.239 132.045 345.815 131.687 346.226 130.972C346.637 130.256 346.843 129.235 346.843 127.909C346.843 127.027 346.748 126.277 346.559 125.657C346.374 125.037 346.105 124.565 345.754 124.24C345.406 123.915 344.987 123.753 344.496 123.753C343.76 123.753 343.185 124.116 342.771 124.842C342.357 125.564 342.15 126.587 342.15 127.909C342.15 128.791 342.242 129.54 342.428 130.156C342.614 130.773 342.88 131.242 343.228 131.563C343.58 131.885 344.002 132.045 344.496 132.045Z" fill="#181B25"/>
</g>
<rect x="96" y="111.5" width="265" height="33" rx="7.5" stroke="#E5E7EB"/>
<path d="M96.4588 173V164.273H99.5696C100.246 164.273 100.807 164.389 101.253 164.622C101.702 164.855 102.037 165.178 102.259 165.589C102.48 165.999 102.591 166.472 102.591 167.009C102.591 167.543 102.479 168.013 102.254 168.419C102.033 168.822 101.697 169.136 101.249 169.361C100.803 169.585 100.241 169.697 99.5653 169.697H97.2088V168.564H99.446C99.8722 168.564 100.219 168.503 100.486 168.381C100.756 168.259 100.953 168.081 101.078 167.848C101.203 167.615 101.266 167.335 101.266 167.009C101.266 166.679 101.202 166.393 101.074 166.152C100.949 165.911 100.751 165.726 100.482 165.598C100.214 165.467 99.8636 165.402 99.429 165.402H97.7756V173H96.4588ZM100.767 169.062L102.923 173H101.423L99.3097 169.062H100.767ZM106.83 173.132C106.185 173.132 105.63 172.994 105.164 172.719C104.701 172.44 104.343 172.05 104.09 171.547C103.84 171.041 103.715 170.449 103.715 169.77C103.715 169.099 103.84 168.509 104.09 167.997C104.343 167.486 104.695 167.087 105.147 166.8C105.601 166.513 106.132 166.369 106.74 166.369C107.11 166.369 107.468 166.43 107.814 166.553C108.161 166.675 108.472 166.866 108.748 167.128C109.023 167.389 109.24 167.729 109.4 168.146C109.559 168.561 109.638 169.065 109.638 169.659V170.111H104.435V169.156H108.39C108.39 168.821 108.321 168.524 108.185 168.266C108.049 168.004 107.857 167.798 107.61 167.648C107.365 167.497 107.078 167.422 106.749 167.422C106.391 167.422 106.078 167.51 105.811 167.686C105.547 167.859 105.343 168.087 105.198 168.368C105.056 168.646 104.985 168.949 104.985 169.276V170.021C104.985 170.459 105.061 170.831 105.215 171.138C105.371 171.445 105.588 171.679 105.867 171.841C106.145 172 106.471 172.08 106.843 172.08C107.084 172.08 107.304 172.045 107.503 171.977C107.702 171.906 107.874 171.801 108.019 171.662C108.164 171.523 108.275 171.351 108.351 171.146L109.557 171.364C109.461 171.719 109.287 172.03 109.037 172.297C108.79 172.561 108.479 172.767 108.104 172.915C107.732 173.06 107.307 173.132 106.83 173.132ZM111.052 175.455V166.455H112.296V167.516H112.403C112.477 167.379 112.583 167.222 112.722 167.043C112.862 166.864 113.055 166.707 113.302 166.574C113.549 166.438 113.876 166.369 114.282 166.369C114.81 166.369 115.282 166.503 115.697 166.77C116.112 167.037 116.437 167.422 116.673 167.925C116.911 168.428 117.031 169.033 117.031 169.74C117.031 170.447 116.913 171.054 116.677 171.56C116.441 172.062 116.117 172.45 115.705 172.723C115.293 172.993 114.823 173.128 114.295 173.128C113.897 173.128 113.572 173.061 113.319 172.928C113.069 172.794 112.873 172.638 112.731 172.459C112.589 172.28 112.479 172.121 112.403 171.982H112.326V175.455H111.052ZM112.3 169.727C112.3 170.187 112.367 170.591 112.501 170.938C112.634 171.284 112.827 171.555 113.08 171.751C113.333 171.945 113.643 172.041 114.009 172.041C114.39 172.041 114.708 171.94 114.964 171.739C115.219 171.534 115.413 171.257 115.543 170.908C115.677 170.558 115.744 170.165 115.744 169.727C115.744 169.295 115.678 168.908 115.548 168.564C115.42 168.22 115.227 167.949 114.968 167.75C114.712 167.551 114.393 167.452 114.009 167.452C113.64 167.452 113.327 167.547 113.072 167.737C112.819 167.928 112.627 168.193 112.496 168.534C112.366 168.875 112.3 169.273 112.3 169.727ZM121.279 173.132C120.634 173.132 120.079 172.994 119.613 172.719C119.15 172.44 118.792 172.05 118.539 171.547C118.289 171.041 118.164 170.449 118.164 169.77C118.164 169.099 118.289 168.509 118.539 167.997C118.792 167.486 119.144 167.087 119.596 166.8C120.05 166.513 120.582 166.369 121.19 166.369C121.559 166.369 121.917 166.43 122.263 166.553C122.61 166.675 122.921 166.866 123.197 167.128C123.472 167.389 123.69 167.729 123.849 168.146C124.008 168.561 124.087 169.065 124.087 169.659V170.111H118.884V169.156H122.839C122.839 168.821 122.771 168.524 122.634 168.266C122.498 168.004 122.306 167.798 122.059 167.648C121.815 167.497 121.528 167.422 121.198 167.422C120.84 167.422 120.528 167.51 120.261 167.686C119.996 167.859 119.792 168.087 119.647 168.368C119.505 168.646 119.434 168.949 119.434 169.276V170.021C119.434 170.459 119.511 170.831 119.664 171.138C119.82 171.445 120.038 171.679 120.316 171.841C120.594 172 120.92 172.08 121.292 172.08C121.533 172.08 121.754 172.045 121.952 171.977C122.151 171.906 122.323 171.801 122.468 171.662C122.613 171.523 122.724 171.351 122.8 171.146L124.006 171.364C123.91 171.719 123.737 172.03 123.487 172.297C123.239 172.561 122.928 172.767 122.553 172.915C122.181 173.06 121.756 173.132 121.279 173.132ZM127.406 173.145C126.991 173.145 126.616 173.068 126.281 172.915C125.946 172.759 125.68 172.533 125.484 172.237C125.291 171.942 125.194 171.58 125.194 171.151C125.194 170.781 125.265 170.477 125.407 170.239C125.549 170 125.741 169.811 125.983 169.672C126.224 169.533 126.494 169.428 126.792 169.357C127.091 169.286 127.395 169.232 127.704 169.195C128.096 169.149 128.414 169.112 128.659 169.084C128.903 169.053 129.081 169.003 129.191 168.935C129.302 168.866 129.358 168.756 129.358 168.602V168.572C129.358 168.2 129.252 167.912 129.042 167.707C128.835 167.503 128.525 167.401 128.113 167.401C127.684 167.401 127.346 167.496 127.099 167.686C126.855 167.874 126.686 168.082 126.592 168.312L125.395 168.04C125.537 167.642 125.744 167.321 126.017 167.077C126.292 166.83 126.609 166.651 126.967 166.54C127.325 166.426 127.701 166.369 128.096 166.369C128.358 166.369 128.635 166.401 128.927 166.463C129.223 166.523 129.498 166.634 129.754 166.795C130.012 166.957 130.224 167.189 130.389 167.49C130.554 167.788 130.636 168.176 130.636 168.653V173H129.392V172.105H129.341C129.258 172.27 129.135 172.432 128.97 172.591C128.805 172.75 128.593 172.882 128.335 172.987C128.076 173.092 127.767 173.145 127.406 173.145ZM127.683 172.122C128.035 172.122 128.336 172.053 128.586 171.913C128.839 171.774 129.031 171.592 129.162 171.368C129.295 171.141 129.362 170.898 129.362 170.639V169.795C129.316 169.841 129.228 169.884 129.098 169.923C128.97 169.96 128.824 169.993 128.659 170.021C128.494 170.047 128.333 170.071 128.177 170.094C128.021 170.114 127.89 170.131 127.785 170.145C127.538 170.176 127.312 170.229 127.108 170.303C126.906 170.376 126.744 170.483 126.622 170.622C126.502 170.759 126.443 170.94 126.443 171.168C126.443 171.483 126.559 171.722 126.792 171.884C127.025 172.043 127.322 172.122 127.683 172.122ZM135.388 166.455V167.477H131.813V166.455H135.388ZM132.772 164.886H134.046V171.078C134.046 171.325 134.083 171.511 134.157 171.636C134.231 171.759 134.326 171.842 134.442 171.888C134.562 171.93 134.691 171.952 134.83 171.952C134.933 171.952 135.022 171.945 135.099 171.93C135.175 171.916 135.235 171.905 135.278 171.896L135.508 172.949C135.434 172.977 135.329 173.006 135.192 173.034C135.056 173.065 134.886 173.082 134.681 173.085C134.346 173.091 134.033 173.031 133.744 172.906C133.454 172.781 133.219 172.588 133.04 172.327C132.862 172.065 132.772 171.737 132.772 171.342V164.886Z" fill="#717784"/>
<rect x="96" y="184.5" width="265" height="31" rx="7.5" fill="white"/>
<rect x="96" y="184.5" width="265" height="31" rx="7.5" stroke="#E5E7EB"/>
<path d="M110.582 205L107.798 194.818H109.051L111.179 203.111H111.278L113.446 194.818H114.838L117.006 203.111H117.105L119.233 194.818H120.486L117.702 205H116.429L114.182 196.886H114.102L111.855 205H110.582ZM124.354 205.159C123.618 205.159 122.983 204.997 122.45 204.672C121.919 204.344 121.51 203.886 121.222 203.3C120.937 202.71 120.794 202.024 120.794 201.241C120.794 200.459 120.937 199.77 121.222 199.173C121.51 198.573 121.911 198.106 122.425 197.771C122.942 197.433 123.545 197.264 124.234 197.264C124.632 197.264 125.025 197.33 125.413 197.463C125.8 197.596 126.153 197.811 126.472 198.109C126.79 198.404 127.043 198.795 127.232 199.283C127.421 199.77 127.516 200.37 127.516 201.082V201.58H121.629V200.565H126.322C126.322 200.134 126.236 199.75 126.064 199.412C125.895 199.074 125.653 198.807 125.338 198.612C125.027 198.416 124.659 198.318 124.234 198.318C123.767 198.318 123.363 198.434 123.021 198.666C122.683 198.895 122.423 199.193 122.241 199.561C122.058 199.929 121.967 200.323 121.967 200.744V201.42C121.967 201.997 122.067 202.486 122.266 202.887C122.468 203.285 122.748 203.588 123.106 203.797C123.464 204.002 123.88 204.105 124.354 204.105C124.662 204.105 124.94 204.062 125.189 203.976C125.441 203.886 125.658 203.754 125.84 203.578C126.022 203.399 126.163 203.177 126.263 202.912L127.396 203.23C127.277 203.615 127.076 203.953 126.795 204.244C126.513 204.533 126.165 204.758 125.751 204.92C125.336 205.08 124.871 205.159 124.354 205.159ZM132.502 205.159C131.766 205.159 131.132 204.997 130.598 204.672C130.068 204.344 129.658 203.886 129.37 203.3C129.085 202.71 128.942 202.024 128.942 201.241C128.942 200.459 129.085 199.77 129.37 199.173C129.658 198.573 130.059 198.106 130.573 197.771C131.09 197.433 131.693 197.264 132.383 197.264C132.781 197.264 133.173 197.33 133.561 197.463C133.949 197.596 134.302 197.811 134.62 198.109C134.938 198.404 135.192 198.795 135.381 199.283C135.57 199.77 135.664 200.37 135.664 201.082V201.58H129.778V200.565H134.471C134.471 200.134 134.385 199.75 134.212 199.412C134.043 199.074 133.801 198.807 133.487 198.612C133.175 198.416 132.807 198.318 132.383 198.318C131.915 198.318 131.511 198.434 131.17 198.666C130.832 198.895 130.571 199.193 130.389 199.561C130.207 199.929 130.116 200.323 130.116 200.744V201.42C130.116 201.997 130.215 202.486 130.414 202.887C130.616 203.285 130.896 203.588 131.254 203.797C131.612 204.002 132.028 204.105 132.502 204.105C132.81 204.105 133.089 204.062 133.337 203.976C133.589 203.886 133.806 203.754 133.989 203.578C134.171 203.399 134.312 203.177 134.411 202.912L135.545 203.23C135.425 203.615 135.225 203.953 134.943 204.244C134.661 204.533 134.313 204.758 133.899 204.92C133.485 205.08 133.019 205.159 132.502 205.159ZM138.543 202.216L138.523 200.764H138.761L142.102 197.364H143.554L139.994 200.963H139.895L138.543 202.216ZM137.449 205V194.818H138.622V205H137.449ZM142.301 205L139.318 201.222L140.153 200.406L143.793 205H142.301ZM146.237 194.818V205H145.064V194.818H146.237ZM149.142 207.864C148.943 207.864 148.766 207.847 148.61 207.814C148.454 207.784 148.347 207.754 148.287 207.724L148.585 206.69C148.87 206.763 149.122 206.79 149.341 206.77C149.56 206.75 149.754 206.652 149.923 206.477C150.095 206.304 150.252 206.024 150.395 205.636L150.614 205.04L147.79 197.364H149.062L151.17 203.449H151.25L153.358 197.364H154.631L151.389 206.114C151.243 206.508 151.063 206.835 150.847 207.093C150.632 207.355 150.382 207.549 150.097 207.675C149.815 207.801 149.497 207.864 149.142 207.864Z" fill="#181B25"/>
<path d="M346.5 198L341.5 203L336.5 198" stroke="#525866" stroke-width="1.5" stroke-linecap="round" stroke-linejoin="round"/>
<mask id="path-214-inside-4_7841_8336" fill="white">
<path d="M81.5 230H375.5V282H81.5V230Z"/>
</mask>
<path d="M81.5 230H375.5V282H81.5V230Z" fill="white"/>
<path d="M375.5 282V281H81.5V282V283H375.5V282Z" fill="#E5E7EB" mask="url(#path-214-inside-4_7841_8336)"/>
<rect x="95.5" y="240" width="128" height="32" rx="16" fill="url(#paint0_radial_7841_8336)"/>
<path d="M144.707 254.611H143.378C143.327 254.327 143.232 254.077 143.092 253.861C142.953 253.645 142.783 253.462 142.581 253.311C142.379 253.161 142.153 253.047 141.903 252.97C141.656 252.893 141.393 252.855 141.115 252.855C140.612 252.855 140.162 252.982 139.764 253.234C139.369 253.487 139.057 253.858 138.827 254.347C138.599 254.835 138.486 255.432 138.486 256.136C138.486 256.847 138.599 257.446 138.827 257.935C139.057 258.423 139.371 258.793 139.768 259.043C140.166 259.293 140.614 259.418 141.111 259.418C141.386 259.418 141.648 259.381 141.895 259.307C142.145 259.23 142.371 259.118 142.572 258.97C142.774 258.822 142.945 258.642 143.084 258.429C143.226 258.213 143.324 257.966 143.378 257.688L144.707 257.692C144.636 258.121 144.499 258.516 144.294 258.876C144.092 259.234 143.832 259.544 143.514 259.805C143.199 260.064 142.838 260.264 142.432 260.406C142.026 260.548 141.582 260.619 141.102 260.619C140.347 260.619 139.673 260.44 139.082 260.082C138.491 259.722 138.026 259.206 137.685 258.536C137.347 257.865 137.178 257.065 137.178 256.136C137.178 255.205 137.348 254.405 137.689 253.737C138.03 253.067 138.496 252.553 139.087 252.195C139.678 251.834 140.349 251.653 141.102 251.653C141.565 251.653 141.997 251.72 142.398 251.854C142.801 251.984 143.163 252.178 143.484 252.433C143.805 252.686 144.071 252.996 144.281 253.362C144.491 253.726 144.634 254.142 144.707 254.611ZM148.938 260.632C148.324 260.632 147.789 260.491 147.331 260.21C146.874 259.929 146.519 259.536 146.266 259.03C146.013 258.524 145.887 257.933 145.887 257.257C145.887 256.578 146.013 255.984 146.266 255.476C146.519 254.967 146.874 254.572 147.331 254.291C147.789 254.01 148.324 253.869 148.938 253.869C149.551 253.869 150.087 254.01 150.544 254.291C151.002 254.572 151.357 254.967 151.61 255.476C151.863 255.984 151.989 256.578 151.989 257.257C151.989 257.933 151.863 258.524 151.61 259.03C151.357 259.536 151.002 259.929 150.544 260.21C150.087 260.491 149.551 260.632 148.938 260.632ZM148.942 259.562C149.34 259.562 149.669 259.457 149.931 259.247C150.192 259.037 150.385 258.757 150.51 258.408C150.638 258.058 150.702 257.673 150.702 257.253C150.702 256.835 150.638 256.452 150.51 256.102C150.385 255.75 150.192 255.467 149.931 255.254C149.669 255.041 149.34 254.935 148.942 254.935C148.542 254.935 148.209 255.041 147.945 255.254C147.684 255.467 147.489 255.75 147.361 256.102C147.236 256.452 147.174 256.835 147.174 257.253C147.174 257.673 147.236 258.058 147.361 258.408C147.489 258.757 147.684 259.037 147.945 259.247C148.209 259.457 148.542 259.562 148.942 259.562ZM154.685 256.614V260.5H153.411V253.955H154.634V255.02H154.715C154.866 254.673 155.102 254.395 155.423 254.185C155.746 253.974 156.154 253.869 156.646 253.869C157.092 253.869 157.482 253.963 157.817 254.151C158.153 254.335 158.413 254.611 158.597 254.977C158.782 255.344 158.874 255.797 158.874 256.337V260.5H157.6V256.49C157.6 256.016 157.477 255.645 157.229 255.378C156.982 255.108 156.643 254.973 156.211 254.973C155.915 254.973 155.653 255.037 155.423 255.165C155.195 255.293 155.015 255.48 154.881 255.727C154.751 255.972 154.685 256.267 154.685 256.614ZM163.698 253.955V254.977H159.999V253.955H163.698ZM161.013 260.5V253.196C161.013 252.787 161.103 252.447 161.282 252.178C161.461 251.905 161.698 251.702 161.994 251.568C162.289 251.432 162.61 251.364 162.957 251.364C163.212 251.364 163.431 251.385 163.613 251.428C163.795 251.467 163.93 251.504 164.018 251.538L163.719 252.57C163.66 252.553 163.583 252.533 163.489 252.51C163.396 252.484 163.282 252.472 163.148 252.472C162.839 252.472 162.617 252.548 162.484 252.702C162.353 252.855 162.288 253.077 162.288 253.366V260.5H161.013ZM165.013 260.5V253.955H166.287V260.5H165.013ZM165.656 252.945C165.435 252.945 165.244 252.871 165.085 252.723C164.929 252.572 164.851 252.393 164.851 252.186C164.851 251.976 164.929 251.797 165.085 251.649C165.244 251.499 165.435 251.423 165.656 251.423C165.878 251.423 166.067 251.499 166.223 251.649C166.382 251.797 166.462 251.976 166.462 252.186C166.462 252.393 166.382 252.572 166.223 252.723C166.067 252.871 165.878 252.945 165.656 252.945ZM168.001 260.5V253.955H169.233V254.994H169.301C169.42 254.642 169.63 254.365 169.931 254.163C170.235 253.959 170.579 253.857 170.963 253.857C171.042 253.857 171.136 253.859 171.244 253.865C171.355 253.871 171.441 253.878 171.504 253.886V255.105C171.453 255.091 171.362 255.075 171.231 255.058C171.1 255.038 170.97 255.028 170.839 255.028C170.538 255.028 170.27 255.092 170.034 255.22C169.801 255.345 169.616 255.52 169.48 255.744C169.343 255.966 169.275 256.219 169.275 256.503V260.5H168.001ZM172.607 260.5V253.955H173.83V255.02H173.911C174.047 254.659 174.27 254.378 174.58 254.176C174.889 253.972 175.26 253.869 175.692 253.869C176.129 253.869 176.496 253.972 176.791 254.176C177.089 254.381 177.31 254.662 177.452 255.02H177.52C177.676 254.67 177.925 254.392 178.266 254.185C178.607 253.974 179.013 253.869 179.484 253.869C180.078 253.869 180.562 254.055 180.938 254.428C181.315 254.8 181.504 255.361 181.504 256.111V260.5H180.23V256.23C180.23 255.787 180.109 255.466 179.868 255.267C179.626 255.068 179.338 254.969 179.003 254.969C178.588 254.969 178.266 255.097 178.036 255.352C177.805 255.605 177.69 255.93 177.69 256.328V260.5H176.42V256.149C176.42 255.794 176.31 255.509 176.088 255.293C175.866 255.077 175.578 254.969 175.223 254.969C174.982 254.969 174.759 255.033 174.554 255.161C174.352 255.286 174.189 255.46 174.064 255.685C173.942 255.909 173.881 256.169 173.881 256.464V260.5H172.607Z" fill="white"/>
<rect x="234" y="240.5" width="127" height="31" rx="15.5" fill="white"/>
<rect x="234" y="240.5" width="127" height="31" rx="15.5" stroke="#E5E7EB"/>
<path d="M285.707 254.611H284.378C284.327 254.327 284.232 254.077 284.092 253.861C283.953 253.645 283.783 253.462 283.581 253.311C283.379 253.161 283.153 253.047 282.903 252.97C282.656 252.893 282.393 252.855 282.115 252.855C281.612 252.855 281.162 252.982 280.764 253.234C280.369 253.487 280.057 253.858 279.827 254.347C279.599 254.835 279.486 255.432 279.486 256.136C279.486 256.847 279.599 257.446 279.827 257.935C280.057 258.423 280.371 258.793 280.768 259.043C281.166 259.293 281.614 259.418 282.111 259.418C282.386 259.418 282.648 259.381 282.895 259.307C283.145 259.23 283.371 259.118 283.572 258.97C283.774 258.822 283.945 258.642 284.084 258.429C284.226 258.213 284.324 257.966 284.378 257.688L285.707 257.692C285.636 258.121 285.499 258.516 285.294 258.876C285.092 259.234 284.832 259.544 284.514 259.805C284.199 260.064 283.838 260.264 283.432 260.406C283.026 260.548 282.582 260.619 282.102 260.619C281.347 260.619 280.673 260.44 280.082 260.082C279.491 259.722 279.026 259.206 278.685 258.536C278.347 257.865 278.178 257.065 278.178 256.136C278.178 255.205 278.348 254.405 278.689 253.737C279.03 253.067 279.496 252.553 280.087 252.195C280.678 251.834 281.349 251.653 282.102 251.653C282.565 251.653 282.997 251.72 283.398 251.854C283.801 251.984 284.163 252.178 284.484 252.433C284.805 252.686 285.071 252.996 285.281 253.362C285.491 253.726 285.634 254.142 285.707 254.611ZM289.086 260.645C288.671 260.645 288.296 260.568 287.961 260.415C287.625 260.259 287.36 260.033 287.164 259.737C286.971 259.442 286.874 259.08 286.874 258.651C286.874 258.281 286.945 257.977 287.087 257.739C287.229 257.5 287.421 257.311 287.662 257.172C287.904 257.033 288.174 256.928 288.472 256.857C288.77 256.786 289.074 256.732 289.384 256.695C289.776 256.649 290.094 256.612 290.338 256.584C290.583 256.553 290.76 256.503 290.871 256.435C290.982 256.366 291.037 256.256 291.037 256.102V256.072C291.037 255.7 290.932 255.412 290.722 255.207C290.515 255.003 290.205 254.901 289.793 254.901C289.364 254.901 289.026 254.996 288.779 255.186C288.534 255.374 288.365 255.582 288.272 255.812L287.074 255.54C287.216 255.142 287.424 254.821 287.696 254.577C287.972 254.33 288.289 254.151 288.647 254.04C289.005 253.926 289.381 253.869 289.776 253.869C290.037 253.869 290.314 253.901 290.607 253.963C290.902 254.023 291.178 254.134 291.434 254.295C291.692 254.457 291.904 254.689 292.069 254.99C292.233 255.288 292.316 255.676 292.316 256.153V260.5H291.071V259.605H291.02C290.938 259.77 290.814 259.932 290.65 260.091C290.485 260.25 290.273 260.382 290.015 260.487C289.756 260.592 289.446 260.645 289.086 260.645ZM289.363 259.622C289.715 259.622 290.016 259.553 290.266 259.413C290.519 259.274 290.711 259.092 290.841 258.868C290.975 258.641 291.042 258.398 291.042 258.139V257.295C290.996 257.341 290.908 257.384 290.777 257.423C290.65 257.46 290.503 257.493 290.338 257.521C290.174 257.547 290.013 257.571 289.857 257.594C289.701 257.614 289.57 257.631 289.465 257.645C289.218 257.676 288.992 257.729 288.787 257.803C288.586 257.876 288.424 257.983 288.301 258.122C288.182 258.259 288.123 258.44 288.123 258.668C288.123 258.983 288.239 259.222 288.472 259.384C288.705 259.543 289.002 259.622 289.363 259.622ZM295.287 256.614V260.5H294.013V253.955H295.236V255.02H295.317C295.467 254.673 295.703 254.395 296.024 254.185C296.348 253.974 296.756 253.869 297.247 253.869C297.693 253.869 298.084 253.963 298.419 254.151C298.754 254.335 299.014 254.611 299.199 254.977C299.384 255.344 299.476 255.797 299.476 256.337V260.5H298.202V256.49C298.202 256.016 298.078 255.645 297.831 255.378C297.584 255.108 297.244 254.973 296.812 254.973C296.517 254.973 296.254 255.037 296.024 255.165C295.797 255.293 295.616 255.48 295.483 255.727C295.352 255.972 295.287 256.267 295.287 256.614ZM303.942 260.632C303.308 260.632 302.763 260.489 302.305 260.202C301.851 259.912 301.501 259.513 301.257 259.004C301.013 258.496 300.891 257.913 300.891 257.257C300.891 256.592 301.016 256.006 301.266 255.497C301.516 254.986 301.868 254.587 302.322 254.3C302.777 254.013 303.313 253.869 303.929 253.869C304.426 253.869 304.869 253.962 305.259 254.146C305.648 254.328 305.962 254.584 306.2 254.913C306.442 255.243 306.585 255.628 306.631 256.068H305.391C305.322 255.761 305.166 255.497 304.922 255.276C304.68 255.054 304.357 254.943 303.95 254.943C303.595 254.943 303.284 255.037 303.017 255.224C302.753 255.409 302.547 255.673 302.399 256.017C302.251 256.358 302.178 256.761 302.178 257.227C302.178 257.705 302.25 258.116 302.395 258.463C302.54 258.81 302.744 259.078 303.009 259.268C303.276 259.459 303.589 259.554 303.95 259.554C304.192 259.554 304.411 259.51 304.607 259.422C304.805 259.331 304.972 259.202 305.105 259.034C305.241 258.866 305.337 258.665 305.391 258.429H306.631C306.585 258.852 306.447 259.23 306.217 259.562C305.987 259.895 305.679 260.156 305.293 260.347C304.909 260.537 304.459 260.632 303.942 260.632ZM310.814 260.632C310.169 260.632 309.614 260.494 309.148 260.219C308.685 259.94 308.327 259.55 308.074 259.047C307.824 258.541 307.699 257.949 307.699 257.27C307.699 256.599 307.824 256.009 308.074 255.497C308.327 254.986 308.679 254.587 309.131 254.3C309.586 254.013 310.117 253.869 310.725 253.869C311.094 253.869 311.452 253.93 311.799 254.053C312.145 254.175 312.456 254.366 312.732 254.628C313.007 254.889 313.225 255.229 313.384 255.646C313.543 256.061 313.623 256.565 313.623 257.159V257.611H308.419V256.656H312.374C312.374 256.321 312.306 256.024 312.169 255.766C312.033 255.504 311.841 255.298 311.594 255.148C311.35 254.997 311.063 254.922 310.733 254.922C310.375 254.922 310.063 255.01 309.796 255.186C309.532 255.359 309.327 255.587 309.182 255.868C309.04 256.146 308.969 256.449 308.969 256.776V257.521C308.969 257.959 309.046 258.331 309.199 258.638C309.355 258.945 309.573 259.179 309.851 259.341C310.13 259.5 310.455 259.58 310.827 259.58C311.069 259.58 311.289 259.545 311.488 259.477C311.686 259.406 311.858 259.301 312.003 259.162C312.148 259.023 312.259 258.851 312.336 258.646L313.542 258.864C313.445 259.219 313.272 259.53 313.022 259.797C312.775 260.061 312.463 260.267 312.088 260.415C311.716 260.56 311.292 260.632 310.814 260.632ZM316.31 251.773V260.5H315.036V251.773H316.31Z" fill="#181B25"/>
</g>
<rect x="82" y="30.5" width="293" height="251" rx="9.5" stroke="#E5E7EB"/>
</g>
</g>
<defs>
<filter id="filter0_d_7841_8336" x="73.5" y="22" width="310" height="268" filterUnits="userSpaceOnUse" color-interpolation-filters="sRGB">
<feFlood flood-opacity="0" result="BackgroundImageFix"/>
<feColorMatrix in="SourceAlpha" type="matrix" values="0 0 0 0 0 0 0 0 0 0 0 0 0 0 0 0 0 0 127 0" result="hardAlpha"/>
<feOffset/>
<feGaussianBlur stdDeviation="4"/>
<feColorMatrix type="matrix" values="0 0 0 0 0 0 0 0 0 0 0 0 0 0 0 0 0 0 0.06 0"/>
<feBlend mode="normal" in2="BackgroundImageFix" result="effect1_dropShadow_7841_8336"/>
<feBlend mode="normal" in="SourceGraphic" in2="effect1_dropShadow_7841_8336" result="shape"/>
</filter>
<radialGradient id="paint0_radial_7841_8336" cx="0" cy="0" r="1" gradientUnits="userSpaceOnUse" gradientTransform="translate(159.927 272) rotate(-90) scale(32 79.6391)">
<stop stop-color="#6D7A97"/>
<stop offset="0.748488" stop-color="#0E121B"/>
</radialGradient>
<clipPath id="clip0_7841_8336">
<rect width="455.5" height="312" fill="white" transform="translate(0.5)"/>
</clipPath>
<clipPath id="clip1_7841_8336">
<rect x="81.5" y="30" width="294" height="252" rx="10" fill="white"/>
</clipPath>
<clipPath id="clip2_7841_8336">
<rect x="95.5" y="111" width="266" height="34" rx="8" fill="white"/>
</clipPath>
</defs>
</svg>
