<svg width="456" height="312" viewBox="0 0 456 312" fill="none" xmlns="http://www.w3.org/2000/svg">
<g clip-path="url(#clip0_7841_8073)">
<circle cx="2" cy="2" r="2" fill="#E5E7EB"/>
<circle cx="30.9412" cy="2" r="2" fill="#E5E7EB"/>
<circle cx="59.8824" cy="2" r="2" fill="#E5E7EB"/>
<circle cx="88.8235" cy="2" r="2" fill="#E5E7EB"/>
<circle cx="117.765" cy="2" r="2" fill="#E5E7EB"/>
<circle cx="146.706" cy="2" r="2" fill="#E5E7EB"/>
<circle cx="175.647" cy="2" r="2" fill="#E5E7EB"/>
<circle cx="204.588" cy="2" r="2" fill="#E5E7EB"/>
<circle cx="233.529" cy="2" r="2" fill="#E5E7EB"/>
<circle cx="262.471" cy="2" r="2" fill="#E5E7EB"/>
<circle cx="291.412" cy="2" r="2" fill="#E5E7EB"/>
<circle cx="320.353" cy="2" r="2" fill="#E5E7EB"/>
<circle cx="349.294" cy="2" r="2" fill="#E5E7EB"/>
<circle cx="378.235" cy="2" r="2" fill="#E5E7EB"/>
<circle cx="407.176" cy="2" r="2" fill="#E5E7EB"/>
<circle cx="436.118" cy="2" r="2" fill="#E5E7EB"/>
<circle cx="2" cy="30" r="2" fill="#E5E7EB"/>
<circle cx="30.9412" cy="30" r="2" fill="#E5E7EB"/>
<circle cx="59.8824" cy="30" r="2" fill="#E5E7EB"/>
<circle cx="88.8235" cy="30" r="2" fill="#E5E7EB"/>
<circle cx="117.765" cy="30" r="2" fill="#E5E7EB"/>
<circle cx="146.706" cy="30" r="2" fill="#E5E7EB"/>
<circle cx="175.647" cy="30" r="2" fill="#E5E7EB"/>
<circle cx="204.588" cy="30" r="2" fill="#E5E7EB"/>
<circle cx="233.529" cy="30" r="2" fill="#E5E7EB"/>
<circle cx="262.471" cy="30" r="2" fill="#E5E7EB"/>
<circle cx="291.412" cy="30" r="2" fill="#E5E7EB"/>
<circle cx="320.353" cy="30" r="2" fill="#E5E7EB"/>
<circle cx="349.294" cy="30" r="2" fill="#E5E7EB"/>
<circle cx="378.235" cy="30" r="2" fill="#E5E7EB"/>
<circle cx="407.176" cy="30" r="2" fill="#E5E7EB"/>
<circle cx="436.118" cy="30" r="2" fill="#E5E7EB"/>
<circle cx="2" cy="58" r="2" fill="#E5E7EB"/>
<circle cx="30.9412" cy="58" r="2" fill="#E5E7EB"/>
<circle cx="59.8824" cy="58" r="2" fill="#E5E7EB"/>
<circle cx="88.8235" cy="58" r="2" fill="#E5E7EB"/>
<circle cx="117.765" cy="58" r="2" fill="#E5E7EB"/>
<circle cx="146.706" cy="58" r="2" fill="#E5E7EB"/>
<circle cx="175.647" cy="58" r="2" fill="#E5E7EB"/>
<circle cx="204.588" cy="58" r="2" fill="#E5E7EB"/>
<circle cx="233.529" cy="58" r="2" fill="#E5E7EB"/>
<circle cx="262.471" cy="58" r="2" fill="#E5E7EB"/>
<circle cx="291.412" cy="58" r="2" fill="#E5E7EB"/>
<circle cx="320.353" cy="58" r="2" fill="#E5E7EB"/>
<circle cx="349.294" cy="58" r="2" fill="#E5E7EB"/>
<circle cx="378.235" cy="58" r="2" fill="#E5E7EB"/>
<circle cx="407.176" cy="58" r="2" fill="#E5E7EB"/>
<circle cx="436.118" cy="58" r="2" fill="#E5E7EB"/>
<circle cx="2" cy="86" r="2" fill="#E5E7EB"/>
<circle cx="30.9412" cy="86" r="2" fill="#E5E7EB"/>
<circle cx="59.8824" cy="86" r="2" fill="#E5E7EB"/>
<circle cx="88.8235" cy="86" r="2" fill="#E5E7EB"/>
<circle cx="117.765" cy="86" r="2" fill="#E5E7EB"/>
<circle cx="146.706" cy="86" r="2" fill="#E5E7EB"/>
<circle cx="175.647" cy="86" r="2" fill="#E5E7EB"/>
<circle cx="204.588" cy="86" r="2" fill="#E5E7EB"/>
<circle cx="233.529" cy="86" r="2" fill="#E5E7EB"/>
<circle cx="262.471" cy="86" r="2" fill="#E5E7EB"/>
<circle cx="291.412" cy="86" r="2" fill="#E5E7EB"/>
<circle cx="320.353" cy="86" r="2" fill="#E5E7EB"/>
<circle cx="349.294" cy="86" r="2" fill="#E5E7EB"/>
<circle cx="378.235" cy="86" r="2" fill="#E5E7EB"/>
<circle cx="407.176" cy="86" r="2" fill="#E5E7EB"/>
<circle cx="436.118" cy="86" r="2" fill="#E5E7EB"/>
<circle cx="2" cy="114" r="2" fill="#E5E7EB"/>
<circle cx="30.9412" cy="114" r="2" fill="#E5E7EB"/>
<circle cx="59.8824" cy="114" r="2" fill="#E5E7EB"/>
<circle cx="88.8235" cy="114" r="2" fill="#E5E7EB"/>
<circle cx="117.765" cy="114" r="2" fill="#E5E7EB"/>
<circle cx="146.706" cy="114" r="2" fill="#E5E7EB"/>
<circle cx="175.647" cy="114" r="2" fill="#E5E7EB"/>
<circle cx="204.588" cy="114" r="2" fill="#E5E7EB"/>
<circle cx="233.529" cy="114" r="2" fill="#E5E7EB"/>
<circle cx="262.471" cy="114" r="2" fill="#E5E7EB"/>
<circle cx="291.412" cy="114" r="2" fill="#E5E7EB"/>
<circle cx="320.353" cy="114" r="2" fill="#E5E7EB"/>
<circle cx="349.294" cy="114" r="2" fill="#E5E7EB"/>
<circle cx="378.235" cy="114" r="2" fill="#E5E7EB"/>
<circle cx="407.176" cy="114" r="2" fill="#E5E7EB"/>
<circle cx="436.118" cy="114" r="2" fill="#E5E7EB"/>
<circle cx="2" cy="142" r="2" fill="#E5E7EB"/>
<circle cx="30.9412" cy="142" r="2" fill="#E5E7EB"/>
<circle cx="59.8824" cy="142" r="2" fill="#E5E7EB"/>
<circle cx="88.8235" cy="142" r="2" fill="#E5E7EB"/>
<circle cx="117.765" cy="142" r="2" fill="#E5E7EB"/>
<circle cx="146.706" cy="142" r="2" fill="#E5E7EB"/>
<circle cx="175.647" cy="142" r="2" fill="#E5E7EB"/>
<circle cx="204.588" cy="142" r="2" fill="#E5E7EB"/>
<circle cx="233.529" cy="142" r="2" fill="#E5E7EB"/>
<circle cx="262.471" cy="142" r="2" fill="#E5E7EB"/>
<circle cx="291.412" cy="142" r="2" fill="#E5E7EB"/>
<circle cx="320.353" cy="142" r="2" fill="#E5E7EB"/>
<circle cx="349.294" cy="142" r="2" fill="#E5E7EB"/>
<circle cx="378.235" cy="142" r="2" fill="#E5E7EB"/>
<circle cx="407.176" cy="142" r="2" fill="#E5E7EB"/>
<circle cx="436.118" cy="142" r="2" fill="#E5E7EB"/>
<circle cx="2" cy="170" r="2" fill="#E5E7EB"/>
<circle cx="30.9412" cy="170" r="2" fill="#E5E7EB"/>
<circle cx="59.8824" cy="170" r="2" fill="#E5E7EB"/>
<circle cx="88.8235" cy="170" r="2" fill="#E5E7EB"/>
<circle cx="117.765" cy="170" r="2" fill="#E5E7EB"/>
<circle cx="146.706" cy="170" r="2" fill="#E5E7EB"/>
<circle cx="175.647" cy="170" r="2" fill="#E5E7EB"/>
<circle cx="204.588" cy="170" r="2" fill="#E5E7EB"/>
<circle cx="233.529" cy="170" r="2" fill="#E5E7EB"/>
<circle cx="262.471" cy="170" r="2" fill="#E5E7EB"/>
<circle cx="291.412" cy="170" r="2" fill="#E5E7EB"/>
<circle cx="320.353" cy="170" r="2" fill="#E5E7EB"/>
<circle cx="349.294" cy="170" r="2" fill="#E5E7EB"/>
<circle cx="378.235" cy="170" r="2" fill="#E5E7EB"/>
<circle cx="407.176" cy="170" r="2" fill="#E5E7EB"/>
<circle cx="436.118" cy="170" r="2" fill="#E5E7EB"/>
<circle cx="2" cy="198" r="2" fill="#E5E7EB"/>
<circle cx="30.9412" cy="198" r="2" fill="#E5E7EB"/>
<circle cx="59.8824" cy="198" r="2" fill="#E5E7EB"/>
<circle cx="88.8235" cy="198" r="2" fill="#E5E7EB"/>
<circle cx="117.765" cy="198" r="2" fill="#E5E7EB"/>
<circle cx="146.706" cy="198" r="2" fill="#E5E7EB"/>
<circle cx="175.647" cy="198" r="2" fill="#E5E7EB"/>
<circle cx="204.588" cy="198" r="2" fill="#E5E7EB"/>
<circle cx="233.529" cy="198" r="2" fill="#E5E7EB"/>
<circle cx="262.471" cy="198" r="2" fill="#E5E7EB"/>
<circle cx="291.412" cy="198" r="2" fill="#E5E7EB"/>
<circle cx="320.353" cy="198" r="2" fill="#E5E7EB"/>
<circle cx="349.294" cy="198" r="2" fill="#E5E7EB"/>
<circle cx="378.235" cy="198" r="2" fill="#E5E7EB"/>
<circle cx="407.176" cy="198" r="2" fill="#E5E7EB"/>
<circle cx="436.118" cy="198" r="2" fill="#E5E7EB"/>
<circle cx="2" cy="226" r="2" fill="#E5E7EB"/>
<circle cx="30.9412" cy="226" r="2" fill="#E5E7EB"/>
<circle cx="59.8824" cy="226" r="2" fill="#E5E7EB"/>
<circle cx="88.8235" cy="226" r="2" fill="#E5E7EB"/>
<circle cx="117.765" cy="226" r="2" fill="#E5E7EB"/>
<circle cx="146.706" cy="226" r="2" fill="#E5E7EB"/>
<circle cx="175.647" cy="226" r="2" fill="#E5E7EB"/>
<circle cx="204.588" cy="226" r="2" fill="#E5E7EB"/>
<circle cx="233.529" cy="226" r="2" fill="#E5E7EB"/>
<circle cx="262.471" cy="226" r="2" fill="#E5E7EB"/>
<circle cx="291.412" cy="226" r="2" fill="#E5E7EB"/>
<circle cx="320.353" cy="226" r="2" fill="#E5E7EB"/>
<circle cx="349.294" cy="226" r="2" fill="#E5E7EB"/>
<circle cx="378.235" cy="226" r="2" fill="#E5E7EB"/>
<circle cx="407.176" cy="226" r="2" fill="#E5E7EB"/>
<circle cx="436.118" cy="226" r="2" fill="#E5E7EB"/>
<circle cx="2" cy="254" r="2" fill="#E5E7EB"/>
<circle cx="30.9412" cy="254" r="2" fill="#E5E7EB"/>
<circle cx="59.8824" cy="254" r="2" fill="#E5E7EB"/>
<circle cx="88.8235" cy="254" r="2" fill="#E5E7EB"/>
<circle cx="117.765" cy="254" r="2" fill="#E5E7EB"/>
<circle cx="146.706" cy="254" r="2" fill="#E5E7EB"/>
<circle cx="175.647" cy="254" r="2" fill="#E5E7EB"/>
<circle cx="204.588" cy="254" r="2" fill="#E5E7EB"/>
<circle cx="233.529" cy="254" r="2" fill="#E5E7EB"/>
<circle cx="262.471" cy="254" r="2" fill="#E5E7EB"/>
<circle cx="291.412" cy="254" r="2" fill="#E5E7EB"/>
<circle cx="320.353" cy="254" r="2" fill="#E5E7EB"/>
<circle cx="349.294" cy="254" r="2" fill="#E5E7EB"/>
<circle cx="378.235" cy="254" r="2" fill="#E5E7EB"/>
<circle cx="407.176" cy="254" r="2" fill="#E5E7EB"/>
<circle cx="436.118" cy="254" r="2" fill="#E5E7EB"/>
<circle cx="2" cy="282" r="2" fill="#E5E7EB"/>
<circle cx="30.9412" cy="282" r="2" fill="#E5E7EB"/>
<circle cx="59.8824" cy="282" r="2" fill="#E5E7EB"/>
<circle cx="88.8235" cy="282" r="2" fill="#E5E7EB"/>
<circle cx="117.765" cy="282" r="2" fill="#E5E7EB"/>
<circle cx="146.706" cy="282" r="2" fill="#E5E7EB"/>
<circle cx="175.647" cy="282" r="2" fill="#E5E7EB"/>
<circle cx="204.588" cy="282" r="2" fill="#E5E7EB"/>
<circle cx="233.529" cy="282" r="2" fill="#E5E7EB"/>
<circle cx="262.471" cy="282" r="2" fill="#E5E7EB"/>
<circle cx="291.412" cy="282" r="2" fill="#E5E7EB"/>
<circle cx="320.353" cy="282" r="2" fill="#E5E7EB"/>
<circle cx="349.294" cy="282" r="2" fill="#E5E7EB"/>
<circle cx="378.235" cy="282" r="2" fill="#E5E7EB"/>
<circle cx="407.176" cy="282" r="2" fill="#E5E7EB"/>
<circle cx="436.118" cy="282" r="2" fill="#E5E7EB"/>
<circle cx="2" cy="310" r="2" fill="#E5E7EB"/>
<circle cx="30.9412" cy="310" r="2" fill="#E5E7EB"/>
<circle cx="59.8824" cy="310" r="2" fill="#E5E7EB"/>
<circle cx="88.8235" cy="310" r="2" fill="#E5E7EB"/>
<circle cx="117.765" cy="310" r="2" fill="#E5E7EB"/>
<circle cx="146.706" cy="310" r="2" fill="#E5E7EB"/>
<circle cx="175.647" cy="310" r="2" fill="#E5E7EB"/>
<circle cx="204.588" cy="310" r="2" fill="#E5E7EB"/>
<circle cx="233.529" cy="310" r="2" fill="#E5E7EB"/>
<circle cx="262.471" cy="310" r="2" fill="#E5E7EB"/>
<circle cx="291.412" cy="310" r="2" fill="#E5E7EB"/>
<circle cx="320.353" cy="310" r="2" fill="#E5E7EB"/>
<circle cx="349.294" cy="310" r="2" fill="#E5E7EB"/>
<circle cx="378.235" cy="310" r="2" fill="#E5E7EB"/>
<circle cx="407.176" cy="310" r="2" fill="#E5E7EB"/>
<circle cx="436.118" cy="310" r="2" fill="#E5E7EB"/>
<path d="M228 176L228 136" stroke="#9CA3AF" stroke-dasharray="6 6"/>
<rect x="75.5" y="36.5" width="305" height="100" rx="15.5" fill="#F3F4F6"/>
<rect x="75.5" y="36.5" width="305" height="100" rx="15.5" stroke="#E5E7EB"/>
<g filter="url(#filter0_d_7841_8073)">
<rect x="83" y="44" width="290" height="85" rx="10" fill="white"/>
<rect x="83.5" y="44.5" width="289" height="84" rx="9.5" stroke="#E5E7EB"/>
<mask id="path-197-inside-1_7841_8073" fill="white">
<path d="M95 44H361V90H95V44Z"/>
</mask>
<path d="M361 90V89H95V90V91H361V90Z" fill="#E5E7EB" mask="url(#path-197-inside-1_7841_8073)"/>
<rect x="95" y="57" width="20" height="20" rx="6" fill="#00AD75" fill-opacity="0.1"/>
<path d="M102.969 66.375C103.745 66.375 104.375 65.7454 104.375 64.9688C104.375 64.1921 103.745 63.5625 102.969 63.5625C102.192 63.5625 101.562 64.1921 101.562 64.9688C101.562 65.7454 102.192 66.375 102.969 66.375Z" stroke="#00AD75" stroke-linecap="round" stroke-linejoin="round"/>
<path d="M107.031 66.375C107.808 66.375 108.438 65.7454 108.438 64.9688C108.438 64.1921 107.808 63.5625 107.031 63.5625C106.255 63.5625 105.625 64.1921 105.625 64.9688C105.625 65.7454 106.255 66.375 107.031 66.375Z" stroke="#00AD75" stroke-linecap="round" stroke-linejoin="round"/>
<path d="M102.969 70.4375C103.745 70.4375 104.375 69.8079 104.375 69.0312C104.375 68.2546 103.745 67.625 102.969 67.625C102.192 67.625 101.562 68.2546 101.562 69.0312C101.562 69.8079 102.192 70.4375 102.969 70.4375Z" stroke="#00AD75" stroke-linecap="round" stroke-linejoin="round"/>
<path d="M107.031 70.4375C107.808 70.4375 108.438 69.8079 108.438 69.0312C108.438 68.2546 107.808 67.625 107.031 67.625C106.255 67.625 105.625 68.2546 105.625 69.0312C105.625 69.8079 106.255 70.4375 107.031 70.4375Z" stroke="#00AD75" stroke-linecap="round" stroke-linejoin="round"/>
<path d="M132.337 61.8182V72H130.925L125.749 64.5327H125.655V72H124.119V61.8182H125.54L130.721 69.2955H130.815V61.8182H132.337ZM137.749 72.1541C136.997 72.1541 136.349 71.9934 135.806 71.6719C135.265 71.3471 134.848 70.8913 134.553 70.3047C134.261 69.7147 134.115 69.0237 134.115 68.2315C134.115 67.4493 134.261 66.7599 134.553 66.1634C134.848 65.5668 135.259 65.1011 135.786 64.7663C136.316 64.4316 136.936 64.2642 137.645 64.2642C138.076 64.2642 138.494 64.3355 138.898 64.478C139.302 64.6205 139.665 64.8442 139.987 65.1491C140.308 65.4541 140.562 65.8501 140.747 66.3374C140.933 66.8213 141.026 67.4096 141.026 68.1023V68.6293H134.955V67.5156H139.569C139.569 67.1245 139.49 66.7782 139.33 66.4766C139.171 66.1716 138.948 65.9313 138.659 65.7557C138.374 65.58 138.039 65.4922 137.655 65.4922C137.237 65.4922 136.873 65.5949 136.561 65.8004C136.253 66.0026 136.014 66.2678 135.845 66.5959C135.68 66.9207 135.597 67.2737 135.597 67.6548V68.5249C135.597 69.0353 135.686 69.4695 135.865 69.8274C136.048 70.1854 136.301 70.4588 136.626 70.6477C136.951 70.8333 137.33 70.9261 137.764 70.9261C138.046 70.9261 138.303 70.8864 138.535 70.8068C138.767 70.724 138.968 70.6013 139.137 70.4389C139.306 70.2765 139.435 70.076 139.524 69.8374L140.931 70.0909C140.819 70.5052 140.616 70.8681 140.325 71.1797C140.036 71.4879 139.673 71.7282 139.236 71.9006C138.802 72.0696 138.306 72.1541 137.749 72.1541ZM144.317 72L142.07 64.3636H143.606L145.102 69.9716H145.177L146.678 64.3636H148.215L149.706 69.9467H149.781L151.267 64.3636H152.803L150.561 72H149.045L147.494 66.4865H147.379L145.828 72H144.317ZM158.039 72V61.8182H159.575V70.6776H164.188V72H158.039ZM169.113 72.1541C168.36 72.1541 167.712 71.9934 167.169 71.6719C166.629 71.3471 166.211 70.8913 165.916 70.3047C165.624 69.7147 165.479 69.0237 165.479 68.2315C165.479 67.4493 165.624 66.7599 165.916 66.1634C166.211 65.5668 166.622 65.1011 167.149 64.7663C167.679 64.4316 168.299 64.2642 169.008 64.2642C169.439 64.2642 169.857 64.3355 170.261 64.478C170.666 64.6205 171.028 64.8442 171.35 65.1491C171.671 65.4541 171.925 65.8501 172.111 66.3374C172.296 66.8213 172.389 67.4096 172.389 68.1023V68.6293H166.319V67.5156H170.932C170.932 67.1245 170.853 66.7782 170.694 66.4766C170.535 66.1716 170.311 65.9313 170.023 65.7557C169.738 65.58 169.403 65.4922 169.018 65.4922C168.601 65.4922 168.236 65.5949 167.925 65.8004C167.616 66.0026 167.378 66.2678 167.209 66.5959C167.043 66.9207 166.96 67.2737 166.96 67.6548V68.5249C166.96 69.0353 167.05 69.4695 167.229 69.8274C167.411 70.1854 167.664 70.4588 167.989 70.6477C168.314 70.8333 168.693 70.9261 169.128 70.9261C169.409 70.9261 169.666 70.8864 169.898 70.8068C170.13 70.724 170.331 70.6013 170.5 70.4389C170.669 70.2765 170.798 70.076 170.888 69.8374L172.295 70.0909C172.182 70.5052 171.98 70.8681 171.688 71.1797C171.4 71.4879 171.037 71.7282 170.599 71.9006C170.165 72.0696 169.67 72.1541 169.113 72.1541ZM176.261 72.169C175.777 72.169 175.339 72.0795 174.948 71.9006C174.557 71.7183 174.247 71.4548 174.018 71.1101C173.793 70.7654 173.68 70.3428 173.68 69.8423C173.68 69.4115 173.763 69.0568 173.929 68.7784C174.095 68.5 174.318 68.2796 174.6 68.1172C174.882 67.9548 175.197 67.8321 175.545 67.7493C175.893 67.6664 176.247 67.6035 176.609 67.5604C177.066 67.5073 177.437 67.4643 177.722 67.4311C178.007 67.3946 178.214 67.3366 178.344 67.2571C178.473 67.1776 178.538 67.0483 178.538 66.8693V66.8345C178.538 66.4003 178.415 66.0639 178.17 65.8253C177.928 65.5866 177.567 65.4673 177.086 65.4673C176.585 65.4673 176.191 65.5784 175.903 65.8004C175.618 66.0192 175.42 66.2628 175.311 66.5312L173.914 66.2131C174.08 65.7491 174.322 65.3745 174.64 65.0895C174.961 64.8011 175.331 64.5923 175.749 64.4631C176.166 64.3305 176.605 64.2642 177.066 64.2642C177.371 64.2642 177.694 64.3007 178.036 64.3736C178.38 64.4432 178.702 64.5724 179 64.7614C179.302 64.9503 179.549 65.2204 179.741 65.5717C179.933 65.9197 180.029 66.3722 180.029 66.929V72H178.577V70.956H178.518C178.422 71.1482 178.277 71.3371 178.085 71.5227C177.893 71.7083 177.646 71.8625 177.344 71.9851C177.043 72.1077 176.682 72.169 176.261 72.169ZM176.584 70.9759C176.995 70.9759 177.346 70.8946 177.638 70.7322C177.933 70.5698 178.156 70.3577 178.309 70.0959C178.465 69.8307 178.543 69.5473 178.543 69.2457V68.2614C178.49 68.3144 178.387 68.3641 178.234 68.4105C178.085 68.4536 177.915 68.4917 177.722 68.5249C177.53 68.5547 177.343 68.5829 177.161 68.6094C176.978 68.6326 176.826 68.6525 176.703 68.669C176.415 68.7055 176.151 68.7668 175.913 68.853C175.677 68.9392 175.488 69.0634 175.346 69.2259C175.207 69.3849 175.137 69.5971 175.137 69.8622C175.137 70.2301 175.273 70.5085 175.545 70.6974C175.817 70.883 176.163 70.9759 176.584 70.9759ZM184.868 72.1491C184.251 72.1491 183.701 71.9917 183.217 71.6768C182.737 71.3587 182.359 70.9062 182.084 70.3196C181.812 69.7296 181.676 69.022 181.676 68.1967C181.676 67.3714 181.814 66.6655 182.089 66.0788C182.367 65.4922 182.748 65.0431 183.232 64.7315C183.716 64.42 184.265 64.2642 184.878 64.2642C185.352 64.2642 185.733 64.3438 186.021 64.5028C186.313 64.6586 186.538 64.8409 186.697 65.0497C186.86 65.2585 186.986 65.4425 187.075 65.6016H187.165V61.8182H188.651V72H187.199V70.8118H187.075C186.986 70.9742 186.856 71.1598 186.687 71.3686C186.522 71.5774 186.293 71.7597 186.001 71.9155C185.71 72.0713 185.332 72.1491 184.868 72.1491ZM185.196 70.8814C185.623 70.8814 185.985 70.7687 186.28 70.5433C186.578 70.3146 186.803 69.9981 186.956 69.5938C187.112 69.1894 187.189 68.7187 187.189 68.1818C187.189 67.6515 187.113 67.1875 186.961 66.7898C186.808 66.392 186.585 66.0821 186.29 65.8601C185.995 65.638 185.63 65.527 185.196 65.527C184.748 65.527 184.376 65.643 184.077 65.875C183.779 66.107 183.554 66.4235 183.401 66.8246C183.252 67.2256 183.177 67.678 183.177 68.1818C183.177 68.6922 183.254 69.1513 183.406 69.5589C183.559 69.9666 183.784 70.2898 184.082 70.5284C184.384 70.7637 184.755 70.8814 185.196 70.8814ZM195.457 72H193.827L197.491 61.8182H199.265L202.93 72H201.299L198.42 63.6676H198.341L195.457 72ZM195.731 68.0128H201.02V69.3054H195.731V68.0128ZM207.016 72.1491C206.4 72.1491 205.849 71.9917 205.366 71.6768C204.885 71.3587 204.507 70.9062 204.232 70.3196C203.96 69.7296 203.824 69.022 203.824 68.1967C203.824 67.3714 203.962 66.6655 204.237 66.0788C204.515 65.4922 204.897 65.0431 205.381 64.7315C205.864 64.42 206.413 64.2642 207.026 64.2642C207.5 64.2642 207.881 64.3438 208.17 64.5028C208.461 64.6586 208.687 64.8409 208.846 65.0497C209.008 65.2585 209.134 65.4425 209.224 65.6016H209.313V61.8182H210.8V72H209.348V70.8118H209.224C209.134 70.9742 209.005 71.1598 208.836 71.3686C208.67 71.5774 208.441 71.7597 208.15 71.9155C207.858 72.0713 207.48 72.1491 207.016 72.1491ZM207.344 70.8814C207.772 70.8814 208.133 70.7687 208.428 70.5433C208.726 70.3146 208.952 69.9981 209.104 69.5938C209.26 69.1894 209.338 68.7187 209.338 68.1818C209.338 67.6515 209.262 67.1875 209.109 66.7898C208.957 66.392 208.733 66.0821 208.438 65.8601C208.143 65.638 207.778 65.527 207.344 65.527C206.897 65.527 206.524 65.643 206.226 65.875C205.927 66.107 205.702 66.4235 205.55 66.8246C205.4 67.2256 205.326 67.678 205.326 68.1818C205.326 68.6922 205.402 69.1513 205.555 69.5589C205.707 69.9666 205.932 70.2898 206.231 70.5284C206.532 70.7637 206.903 70.8814 207.344 70.8814ZM215.78 72.1491C215.163 72.1491 214.613 71.9917 214.129 71.6768C213.649 71.3587 213.271 70.9062 212.996 70.3196C212.724 69.7296 212.588 69.022 212.588 68.1967C212.588 67.3714 212.726 66.6655 213.001 66.0788C213.279 65.4922 213.66 65.0431 214.144 64.7315C214.628 64.42 215.177 64.2642 215.79 64.2642C216.264 64.2642 216.645 64.3438 216.933 64.5028C217.225 64.6586 217.45 64.8409 217.609 65.0497C217.772 65.2585 217.898 65.4425 217.987 65.6016H218.077V61.8182H219.563V72H218.112V70.8118H217.987C217.898 70.9742 217.768 71.1598 217.599 71.3686C217.434 71.5774 217.205 71.7597 216.913 71.9155C216.622 72.0713 216.244 72.1491 215.78 72.1491ZM216.108 70.8814C216.536 70.8814 216.897 70.7687 217.192 70.5433C217.49 70.3146 217.715 69.9981 217.868 69.5938C218.024 69.1894 218.102 68.7187 218.102 68.1818C218.102 67.6515 218.025 67.1875 217.873 66.7898C217.72 66.392 217.497 66.0821 217.202 65.8601C216.907 65.638 216.542 65.527 216.108 65.527C215.661 65.527 215.288 65.643 214.989 65.875C214.691 66.107 214.466 66.4235 214.313 66.8246C214.164 67.2256 214.089 67.678 214.089 68.1818C214.089 68.6922 214.166 69.1513 214.318 69.5589C214.471 69.9666 214.696 70.2898 214.994 70.5284C215.296 70.7637 215.667 70.8814 216.108 70.8814ZM224.976 72.1541C224.224 72.1541 223.576 71.9934 223.032 71.6719C222.492 71.3471 222.074 70.8913 221.779 70.3047C221.488 69.7147 221.342 69.0237 221.342 68.2315C221.342 67.4493 221.488 66.7599 221.779 66.1634C222.074 65.5668 222.485 65.1011 223.012 64.7663C223.543 64.4316 224.162 64.2642 224.872 64.2642C225.302 64.2642 225.72 64.3355 226.124 64.478C226.529 64.6205 226.892 64.8442 227.213 65.1491C227.535 65.4541 227.788 65.8501 227.974 66.3374C228.16 66.8213 228.252 67.4096 228.252 68.1023V68.6293H222.182V67.5156H226.796C226.796 67.1245 226.716 66.7782 226.557 66.4766C226.398 66.1716 226.174 65.9313 225.886 65.7557C225.601 65.58 225.266 65.4922 224.882 65.4922C224.464 65.4922 224.099 65.5949 223.788 65.8004C223.48 66.0026 223.241 66.2678 223.072 66.5959C222.906 66.9207 222.823 67.2737 222.823 67.6548V68.5249C222.823 69.0353 222.913 69.4695 223.092 69.8274C223.274 70.1854 223.528 70.4588 223.852 70.6477C224.177 70.8333 224.557 70.9261 224.991 70.9261C225.273 70.9261 225.53 70.8864 225.762 70.8068C225.994 70.724 226.194 70.6013 226.363 70.4389C226.532 70.2765 226.661 70.076 226.751 69.8374L228.158 70.0909C228.045 70.5052 227.843 70.8681 227.551 71.1797C227.263 71.4879 226.9 71.7282 226.463 71.9006C226.028 72.0696 225.533 72.1541 224.976 72.1541ZM232.76 72.1491C232.144 72.1491 231.594 71.9917 231.11 71.6768C230.629 71.3587 230.251 70.9062 229.976 70.3196C229.704 69.7296 229.569 69.022 229.569 68.1967C229.569 67.3714 229.706 66.6655 229.981 66.0788C230.26 65.4922 230.641 65.0431 231.125 64.7315C231.609 64.42 232.157 64.2642 232.77 64.2642C233.244 64.2642 233.625 64.3438 233.914 64.5028C234.205 64.6586 234.431 64.8409 234.59 65.0497C234.752 65.2585 234.878 65.4425 234.968 65.6016H235.057V61.8182H236.544V72H235.092V70.8118H234.968C234.878 70.9742 234.749 71.1598 234.58 71.3686C234.414 71.5774 234.185 71.7597 233.894 71.9155C233.602 72.0713 233.224 72.1491 232.76 72.1491ZM233.088 70.8814C233.516 70.8814 233.877 70.7687 234.172 70.5433C234.471 70.3146 234.696 69.9981 234.848 69.5938C235.004 69.1894 235.082 68.7187 235.082 68.1818C235.082 67.6515 235.006 67.1875 234.853 66.7898C234.701 66.392 234.477 66.0821 234.182 65.8601C233.887 65.638 233.523 65.527 233.088 65.527C232.641 65.527 232.268 65.643 231.97 65.875C231.672 66.107 231.446 66.4235 231.294 66.8246C231.145 67.2256 231.07 67.678 231.07 68.1818C231.07 68.6922 231.146 69.1513 231.299 69.5589C231.451 69.9666 231.676 70.2898 231.975 70.5284C232.276 70.7637 232.648 70.8814 233.088 70.8814Z" fill="#181B25"/>
<rect x="314.43" y="57.9297" width="46.1405" height="18.1405" rx="5.57027" fill="#F3F4F6"/>
<rect x="314.43" y="57.9297" width="46.1405" height="18.1405" rx="5.57027" stroke="#E5E7EB" stroke-width="0.859451"/>
<path d="M320.44 64.1719V63.2273H326.069V64.1719H323.8V70.5H322.706V64.1719H320.44ZM326.661 70.5V65.0455H327.687V65.9119H327.744C327.844 65.6184 328.019 65.3875 328.27 65.2195C328.523 65.049 328.809 64.9638 329.129 64.9638C329.195 64.9638 329.273 64.9661 329.363 64.9709C329.456 64.9756 329.528 64.9815 329.58 64.9886V66.0043C329.537 65.9924 329.462 65.9794 329.353 65.9652C329.244 65.9486 329.135 65.9403 329.026 65.9403C328.775 65.9403 328.551 65.9936 328.355 66.1001C328.161 66.2043 328.007 66.3499 327.893 66.5369C327.78 66.7216 327.723 66.9323 327.723 67.169V70.5H326.661ZM330.499 70.5V65.0455H331.561V70.5H330.499ZM331.035 64.2038C330.85 64.2038 330.692 64.1423 330.559 64.0192C330.429 63.8937 330.364 63.7446 330.364 63.5717C330.364 63.3965 330.429 63.2474 330.559 63.1243C330.692 62.9988 330.85 62.9361 331.035 62.9361C331.22 62.9361 331.377 62.9988 331.507 63.1243C331.64 63.2474 331.706 63.3965 331.706 63.5717C331.706 63.7446 331.64 63.8937 331.507 64.0192C331.377 64.1423 331.22 64.2038 331.035 64.2038ZM335.276 72.6591C334.843 72.6591 334.47 72.6023 334.157 72.4886C333.847 72.375 333.594 72.2247 333.398 72.0376C333.201 71.8506 333.054 71.6458 332.957 71.4233L333.87 71.0469C333.934 71.151 334.019 71.2611 334.126 71.3771C334.234 71.4955 334.381 71.5961 334.566 71.679C334.753 71.7618 334.993 71.8033 335.287 71.8033C335.689 71.8033 336.022 71.705 336.285 71.5085C336.547 71.3144 336.679 71.0043 336.679 70.5781V69.5057H336.611C336.547 69.6217 336.455 69.7507 336.334 69.8928C336.216 70.0348 336.053 70.1579 335.844 70.2621C335.636 70.3662 335.365 70.4183 335.031 70.4183C334.6 70.4183 334.212 70.3177 333.866 70.1165C333.523 69.9129 333.251 69.6134 333.05 69.218C332.851 68.8203 332.751 68.3314 332.751 67.7514C332.751 67.1714 332.849 66.6742 333.046 66.2599C333.245 65.8456 333.517 65.5284 333.863 65.3082C334.208 65.0857 334.6 64.9744 335.038 64.9744C335.377 64.9744 335.65 65.0312 335.858 65.1449C336.067 65.2562 336.229 65.3864 336.345 65.5355C336.463 65.6847 336.555 65.8161 336.618 65.9297H336.697V65.0455H337.737V70.6207C337.737 71.0895 337.628 71.4742 337.41 71.7749C337.193 72.0755 336.898 72.2981 336.526 72.4425C336.157 72.5869 335.74 72.6591 335.276 72.6591ZM335.265 69.5376C335.571 69.5376 335.829 69.4666 336.04 69.3246C336.253 69.1802 336.414 68.9742 336.523 68.7067C336.634 68.4368 336.689 68.1136 336.689 67.7372C336.689 67.3703 336.635 67.0471 336.526 66.7678C336.417 66.4884 336.257 66.2706 336.047 66.1143C335.836 65.9557 335.576 65.8764 335.265 65.8764C334.946 65.8764 334.68 65.9593 334.466 66.125C334.253 66.2884 334.092 66.5109 333.983 66.7926C333.877 67.0743 333.824 67.3892 333.824 67.7372C333.824 68.0947 333.878 68.4084 333.987 68.6783C334.096 68.9482 334.257 69.1589 334.47 69.3104C334.685 69.4619 334.951 69.5376 335.265 69.5376ZM341.448 72.6591C341.015 72.6591 340.642 72.6023 340.329 72.4886C340.019 72.375 339.766 72.2247 339.569 72.0376C339.373 71.8506 339.226 71.6458 339.129 71.4233L340.042 71.0469C340.106 71.151 340.191 71.2611 340.297 71.3771C340.406 71.4955 340.553 71.5961 340.738 71.679C340.925 71.7618 341.165 71.8033 341.459 71.8033C341.861 71.8033 342.194 71.705 342.456 71.5085C342.719 71.3144 342.851 71.0043 342.851 70.5781V69.5057H342.783C342.719 69.6217 342.627 69.7507 342.506 69.8928C342.388 70.0348 342.224 70.1579 342.016 70.2621C341.808 70.3662 341.537 70.4183 341.203 70.4183C340.772 70.4183 340.384 70.3177 340.038 70.1165C339.695 69.9129 339.423 69.6134 339.221 69.218C339.023 68.8203 338.923 68.3314 338.923 67.7514C338.923 67.1714 339.021 66.6742 339.218 66.2599C339.417 65.8456 339.689 65.5284 340.035 65.3082C340.38 65.0857 340.772 64.9744 341.21 64.9744C341.549 64.9744 341.822 65.0312 342.03 65.1449C342.239 65.2562 342.401 65.3864 342.517 65.5355C342.635 65.6847 342.726 65.8161 342.79 65.9297H342.868V65.0455H343.909V70.6207C343.909 71.0895 343.8 71.4742 343.582 71.7749C343.364 72.0755 343.07 72.2981 342.698 72.4425C342.329 72.5869 341.912 72.6591 341.448 72.6591ZM341.437 69.5376C341.743 69.5376 342.001 69.4666 342.211 69.3246C342.425 69.1802 342.586 68.9742 342.694 68.7067C342.806 68.4368 342.861 68.1136 342.861 67.7372C342.861 67.3703 342.807 67.0471 342.698 66.7678C342.589 66.4884 342.429 66.2706 342.219 66.1143C342.008 65.9557 341.747 65.8764 341.437 65.8764C341.118 65.8764 340.851 65.9593 340.638 66.125C340.425 66.2884 340.264 66.5109 340.155 66.7926C340.049 67.0743 339.996 67.3892 339.996 67.7372C339.996 68.0947 340.05 68.4084 340.159 68.6783C340.268 68.9482 340.429 69.1589 340.642 69.3104C340.857 69.4619 341.122 69.5376 341.437 69.5376ZM347.684 70.6101C347.146 70.6101 346.684 70.4953 346.295 70.2656C345.909 70.0336 345.611 69.7081 345.4 69.2891C345.192 68.8677 345.088 68.3741 345.088 67.8082C345.088 67.2495 345.192 66.7571 345.4 66.331C345.611 65.9048 345.905 65.5722 346.281 65.3331C346.66 65.094 347.103 64.9744 347.609 64.9744C347.917 64.9744 348.215 65.0253 348.504 65.1271C348.793 65.2289 349.052 65.3887 349.282 65.6065C349.511 65.8243 349.693 66.1072 349.825 66.4553C349.958 66.8009 350.024 67.2211 350.024 67.7159V68.0923H345.688V67.2969H348.983C348.983 67.0175 348.927 66.7701 348.813 66.5547C348.699 66.3369 348.54 66.1652 348.334 66.0398C348.13 65.9143 347.891 65.8516 347.616 65.8516C347.318 65.8516 347.058 65.925 346.835 66.0717C346.615 66.2161 346.444 66.4055 346.324 66.6399C346.205 66.8719 346.146 67.1241 346.146 67.3963V68.0178C346.146 68.3823 346.21 68.6925 346.338 68.9482C346.468 69.2038 346.649 69.3991 346.881 69.5341C347.113 69.6667 347.384 69.733 347.694 69.733C347.896 69.733 348.079 69.7045 348.245 69.6477C348.411 69.5885 348.554 69.5009 348.675 69.3849C348.795 69.2689 348.888 69.1257 348.952 68.9553L349.956 69.1364C349.876 69.4323 349.732 69.6915 349.523 69.9141C349.317 70.1342 349.058 70.3059 348.746 70.429C348.435 70.5497 348.081 70.6101 347.684 70.6101ZM351.202 70.5V65.0455H352.228V65.9119H352.285C352.385 65.6184 352.56 65.3875 352.811 65.2195C353.064 65.049 353.35 64.9638 353.67 64.9638C353.736 64.9638 353.815 64.9661 353.904 64.9709C353.997 64.9756 354.069 64.9815 354.121 64.9886V66.0043C354.078 65.9924 354.003 65.9794 353.894 65.9652C353.785 65.9486 353.676 65.9403 353.567 65.9403C353.316 65.9403 353.092 65.9936 352.896 66.1001C352.702 66.2043 352.548 66.3499 352.434 66.5369C352.321 66.7216 352.264 66.9323 352.264 67.169V70.5H351.202Z" fill="#2B303B"/>
<path d="M96.4148 114H95.3068L98.5114 105.273H99.6023L102.807 114H101.699L99.0909 106.653H99.0227L96.4148 114ZM96.8239 110.591H101.29V111.528H96.8239V110.591ZM108.411 110.062V114H107.405V107.455H108.376V108.477H108.462C108.615 108.145 108.848 107.878 109.161 107.676C109.473 107.472 109.876 107.369 110.371 107.369C110.814 107.369 111.202 107.46 111.534 107.642C111.866 107.821 112.125 108.094 112.31 108.46C112.494 108.824 112.587 109.284 112.587 109.841V114H111.581V109.909C111.581 109.395 111.447 108.994 111.18 108.707C110.913 108.418 110.547 108.273 110.081 108.273C109.76 108.273 109.473 108.342 109.22 108.482C108.97 108.621 108.773 108.824 108.628 109.091C108.483 109.358 108.411 109.682 108.411 110.062ZM117.169 114.136C116.538 114.136 115.994 113.997 115.537 113.719C115.082 113.438 114.731 113.045 114.484 112.543C114.24 112.037 114.118 111.449 114.118 110.778C114.118 110.108 114.24 109.517 114.484 109.006C114.731 108.491 115.075 108.091 115.515 107.804C115.958 107.514 116.475 107.369 117.066 107.369C117.407 107.369 117.744 107.426 118.076 107.54C118.409 107.653 118.711 107.838 118.984 108.094C119.257 108.347 119.474 108.682 119.636 109.099C119.798 109.517 119.879 110.031 119.879 110.642V111.068H114.833V110.199H118.856C118.856 109.83 118.782 109.5 118.635 109.21C118.49 108.92 118.282 108.692 118.012 108.524C117.745 108.357 117.43 108.273 117.066 108.273C116.666 108.273 116.319 108.372 116.027 108.571C115.737 108.767 115.514 109.023 115.358 109.338C115.201 109.653 115.123 109.991 115.123 110.352V110.932C115.123 111.426 115.208 111.845 115.379 112.189C115.552 112.53 115.792 112.79 116.099 112.969C116.406 113.145 116.762 113.233 117.169 113.233C117.433 113.233 117.672 113.196 117.885 113.122C118.1 113.045 118.287 112.932 118.443 112.781C118.599 112.628 118.72 112.437 118.805 112.21L119.777 112.483C119.674 112.812 119.502 113.102 119.261 113.352C119.02 113.599 118.721 113.793 118.366 113.932C118.011 114.068 117.612 114.136 117.169 114.136ZM122.892 114L120.897 107.455H121.954L123.369 112.466H123.437L124.835 107.455H125.909L127.289 112.449H127.358L128.772 107.455H129.829L127.835 114H126.846L125.414 108.972H125.312L123.88 114H122.892ZM135.539 105.273V114H134.534V105.273H135.539ZM140.126 114.136C139.495 114.136 138.951 113.997 138.494 113.719C138.039 113.438 137.688 113.045 137.441 112.543C137.197 112.037 137.075 111.449 137.075 110.778C137.075 110.108 137.197 109.517 137.441 109.006C137.688 108.491 138.032 108.091 138.472 107.804C138.915 107.514 139.433 107.369 140.023 107.369C140.364 107.369 140.701 107.426 141.033 107.54C141.366 107.653 141.668 107.838 141.941 108.094C142.214 108.347 142.431 108.682 142.593 109.099C142.755 109.517 142.836 110.031 142.836 110.642V111.068H137.79V110.199H141.813C141.813 109.83 141.739 109.5 141.592 109.21C141.447 108.92 141.239 108.692 140.969 108.524C140.702 108.357 140.387 108.273 140.023 108.273C139.623 108.273 139.276 108.372 138.984 108.571C138.694 108.767 138.471 109.023 138.315 109.338C138.158 109.653 138.08 109.991 138.08 110.352V110.932C138.08 111.426 138.165 111.845 138.336 112.189C138.509 112.53 138.749 112.79 139.056 112.969C139.363 113.145 139.719 113.233 140.126 113.233C140.39 113.233 140.629 113.196 140.842 113.122C141.058 113.045 141.244 112.932 141.4 112.781C141.556 112.628 141.677 112.437 141.762 112.21L142.734 112.483C142.631 112.812 142.46 113.102 142.218 113.352C141.977 113.599 141.678 113.793 141.323 113.932C140.968 114.068 140.569 114.136 140.126 114.136ZM146.292 114.153C145.877 114.153 145.501 114.075 145.163 113.919C144.825 113.76 144.556 113.531 144.357 113.233C144.158 112.932 144.059 112.568 144.059 112.142C144.059 111.767 144.133 111.463 144.281 111.23C144.428 110.994 144.626 110.81 144.873 110.676C145.12 110.543 145.393 110.443 145.691 110.378C145.992 110.31 146.295 110.256 146.599 110.216C146.996 110.165 147.319 110.126 147.566 110.101C147.816 110.072 147.998 110.026 148.112 109.96C148.228 109.895 148.286 109.781 148.286 109.619V109.585C148.286 109.165 148.171 108.838 147.941 108.605C147.714 108.372 147.369 108.256 146.906 108.256C146.425 108.256 146.049 108.361 145.776 108.571C145.504 108.781 145.312 109.006 145.201 109.244L144.246 108.903C144.417 108.506 144.644 108.196 144.928 107.974C145.215 107.75 145.528 107.594 145.866 107.506C146.207 107.415 146.542 107.369 146.871 107.369C147.082 107.369 147.323 107.395 147.596 107.446C147.871 107.494 148.137 107.595 148.393 107.749C148.651 107.902 148.866 108.134 149.036 108.443C149.207 108.753 149.292 109.168 149.292 109.688V114H148.286V113.114H148.235C148.167 113.256 148.053 113.408 147.894 113.57C147.735 113.732 147.523 113.869 147.259 113.983C146.995 114.097 146.673 114.153 146.292 114.153ZM146.445 113.25C146.843 113.25 147.178 113.172 147.451 113.016C147.727 112.859 147.934 112.658 148.073 112.411C148.215 112.163 148.286 111.903 148.286 111.631V110.71C148.244 110.761 148.15 110.808 148.005 110.851C147.863 110.891 147.698 110.926 147.511 110.957C147.326 110.986 147.146 111.011 146.969 111.034C146.796 111.054 146.656 111.071 146.548 111.085C146.286 111.119 146.042 111.175 145.815 111.251C145.59 111.325 145.408 111.437 145.269 111.588C145.133 111.736 145.065 111.937 145.065 112.193C145.065 112.543 145.194 112.807 145.452 112.986C145.714 113.162 146.045 113.25 146.445 113.25ZM153.599 114.136C153.054 114.136 152.572 113.999 152.154 113.723C151.737 113.445 151.41 113.053 151.174 112.547C150.939 112.038 150.821 111.438 150.821 110.744C150.821 110.057 150.939 109.46 151.174 108.955C151.41 108.449 151.738 108.058 152.159 107.783C152.579 107.507 153.065 107.369 153.616 107.369C154.042 107.369 154.379 107.44 154.626 107.582C154.876 107.722 155.066 107.881 155.197 108.06C155.331 108.236 155.434 108.381 155.508 108.494H155.593V105.273H156.599V114H155.627V112.994H155.508C155.434 113.114 155.329 113.264 155.193 113.446C155.056 113.625 154.862 113.786 154.609 113.928C154.356 114.067 154.02 114.136 153.599 114.136ZM153.735 113.233C154.139 113.233 154.48 113.128 154.758 112.918C155.037 112.705 155.248 112.411 155.393 112.036C155.538 111.658 155.61 111.222 155.61 110.727C155.61 110.239 155.539 109.811 155.397 109.445C155.255 109.075 155.045 108.788 154.767 108.584C154.488 108.376 154.145 108.273 153.735 108.273C153.309 108.273 152.954 108.382 152.67 108.601C152.389 108.817 152.177 109.111 152.035 109.483C151.896 109.852 151.826 110.267 151.826 110.727C151.826 111.193 151.897 111.616 152.039 111.997C152.184 112.375 152.397 112.676 152.679 112.901C152.963 113.122 153.315 113.233 153.735 113.233ZM161.956 114V107.455H162.961V114H161.956ZM162.467 106.364C162.271 106.364 162.102 106.297 161.96 106.163C161.821 106.03 161.751 105.869 161.751 105.682C161.751 105.494 161.821 105.334 161.96 105.2C162.102 105.067 162.271 105 162.467 105C162.663 105 162.831 105.067 162.97 105.2C163.112 105.334 163.183 105.494 163.183 105.682C163.183 105.869 163.112 106.03 162.97 106.163C162.831 106.297 162.663 106.364 162.467 106.364ZM169.44 108.92L168.536 109.176C168.479 109.026 168.396 108.879 168.285 108.737C168.177 108.592 168.029 108.473 167.842 108.379C167.654 108.286 167.414 108.239 167.121 108.239C166.721 108.239 166.387 108.331 166.12 108.516C165.856 108.697 165.724 108.929 165.724 109.21C165.724 109.46 165.815 109.658 165.996 109.803C166.178 109.947 166.462 110.068 166.849 110.165L167.82 110.403C168.406 110.545 168.842 110.763 169.129 111.055C169.415 111.345 169.559 111.719 169.559 112.176C169.559 112.551 169.451 112.886 169.235 113.182C169.022 113.477 168.724 113.71 168.34 113.881C167.957 114.051 167.511 114.136 167.002 114.136C166.335 114.136 165.782 113.991 165.344 113.702C164.907 113.412 164.63 112.989 164.513 112.432L165.468 112.193C165.559 112.545 165.731 112.81 165.984 112.986C166.239 113.162 166.573 113.25 166.985 113.25C167.454 113.25 167.826 113.151 168.102 112.952C168.38 112.75 168.519 112.509 168.519 112.227C168.519 112 168.44 111.81 168.281 111.656C168.121 111.5 167.877 111.384 167.548 111.307L166.457 111.051C165.857 110.909 165.417 110.689 165.136 110.391C164.857 110.089 164.718 109.713 164.718 109.261C164.718 108.892 164.822 108.565 165.029 108.281C165.239 107.997 165.525 107.774 165.886 107.612C166.249 107.45 166.661 107.369 167.121 107.369C167.769 107.369 168.278 107.511 168.647 107.795C169.019 108.08 169.283 108.455 169.44 108.92ZM176.374 114.153C175.959 114.153 175.583 114.075 175.245 113.919C174.907 113.76 174.638 113.531 174.439 113.233C174.24 112.932 174.141 112.568 174.141 112.142C174.141 111.767 174.215 111.463 174.363 111.23C174.51 110.994 174.708 110.81 174.955 110.676C175.202 110.543 175.475 110.443 175.773 110.378C176.074 110.31 176.377 110.256 176.681 110.216C177.078 110.165 177.401 110.126 177.648 110.101C177.898 110.072 178.08 110.026 178.194 109.96C178.31 109.895 178.368 109.781 178.368 109.619V109.585C178.368 109.165 178.253 108.838 178.023 108.605C177.796 108.372 177.451 108.256 176.988 108.256C176.507 108.256 176.131 108.361 175.858 108.571C175.586 108.781 175.394 109.006 175.283 109.244L174.328 108.903C174.499 108.506 174.726 108.196 175.01 107.974C175.297 107.75 175.61 107.594 175.948 107.506C176.289 107.415 176.624 107.369 176.953 107.369C177.164 107.369 177.405 107.395 177.678 107.446C177.953 107.494 178.219 107.595 178.475 107.749C178.733 107.902 178.948 108.134 179.118 108.443C179.289 108.753 179.374 109.168 179.374 109.688V114H178.368V113.114H178.317C178.249 113.256 178.135 113.408 177.976 113.57C177.817 113.732 177.605 113.869 177.341 113.983C177.077 114.097 176.755 114.153 176.374 114.153ZM176.527 113.25C176.925 113.25 177.26 113.172 177.533 113.016C177.809 112.859 178.016 112.658 178.155 112.411C178.297 112.163 178.368 111.903 178.368 111.631V110.71C178.326 110.761 178.232 110.808 178.087 110.851C177.945 110.891 177.78 110.926 177.593 110.957C177.408 110.986 177.228 111.011 177.051 111.034C176.878 111.054 176.738 111.071 176.63 111.085C176.368 111.119 176.124 111.175 175.897 111.251C175.672 111.325 175.49 111.437 175.351 111.588C175.215 111.736 175.147 111.937 175.147 112.193C175.147 112.543 175.276 112.807 175.534 112.986C175.796 113.162 176.127 113.25 176.527 113.25ZM183.681 114.136C183.136 114.136 182.654 113.999 182.237 113.723C181.819 113.445 181.492 113.053 181.256 112.547C181.021 112.038 180.903 111.438 180.903 110.744C180.903 110.057 181.021 109.46 181.256 108.955C181.492 108.449 181.82 108.058 182.241 107.783C182.661 107.507 183.147 107.369 183.698 107.369C184.124 107.369 184.461 107.44 184.708 107.582C184.958 107.722 185.148 107.881 185.279 108.06C185.413 108.236 185.516 108.381 185.59 108.494H185.675V105.273H186.681V114H185.71V112.994H185.59C185.516 113.114 185.411 113.264 185.275 113.446C185.138 113.625 184.944 113.786 184.691 113.928C184.438 114.067 184.102 114.136 183.681 114.136ZM183.817 113.233C184.221 113.233 184.562 113.128 184.84 112.918C185.119 112.705 185.33 112.411 185.475 112.036C185.62 111.658 185.692 111.222 185.692 110.727C185.692 110.239 185.621 109.811 185.479 109.445C185.337 109.075 185.127 108.788 184.849 108.584C184.57 108.376 184.227 108.273 183.817 108.273C183.391 108.273 183.036 108.382 182.752 108.601C182.471 108.817 182.259 109.111 182.117 109.483C181.978 109.852 181.908 110.267 181.908 110.727C181.908 111.193 181.979 111.616 182.121 111.997C182.266 112.375 182.479 112.676 182.761 112.901C183.045 113.122 183.397 113.233 183.817 113.233ZM191.134 114.136C190.589 114.136 190.107 113.999 189.69 113.723C189.272 113.445 188.945 113.053 188.71 112.547C188.474 112.038 188.356 111.438 188.356 110.744C188.356 110.057 188.474 109.46 188.71 108.955C188.945 108.449 189.273 108.058 189.694 107.783C190.114 107.507 190.6 107.369 191.151 107.369C191.577 107.369 191.914 107.44 192.161 107.582C192.411 107.722 192.602 107.881 192.732 108.06C192.866 108.236 192.969 108.381 193.043 108.494H193.129V105.273H194.134V114H193.163V112.994H193.043C192.969 113.114 192.864 113.264 192.728 113.446C192.592 113.625 192.397 113.786 192.144 113.928C191.891 114.067 191.555 114.136 191.134 114.136ZM191.271 113.233C191.674 113.233 192.015 113.128 192.293 112.918C192.572 112.705 192.783 112.411 192.928 112.036C193.073 111.658 193.146 111.222 193.146 110.727C193.146 110.239 193.075 109.811 192.933 109.445C192.79 109.075 192.58 108.788 192.302 108.584C192.023 108.376 191.68 108.273 191.271 108.273C190.844 108.273 190.489 108.382 190.205 108.601C189.924 108.817 189.712 109.111 189.57 109.483C189.431 109.852 189.362 110.267 189.362 110.727C189.362 111.193 189.433 111.616 189.575 111.997C189.719 112.375 189.933 112.676 190.214 112.901C190.498 113.122 190.85 113.233 191.271 113.233ZM198.86 114.136C198.229 114.136 197.685 113.997 197.228 113.719C196.773 113.438 196.423 113.045 196.175 112.543C195.931 112.037 195.809 111.449 195.809 110.778C195.809 110.108 195.931 109.517 196.175 109.006C196.423 108.491 196.766 108.091 197.207 107.804C197.65 107.514 198.167 107.369 198.758 107.369C199.099 107.369 199.435 107.426 199.768 107.54C200.1 107.653 200.403 107.838 200.675 108.094C200.948 108.347 201.165 108.682 201.327 109.099C201.489 109.517 201.57 110.031 201.57 110.642V111.068H196.525V110.199H200.548C200.548 109.83 200.474 109.5 200.326 109.21C200.181 108.92 199.974 108.692 199.704 108.524C199.437 108.357 199.121 108.273 198.758 108.273C198.357 108.273 198.011 108.372 197.718 108.571C197.428 108.767 197.205 109.023 197.049 109.338C196.893 109.653 196.815 109.991 196.815 110.352V110.932C196.815 111.426 196.9 111.845 197.07 112.189C197.244 112.53 197.484 112.79 197.79 112.969C198.097 113.145 198.454 113.233 198.86 113.233C199.124 113.233 199.363 113.196 199.576 113.122C199.792 113.045 199.978 112.932 200.134 112.781C200.29 112.628 200.411 112.437 200.496 112.21L201.468 112.483C201.366 112.812 201.194 113.102 200.952 113.352C200.711 113.599 200.413 113.793 200.058 113.932C199.702 114.068 199.303 114.136 198.86 114.136ZM205.572 114.136C205.026 114.136 204.545 113.999 204.127 113.723C203.71 113.445 203.383 113.053 203.147 112.547C202.911 112.038 202.793 111.438 202.793 110.744C202.793 110.057 202.911 109.46 203.147 108.955C203.383 108.449 203.711 108.058 204.131 107.783C204.552 107.507 205.038 107.369 205.589 107.369C206.015 107.369 206.352 107.44 206.599 107.582C206.849 107.722 207.039 107.881 207.17 108.06C207.303 108.236 207.407 108.381 207.481 108.494H207.566V105.273H208.572V114H207.6V112.994H207.481C207.407 113.114 207.302 113.264 207.165 113.446C207.029 113.625 206.835 113.786 206.582 113.928C206.329 114.067 205.992 114.136 205.572 114.136ZM205.708 113.233C206.112 113.233 206.452 113.128 206.731 112.918C207.009 112.705 207.221 112.411 207.366 112.036C207.511 111.658 207.583 111.222 207.583 110.727C207.583 110.239 207.512 109.811 207.37 109.445C207.228 109.075 207.018 108.788 206.739 108.584C206.461 108.376 206.117 108.273 205.708 108.273C205.282 108.273 204.927 108.382 204.643 108.601C204.362 108.817 204.15 109.111 204.008 109.483C203.869 109.852 203.799 110.267 203.799 110.727C203.799 111.193 203.87 111.616 204.012 111.997C204.157 112.375 204.37 112.676 204.651 112.901C204.935 113.122 205.288 113.233 205.708 113.233ZM216.775 107.455V108.307H213.383V107.455H216.775ZM214.371 105.886H215.377V112.125C215.377 112.409 215.418 112.622 215.501 112.764C215.586 112.903 215.694 112.997 215.825 113.045C215.958 113.091 216.099 113.114 216.246 113.114C216.357 113.114 216.448 113.108 216.519 113.097C216.59 113.082 216.647 113.071 216.69 113.062L216.894 113.966C216.826 113.991 216.731 114.017 216.609 114.043C216.487 114.071 216.332 114.085 216.144 114.085C215.86 114.085 215.582 114.024 215.309 113.902C215.039 113.78 214.815 113.594 214.636 113.344C214.46 113.094 214.371 112.778 214.371 112.398V105.886ZM220.876 114.136C220.286 114.136 219.767 113.996 219.321 113.714C218.878 113.433 218.531 113.04 218.281 112.534C218.034 112.028 217.911 111.437 217.911 110.761C217.911 110.08 218.034 109.484 218.281 108.976C218.531 108.467 218.878 108.072 219.321 107.791C219.767 107.51 220.286 107.369 220.876 107.369C221.467 107.369 221.984 107.51 222.428 107.791C222.874 108.072 223.22 108.467 223.467 108.976C223.717 109.484 223.842 110.08 223.842 110.761C223.842 111.437 223.717 112.028 223.467 112.534C223.22 113.04 222.874 113.433 222.428 113.714C221.984 113.996 221.467 114.136 220.876 114.136ZM220.876 113.233C221.325 113.233 221.695 113.118 221.984 112.888C222.274 112.658 222.489 112.355 222.628 111.98C222.767 111.605 222.837 111.199 222.837 110.761C222.837 110.324 222.767 109.916 222.628 109.538C222.489 109.161 222.274 108.855 221.984 108.622C221.695 108.389 221.325 108.273 220.876 108.273C220.428 108.273 220.058 108.389 219.768 108.622C219.479 108.855 219.264 109.161 219.125 109.538C218.986 109.916 218.916 110.324 218.916 110.761C218.916 111.199 218.986 111.605 219.125 111.98C219.264 112.355 219.479 112.658 219.768 112.888C220.058 113.118 220.428 113.233 220.876 113.233ZM231.599 107.455V108.307H228.207V107.455H231.599ZM229.196 105.886H230.201V112.125C230.201 112.409 230.243 112.622 230.325 112.764C230.41 112.903 230.518 112.997 230.649 113.045C230.782 113.091 230.923 113.114 231.071 113.114C231.181 113.114 231.272 113.108 231.343 113.097C231.414 113.082 231.471 113.071 231.514 113.062L231.718 113.966C231.65 113.991 231.555 114.017 231.433 114.043C231.311 114.071 231.156 114.085 230.968 114.085C230.684 114.085 230.406 114.024 230.133 113.902C229.863 113.78 229.639 113.594 229.46 113.344C229.284 113.094 229.196 112.778 229.196 112.398V105.886ZM234.258 110.062V114H233.252V105.273H234.258V108.477H234.343C234.497 108.139 234.727 107.871 235.034 107.672C235.343 107.47 235.755 107.369 236.27 107.369C236.716 107.369 237.106 107.459 237.441 107.638C237.777 107.814 238.037 108.085 238.221 108.452C238.409 108.815 238.502 109.278 238.502 109.841V114H237.497V109.909C237.497 109.389 237.362 108.987 237.092 108.703C236.825 108.416 236.454 108.273 235.98 108.273C235.65 108.273 235.355 108.342 235.093 108.482C234.835 108.621 234.63 108.824 234.48 109.091C234.332 109.358 234.258 109.682 234.258 110.062ZM243.087 114.136C242.456 114.136 241.912 113.997 241.455 113.719C241 113.438 240.649 113.045 240.402 112.543C240.158 112.037 240.036 111.449 240.036 110.778C240.036 110.108 240.158 109.517 240.402 109.006C240.649 108.491 240.993 108.091 241.433 107.804C241.876 107.514 242.393 107.369 242.984 107.369C243.325 107.369 243.662 107.426 243.994 107.54C244.327 107.653 244.629 107.838 244.902 108.094C245.175 108.347 245.392 108.682 245.554 109.099C245.716 109.517 245.797 110.031 245.797 110.642V111.068H240.751V110.199H244.774C244.774 109.83 244.7 109.5 244.553 109.21C244.408 108.92 244.2 108.692 243.93 108.524C243.663 108.357 243.348 108.273 242.984 108.273C242.584 108.273 242.237 108.372 241.945 108.571C241.655 108.767 241.432 109.023 241.276 109.338C241.119 109.653 241.041 109.991 241.041 110.352V110.932C241.041 111.426 241.126 111.845 241.297 112.189C241.47 112.53 241.71 112.79 242.017 112.969C242.324 113.145 242.68 113.233 243.087 113.233C243.351 113.233 243.589 113.196 243.803 113.122C244.018 113.045 244.205 112.932 244.361 112.781C244.517 112.628 244.638 112.437 244.723 112.21L245.695 112.483C245.592 112.812 245.42 113.102 245.179 113.352C244.938 113.599 244.639 113.793 244.284 113.932C243.929 114.068 243.53 114.136 243.087 114.136ZM257.861 108H256.804C256.741 107.696 256.632 107.429 256.476 107.199C256.322 106.969 256.135 106.776 255.913 106.619C255.695 106.46 255.452 106.341 255.185 106.261C254.918 106.182 254.639 106.142 254.349 106.142C253.821 106.142 253.342 106.276 252.913 106.543C252.487 106.81 252.148 107.203 251.895 107.723C251.645 108.243 251.52 108.881 251.52 109.636C251.52 110.392 251.645 111.03 251.895 111.55C252.148 112.07 252.487 112.463 252.913 112.73C253.342 112.997 253.821 113.131 254.349 113.131C254.639 113.131 254.918 113.091 255.185 113.011C255.452 112.932 255.695 112.814 255.913 112.658C256.135 112.499 256.322 112.304 256.476 112.074C256.632 111.841 256.741 111.574 256.804 111.273H257.861C257.781 111.719 257.636 112.118 257.426 112.47C257.216 112.822 256.955 113.122 256.642 113.369C256.33 113.614 255.979 113.8 255.589 113.928C255.203 114.055 254.79 114.119 254.349 114.119C253.605 114.119 252.943 113.938 252.364 113.574C251.784 113.21 251.328 112.693 250.996 112.023C250.663 111.352 250.497 110.557 250.497 109.636C250.497 108.716 250.663 107.92 250.996 107.25C251.328 106.58 251.784 106.062 252.364 105.699C252.943 105.335 253.605 105.153 254.349 105.153C254.79 105.153 255.203 105.217 255.589 105.345C255.979 105.473 256.33 105.661 256.642 105.908C256.955 106.152 257.216 106.45 257.426 106.803C257.636 107.152 257.781 107.551 257.861 108ZM259.569 114V105.273H262.517C263.199 105.273 263.759 105.389 264.196 105.622C264.634 105.852 264.958 106.169 265.168 106.572C265.378 106.976 265.483 107.435 265.483 107.949C265.483 108.463 265.378 108.919 265.168 109.317C264.958 109.714 264.635 110.027 264.201 110.254C263.766 110.479 263.211 110.591 262.534 110.591H260.148V109.636H262.5C262.966 109.636 263.341 109.568 263.625 109.432C263.912 109.295 264.12 109.102 264.248 108.852C264.378 108.599 264.444 108.298 264.444 107.949C264.444 107.599 264.378 107.294 264.248 107.033C264.117 106.771 263.908 106.57 263.621 106.428C263.334 106.283 262.955 106.21 262.483 106.21H260.625V114H259.569ZM263.676 110.08L265.824 114H264.597L262.483 110.08H263.676ZM267.244 105.273H268.506L271.472 112.517H271.574L274.54 105.273H275.801V114H274.812V107.369H274.727L272 114H271.045L268.318 107.369H268.233V114H267.244V105.273ZM278.517 114.068C278.306 114.068 278.126 113.993 277.975 113.842C277.825 113.692 277.75 113.511 277.75 113.301C277.75 113.091 277.825 112.911 277.975 112.76C278.126 112.609 278.306 112.534 278.517 112.534C278.727 112.534 278.907 112.609 279.058 112.76C279.208 112.911 279.284 113.091 279.284 113.301C279.284 113.44 279.248 113.568 279.177 113.685C279.109 113.801 279.017 113.895 278.9 113.966C278.787 114.034 278.659 114.068 278.517 114.068Z" fill="#717784"/>
</g>
<rect x="75.5" y="176.5" width="305" height="100" rx="15.5" fill="#F3F4F6"/>
<rect x="75.5" y="176.5" width="305" height="100" rx="15.5" stroke="#E5E7EB"/>
<g filter="url(#filter1_d_7841_8073)">
<rect x="83" y="184" width="290" height="85" rx="10" fill="white"/>
<rect x="83.5" y="184.5" width="289" height="84" rx="9.5" stroke="#E5E7EB"/>
<mask id="path-211-inside-2_7841_8073" fill="white">
<path d="M95 184H361V230H95V184Z"/>
</mask>
<path d="M361 230V229H95V230V231H361V230Z" fill="#E5E7EB" mask="url(#path-211-inside-2_7841_8073)"/>
<rect x="95" y="197" width="20" height="20" rx="6" fill="#2563EB" fill-opacity="0.1"/>
<path d="M101.25 207H107.188" stroke="#2563EB" stroke-linecap="round" stroke-linejoin="round"/>
<path d="M104.375 204.188L107.188 207L104.375 209.812" stroke="#2563EB" stroke-linecap="round" stroke-linejoin="round"/>
<path d="M108.438 203.562V210.438" stroke="#2563EB" stroke-linecap="round" stroke-linejoin="round"/>
<path d="M124.979 212H123.348L127.012 201.818H128.787L132.451 212H130.82L127.942 203.668H127.862L124.979 212ZM125.252 208.013H130.542V209.305H125.252V208.013ZM139.47 206.228L138.122 206.467C138.066 206.294 137.977 206.13 137.854 205.974C137.735 205.819 137.572 205.691 137.367 205.592C137.161 205.492 136.904 205.442 136.596 205.442C136.175 205.442 135.824 205.537 135.542 205.726C135.26 205.911 135.119 206.152 135.119 206.447C135.119 206.702 135.214 206.907 135.403 207.063C135.592 207.219 135.897 207.347 136.318 207.446L137.531 207.724C138.233 207.887 138.757 208.137 139.102 208.475C139.446 208.813 139.619 209.252 139.619 209.793C139.619 210.25 139.486 210.658 139.221 211.016C138.959 211.37 138.593 211.649 138.122 211.851C137.655 212.053 137.113 212.154 136.497 212.154C135.642 212.154 134.944 211.972 134.404 211.607C133.863 211.239 133.532 210.717 133.409 210.041L134.846 209.822C134.936 210.197 135.119 210.48 135.398 210.673C135.676 210.862 136.039 210.956 136.487 210.956C136.974 210.956 137.363 210.855 137.655 210.653C137.947 210.447 138.093 210.197 138.093 209.902C138.093 209.663 138.003 209.463 137.824 209.3C137.648 209.138 137.378 209.015 137.014 208.933L135.721 208.649C135.008 208.487 134.481 208.228 134.14 207.874C133.802 207.519 133.633 207.07 133.633 206.526C133.633 206.076 133.759 205.681 134.011 205.343C134.263 205.005 134.611 204.741 135.055 204.553C135.499 204.36 136.008 204.264 136.581 204.264C137.406 204.264 138.056 204.443 138.53 204.801C139.004 205.156 139.317 205.631 139.47 206.228ZM146.975 206.228L145.628 206.467C145.572 206.294 145.482 206.13 145.36 205.974C145.24 205.819 145.078 205.691 144.873 205.592C144.667 205.492 144.41 205.442 144.102 205.442C143.681 205.442 143.33 205.537 143.048 205.726C142.766 205.911 142.625 206.152 142.625 206.447C142.625 206.702 142.72 206.907 142.909 207.063C143.098 207.219 143.403 207.347 143.824 207.446L145.037 207.724C145.739 207.887 146.263 208.137 146.608 208.475C146.952 208.813 147.125 209.252 147.125 209.793C147.125 210.25 146.992 210.658 146.727 211.016C146.465 211.37 146.099 211.649 145.628 211.851C145.161 212.053 144.619 212.154 144.002 212.154C143.147 212.154 142.45 211.972 141.909 211.607C141.369 211.239 141.038 210.717 140.915 210.041L142.352 209.822C142.441 210.197 142.625 210.48 142.904 210.673C143.182 210.862 143.545 210.956 143.993 210.956C144.48 210.956 144.869 210.855 145.161 210.653C145.453 210.447 145.598 210.197 145.598 209.902C145.598 209.663 145.509 209.463 145.33 209.3C145.154 209.138 144.884 209.015 144.52 208.933L143.227 208.649C142.514 208.487 141.987 208.228 141.646 207.874C141.308 207.519 141.139 207.07 141.139 206.526C141.139 206.076 141.265 205.681 141.517 205.343C141.769 205.005 142.117 204.741 142.561 204.553C143.005 204.36 143.514 204.264 144.087 204.264C144.912 204.264 145.562 204.443 146.036 204.801C146.51 205.156 146.823 205.631 146.975 206.228ZM148.759 212V204.364H150.246V212H148.759ZM149.51 203.185C149.251 203.185 149.029 203.099 148.844 202.927C148.661 202.751 148.57 202.542 148.57 202.3C148.57 202.055 148.661 201.846 148.844 201.674C149.029 201.498 149.251 201.411 149.51 201.411C149.768 201.411 149.989 201.498 150.171 201.674C150.357 201.846 150.449 202.055 150.449 202.3C150.449 202.542 150.357 202.751 150.171 202.927C149.989 203.099 149.768 203.185 149.51 203.185ZM155.447 215.023C154.841 215.023 154.319 214.943 153.881 214.784C153.447 214.625 153.092 214.415 152.817 214.153C152.542 213.891 152.337 213.604 152.201 213.293L153.478 212.766C153.568 212.911 153.687 213.066 153.836 213.228C153.989 213.394 154.194 213.535 154.453 213.651C154.715 213.767 155.051 213.825 155.462 213.825C156.025 213.825 156.491 213.687 156.859 213.412C157.227 213.14 157.411 212.706 157.411 212.109V210.608H157.316C157.227 210.77 157.098 210.951 156.929 211.15C156.763 211.349 156.534 211.521 156.243 211.667C155.951 211.813 155.571 211.886 155.104 211.886C154.501 211.886 153.957 211.745 153.473 211.463C152.993 211.178 152.612 210.759 152.33 210.205C152.051 209.648 151.912 208.964 151.912 208.152C151.912 207.34 152.05 206.644 152.325 206.064C152.603 205.484 152.984 205.04 153.468 204.732C153.952 204.42 154.501 204.264 155.114 204.264C155.588 204.264 155.971 204.344 156.262 204.503C156.554 204.659 156.781 204.841 156.944 205.05C157.109 205.259 157.237 205.442 157.326 205.602H157.436V204.364H158.892V212.169C158.892 212.825 158.74 213.364 158.435 213.785C158.13 214.206 157.717 214.517 157.197 214.719C156.68 214.922 156.097 215.023 155.447 215.023ZM155.432 210.653C155.86 210.653 156.221 210.553 156.516 210.354C156.814 210.152 157.04 209.864 157.192 209.489C157.348 209.112 157.426 208.659 157.426 208.132C157.426 207.618 157.35 207.166 157.197 206.775C157.045 206.384 156.821 206.079 156.526 205.86C156.231 205.638 155.866 205.527 155.432 205.527C154.985 205.527 154.612 205.643 154.314 205.875C154.015 206.104 153.79 206.415 153.637 206.81C153.488 207.204 153.414 207.645 153.414 208.132C153.414 208.633 153.49 209.072 153.642 209.45C153.795 209.827 154.02 210.122 154.319 210.335C154.62 210.547 154.991 210.653 155.432 210.653ZM162.373 207.466V212H160.886V204.364H162.313V205.607H162.407C162.583 205.202 162.858 204.877 163.233 204.632C163.61 204.387 164.086 204.264 164.659 204.264C165.18 204.264 165.636 204.374 166.027 204.592C166.418 204.808 166.721 205.129 166.936 205.557C167.152 205.984 167.26 206.513 167.26 207.143V212H165.773V207.322C165.773 206.768 165.629 206.336 165.341 206.024C165.052 205.709 164.656 205.552 164.152 205.552C163.808 205.552 163.501 205.626 163.233 205.776C162.967 205.925 162.757 206.143 162.601 206.432C162.449 206.717 162.373 207.062 162.373 207.466ZM173.078 212V201.818H174.614V210.678H179.227V212H173.078ZM184.152 212.154C183.399 212.154 182.751 211.993 182.208 211.672C181.668 211.347 181.25 210.891 180.955 210.305C180.663 209.715 180.518 209.024 180.518 208.232C180.518 207.449 180.663 206.76 180.955 206.163C181.25 205.567 181.661 205.101 182.188 204.766C182.718 204.432 183.338 204.264 184.047 204.264C184.478 204.264 184.896 204.335 185.3 204.478C185.705 204.621 186.068 204.844 186.389 205.149C186.711 205.454 186.964 205.85 187.15 206.337C187.335 206.821 187.428 207.41 187.428 208.102V208.629H181.358V207.516H185.971C185.971 207.125 185.892 206.778 185.733 206.477C185.574 206.172 185.35 205.931 185.062 205.756C184.777 205.58 184.442 205.492 184.057 205.492C183.64 205.492 183.275 205.595 182.964 205.8C182.655 206.003 182.417 206.268 182.248 206.596C182.082 206.921 181.999 207.274 181.999 207.655V208.525C181.999 209.035 182.089 209.469 182.268 209.827C182.45 210.185 182.703 210.459 183.028 210.648C183.353 210.833 183.733 210.926 184.167 210.926C184.448 210.926 184.705 210.886 184.937 210.807C185.169 210.724 185.37 210.601 185.539 210.439C185.708 210.277 185.837 210.076 185.927 209.837L187.334 210.091C187.221 210.505 187.019 210.868 186.727 211.18C186.439 211.488 186.076 211.728 185.638 211.901C185.204 212.07 184.709 212.154 184.152 212.154ZM191.3 212.169C190.816 212.169 190.378 212.08 189.987 211.901C189.596 211.718 189.286 211.455 189.058 211.11C188.832 210.765 188.719 210.343 188.719 209.842C188.719 209.411 188.802 209.057 188.968 208.778C189.134 208.5 189.357 208.28 189.639 208.117C189.921 207.955 190.236 207.832 190.584 207.749C190.932 207.666 191.286 207.603 191.648 207.56C192.105 207.507 192.476 207.464 192.761 207.431C193.046 207.395 193.254 207.337 193.383 207.257C193.512 207.178 193.577 207.048 193.577 206.869V206.835C193.577 206.4 193.454 206.064 193.209 205.825C192.967 205.587 192.606 205.467 192.125 205.467C191.625 205.467 191.23 205.578 190.942 205.8C190.657 206.019 190.46 206.263 190.35 206.531L188.953 206.213C189.119 205.749 189.361 205.375 189.679 205.089C190 204.801 190.37 204.592 190.788 204.463C191.205 204.33 191.644 204.264 192.105 204.264C192.41 204.264 192.733 204.301 193.075 204.374C193.419 204.443 193.741 204.572 194.039 204.761C194.341 204.95 194.588 205.22 194.78 205.572C194.972 205.92 195.068 206.372 195.068 206.929V212H193.616V210.956H193.557C193.461 211.148 193.317 211.337 193.124 211.523C192.932 211.708 192.685 211.862 192.384 211.985C192.082 212.108 191.721 212.169 191.3 212.169ZM191.623 210.976C192.034 210.976 192.385 210.895 192.677 210.732C192.972 210.57 193.196 210.358 193.348 210.096C193.504 209.831 193.582 209.547 193.582 209.246V208.261C193.529 208.314 193.426 208.364 193.273 208.411C193.124 208.454 192.954 208.492 192.761 208.525C192.569 208.555 192.382 208.583 192.2 208.609C192.017 208.633 191.865 208.652 191.742 208.669C191.454 208.705 191.19 208.767 190.952 208.853C190.716 208.939 190.527 209.063 190.385 209.226C190.246 209.385 190.176 209.597 190.176 209.862C190.176 210.23 190.312 210.509 190.584 210.697C190.856 210.883 191.202 210.976 191.623 210.976ZM199.907 212.149C199.29 212.149 198.74 211.992 198.256 211.677C197.776 211.359 197.398 210.906 197.123 210.32C196.851 209.73 196.715 209.022 196.715 208.197C196.715 207.371 196.853 206.665 197.128 206.079C197.406 205.492 197.787 205.043 198.271 204.732C198.755 204.42 199.304 204.264 199.917 204.264C200.391 204.264 200.772 204.344 201.06 204.503C201.352 204.659 201.577 204.841 201.736 205.05C201.899 205.259 202.025 205.442 202.114 205.602H202.204V201.818H203.69V212H202.238V210.812H202.114C202.025 210.974 201.895 211.16 201.726 211.369C201.561 211.577 201.332 211.76 201.04 211.915C200.749 212.071 200.371 212.149 199.907 212.149ZM200.235 210.881C200.662 210.881 201.024 210.769 201.319 210.543C201.617 210.315 201.842 209.998 201.995 209.594C202.151 209.189 202.229 208.719 202.229 208.182C202.229 207.652 202.152 207.187 202 206.79C201.847 206.392 201.624 206.082 201.329 205.86C201.034 205.638 200.669 205.527 200.235 205.527C199.787 205.527 199.415 205.643 199.116 205.875C198.818 206.107 198.593 206.424 198.44 206.825C198.291 207.226 198.216 207.678 198.216 208.182C198.216 208.692 198.293 209.151 198.445 209.559C198.598 209.967 198.823 210.29 199.121 210.528C199.423 210.764 199.794 210.881 200.235 210.881Z" fill="#181B25"/>
<rect x="318.43" y="197.93" width="42.1405" height="18.1405" rx="5.57027" fill="#F3F4F6"/>
<rect x="318.43" y="197.93" width="42.1405" height="18.1405" rx="5.57027" stroke="#E5E7EB" stroke-width="0.859451"/>
<path d="M325.413 210.5H324.249L326.866 203.227H328.134L330.751 210.5H329.586L327.53 204.548H327.473L325.413 210.5ZM325.609 207.652H329.387V208.575H325.609V207.652ZM333.925 210.61C333.397 210.61 332.943 210.491 332.562 210.251C332.183 210.01 331.892 209.677 331.688 209.254C331.485 208.83 331.383 208.344 331.383 207.798C331.383 207.244 331.487 206.755 331.695 206.331C331.904 205.905 332.197 205.572 332.576 205.333C332.955 205.094 333.401 204.974 333.915 204.974C334.329 204.974 334.698 205.051 335.023 205.205C335.347 205.357 335.609 205.57 335.808 205.844C336.009 206.119 336.128 206.44 336.166 206.807H335.133C335.076 206.551 334.946 206.331 334.742 206.146C334.541 205.962 334.271 205.869 333.933 205.869C333.637 205.869 333.377 205.947 333.155 206.104C332.935 206.258 332.763 206.478 332.64 206.764C332.517 207.048 332.455 207.384 332.455 207.773C332.455 208.17 332.516 208.514 332.636 208.803C332.757 209.091 332.928 209.315 333.148 209.474C333.37 209.632 333.632 209.712 333.933 209.712C334.134 209.712 334.316 209.675 334.479 209.602C334.645 209.526 334.784 209.418 334.895 209.278C335.009 209.139 335.088 208.971 335.133 208.774H336.166C336.128 209.127 336.013 209.442 335.822 209.719C335.63 209.996 335.373 210.214 335.051 210.372C334.732 210.531 334.356 210.61 333.925 210.61ZM339.848 205.045V205.898H336.868V205.045H339.848ZM337.667 203.739H338.729V208.898C338.729 209.104 338.76 209.259 338.822 209.364C338.883 209.465 338.962 209.535 339.059 209.573C339.159 209.609 339.267 209.626 339.383 209.626C339.468 209.626 339.542 209.621 339.606 209.609C339.67 209.597 339.72 209.587 339.756 209.58L339.947 210.457C339.886 210.481 339.798 210.505 339.684 210.528C339.571 210.554 339.429 210.569 339.258 210.571C338.979 210.576 338.719 210.526 338.477 210.422C338.236 210.318 338.04 210.157 337.891 209.939C337.742 209.721 337.667 209.448 337.667 209.119V203.739ZM341.022 210.5V205.045H342.084V210.5H341.022ZM341.559 204.204C341.374 204.204 341.215 204.142 341.083 204.019C340.953 203.894 340.887 203.745 340.887 203.572C340.887 203.397 340.953 203.247 341.083 203.124C341.215 202.999 341.374 202.936 341.559 202.936C341.743 202.936 341.901 202.999 342.031 203.124C342.163 203.247 342.23 203.397 342.23 203.572C342.23 203.745 342.163 203.894 342.031 204.019C341.901 204.142 341.743 204.204 341.559 204.204ZM345.81 210.61C345.299 210.61 344.853 210.493 344.471 210.259C344.09 210.024 343.794 209.696 343.584 209.275C343.373 208.853 343.268 208.361 343.268 207.798C343.268 207.232 343.373 206.737 343.584 206.313C343.794 205.889 344.09 205.56 344.471 205.326C344.853 205.092 345.299 204.974 345.81 204.974C346.322 204.974 346.768 205.092 347.149 205.326C347.53 205.56 347.826 205.889 348.037 206.313C348.247 206.737 348.353 207.232 348.353 207.798C348.353 208.361 348.247 208.853 348.037 209.275C347.826 209.696 347.53 210.024 347.149 210.259C346.768 210.493 346.322 210.61 345.81 210.61ZM345.814 209.719C346.145 209.719 346.42 209.631 346.638 209.456C346.855 209.281 347.016 209.048 347.121 208.756C347.227 208.465 347.28 208.144 347.28 207.794C347.28 207.446 347.227 207.126 347.121 206.835C347.016 206.542 346.855 206.306 346.638 206.129C346.42 205.951 346.145 205.862 345.814 205.862C345.48 205.862 345.203 205.951 344.983 206.129C344.765 206.306 344.603 206.542 344.496 206.835C344.392 207.126 344.34 207.446 344.34 207.794C344.34 208.144 344.392 208.465 344.496 208.756C344.603 209.048 344.765 209.281 344.983 209.456C345.203 209.631 345.48 209.719 345.814 209.719ZM350.6 207.261V210.5H349.538V205.045H350.557V205.933H350.625C350.75 205.644 350.947 205.412 351.214 205.237C351.484 205.062 351.824 204.974 352.233 204.974C352.605 204.974 352.931 205.053 353.21 205.209C353.489 205.363 353.706 205.592 353.86 205.898C354.014 206.203 354.091 206.581 354.091 207.031V210.5H353.029V207.158C353.029 206.763 352.926 206.454 352.72 206.232C352.514 206.007 352.231 205.894 351.871 205.894C351.625 205.894 351.406 205.947 351.214 206.054C351.025 206.161 350.874 206.317 350.763 206.523C350.654 206.726 350.6 206.973 350.6 207.261Z" fill="#2B303B"/>
<path d="M96.4148 254H95.3068L98.5114 245.273H99.6023L102.807 254H101.699L99.0909 246.653H99.0227L96.4148 254ZM96.8239 250.591H101.29V251.528H96.8239V250.591ZM108.666 248.92L107.763 249.176C107.706 249.026 107.622 248.879 107.511 248.737C107.403 248.592 107.256 248.473 107.068 248.379C106.881 248.286 106.641 248.239 106.348 248.239C105.947 248.239 105.614 248.331 105.347 248.516C105.082 248.697 104.95 248.929 104.95 249.21C104.95 249.46 105.041 249.658 105.223 249.803C105.405 249.947 105.689 250.068 106.075 250.165L107.047 250.403C107.632 250.545 108.068 250.763 108.355 251.055C108.642 251.345 108.786 251.719 108.786 252.176C108.786 252.551 108.678 252.886 108.462 253.182C108.249 253.477 107.95 253.71 107.567 253.881C107.183 254.051 106.737 254.136 106.229 254.136C105.561 254.136 105.009 253.991 104.571 253.702C104.134 253.412 103.857 252.989 103.74 252.432L104.695 252.193C104.786 252.545 104.957 252.81 105.21 252.986C105.466 253.162 105.8 253.25 106.212 253.25C106.68 253.25 107.053 253.151 107.328 252.952C107.607 252.75 107.746 252.509 107.746 252.227C107.746 252 107.666 251.81 107.507 251.656C107.348 251.5 107.104 251.384 106.774 251.307L105.683 251.051C105.084 250.909 104.643 250.689 104.362 250.391C104.084 250.089 103.945 249.713 103.945 249.261C103.945 248.892 104.048 248.565 104.256 248.281C104.466 247.997 104.751 247.774 105.112 247.612C105.476 247.45 105.888 247.369 106.348 247.369C106.996 247.369 107.504 247.511 107.874 247.795C108.246 248.08 108.51 248.455 108.666 248.92ZM114.936 248.92L114.032 249.176C113.975 249.026 113.892 248.879 113.781 248.737C113.673 248.592 113.525 248.473 113.338 248.379C113.15 248.286 112.91 248.239 112.618 248.239C112.217 248.239 111.883 248.331 111.616 248.516C111.352 248.697 111.22 248.929 111.22 249.21C111.22 249.46 111.311 249.658 111.493 249.803C111.674 249.947 111.958 250.068 112.345 250.165L113.316 250.403C113.902 250.545 114.338 250.763 114.625 251.055C114.912 251.345 115.055 251.719 115.055 252.176C115.055 252.551 114.947 252.886 114.731 253.182C114.518 253.477 114.22 253.71 113.836 253.881C113.453 254.051 113.007 254.136 112.498 254.136C111.831 254.136 111.278 253.991 110.841 253.702C110.403 253.412 110.126 252.989 110.01 252.432L110.964 252.193C111.055 252.545 111.227 252.81 111.48 252.986C111.735 253.162 112.069 253.25 112.481 253.25C112.95 253.25 113.322 253.151 113.598 252.952C113.876 252.75 114.015 252.509 114.015 252.227C114.015 252 113.936 251.81 113.777 251.656C113.618 251.5 113.373 251.384 113.044 251.307L111.953 251.051C111.353 250.909 110.913 250.689 110.632 250.391C110.353 250.089 110.214 249.713 110.214 249.261C110.214 248.892 110.318 248.565 110.525 248.281C110.735 247.997 111.021 247.774 111.382 247.612C111.745 247.45 112.157 247.369 112.618 247.369C113.265 247.369 113.774 247.511 114.143 247.795C114.515 248.08 114.779 248.455 114.936 248.92ZM116.569 254V247.455H117.575V254H116.569ZM117.08 246.364C116.884 246.364 116.715 246.297 116.573 246.163C116.434 246.03 116.364 245.869 116.364 245.682C116.364 245.494 116.434 245.334 116.573 245.2C116.715 245.067 116.884 245 117.08 245C117.276 245 117.444 245.067 117.583 245.2C117.725 245.334 117.796 245.494 117.796 245.682C117.796 245.869 117.725 246.03 117.583 246.163C117.444 246.297 117.276 246.364 117.08 246.364ZM122.059 256.591C121.573 256.591 121.155 256.528 120.806 256.403C120.456 256.281 120.165 256.119 119.932 255.918C119.702 255.719 119.519 255.506 119.382 255.278L120.184 254.716C120.275 254.835 120.39 254.972 120.529 255.125C120.668 255.281 120.858 255.416 121.1 255.53C121.344 255.646 121.664 255.705 122.059 255.705C122.587 255.705 123.023 255.577 123.367 255.321C123.711 255.065 123.882 254.665 123.882 254.119V252.79H123.797C123.723 252.909 123.618 253.057 123.482 253.233C123.348 253.406 123.155 253.561 122.902 253.697C122.652 253.831 122.314 253.898 121.888 253.898C121.36 253.898 120.885 253.773 120.465 253.523C120.047 253.273 119.716 252.909 119.472 252.432C119.23 251.955 119.11 251.375 119.11 250.693C119.11 250.023 119.228 249.439 119.463 248.942C119.699 248.442 120.027 248.055 120.448 247.783C120.868 247.507 121.354 247.369 121.905 247.369C122.331 247.369 122.669 247.44 122.919 247.582C123.172 247.722 123.365 247.881 123.499 248.06C123.635 248.236 123.74 248.381 123.814 248.494H123.917V247.455H124.888V254.188C124.888 254.75 124.76 255.207 124.505 255.56C124.252 255.915 123.911 256.175 123.482 256.339C123.056 256.507 122.581 256.591 122.059 256.591ZM122.025 252.994C122.428 252.994 122.769 252.902 123.047 252.717C123.326 252.533 123.537 252.267 123.682 251.92C123.827 251.574 123.9 251.159 123.9 250.676C123.9 250.205 123.828 249.788 123.686 249.428C123.544 249.067 123.334 248.784 123.056 248.58C122.777 248.375 122.434 248.273 122.025 248.273C121.598 248.273 121.243 248.381 120.959 248.597C120.678 248.812 120.466 249.102 120.324 249.466C120.185 249.83 120.115 250.233 120.115 250.676C120.115 251.131 120.186 251.533 120.328 251.882C120.473 252.229 120.686 252.501 120.968 252.7C121.252 252.896 121.604 252.994 122.025 252.994ZM127.735 250.062V254H126.729V247.455H127.701V248.477H127.786C127.939 248.145 128.172 247.878 128.485 247.676C128.797 247.472 129.201 247.369 129.695 247.369C130.138 247.369 130.526 247.46 130.858 247.642C131.191 247.821 131.449 248.094 131.634 248.46C131.819 248.824 131.911 249.284 131.911 249.841V254H130.905V249.909C130.905 249.395 130.772 248.994 130.505 248.707C130.238 248.418 129.871 248.273 129.405 248.273C129.084 248.273 128.797 248.342 128.544 248.482C128.294 248.621 128.097 248.824 127.952 249.091C127.807 249.358 127.735 249.682 127.735 250.062ZM139.97 247.455V248.307H136.578V247.455H139.97ZM137.567 245.886H138.572V252.125C138.572 252.409 138.614 252.622 138.696 252.764C138.781 252.903 138.889 252.997 139.02 253.045C139.153 253.091 139.294 253.114 139.442 253.114C139.553 253.114 139.643 253.108 139.714 253.097C139.786 253.082 139.842 253.071 139.885 253.062L140.089 253.966C140.021 253.991 139.926 254.017 139.804 254.043C139.682 254.071 139.527 254.085 139.339 254.085C139.055 254.085 138.777 254.024 138.504 253.902C138.234 253.78 138.01 253.594 137.831 253.344C137.655 253.094 137.567 252.778 137.567 252.398V245.886ZM142.629 250.062V254H141.624V245.273H142.629V248.477H142.714C142.868 248.139 143.098 247.871 143.405 247.672C143.714 247.47 144.126 247.369 144.641 247.369C145.087 247.369 145.477 247.459 145.812 247.638C146.148 247.814 146.408 248.085 146.592 248.452C146.78 248.815 146.874 249.278 146.874 249.841V254H145.868V249.909C145.868 249.389 145.733 248.987 145.463 248.703C145.196 248.416 144.825 248.273 144.351 248.273C144.021 248.273 143.726 248.342 143.464 248.482C143.206 248.621 143.001 248.824 142.851 249.091C142.703 249.358 142.629 249.682 142.629 250.062ZM151.458 254.136C150.827 254.136 150.283 253.997 149.826 253.719C149.371 253.438 149.02 253.045 148.773 252.543C148.529 252.037 148.407 251.449 148.407 250.778C148.407 250.108 148.529 249.517 148.773 249.006C149.02 248.491 149.364 248.091 149.804 247.804C150.248 247.514 150.765 247.369 151.355 247.369C151.696 247.369 152.033 247.426 152.365 247.54C152.698 247.653 153 247.838 153.273 248.094C153.546 248.347 153.763 248.682 153.925 249.099C154.087 249.517 154.168 250.031 154.168 250.642V251.068H149.123V250.199H153.145C153.145 249.83 153.071 249.5 152.924 249.21C152.779 248.92 152.571 248.692 152.301 248.524C152.034 248.357 151.719 248.273 151.355 248.273C150.955 248.273 150.608 248.372 150.316 248.571C150.026 248.767 149.803 249.023 149.647 249.338C149.49 249.653 149.412 249.991 149.412 250.352V250.932C149.412 251.426 149.498 251.845 149.668 252.189C149.841 252.53 150.081 252.79 150.388 252.969C150.695 253.145 151.051 253.233 151.458 253.233C151.722 253.233 151.961 253.196 152.174 253.122C152.39 253.045 152.576 252.932 152.732 252.781C152.888 252.628 153.009 252.437 153.094 252.21L154.066 252.483C153.963 252.812 153.792 253.102 153.55 253.352C153.309 253.599 153.01 253.793 152.655 253.932C152.3 254.068 151.901 254.136 151.458 254.136ZM160.078 245.273V254H159.073V245.273H160.078ZM164.665 254.136C164.034 254.136 163.49 253.997 163.033 253.719C162.578 253.438 162.227 253.045 161.98 252.543C161.736 252.037 161.614 251.449 161.614 250.778C161.614 250.108 161.736 249.517 161.98 249.006C162.227 248.491 162.571 248.091 163.011 247.804C163.455 247.514 163.972 247.369 164.562 247.369C164.903 247.369 165.24 247.426 165.572 247.54C165.905 247.653 166.207 247.838 166.48 248.094C166.753 248.347 166.97 248.682 167.132 249.099C167.294 249.517 167.375 250.031 167.375 250.642V251.068H162.33V250.199H166.352C166.352 249.83 166.278 249.5 166.131 249.21C165.986 248.92 165.778 248.692 165.509 248.524C165.241 248.357 164.926 248.273 164.562 248.273C164.162 248.273 163.815 248.372 163.523 248.571C163.233 248.767 163.01 249.023 162.854 249.338C162.697 249.653 162.619 249.991 162.619 250.352V250.932C162.619 251.426 162.705 251.845 162.875 252.189C163.048 252.53 163.288 252.79 163.595 252.969C163.902 253.145 164.259 253.233 164.665 253.233C164.929 253.233 165.168 253.196 165.381 253.122C165.597 253.045 165.783 252.932 165.939 252.781C166.095 252.628 166.216 252.437 166.301 252.21L167.273 252.483C167.17 252.812 166.999 253.102 166.757 253.352C166.516 253.599 166.217 253.793 165.862 253.932C165.507 254.068 165.108 254.136 164.665 254.136ZM170.831 254.153C170.416 254.153 170.04 254.075 169.702 253.919C169.364 253.76 169.095 253.531 168.896 253.233C168.697 252.932 168.598 252.568 168.598 252.142C168.598 251.767 168.672 251.463 168.82 251.23C168.967 250.994 169.165 250.81 169.412 250.676C169.659 250.543 169.932 250.443 170.23 250.378C170.531 250.31 170.834 250.256 171.138 250.216C171.536 250.165 171.858 250.126 172.105 250.101C172.355 250.072 172.537 250.026 172.651 249.96C172.767 249.895 172.825 249.781 172.825 249.619V249.585C172.825 249.165 172.71 248.838 172.48 248.605C172.253 248.372 171.908 248.256 171.445 248.256C170.964 248.256 170.588 248.361 170.315 248.571C170.043 248.781 169.851 249.006 169.74 249.244L168.786 248.903C168.956 248.506 169.183 248.196 169.467 247.974C169.754 247.75 170.067 247.594 170.405 247.506C170.746 247.415 171.081 247.369 171.411 247.369C171.621 247.369 171.862 247.395 172.135 247.446C172.411 247.494 172.676 247.595 172.932 247.749C173.19 247.902 173.405 248.134 173.575 248.443C173.746 248.753 173.831 249.168 173.831 249.688V254H172.825V253.114H172.774C172.706 253.256 172.592 253.408 172.433 253.57C172.274 253.732 172.063 253.869 171.798 253.983C171.534 254.097 171.212 254.153 170.831 254.153ZM170.984 253.25C171.382 253.25 171.717 253.172 171.99 253.016C172.266 252.859 172.473 252.658 172.612 252.411C172.754 252.163 172.825 251.903 172.825 251.631V250.71C172.783 250.761 172.689 250.808 172.544 250.851C172.402 250.891 172.237 250.926 172.05 250.957C171.865 250.986 171.685 251.011 171.509 251.034C171.335 251.054 171.195 251.071 171.087 251.085C170.825 251.119 170.581 251.175 170.354 251.251C170.129 251.325 169.947 251.437 169.808 251.588C169.672 251.736 169.604 251.937 169.604 252.193C169.604 252.543 169.733 252.807 169.991 252.986C170.253 253.162 170.584 253.25 170.984 253.25ZM178.138 254.136C177.593 254.136 177.111 253.999 176.694 253.723C176.276 253.445 175.949 253.053 175.713 252.547C175.478 252.038 175.36 251.438 175.36 250.744C175.36 250.057 175.478 249.46 175.713 248.955C175.949 248.449 176.277 248.058 176.698 247.783C177.118 247.507 177.604 247.369 178.155 247.369C178.581 247.369 178.918 247.44 179.165 247.582C179.415 247.722 179.605 247.881 179.736 248.06C179.87 248.236 179.973 248.381 180.047 248.494H180.132V245.273H181.138V254H180.167V252.994H180.047C179.973 253.114 179.868 253.264 179.732 253.446C179.596 253.625 179.401 253.786 179.148 253.928C178.895 254.067 178.559 254.136 178.138 254.136ZM178.275 253.233C178.678 253.233 179.019 253.128 179.297 252.918C179.576 252.705 179.787 252.411 179.932 252.036C180.077 251.658 180.15 251.222 180.15 250.727C180.15 250.239 180.078 249.811 179.936 249.445C179.794 249.075 179.584 248.788 179.306 248.584C179.027 248.376 178.684 248.273 178.275 248.273C177.848 248.273 177.493 248.382 177.209 248.601C176.928 248.817 176.716 249.111 176.574 249.483C176.435 249.852 176.365 250.267 176.365 250.727C176.365 251.193 176.436 251.616 176.578 251.997C176.723 252.375 176.936 252.676 177.218 252.901C177.502 253.122 177.854 253.233 178.275 253.233ZM189.341 247.455V248.307H185.949V247.455H189.341ZM186.938 245.886H187.944V252.125C187.944 252.409 187.985 252.622 188.067 252.764C188.152 252.903 188.26 252.997 188.391 253.045C188.525 253.091 188.665 253.114 188.813 253.114C188.924 253.114 189.015 253.108 189.086 253.097C189.157 253.082 189.213 253.071 189.256 253.062L189.461 253.966C189.392 253.991 189.297 254.017 189.175 254.043C189.053 254.071 188.898 254.085 188.711 254.085C188.426 254.085 188.148 254.024 187.875 253.902C187.605 253.78 187.381 253.594 187.202 253.344C187.026 253.094 186.938 252.778 186.938 252.398V245.886ZM193.443 254.136C192.852 254.136 192.333 253.996 191.887 253.714C191.444 253.433 191.098 253.04 190.848 252.534C190.6 252.028 190.477 251.437 190.477 250.761C190.477 250.08 190.6 249.484 190.848 248.976C191.098 248.467 191.444 248.072 191.887 247.791C192.333 247.51 192.852 247.369 193.443 247.369C194.034 247.369 194.551 247.51 194.994 247.791C195.44 248.072 195.787 248.467 196.034 248.976C196.284 249.484 196.409 250.08 196.409 250.761C196.409 251.437 196.284 252.028 196.034 252.534C195.787 253.04 195.44 253.433 194.994 253.714C194.551 253.996 194.034 254.136 193.443 254.136ZM193.443 253.233C193.892 253.233 194.261 253.118 194.551 252.888C194.841 252.658 195.055 252.355 195.194 251.98C195.333 251.605 195.403 251.199 195.403 250.761C195.403 250.324 195.333 249.916 195.194 249.538C195.055 249.161 194.841 248.855 194.551 248.622C194.261 248.389 193.892 248.273 193.443 248.273C192.994 248.273 192.625 248.389 192.335 248.622C192.045 248.855 191.831 249.161 191.691 249.538C191.552 249.916 191.483 250.324 191.483 250.761C191.483 251.199 191.552 251.605 191.691 251.98C191.831 252.355 192.045 252.658 192.335 252.888C192.625 253.118 192.994 253.233 193.443 253.233ZM204.165 247.455V248.307H200.773V247.455H204.165ZM201.762 245.886H202.768V252.125C202.768 252.409 202.809 252.622 202.891 252.764C202.977 252.903 203.085 252.997 203.215 253.045C203.349 253.091 203.489 253.114 203.637 253.114C203.748 253.114 203.839 253.108 203.91 253.097C203.981 253.082 204.038 253.071 204.08 253.062L204.285 253.966C204.217 253.991 204.121 254.017 203.999 254.043C203.877 254.071 203.722 254.085 203.535 254.085C203.251 254.085 202.972 254.024 202.7 253.902C202.43 253.78 202.205 253.594 202.026 253.344C201.85 253.094 201.762 252.778 201.762 252.398V245.886ZM206.825 250.062V254H205.819V245.273H206.825V248.477H206.91C207.063 248.139 207.293 247.871 207.6 247.672C207.91 247.47 208.322 247.369 208.836 247.369C209.282 247.369 209.673 247.459 210.008 247.638C210.343 247.814 210.603 248.085 210.788 248.452C210.975 248.815 211.069 249.278 211.069 249.841V254H210.063V249.909C210.063 249.389 209.928 248.987 209.658 248.703C209.391 248.416 209.021 248.273 208.546 248.273C208.217 248.273 207.921 248.342 207.66 248.482C207.401 248.621 207.197 248.824 207.046 249.091C206.898 249.358 206.825 249.682 206.825 250.062ZM215.653 254.136C215.022 254.136 214.478 253.997 214.021 253.719C213.566 253.438 213.216 253.045 212.968 252.543C212.724 252.037 212.602 251.449 212.602 250.778C212.602 250.108 212.724 249.517 212.968 249.006C213.216 248.491 213.559 248.091 214 247.804C214.443 247.514 214.96 247.369 215.551 247.369C215.892 247.369 216.228 247.426 216.561 247.54C216.893 247.653 217.196 247.838 217.468 248.094C217.741 248.347 217.958 248.682 218.12 249.099C218.282 249.517 218.363 250.031 218.363 250.642V251.068H213.318V250.199H217.341C217.341 249.83 217.267 249.5 217.119 249.21C216.974 248.92 216.767 248.692 216.497 248.524C216.23 248.357 215.914 248.273 215.551 248.273C215.15 248.273 214.804 248.372 214.511 248.571C214.221 248.767 213.998 249.023 213.842 249.338C213.686 249.653 213.608 249.991 213.608 250.352V250.932C213.608 251.426 213.693 251.845 213.863 252.189C214.037 252.53 214.277 252.79 214.583 252.969C214.89 253.145 215.247 253.233 215.653 253.233C215.917 253.233 216.156 253.196 216.369 253.122C216.585 253.045 216.771 252.932 216.927 252.781C217.083 252.628 217.204 252.437 217.289 252.21L218.261 252.483C218.159 252.812 217.987 253.102 217.745 253.352C217.504 253.599 217.206 253.793 216.85 253.932C216.495 254.068 216.096 254.136 215.653 254.136ZM227.904 248.92L227.001 249.176C226.944 249.026 226.86 248.879 226.75 248.737C226.642 248.592 226.494 248.473 226.306 248.379C226.119 248.286 225.879 248.239 225.586 248.239C225.186 248.239 224.852 248.331 224.585 248.516C224.321 248.697 224.189 248.929 224.189 249.21C224.189 249.46 224.279 249.658 224.461 249.803C224.643 249.947 224.927 250.068 225.314 250.165L226.285 250.403C226.87 250.545 227.306 250.763 227.593 251.055C227.88 251.345 228.024 251.719 228.024 252.176C228.024 252.551 227.916 252.886 227.7 253.182C227.487 253.477 227.189 253.71 226.805 253.881C226.422 254.051 225.975 254.136 225.467 254.136C224.799 254.136 224.247 253.991 223.809 253.702C223.372 253.412 223.095 252.989 222.978 252.432L223.933 252.193C224.024 252.545 224.196 252.81 224.449 252.986C224.704 253.162 225.038 253.25 225.45 253.25C225.919 253.25 226.291 253.151 226.566 252.952C226.845 252.75 226.984 252.509 226.984 252.227C226.984 252 226.904 251.81 226.745 251.656C226.586 251.5 226.342 251.384 226.012 251.307L224.922 251.051C224.322 250.909 223.882 250.689 223.6 250.391C223.322 250.089 223.183 249.713 223.183 249.261C223.183 248.892 223.287 248.565 223.494 248.281C223.704 247.997 223.99 247.774 224.35 247.612C224.714 247.45 225.126 247.369 225.586 247.369C226.234 247.369 226.743 247.511 227.112 247.795C227.484 248.08 227.748 248.455 227.904 248.92ZM231.464 254.153C231.049 254.153 230.673 254.075 230.335 253.919C229.996 253.76 229.728 253.531 229.529 253.233C229.33 252.932 229.231 252.568 229.231 252.142C229.231 251.767 229.305 251.463 229.452 251.23C229.6 250.994 229.798 250.81 230.045 250.676C230.292 250.543 230.565 250.443 230.863 250.378C231.164 250.31 231.467 250.256 231.771 250.216C232.168 250.165 232.491 250.126 232.738 250.101C232.988 250.072 233.17 250.026 233.283 249.96C233.4 249.895 233.458 249.781 233.458 249.619V249.585C233.458 249.165 233.343 248.838 233.113 248.605C232.886 248.372 232.54 248.256 232.077 248.256C231.597 248.256 231.221 248.361 230.948 248.571C230.675 248.781 230.484 249.006 230.373 249.244L229.418 248.903C229.589 248.506 229.816 248.196 230.1 247.974C230.387 247.75 230.7 247.594 231.038 247.506C231.379 247.415 231.714 247.369 232.043 247.369C232.254 247.369 232.495 247.395 232.768 247.446C233.043 247.494 233.309 247.595 233.565 247.749C233.823 247.902 234.038 248.134 234.208 248.443C234.379 248.753 234.464 249.168 234.464 249.688V254H233.458V253.114H233.407C233.339 253.256 233.225 253.408 233.066 253.57C232.907 253.732 232.695 253.869 232.431 253.983C232.167 254.097 231.844 254.153 231.464 254.153ZM231.617 253.25C232.015 253.25 232.35 253.172 232.623 253.016C232.898 252.859 233.106 252.658 233.245 252.411C233.387 252.163 233.458 251.903 233.458 251.631V250.71C233.415 250.761 233.322 250.808 233.177 250.851C233.035 250.891 232.87 250.926 232.683 250.957C232.498 250.986 232.317 251.011 232.141 251.034C231.968 251.054 231.827 251.071 231.719 251.085C231.458 251.119 231.214 251.175 230.987 251.251C230.762 251.325 230.58 251.437 230.441 251.588C230.305 251.736 230.237 251.937 230.237 252.193C230.237 252.543 230.366 252.807 230.624 252.986C230.886 253.162 231.217 253.25 231.617 253.25ZM237.305 245.273V254H236.299V245.273H237.305ZM241.891 254.136C241.261 254.136 240.717 253.997 240.259 253.719C239.805 253.438 239.454 253.045 239.207 252.543C238.962 252.037 238.84 251.449 238.84 250.778C238.84 250.108 238.962 249.517 239.207 249.006C239.454 248.491 239.798 248.091 240.238 247.804C240.681 247.514 241.198 247.369 241.789 247.369C242.13 247.369 242.467 247.426 242.799 247.54C243.131 247.653 243.434 247.838 243.707 248.094C243.979 248.347 244.197 248.682 244.359 249.099C244.521 249.517 244.602 250.031 244.602 250.642V251.068H239.556V250.199H243.579C243.579 249.83 243.505 249.5 243.357 249.21C243.212 248.92 243.005 248.692 242.735 248.524C242.468 248.357 242.153 248.273 241.789 248.273C241.388 248.273 241.042 248.372 240.749 248.571C240.46 248.767 240.237 249.023 240.08 249.338C239.924 249.653 239.846 249.991 239.846 250.352V250.932C239.846 251.426 239.931 251.845 240.102 252.189C240.275 252.53 240.515 252.79 240.822 252.969C241.129 253.145 241.485 253.233 241.891 253.233C242.156 253.233 242.394 253.196 242.607 253.122C242.823 253.045 243.009 252.932 243.165 252.781C243.322 252.628 243.442 252.437 243.528 252.21L244.499 252.483C244.397 252.812 244.225 253.102 243.984 253.352C243.742 253.599 243.444 253.793 243.089 253.932C242.734 254.068 242.335 254.136 241.891 254.136ZM250.768 248.92L249.864 249.176C249.808 249.026 249.724 248.879 249.613 248.737C249.505 248.592 249.357 248.473 249.17 248.379C248.982 248.286 248.742 248.239 248.45 248.239C248.049 248.239 247.715 248.331 247.448 248.516C247.184 248.697 247.052 248.929 247.052 249.21C247.052 249.46 247.143 249.658 247.325 249.803C247.506 249.947 247.79 250.068 248.177 250.165L249.148 250.403C249.734 250.545 250.17 250.763 250.457 251.055C250.744 251.345 250.887 251.719 250.887 252.176C250.887 252.551 250.779 252.886 250.563 253.182C250.35 253.477 250.052 253.71 249.668 253.881C249.285 254.051 248.839 254.136 248.33 254.136C247.663 254.136 247.11 253.991 246.673 253.702C246.235 253.412 245.958 252.989 245.842 252.432L246.796 252.193C246.887 252.545 247.059 252.81 247.312 252.986C247.567 253.162 247.901 253.25 248.313 253.25C248.782 253.25 249.154 253.151 249.43 252.952C249.708 252.75 249.847 252.509 249.847 252.227C249.847 252 249.768 251.81 249.609 251.656C249.45 251.5 249.205 251.384 248.876 251.307L247.785 251.051C247.185 250.909 246.745 250.689 246.464 250.391C246.185 250.089 246.046 249.713 246.046 249.261C246.046 248.892 246.15 248.565 246.357 248.281C246.567 247.997 246.853 247.774 247.214 247.612C247.577 247.45 247.989 247.369 248.45 247.369C249.097 247.369 249.606 247.511 249.975 247.795C250.347 248.08 250.612 248.455 250.768 248.92ZM258.623 247.455V248.307H255.23V247.455H258.623ZM256.219 245.886H257.225V252.125C257.225 252.409 257.266 252.622 257.348 252.764C257.434 252.903 257.542 252.997 257.672 253.045C257.806 253.091 257.946 253.114 258.094 253.114C258.205 253.114 258.296 253.108 258.367 253.097C258.438 253.082 258.495 253.071 258.537 253.062L258.742 253.966C258.674 253.991 258.578 254.017 258.456 254.043C258.334 254.071 258.179 254.085 257.992 254.085C257.708 254.085 257.429 254.024 257.157 253.902C256.887 253.78 256.662 253.594 256.483 253.344C256.307 253.094 256.219 252.778 256.219 252.398V245.886ZM262.809 254.136C262.179 254.136 261.635 253.997 261.177 253.719C260.723 253.438 260.372 253.045 260.125 252.543C259.88 252.037 259.758 251.449 259.758 250.778C259.758 250.108 259.88 249.517 260.125 249.006C260.372 248.491 260.716 248.091 261.156 247.804C261.599 247.514 262.116 247.369 262.707 247.369C263.048 247.369 263.385 247.426 263.717 247.54C264.049 247.653 264.352 247.838 264.625 248.094C264.897 248.347 265.115 248.682 265.277 249.099C265.439 249.517 265.52 250.031 265.52 250.642V251.068H260.474V250.199H264.497C264.497 249.83 264.423 249.5 264.275 249.21C264.13 248.92 263.923 248.692 263.653 248.524C263.386 248.357 263.071 248.273 262.707 248.273C262.306 248.273 261.96 248.372 261.667 248.571C261.377 248.767 261.154 249.023 260.998 249.338C260.842 249.653 260.764 249.991 260.764 250.352V250.932C260.764 251.426 260.849 251.845 261.02 252.189C261.193 252.53 261.433 252.79 261.74 252.969C262.047 253.145 262.403 253.233 262.809 253.233C263.074 253.233 263.312 253.196 263.525 253.122C263.741 253.045 263.927 252.932 264.083 252.781C264.24 252.628 264.36 252.437 264.446 252.21L265.417 252.483C265.315 252.812 265.143 253.102 264.902 253.352C264.66 253.599 264.362 253.793 264.007 253.932C263.652 254.068 263.252 254.136 262.809 254.136ZM268.975 254.153C268.561 254.153 268.184 254.075 267.846 253.919C267.508 253.76 267.24 253.531 267.041 253.233C266.842 252.932 266.743 252.568 266.743 252.142C266.743 251.767 266.816 251.463 266.964 251.23C267.112 250.994 267.309 250.81 267.556 250.676C267.804 250.543 268.076 250.443 268.375 250.378C268.676 250.31 268.978 250.256 269.282 250.216C269.68 250.165 270.002 250.126 270.25 250.101C270.5 250.072 270.681 250.026 270.795 249.96C270.912 249.895 270.97 249.781 270.97 249.619V249.585C270.97 249.165 270.855 248.838 270.625 248.605C270.397 248.372 270.052 248.256 269.589 248.256C269.109 248.256 268.733 248.361 268.46 248.571C268.187 248.781 267.995 249.006 267.885 249.244L266.93 248.903C267.1 248.506 267.328 248.196 267.612 247.974C267.899 247.75 268.211 247.594 268.549 247.506C268.89 247.415 269.225 247.369 269.555 247.369C269.765 247.369 270.007 247.395 270.279 247.446C270.555 247.494 270.821 247.595 271.076 247.749C271.335 247.902 271.549 248.134 271.72 248.443C271.89 248.753 271.975 249.168 271.975 249.688V254H270.97V253.114H270.919C270.85 253.256 270.737 253.408 270.578 253.57C270.419 253.732 270.207 253.869 269.943 253.983C269.679 254.097 269.356 254.153 268.975 254.153ZM269.129 253.25C269.527 253.25 269.862 253.172 270.135 253.016C270.41 252.859 270.618 252.658 270.757 252.411C270.899 252.163 270.97 251.903 270.97 251.631V250.71C270.927 250.761 270.833 250.808 270.689 250.851C270.547 250.891 270.382 250.926 270.194 250.957C270.01 250.986 269.829 251.011 269.653 251.034C269.48 251.054 269.339 251.071 269.231 251.085C268.97 251.119 268.725 251.175 268.498 251.251C268.274 251.325 268.092 251.437 267.953 251.588C267.816 251.736 267.748 251.937 267.748 252.193C267.748 252.543 267.877 252.807 268.136 252.986C268.397 253.162 268.728 253.25 269.129 253.25ZM273.811 254V247.455H274.783V248.477H274.868C275.004 248.128 275.224 247.857 275.528 247.663C275.832 247.467 276.197 247.369 276.624 247.369C277.055 247.369 277.415 247.467 277.702 247.663C277.991 247.857 278.217 248.128 278.379 248.477H278.447C278.615 248.139 278.866 247.871 279.202 247.672C279.537 247.47 279.939 247.369 280.408 247.369C280.993 247.369 281.472 247.553 281.844 247.919C282.216 248.283 282.402 248.849 282.402 249.619V254H281.396V249.619C281.396 249.136 281.264 248.791 281 248.584C280.736 248.376 280.425 248.273 280.067 248.273C279.607 248.273 279.25 248.412 278.997 248.69C278.744 248.966 278.618 249.315 278.618 249.739V254H277.595V249.517C277.595 249.145 277.474 248.845 277.233 248.618C276.991 248.388 276.68 248.273 276.3 248.273C276.038 248.273 275.794 248.342 275.567 248.482C275.342 248.621 275.161 248.814 275.021 249.061C274.885 249.305 274.817 249.588 274.817 249.909V254H273.811ZM284.974 254.068C284.763 254.068 284.583 253.993 284.433 253.842C284.282 253.692 284.207 253.511 284.207 253.301C284.207 253.091 284.282 252.911 284.433 252.76C284.583 252.609 284.763 252.534 284.974 252.534C285.184 252.534 285.364 252.609 285.515 252.76C285.665 252.911 285.741 253.091 285.741 253.301C285.741 253.44 285.705 253.568 285.634 253.685C285.566 253.801 285.474 253.895 285.357 253.966C285.244 254.034 285.116 254.068 284.974 254.068Z" fill="#717784"/>
</g>
<g filter="url(#filter2_d_7841_8073)">
<rect x="222" y="130" width="12" height="12" rx="6" fill="white" shape-rendering="crispEdges"/>
<circle cx="228" cy="136" r="4" fill="#F06225"/>
</g>
<g filter="url(#filter3_d_7841_8073)">
<rect x="222" y="170" width="12" height="12" rx="6" fill="white" shape-rendering="crispEdges"/>
<circle cx="228" cy="176" r="4" fill="#F06225"/>
</g>
</g>
<defs>
<filter id="filter0_d_7841_8073" x="75" y="36" width="306" height="101" filterUnits="userSpaceOnUse" color-interpolation-filters="sRGB">
<feFlood flood-opacity="0" result="BackgroundImageFix"/>
<feColorMatrix in="SourceAlpha" type="matrix" values="0 0 0 0 0 0 0 0 0 0 0 0 0 0 0 0 0 0 127 0" result="hardAlpha"/>
<feOffset/>
<feGaussianBlur stdDeviation="4"/>
<feColorMatrix type="matrix" values="0 0 0 0 0 0 0 0 0 0 0 0 0 0 0 0 0 0 0.06 0"/>
<feBlend mode="normal" in2="BackgroundImageFix" result="effect1_dropShadow_7841_8073"/>
<feBlend mode="normal" in="SourceGraphic" in2="effect1_dropShadow_7841_8073" result="shape"/>
</filter>
<filter id="filter1_d_7841_8073" x="75" y="176" width="306" height="101" filterUnits="userSpaceOnUse" color-interpolation-filters="sRGB">
<feFlood flood-opacity="0" result="BackgroundImageFix"/>
<feColorMatrix in="SourceAlpha" type="matrix" values="0 0 0 0 0 0 0 0 0 0 0 0 0 0 0 0 0 0 127 0" result="hardAlpha"/>
<feOffset/>
<feGaussianBlur stdDeviation="4"/>
<feColorMatrix type="matrix" values="0 0 0 0 0 0 0 0 0 0 0 0 0 0 0 0 0 0 0.06 0"/>
<feBlend mode="normal" in2="BackgroundImageFix" result="effect1_dropShadow_7841_8073"/>
<feBlend mode="normal" in="SourceGraphic" in2="effect1_dropShadow_7841_8073" result="shape"/>
</filter>
<filter id="filter2_d_7841_8073" x="214" y="122" width="28" height="28" filterUnits="userSpaceOnUse" color-interpolation-filters="sRGB">
<feFlood flood-opacity="0" result="BackgroundImageFix"/>
<feColorMatrix in="SourceAlpha" type="matrix" values="0 0 0 0 0 0 0 0 0 0 0 0 0 0 0 0 0 0 127 0" result="hardAlpha"/>
<feOffset/>
<feGaussianBlur stdDeviation="4"/>
<feComposite in2="hardAlpha" operator="out"/>
<feColorMatrix type="matrix" values="0 0 0 0 0 0 0 0 0 0 0 0 0 0 0 0 0 0 0.12 0"/>
<feBlend mode="normal" in2="BackgroundImageFix" result="effect1_dropShadow_7841_8073"/>
<feBlend mode="normal" in="SourceGraphic" in2="effect1_dropShadow_7841_8073" result="shape"/>
</filter>
<filter id="filter3_d_7841_8073" x="214" y="162" width="28" height="28" filterUnits="userSpaceOnUse" color-interpolation-filters="sRGB">
<feFlood flood-opacity="0" result="BackgroundImageFix"/>
<feColorMatrix in="SourceAlpha" type="matrix" values="0 0 0 0 0 0 0 0 0 0 0 0 0 0 0 0 0 0 127 0" result="hardAlpha"/>
<feOffset/>
<feGaussianBlur stdDeviation="4"/>
<feComposite in2="hardAlpha" operator="out"/>
<feColorMatrix type="matrix" values="0 0 0 0 0 0 0 0 0 0 0 0 0 0 0 0 0 0 0.12 0"/>
<feBlend mode="normal" in2="BackgroundImageFix" result="effect1_dropShadow_7841_8073"/>
<feBlend mode="normal" in="SourceGraphic" in2="effect1_dropShadow_7841_8073" result="shape"/>
</filter>
<clipPath id="clip0_7841_8073">
<rect width="455.5" height="312" fill="white"/>
</clipPath>
</defs>
</svg>
