<svg width="1184" height="364" viewBox="0 0 1184 364" fill="none" xmlns="http://www.w3.org/2000/svg">
<g clip-path="url(#clip0_9121_4427)">
<rect width="1184" height="364" rx="12" fill="url(#paint0_linear_9121_4427)"/>
<g opacity="0.04">
<path d="M46.1663 457.762C34.956 451.412 28.0501 439.676 28.0501 426.976L28.05 182.024C28.05 169.324 34.9559 157.589 46.1662 151.238L262.384 28.7626C273.594 22.4125 287.406 22.4125 298.616 28.7626L465.052 123.04L410.704 153.826L280.5 80.072L82.3986 192.286L82.3987 416.714L211.93 490.087L211.93 551.658L46.1663 457.762Z" fill="url(#paint1_linear_9121_4427)"/>
<path d="M477.669 191.758L527.619 163.464C531.048 168.959 532.95 175.359 532.95 182.024L532.95 426.976C532.95 439.676 526.044 451.411 514.834 457.762L298.616 580.237C292.822 583.52 286.332 585.106 279.866 584.995L279.863 319.003C279.863 309.457 285.065 300.64 293.502 295.885L477.958 191.922L477.669 191.758Z" fill="url(#paint2_linear_9121_4427)"/>
</g>
</g>
<defs>
<linearGradient id="paint0_linear_9121_4427" x1="592" y1="0" x2="592" y2="364" gradientUnits="userSpaceOnUse">
<stop offset="0.389329" stop-color="#0E121B"/>
<stop offset="0.808632" stop-color="#2B303B"/>
</linearGradient>
<linearGradient id="paint1_linear_9121_4427" x1="280.5" y1="24.0001" x2="280.5" y2="585" gradientUnits="userSpaceOnUse">
<stop stop-color="white"/>
<stop offset="0.761119" stop-color="white" stop-opacity="0"/>
</linearGradient>
<linearGradient id="paint2_linear_9121_4427" x1="280.5" y1="24.0001" x2="280.5" y2="585" gradientUnits="userSpaceOnUse">
<stop stop-color="white"/>
<stop offset="0.761119" stop-color="white" stop-opacity="0"/>
</linearGradient>
<clipPath id="clip0_9121_4427">
<rect width="1184" height="364" rx="12" fill="white"/>
</clipPath>
</defs>
</svg>
